<svg xmlns="http://www.w3.org/2000/svg"  viewBox="0 0 64 64" width="204px" height="204px"><path fill="#dff3e3" d="M57,3H7C4.791,3,3,4.791,3,7v36h58V7C61,4.791,59.209,3,57,3z M36.058,23.886	c-0.635,0.375-1.326,0.663-2.058,0.852V27h-4v-2.262c-0.732-0.189-1.422-0.477-2.058-0.852l-1.599,1.599l-2.828-2.828l1.599-1.599	c-0.375-0.635-0.663-1.326-0.852-2.058H22v-4h2.262c0.189-0.732,0.477-1.422,0.852-2.058l-1.599-1.599l2.828-2.828l1.599,1.599	C28.578,9.739,29.268,9.451,30,9.262V7h4v2.262c0.732,0.189,1.422,0.477,2.058,0.852l1.599-1.599l2.828,2.828l-1.599,1.599	c0.375,0.635,0.663,1.326,0.852,2.058H42v4h-2.262c-0.189,0.732-0.477,1.422-0.852,2.058l1.599,1.599l-2.828,2.828L36.058,23.886z"/><path fill="#bee5bf" d="M3,45c0,2.209,1.791,4,4,4h21h8h21c2.209,0,4-1.791,4-4v-2H3V45z"/><polygon fill="#dff3e3" points="26,57 38,57 36,49 28,49"/><path fill="#bee5bf" d="M18,57c0,2.209,1.791,4,4,4h20c2.209,0,4-1.791,4-4h-8H26H18z"/><path fill="#ce7da5" d="M38.886,21.058c0.375-0.635,0.663-1.326,0.852-2.058H42v-4h-2.262	c-0.189-0.732-0.477-1.422-0.852-2.058l1.599-1.599l-2.828-2.828l-1.599,1.599C35.422,9.739,34.732,9.451,34,9.262V7h-4v2.262	c-0.732,0.189-1.422,0.477-2.058,0.852l-1.599-1.599l-2.828,2.828l1.599,1.599c-0.375,0.635-0.663,1.326-0.852,2.058H22v4h2.262	c0.189,0.732,0.477,1.422,0.852,2.058l-1.599,1.599l2.828,2.828l1.599-1.599c0.635,0.375,1.326,0.663,2.058,0.852V27h4v-2.262	c0.732-0.189,1.422-0.477,2.058-0.852l1.599,1.599l2.828-2.828L38.886,21.058z M32,21c-2.209,0-4-1.791-4-4c0-2.209,1.791-4,4-4	s4,1.791,4,4C36,19.209,34.209,21,32,21z"/><circle cx="32" cy="17" r="4" fill="#dff3e3"/><path fill="#493657" d="M57,2H7C4.243,2,2,4.243,2,7v38c0,2.757,2.243,5,5,5h19.72l-1.5,6H18c-0.553,0-1,0.448-1,1	c0,2.757,2.243,5,5,5h20c2.757,0,5-2.243,5-5c0-0.552-0.447-1-1-1h-7.22l-1.5-6H57c2.757,0,5-2.243,5-5V7C62,4.243,59.757,2,57,2z M7,4h50c1.654,0,3,1.346,3,3v35H4V7C4,5.346,5.346,4,7,4z M42,60H22c-1.304,0-2.416-0.836-2.829-2H26h12h6.829	C44.416,59.164,43.304,60,42,60z M36.719,56h-9.438l1.5-6h6.438L36.719,56z M57,48H36h-8H7c-1.654,0-3-1.346-3-3v-1h56v1	C60,46.654,58.654,48,57,48z"/><path fill="#493657" d="M23.293,30.293l-4,4c-0.391,0.391-0.391,1.023,0,1.414l4,4l1.414-1.414L21.414,35l3.293-3.293	L23.293,30.293z"/><rect width="10" height="2" x="27" y="34" fill="#493657" transform="rotate(-53.117 32 35)"/><path fill="#493657" d="M40.707,30.293l-1.414,1.414L42.586,35l-3.293,3.293l1.414,1.414l4-4	c0.391-0.391,0.391-1.023,0-1.414L40.707,30.293z"/><path fill="#493657" d="M22,20h1.522c0.105,0.297,0.227,0.589,0.361,0.873l-1.076,1.077	c-0.188,0.188-0.293,0.442-0.293,0.707s0.105,0.52,0.293,0.707l2.828,2.829c0.391,0.391,1.023,0.391,1.414,0l1.077-1.076	c0.284,0.135,0.575,0.256,0.873,0.361V27c0,0.552,0.447,1,1,1h4c0.553,0,1-0.448,1-1v-1.522c0.298-0.105,0.589-0.226,0.873-0.361	l1.077,1.076c0.391,0.391,1.023,0.391,1.414,0l2.828-2.829c0.188-0.188,0.293-0.442,0.293-0.707s-0.105-0.52-0.293-0.707	l-1.076-1.077c0.135-0.284,0.256-0.576,0.361-0.873H42c0.553,0,1-0.448,1-1v-4c0-0.552-0.447-1-1-1h-1.522	c-0.105-0.297-0.227-0.589-0.361-0.873l1.076-1.077c0.188-0.188,0.293-0.442,0.293-0.707s-0.105-0.52-0.293-0.707l-2.828-2.829	c-0.391-0.391-1.023-0.391-1.414,0l-1.077,1.076C35.589,8.749,35.298,8.628,35,8.522V7c0-0.552-0.447-1-1-1h-4c-0.553,0-1,0.448-1,1	v1.522c-0.298,0.105-0.589,0.226-0.873,0.361L27.05,7.808c-0.391-0.391-1.023-0.391-1.414,0l-2.828,2.829	c-0.188,0.188-0.293,0.442-0.293,0.707s0.105,0.52,0.293,0.707l1.076,1.077c-0.135,0.284-0.256,0.576-0.361,0.873H22	c-0.553,0-1,0.448-1,1v4C21,19.552,21.447,20,22,20z M23,16h1.262c0.456,0,0.854-0.308,0.968-0.75c0.164-0.634,0.415-1.24,0.746-1.8	c0.231-0.393,0.168-0.893-0.154-1.215l-0.893-0.892l1.414-1.415l0.893,0.892c0.322,0.323,0.824,0.387,1.216,0.154	c0.559-0.33,1.164-0.58,1.799-0.744C30.691,10.117,31,9.718,31,9.262V8h2v1.262c0,0.456,0.309,0.854,0.75,0.968	c0.635,0.164,1.24,0.414,1.799,0.744c0.391,0.231,0.894,0.17,1.216-0.154l0.893-0.892l1.414,1.415l-0.893,0.892	c-0.322,0.322-0.386,0.822-0.154,1.215c0.331,0.56,0.582,1.166,0.746,1.8c0.114,0.441,0.512,0.75,0.968,0.75H41v2h-1.262	c-0.456,0-0.854,0.308-0.968,0.75c-0.164,0.634-0.415,1.24-0.746,1.8c-0.231,0.393-0.168,0.893,0.154,1.215l0.893,0.892	l-1.414,1.415l-0.893-0.892c-0.322-0.323-0.823-0.386-1.216-0.154c-0.559,0.33-1.164,0.58-1.799,0.744	C33.309,23.883,33,24.282,33,24.738V26h-2v-1.262c0-0.456-0.309-0.854-0.75-0.968c-0.635-0.164-1.24-0.414-1.799-0.744	c-0.392-0.232-0.894-0.17-1.216,0.154l-0.893,0.892l-1.414-1.415l0.893-0.892c0.322-0.322,0.386-0.822,0.154-1.215	c-0.331-0.56-0.582-1.166-0.746-1.8C25.115,18.308,24.718,18,24.262,18H23V16z"/><path fill="#493657" d="M32,22c2.757,0,5-2.243,5-5s-2.243-5-5-5s-5,2.243-5,5S29.243,22,32,22z M32,14c1.654,0,3,1.346,3,3	s-1.346,3-3,3s-3-1.346-3-3S30.346,14,32,14z"/><rect width="2" height="2" x="18" y="10" fill="#493657"/><rect width="2" height="2" x="14" y="10" fill="#493657"/><rect width="2" height="2" x="10" y="10" fill="#493657"/><rect width="2" height="2" x="6" y="10" fill="#493657"/><rect width="2" height="2" x="6" y="14" fill="#493657"/><rect width="2" height="2" x="6" y="18" fill="#493657"/><rect width="2" height="2" x="6" y="22" fill="#493657"/><rect width="2" height="2" x="6" y="26" fill="#493657"/><rect width="2" height="2" x="6" y="30" fill="#493657"/><rect width="2" height="2" x="6" y="34" fill="#493657"/><rect width="2" height="2" x="10" y="34" fill="#493657"/><rect width="2" height="2" x="14" y="34" fill="#493657"/><rect width="2" height="2" x="48" y="34" fill="#493657"/><rect width="2" height="2" x="52" y="34" fill="#493657"/><rect width="2" height="2" x="56" y="34" fill="#493657"/><rect width="2" height="2" x="56" y="30" fill="#493657"/><rect width="2" height="2" x="56" y="26" fill="#493657"/><rect width="2" height="2" x="56" y="22" fill="#493657"/><rect width="2" height="2" x="56" y="18" fill="#493657"/><rect width="2" height="2" x="56" y="14" fill="#493657"/><rect width="2" height="2" x="56" y="10" fill="#493657"/><rect width="2" height="2" x="52" y="10" fill="#493657"/><rect width="2" height="2" x="48" y="10" fill="#493657"/><rect width="2" height="2" x="44" y="10" fill="#493657"/></svg>