<svg xmlns="http://www.w3.org/2000/svg"  viewBox="0 0 256 256" width="204px" height="204px"><path fill="#f4efed" d="M243.15,191.318H12.85c-4.888,0-8.85-3.962-8.85-8.85V40.672c0-4.888,3.962-8.85,8.85-8.85h230.3 c4.888,0,8.85,3.962,8.85,8.85v141.796C252,187.356,248.038,191.318,243.15,191.318z"/><path fill="#d6d1cf" d="M243.15,31.822h-10c4.888,0,8.85,3.962,8.85,8.85v141.796c0,4.888-3.962,8.85-8.85,8.85h10 c4.888,0,8.85-3.962,8.85-8.85V40.672C252,35.784,248.038,31.822,243.15,31.822z"/><path fill="#fff" d="M12.85,191.318h10c-4.888,0-8.85-3.962-8.85-8.85V40.672c0-4.888,3.962-8.85,8.85-8.85h-10 c-4.888,0-8.85,3.962-8.85,8.85v141.796C4,187.356,7.962,191.318,12.85,191.318z"/><path fill="#7bac51" d="M208.901,224.178H47.099v-11.854c0-4.888,3.962-8.85,8.85-8.85h144.102c4.888,0,8.85,3.962,8.85,8.85V224.178 z"/><path fill="#5d8e33" d="M200.051,203.474h-10c4.888,0,8.85,3.962,8.85,8.85v11.855h10v-11.855 C208.901,207.436,204.939,203.474,200.051,203.474z"/><path fill="#99ca6f" d="M55.949,203.474h10c-4.888,0-8.85,3.962-8.85,8.85v11.855h-10v-11.855 C47.099,207.436,51.061,203.474,55.949,203.474z"/><rect width="94.993" height="12.156" x="80.503" y="191.318" fill="#5d8e33"/><path fill="#690589" d="M12,69.026c-1.104,0-2-0.896-2-2v-12c0-1.104,0.896-2,2-2s2,0.896,2,2v12C14,68.13,13.104,69.026,12,69.026z"/><path fill="#690589" d="M208.901,226.178H47.099c-1.104,0-2-0.896-2-2v-11.854c0-5.983,4.867-10.85,10.851-10.85h144.102 c5.983,0,10.851,4.867,10.851,10.85v11.854C210.901,225.283,210.006,226.178,208.901,226.178z M49.099,222.178h157.803v-9.854 c0-3.777-3.073-6.85-6.851-6.85H55.949c-3.777,0-6.851,3.073-6.851,6.85V222.178z"/><path fill="#690589" d="M175.497,205.474H80.503c-1.104,0-2-0.896-2-2v-12.155c0-1.104,0.896-2,2-2h94.994c1.104,0,2,0.896,2,2 v12.155C177.497,204.578,176.602,205.474,175.497,205.474z M82.503,201.474h90.994v-8.155H82.503V201.474z"/><path fill="#690589" d="M243.15,193.318H12.85c-5.982,0-10.85-4.867-10.85-10.85V40.672c0-5.983,4.867-10.85,10.85-10.85H243.15 c5.982,0,10.85,4.867,10.85,10.85v141.796C254,188.451,249.133,193.318,243.15,193.318z M12.85,33.822 c-3.777,0-6.85,3.073-6.85,6.85v141.796c0,3.777,3.072,6.85,6.85,6.85H243.15c3.777,0,6.85-3.073,6.85-6.85V40.672 c0-3.777-3.072-6.85-6.85-6.85H12.85z"/><path fill="#fcc24c" d="M193.063,122.728v-21.795h-12.061c-1.401-6.85-4.105-13.223-7.829-18.863l8.54-8.54l-15.412-15.412 l-8.54,8.54c-5.641-3.724-12.013-6.428-18.863-7.829V46.767h-21.795v12.061c-6.851,1.401-13.223,4.106-18.864,7.829l-8.54-8.54 L74.287,73.529l8.54,8.54c-3.724,5.64-6.428,12.013-7.829,18.863H62.937v21.795h12.061c1.401,6.85,4.105,13.223,7.829,18.864 l-8.54,8.54l15.412,15.412l8.539-8.54c5.641,3.724,12.013,6.428,18.864,7.829v12.061h21.795v-12.061 c6.851-1.401,13.223-4.106,18.864-7.829l8.54,8.54l15.412-15.412l-8.54-8.54c3.724-5.641,6.428-12.013,7.829-18.864H193.063z M128,147.118c-19.489,0-35.288-15.799-35.288-35.288c0-19.489,15.799-35.288,35.288-35.288c19.489,0,35.288,15.799,35.288,35.288 C163.288,131.319,147.489,147.118,128,147.118z"/><path fill="#690589" d="M138.897,178.893h-21.795c-1.104,0-2-0.896-2-2V166.44c-5.865-1.379-11.432-3.69-16.587-6.886l-7.402,7.402 c-0.75,0.75-2.078,0.75-2.828,0l-15.412-15.412c-0.375-0.375-0.586-0.884-0.586-1.414s0.211-1.039,0.586-1.414l7.402-7.403 c-3.195-5.155-5.506-10.721-6.885-16.586H62.937c-1.104,0-2-0.896-2-2v-21.795c0-1.104,0.896-2,2-2h10.454 c1.379-5.865,3.69-11.432,6.885-16.586l-7.402-7.403c-0.375-0.375-0.586-0.884-0.586-1.414s0.211-1.039,0.586-1.414l15.412-15.412 c0.781-0.781,2.047-0.781,2.828,0l7.403,7.403c5.154-3.196,10.721-5.507,16.586-6.886V46.767c0-1.104,0.896-2,2-2h21.795 c1.104,0,2,0.896,2,2V57.22c5.864,1.379,11.43,3.689,16.586,6.886l7.403-7.403c0.75-0.75,2.078-0.75,2.828,0l15.411,15.412 c0.781,0.781,0.781,2.047,0,2.828l-7.401,7.403c3.194,5.155,5.506,10.721,6.885,16.586h10.454c1.104,0,2,0.896,2,2v21.795 c0,1.104-0.896,2-2,2h-10.454c-1.379,5.865-3.689,11.432-6.885,16.586l7.401,7.403c0.781,0.781,0.781,2.047,0,2.828 l-15.411,15.412c-0.781,0.781-2.047,0.781-2.828,0l-7.403-7.402c-5.154,3.195-10.72,5.506-16.586,6.886v10.453 C140.897,177.998,140.002,178.893,138.897,178.893z M119.103,174.893h17.795v-10.061c0-0.95,0.668-1.769,1.6-1.959 c6.483-1.326,12.595-3.863,18.162-7.539c0.791-0.524,1.844-0.417,2.516,0.255l7.126,7.125l12.583-12.583l-7.125-7.126 c-0.672-0.672-0.778-1.723-0.255-2.516c3.676-5.568,6.212-11.679,7.539-18.162c0.19-0.931,1.009-1.599,1.959-1.599h10.062v-17.795 h-10.062c-0.95,0-1.769-0.668-1.959-1.599c-1.327-6.484-3.863-12.594-7.539-18.162c-0.523-0.793-0.417-1.844,0.255-2.516 l7.125-7.126l-12.583-12.583l-7.126,7.125c-0.671,0.672-1.721,0.781-2.516,0.255c-5.57-3.677-11.681-6.213-18.162-7.539 c-0.932-0.19-1.6-1.009-1.6-1.959V48.767h-17.795v10.062c0,0.95-0.668,1.769-1.6,1.959c-6.482,1.326-12.594,3.862-18.162,7.539 c-0.793,0.523-1.845,0.416-2.516-0.255l-7.126-7.125L77.115,73.529l7.126,7.126c0.672,0.671,0.778,1.723,0.255,2.516 c-3.676,5.568-6.212,11.678-7.539,18.162c-0.19,0.931-1.009,1.599-1.959,1.599H64.937v17.795h10.062 c0.95,0,1.769,0.668,1.959,1.599c1.327,6.483,3.863,12.594,7.539,18.162c0.523,0.793,0.417,1.845-0.255,2.516l-7.126,7.126 l12.584,12.583l7.125-7.125c0.671-0.672,1.723-0.779,2.516-0.255c5.568,3.676,11.68,6.212,18.163,7.539 c0.932,0.19,1.6,1.009,1.6,1.959V174.893z M128,149.118c-20.561,0-37.288-16.728-37.288-37.288S107.439,74.542,128,74.542 s37.288,16.727,37.288,37.288S148.561,149.118,128,149.118z M128,78.542c-18.355,0-33.288,14.933-33.288,33.288 s14.933,33.288,33.288,33.288s33.288-14.933,33.288-33.288S146.355,78.542,128,78.542z"/><path fill="#690589" d="M117.656,118.048h-8.51l-1.716,4.553c-0.314,0.771-1.051,1.226-1.82,1.226c-0.245,0-0.456-0.035-0.666-0.105 c-1.016-0.385-1.506-1.506-1.155-2.521l7.739-20.626c0.315-0.771,1.085-1.261,1.855-1.226c0.806-0.035,1.541,0.455,1.856,1.226 l7.739,20.626c0.35,1.016-0.141,2.136-1.156,2.521c-0.175,0.07-0.42,0.105-0.665,0.105c-0.771,0-1.506-0.455-1.786-1.226 L117.656,118.048z M116.22,114.196l-2.837-7.529l-2.836,7.529H116.22z"/><path fill="#690589" d="M135.97,114.301h-4.307v7.599c0,1.051-0.876,1.926-1.961,1.926c-1.051,0-1.927-0.875-1.927-1.926v-20.661 c0-1.085,0.876-1.926,1.927-1.926h0.034h6.233c4.168,0,7.529,3.362,7.529,7.529C143.5,110.94,140.138,114.301,135.97,114.301z M131.664,110.414h4.307c2.031,0,3.607-1.611,3.643-3.572c-0.035-2.031-1.611-3.642-3.643-3.642h-4.307V110.414z"/><path fill="#690589" d="M148.436,101.239c0-1.085,0.841-1.926,1.927-1.926c1.05,0,1.961,0.84,1.961,1.926V121.9 c0,1.086-0.911,1.926-1.961,1.926c-1.086,0-1.927-0.84-1.927-1.926V101.239z"/><path fill="#690589" d="M225.251,154.118h-15.954c-3.859,0-7-3.14-7-7V76.542c0-3.86,3.141-7,7-7h15.954c1.104,0,2,0.896,2,2 s-0.896,2-2,2h-15.954c-1.654,0-3,1.346-3,3v70.576c0,1.654,1.346,3,3,3h15.954c1.104,0,2,0.896,2,2 S226.355,154.118,225.251,154.118z"/><path fill="#690589" d="M225.251,113.83h-32.188c-1.104,0-2-0.896-2-2s0.896-2,2-2h32.188c1.104,0,2,0.896,2,2 S226.355,113.83,225.251,113.83z"/><circle cx="225.251" cy="71.542" r="10.144" fill="#5d8e33"/><path fill="#690589" d="M225.251,83.686c-3.243,0-6.293-1.263-8.587-3.557c-4.734-4.735-4.734-12.439,0-17.174 c2.294-2.294,5.344-3.557,8.587-3.557c3.244,0,6.294,1.263,8.587,3.557c2.294,2.293,3.558,5.343,3.558,8.587 s-1.264,6.293-3.558,8.587C231.545,82.423,228.495,83.686,225.251,83.686z M225.251,63.398c-2.175,0-4.221,0.847-5.759,2.385 c-3.175,3.175-3.175,8.342,0,11.518c1.538,1.538,3.584,2.385,5.759,2.385c2.176,0,4.221-0.847,5.759-2.385 c1.538-1.539,2.386-3.583,2.386-5.759s-0.848-4.22-2.386-5.759l0,0C229.472,64.245,227.427,63.398,225.251,63.398z"/><circle cx="225.251" cy="111.83" r="10.144" fill="#e12579"/><path fill="#690589" d="M225.251,123.974c-3.243,0-6.293-1.263-8.587-3.557c-4.734-4.735-4.734-12.438,0-17.173 c2.294-2.294,5.344-3.557,8.587-3.557c3.244,0,6.294,1.263,8.587,3.557c2.294,2.293,3.558,5.343,3.558,8.587 c0,3.244-1.264,6.293-3.558,8.586C231.545,122.71,228.495,123.974,225.251,123.974z M225.251,103.686 c-2.175,0-4.221,0.847-5.759,2.385c-3.175,3.175-3.175,8.342,0,11.517c1.538,1.538,3.584,2.385,5.759,2.385 c2.176,0,4.221-0.847,5.759-2.385c1.538-1.539,2.386-3.583,2.386-5.758c0-2.175-0.848-4.22-2.386-5.759l0,0 C229.472,104.533,227.427,103.686,225.251,103.686z"/><circle cx="225.251" cy="152.118" r="10.144" fill="#5d8e33"/><path fill="#690589" d="M225.251,164.262c-3.243,0-6.293-1.263-8.587-3.557c-4.734-4.735-4.734-12.439,0-17.174 c2.294-2.294,5.344-3.557,8.587-3.557c3.244,0,6.294,1.263,8.587,3.557c2.294,2.293,3.558,5.343,3.558,8.587 s-1.264,6.293-3.558,8.587C231.545,162.999,228.495,164.262,225.251,164.262z M225.251,143.974c-2.175,0-4.221,0.847-5.759,2.385 c-3.175,3.175-3.175,8.342,0,11.518c1.538,1.538,3.584,2.385,5.759,2.385c2.176,0,4.221-0.847,5.759-2.385 c1.538-1.539,2.386-3.583,2.386-5.759s-0.848-4.22-2.386-5.759l0,0C229.472,144.821,227.427,143.974,225.251,143.974z"/><path fill="#690589" d="M46.703,154.118H30.749c-1.104,0-2-0.896-2-2s0.896-2,2-2h15.954c1.654,0,3-1.346,3-3V76.542 c0-1.654-1.346-3-3-3H30.749c-1.104,0-2-0.896-2-2s0.896-2,2-2h15.954c3.859,0,7,3.14,7,7v70.576 C53.703,150.978,50.562,154.118,46.703,154.118z"/><path fill="#690589" d="M62.937,113.83H30.749c-1.104,0-2-0.896-2-2s0.896-2,2-2h32.188c1.104,0,2,0.896,2,2 S64.041,113.83,62.937,113.83z"/><circle cx="30.749" cy="71.542" r="10.144" fill="#99ca6f"/><path fill="#690589" d="M30.749,83.686c-3.244,0-6.294-1.263-8.587-3.557c-2.294-2.293-3.558-5.343-3.558-8.587 s1.264-6.293,3.558-8.587l0,0c2.293-2.294,5.343-3.557,8.587-3.557c3.243,0,6.293,1.263,8.587,3.557 c4.734,4.735,4.734,12.439,0,17.174C37.042,82.423,33.992,83.686,30.749,83.686z M30.749,63.398c-2.176,0-4.221,0.847-5.759,2.385 l0,0c-1.538,1.539-2.386,3.583-2.386,5.759s0.848,4.22,2.386,5.759c1.538,1.538,3.583,2.385,5.759,2.385 c2.175,0,4.221-0.847,5.759-2.385c3.175-3.175,3.175-8.342,0-11.518C34.97,64.245,32.924,63.398,30.749,63.398z M23.576,64.369 h0.01H23.576z"/><circle cx="30.749" cy="111.83" r="10.144" fill="#ff61b5"/><path fill="#690589" d="M30.749,123.974c-3.244,0-6.294-1.263-8.587-3.557c-2.294-2.293-3.558-5.343-3.558-8.586 c0-3.244,1.264-6.293,3.558-8.587l0,0c2.293-2.294,5.343-3.557,8.587-3.557c3.243,0,6.293,1.263,8.587,3.557 c4.734,4.735,4.734,12.438,0,17.173C37.042,122.71,33.992,123.974,30.749,123.974z M30.749,103.686 c-2.176,0-4.221,0.847-5.759,2.385l0,0c-1.538,1.539-2.386,3.583-2.386,5.759c0,2.175,0.848,4.22,2.386,5.758 c1.538,1.538,3.583,2.385,5.759,2.385c2.175,0,4.221-0.847,5.759-2.385c3.175-3.175,3.175-8.342,0-11.517 C34.97,104.533,32.924,103.686,30.749,103.686z M23.576,104.657h0.01H23.576z"/><circle cx="30.749" cy="152.118" r="10.144" fill="#99ca6f"/><path fill="#690589" d="M30.749,164.262c-3.244,0-6.294-1.263-8.587-3.557c-2.294-2.293-3.558-5.343-3.558-8.587 s1.264-6.293,3.558-8.587l0,0c2.293-2.294,5.343-3.557,8.587-3.557c3.243,0,6.293,1.263,8.587,3.557 c4.734,4.735,4.734,12.439,0,17.174C37.042,162.999,33.992,164.262,30.749,164.262z M30.749,143.974 c-2.176,0-4.221,0.847-5.759,2.385l0,0c-1.538,1.539-2.386,3.583-2.386,5.759s0.848,4.22,2.386,5.759 c1.538,1.538,3.583,2.385,5.759,2.385c2.175,0,4.221-0.847,5.759-2.385c3.175-3.175,3.175-8.342,0-11.518 C34.97,144.821,32.924,143.974,30.749,143.974z M23.576,144.945h0.01H23.576z"/></svg>