<?xml version="1.0" encoding="UTF-8"?><svg version="1.1" id="Layer_1" xmlns="http://www.w3.org/2000/svg" xmlns:xlink="http://www.w3.org/1999/xlink" x="0px" y="0px" viewBox="0 0 916 610.7" style="enable-background:new 0 0 916 610.7;" xml:space="preserve" width="916px" height="611px">

<g>
	
		<linearGradient id="SVGID_1_" gradientUnits="userSpaceOnUse" x1="-2404.4456" y1="-3004.2847" x2="-640.0421" y2="-3004.2847" gradientTransform="matrix(-8.443650e-02 -3.965250e-02 3.965250e-02 -8.443650e-02 316.981 -42.8732)">
		<stop offset="0" style="stop-color:#DEEAFE"/>
		<stop offset="1" style="stop-color:#E9F1FE"/>
	</linearGradient>
	<path d="M339.1,267c-2.3-3.1-4.7-6.1-5.9-9.7c-2.4-7.7,1.8-15.7,4.8-23.2c3-7.5,4.5-17.3-1.6-22.6
		c-5.1-4.4-14.3-4.3-16.6-10.6c-0.9-2.3-0.4-5-0.7-7.4c-1.1-10.7-14.7-16.3-25-13.2c-10.3,3.1-17.8,11.8-24.7,20.1
		c-2.5,3-4.9,7.8-1.9,10.4c2.9,2.4,8-0.1,10.6,2.6c2,2.2,0.5,5.8-1.6,8c-2.1,2.1-4.9,4-5.5,6.9c-1.2,5.6,5.7,9.2,11.4,10.2
		c5.6,1,12.8,2.7,13.6,8.4c-7.9,8.7-16.5,19.8-13.1,31c3.9,13,19.5,19.2,31.2,26.1c21.8,12.9,51.4,44.4,55.3,69.5
		C384.9,341.9,359.8,295.2,339.1,267z" style="fill:url(#SVGID_1_);"/>
	<circle cx="670.2" cy="115.8" r="94.1" style="opacity:0.44;fill:#B0CDFC;enable-background:new    ;"/>
	<circle cx="488" cy="239.7" r="183.7" style="fill:#B0CDFC;"/>
	<path d="M580.8,412.5h17.5c-1,0.3-2,0.6-3.1,0.7h-11.2C582.9,413,581.8,412.8,580.8,412.5z M576.8,411h25.4
		c0.5-0.2,1-0.5,1.5-0.7h-28.4C575.8,410.5,576.3,410.7,576.8,411z M573.1,408.7h33.1c0.4-0.3,0.7-0.5,1.1-0.7h-35
		C572.6,408.2,572.9,408.4,573.1,408.7z M571.1,406.4h38c0.3-0.3,0.6-0.5,0.9-0.7h-39.3C570.9,405.9,571,406.1,571.1,406.4z
		 M570.1,404.1h41.5c0.2-0.3,0.4-0.5,0.7-0.7h-42.4C569.9,403.6,570,403.8,570.1,404.1z M569.5,401.8h44c0.2-0.3,0.4-0.5,0.5-0.7
		h-44.6C569.4,401.3,569.5,401.6,569.5,401.8z M569.2,399.6H615c0.2-0.3,0.3-0.5,0.4-0.7h-46.3C569.2,399,569.2,399.3,569.2,399.6z
		 M569.1,397.3h47.2c0.1-0.3,0.3-0.5,0.4-0.7h-47.6C569.1,396.8,569.1,397,569.1,397.3z M569.5,394.7c-0.1,0.1-0.1,0.2-0.1,0.3h47.9
		c0.1-0.3,0.2-0.5,0.3-0.7h-47.7C569.7,394.4,569.6,394.5,569.5,394.7z M572.6,392.4c-0.2,0.1-0.3,0.2-0.5,0.2h45.9
		c0.1-0.3,0.1-0.5,0.2-0.7h-44.7C573.3,392.1,573,392.3,572.6,392.4z M575.6,390.4h43c0.1-0.3,0.1-0.5,0.1-0.7h-42.4
		C576.1,389.9,575.8,390.2,575.6,390.4z M577.7,388.2H619c0-0.3,0.1-0.5,0.1-0.7h-40.8C578,387.6,577.9,387.9,577.7,388.2z
		 M579.1,385.9h40c0-0.3,0-0.5,0-0.7h-39.6C579.4,385.3,579.2,385.6,579.1,385.9z M580.1,383.6H619c0-0.3-0.1-0.5-0.1-0.7h-38.6
		C580.2,383.1,580.1,383.4,580.1,383.6z M580.7,381.3h37.9c-0.1-0.3-0.1-0.5-0.2-0.7h-37.7C580.7,380.8,580.7,381.1,580.7,381.3z
		 M580.9,379H618c-0.1-0.3-0.2-0.5-0.3-0.7h-36.8C580.9,378.5,580.9,378.8,580.9,379z M616.6,376h-36c0.1,0.3,0.1,0.5,0.1,0.7h36.2
		C616.8,376.5,616.7,376.2,616.6,376z M615.1,373.7h-35c0.1,0.3,0.2,0.5,0.2,0.7h35.4C615.4,374.2,615.3,373.9,615.1,373.7z
		 M613,371.4h-33.4c0,0.3,0,0.5,0.1,0.7h34.1C613.5,371.9,613.2,371.6,613,371.4z M610.2,369.3c-0.1-0.1-0.2-0.1-0.3-0.2h-29.6
		c-0.2,0.2-0.3,0.5-0.4,0.7h31.2C610.8,369.7,610.5,369.4,610.2,369.3z M603.5,366.9h-19.1c-0.7,0.2-1.4,0.4-2.1,0.7h24.2
		C605.4,367.3,604.5,367,603.5,366.9z" style="fill:#428DFC;"/>
	<path id="texture_8_dJgxSpVYCxeFd1zMEfAmH" d="M438.8,343.9c0.1,0.3,0.3,0.4,0.5,0.4l0,0c0.3-0.1,0.4-0.3,0.4-0.5l0,0
		c-0.1-0.3-0.3-0.4-0.5-0.4l0,0C438.9,343.5,438.7,343.7,438.8,343.9L438.8,343.9z M455.9,385.2c-0.2,0.2-0.1,0.5,0.1,0.6
		c0.2,0.2,0.5,0.1,0.6-0.1l0,0c0.2-0.2,0.1-0.5-0.1-0.6C456.4,384.8,456.1,384.9,455.9,385.2L455.9,385.2L455.9,385.2z M461.8,375.4
		c-0.2,0.2-0.1,0.5,0.1,0.6c0.2,0.2,0.5,0.1,0.6-0.1l0,0c0.2-0.2,0.1-0.5-0.1-0.6l0,0C462.4,375.1,462,375.2,461.8,375.4
		L461.8,375.4z M441.8,365.2c0.2,0.2,0.4,0.2,0.7,0.1c0.2-0.2,0.2-0.4,0.1-0.7c-0.2-0.2-0.4-0.2-0.6-0.1
		C441.7,364.7,441.7,365,441.8,365.2z M451.1,358.5c0.2,0.2,0.4,0.2,0.7,0.1c0.2-0.2,0.2-0.4,0.1-0.7c-0.2-0.2-0.4-0.2-0.6-0.1
		C451,358,450.9,358.3,451.1,358.5L451.1,358.5z M478.7,388c0,0.2,0.1,0.5,0.4,0.6c0.2,0,0.5-0.1,0.6-0.4l0,0c0-0.2-0.1-0.5-0.4-0.6
		l0,0C479.1,387.5,478.8,387.7,478.7,388z M480.6,376.7c0,0.2,0.1,0.5,0.4,0.6c0.2,0,0.5-0.1,0.6-0.4c0-0.2-0.1-0.5-0.4-0.6l0,0
		C480.9,376.2,480.6,376.4,480.6,376.7L480.6,376.7L480.6,376.7z M435.6,356.1c0.1,0.1,0.4,0.3,0.6,0.1c0.1-0.1,0.3-0.4,0.1-0.6
		c-0.1-0.1-0.4-0.3-0.6-0.1l0,0C435.4,355.5,435.4,355.8,435.6,356.1L435.6,356.1z M444.3,350.8c0.1,0.1,0.4,0.3,0.6,0.1
		c0.1-0.1,0.3-0.3,0.1-0.6c-0.1-0.1-0.3-0.3-0.6-0.1l0,0C444.3,350.4,444.2,350.6,444.3,350.8L444.3,350.8L444.3,350.8z
		 M469.7,381.4c0,0.2,0,0.5,0.3,0.5s0.4,0,0.5-0.3l0,0c0-0.2,0-0.5-0.3-0.5l0,0C470,381.1,469.8,381.2,469.7,381.4L469.7,381.4z
		 M472.2,371.5c0,0.2,0,0.5,0.3,0.5c0.2,0,0.4,0,0.5-0.3l0,0c0-0.2,0-0.5-0.3-0.5l0,0C472.5,371.2,472.3,371.3,472.2,371.5
		L472.2,371.5z M452.5,367.3c-0.2,0.2-0.1,0.5,0.1,0.6c0.2,0.2,0.5,0.1,0.6-0.1c0.2-0.2,0.1-0.5-0.1-0.6
		C452.9,367,452.7,367.1,452.5,367.3L452.5,367.3z M430.4,365.5c-0.2,0.2-0.1,0.5,0.1,0.6c0.2,0.2,0.5,0.1,0.6-0.1
		c0.2-0.2,0.1-0.5-0.1-0.6C430.8,365.2,430.5,365.3,430.4,365.5L430.4,365.5z M437.4,356.1c-0.2,0.2-0.1,0.5,0.1,0.6
		c0.2,0.2,0.5,0.1,0.6-0.1c0.2-0.2,0.1-0.5-0.1-0.6C437.8,355.8,437.6,355.9,437.4,356.1L437.4,356.1z M444.3,346.5
		c-0.2,0.2-0.1,0.5,0.1,0.6c0.2,0.2,0.5,0.1,0.6-0.1c0.2-0.2,0.1-0.5-0.1-0.6C444.7,346.3,444.5,346.4,444.3,346.5z M478.3,377.8
		c0.1,0.3,0.3,0.4,0.5,0.4c0.3-0.1,0.4-0.3,0.4-0.5c-0.1-0.3-0.3-0.4-0.5-0.4C478.4,377.2,478.2,377.5,478.3,377.8L478.3,377.8z
		 M438,331.4c-0.3,0.2-0.3,0.4-0.1,0.7 M453.6,370.8c0,0.2,0.1,0.5,0.4,0.6c0.2,0,0.5-0.1,0.6-0.4c0-0.2-0.1-0.5-0.4-0.6l0,0
		C454,370.4,453.7,370.6,453.6,370.8L453.6,370.8L453.6,370.8z M445.6,370.9c0,0.2,0.1,0.5,0.4,0.6c0.2,0,0.5-0.1,0.6-0.4
		c0-0.2,0-0.5-0.4-0.6C445.9,370.5,445.6,370.6,445.6,370.9L445.6,370.9z M448.8,359.6c0,0.2,0.1,0.5,0.4,0.6c0.2,0,0.5,0,0.6-0.4
		c0-0.2-0.1-0.5-0.3-0.7C449.2,359.2,448.9,359.4,448.8,359.6L448.8,359.6z M434.3,344.7c-0.2,0.2-0.1,0.5,0.1,0.6l0,0
		c0.2,0.2,0.5,0.1,0.7-0.1c0.2-0.2,0.1-0.5-0.1-0.7C434.8,344.4,434.5,344.5,434.3,344.7L434.3,344.7z M438.9,343.6
		c0,0.2,0,0.4,0.1,0.5c0.2,0,0.4,0,0.5-0.1c0-0.2,0-0.4-0.1-0.5l0,0C439.2,343.4,439,343.5,438.9,343.6L438.9,343.6L438.9,343.6z" style="fill:#E94A47;"/>
	<path d="M416.6,368.5l-6.8-8.8c-1.3,0.3-2.6,0.9-3.7,1.7l7.3,9.5c0.4,0.5,0.3,1.3-0.2,1.7c-0.5,0.4-1.3,0.3-1.7-0.2
		l-7.2-9.4c-0.9,1.1-1.6,2.4-2.1,3.8l6.1,7.9c0.4,0.5,0.3,1.3-0.2,1.7c-0.5,0.4-1.3,0.3-1.7-0.2l-4.8-6.2c-0.3,4.1,1,8.8,4.1,12.8
		c0.1,0.1,0.1,0.2,0.2,0.3c-0.7,0.8-1.4,1.6-2,2.4c-1.7,2.4-3.7,6.1-3.5,10.4l1.2-0.1c-0.2-3.9,1.7-7.4,3.3-9.6
		c0.6-0.8,1.2-1.5,1.8-2.2c3,3.3,6.7,5.4,10.3,6.1l-4.5-5.9c-0.4-0.5-0.3-1.3,0.2-1.7c0.5-0.4,1.3-0.3,1.7,0.2l5.8,7.6
		c1.5-0.1,2.9-0.5,4.2-1.1l-6.8-8.8c-0.4-0.5-0.3-1.3,0.2-1.7c0.5-0.4,1.3-0.3,1.7,0.2l6.9,8.9c1-0.9,1.8-2,2.5-3.3l-6.2-8.1
		c-0.4-0.5-0.3-1.3,0.2-1.7c0.5-0.4,1.3-0.3,1.7,0.2l5.3,6.9c0.5-1.6,0.9-3.3,1.1-5.1l-3.3-4.4c-0.4-0.5-0.3-1.3,0.2-1.7
		c0.5-0.4,1.3-0.3,1.7,0.2l1.8,2.3c0.4-5,0.3-9.6,1.4-11.4c-2.7,0.3-7-1-11.6-1.9l2.3,3c0.4,0.5,0.3,1.3-0.2,1.7
		c-0.5,0.4-1.3,0.3-1.7-0.2l-3.9-5.1c-1.8-0.2-3.5-0.3-5.2-0.2l6,7.8c0.4,0.5,0.3,1.3-0.2,1.7C417.8,369.2,417,369.1,416.6,368.5z" style="fill:#FFFFFF;"/>
	<path d="M513.2,240.4l0,81.5c0,9.1,6.5,16.4,16.6,16.4v0c9.2,0,16.4-7.2,16.4-16.4l0-81.5L513.2,240.4L513.2,240.4z" style="fill:#C4D9FD;"/>
	
		<linearGradient id="SVGID_2_" gradientUnits="userSpaceOnUse" x1="7697.9336" y1="-5781.1235" x2="7814.6113" y2="-6007.8267" gradientTransform="matrix(9.330001e-02 0 0 -9.330001e-02 -188.6167 -244.6342)">
		<stop offset="0" style="stop-color:#E94A47"/>
		<stop offset="1" style="stop-color:#D62929"/>
	</linearGradient>
	<path d="M517.9,267.2l0,53.1c0,6.5,5.4,11.6,11.9,11.6v0c6.5,0,11.7-5,11.7-11.6l0-53.1L517.9,267.2L517.9,267.2z" style="fill:url(#SVGID_2_);"/>
	<path d="M556.4,240.4l0.1,81.5c0,9.1,6.6,16.4,16.8,16.4v0c8.3,0,16.3-7.2,16.3-16.4l-0.1-81.5L556.4,240.4
		L556.4,240.4z" style="fill:#C4D9FD;"/>
	<path d="M561.3,267.2v53c0,6.5,5.5,11.6,12,11.6v0c6.5,0,11.1-5.1,11.1-11.6v-53.1L561.3,267.2L561.3,267.2z" style="fill:#A1C3FC;"/>
	<path d="M600.1,240.4l-0.1,81.5c0,9.1,7.4,16.4,16.6,16.4v0c9.2,0,16.5-7.2,16.5-16.4l0.1-81.5L600.1,240.4
		L600.1,240.4z" style="fill:#C4D9FD;"/>
	<path d="M604.8,267.2l0,53.1c0,6.5,5.4,11.6,11.8,11.6v0c6.5,0,11.7-5,11.7-11.6l0-53.1L604.8,267.2L604.8,267.2z" style="fill:#428DFC;"/>
	<rect x="521.4" y="289.9" width="6.2" height="6.2" style="fill:#FFFFFF;"/>
	<rect x="529.8" y="265" width="6.2" height="6.2" style="fill:#FFFFFF;"/>
	<rect x="528.8" y="316.8" transform="matrix(0.925 -0.38 0.38 0.925 -81.6639 226.1141)" width="6.2" height="6.2" style="fill:#FFFFFF;"/>
	<rect x="576.1" y="268.9" transform="matrix(0.925 -0.38 0.38 0.925 -59.5591 239.9963)" width="4" height="4" style="fill:#FFFFFF;"/>
	
		<rect x="525.5" y="301.7" transform="matrix(0.6503 -0.7596 0.7596 0.6503 -46.9267 508.7372)" width="7.4" height="7.4" style="fill:#FFFFFF;"/>
	
		<rect x="656.1" y="47.8" transform="matrix(0.6503 -0.7596 0.7596 0.6503 191.5662 519.1814)" width="7.4" height="7.4" style="fill:#FFFFFF;"/>
	<rect x="620.1" y="279.1" width="6.2" height="6.2" style="fill:#FFFFFF;"/>
	<rect x="612.7" y="306" transform="matrix(0.38 -0.925 0.925 0.38 95.8474 761.2219)" width="6.2" height="6.2" style="fill:#FFFFFF;"/>
	
		<rect x="614.8" y="290.9" transform="matrix(0.7596 -0.6503 0.6503 0.7596 -42.9166 473.0392)" width="7.4" height="7.4" style="fill:#FFFFFF;"/>
	
		<rect x="563.4" y="266.5" transform="matrix(0.6503 -0.7596 0.7596 0.6503 -6.9145 525.2583)" width="7.4" height="7.4" style="fill:#FFFFFF;"/>
	
		<rect x="569.6" y="275.8" transform="matrix(0.975 -0.2224 0.2224 0.975 -47.809 134.4886)" width="7.4" height="7.4" style="fill:#FFFFFF;"/>
	<rect x="500.4" y="251.5" width="144" height="4.6" style="fill:#A1C3FC;"/>
	<rect x="501.3" y="252.4" width="4.6" height="99.7" style="fill:#A1C3FC;"/>
	
		<rect x="496.7" y="246.9" transform="matrix(0.7071 -0.7071 0.7071 0.7071 -31.7856 429.9673)" width="12.8" height="12.8" style="fill:#A1C3FC;"/>
	
		<rect x="639.9" y="246.9" transform="matrix(0.7071 -0.7071 0.7071 0.7071 10.1501 531.2072)" width="12.8" height="12.8" style="fill:#A1C3FC;"/>
	<polygon points="436.6,255.7 436.6,137 385.9,137 385.9,255.3 335.5,348.4 408.1,348.4 414.7,348.4 487.3,348.4 	" style="fill:#C4D9FD;"/>
	<rect x="395.3" y="137" width="32.3" height="107" style="fill:#B7D1FD;"/>
	<polygon points="427.4,257.6 427.4,228.4 395.1,228.4 395.1,257.3 352.4,340.1 398.1,340.1 426.6,340.1 472.3,340.1 	
		" style="fill:#4B93FC;"/>
	<path d="M453.4,156.2h-13.8v-39.1c0-4.9-4-8.8-8.8-8.8s-8.8,4-8.8,8.8v39.1h-13.8v-39.1c0-12.5,10.2-22.7,22.7-22.7
		s22.7,10.2,22.7,22.7C453.4,117.1,453.4,156.2,453.4,156.2z" style="fill:#BDD5FD;"/>
	<path d="M462.2,192.1c-12.5,0-22.7-10.2-22.7-22.7v-39.1h13.8v39.1c0,4.9,4,8.8,8.8,8.8c4.9,0,8.8-4,8.8-8.8v-39.1
		h13.8v39.1C484.9,181.9,474.7,192.1,462.2,192.1z" style="fill:#BDD5FD;"/>
	<path d="M516.4,156.2h-13.8v-39.1c0-4.9-4-8.8-8.8-8.8c-4.9,0-8.8,4-8.8,8.8v39.1h-13.8v-39.1
		c0-12.5,10.2-22.7,22.7-22.7c12.5,0,22.7,10.2,22.7,22.7V156.2z" style="fill:#BDD5FD;"/>
	<path d="M579.3,240.9h-13.8V117.1c0-4.9-4-8.8-8.8-8.8s-8.8,4-8.8,8.8v39.1h-13.8v-39.1c0-12.5,10.2-22.7,22.7-22.7
		s22.7,10.2,22.7,22.7V240.9z" style="fill:#BDD5FD;"/>
	<path d="M525.2,192.1c-12.5,0-22.7-10.2-22.7-22.7v-39.1h13.8v39.1c0,4.9,4,8.8,8.8,8.8s8.8-4,8.8-8.8v-39.1h13.8
		v39.1C547.9,181.9,537.7,192.1,525.2,192.1z" style="fill:#BDD5FD;"/>
	<rect x="408.1" y="137" width="13.8" height="92.3" style="fill:#A3C4FC;"/>
	<rect x="401.6" y="320.1" width="6.2" height="6.2" style="fill:#616494;"/>
	<rect x="430.5" y="326.2" width="6.2" height="6.2" style="fill:#616494;"/>
	<rect x="403.4" y="306.4" transform="matrix(0.925 -0.38 0.38 0.925 -86.7739 177.1573)" width="4" height="4" style="fill:#616494;"/>
	<rect x="397.1" y="247.5" transform="matrix(0.925 -0.38 0.38 0.925 -64.8613 170.3559)" width="4" height="4" style="fill:#616494;"/>
	
		<rect x="415.8" y="304.1" transform="matrix(0.6503 -0.7596 0.7596 0.6503 -87.0964 426.2605)" width="7.4" height="7.4" style="fill:#616494;"/>
	<path d="M397.9,405.7c-0.4,0-0.8-0.3-0.9-0.7c-5.8-20.6-13.2-41.1-21.9-60.8c-0.2-0.5,0-1,0.5-1.2c0.5-0.2,1,0,1.2,0.5
		c8.8,19.8,16.2,40.3,22,61c0.1,0.5-0.1,1-0.6,1.1C398,405.7,398,405.7,397.9,405.7z" style="fill:#428DFC;"/>
	<ellipse transform="matrix(0.9161 -0.401 0.401 0.9161 -105.698 178.9802)" cx="374.8" cy="342" rx="11" ry="4.1" style="fill:#E94A47;"/>
	<path d="M374.9,342.4c-0.4,0-0.7-0.2-0.8-0.5c-5-11.1-10.5-22.1-16.3-32.7c-0.2-0.4-0.1-1,0.4-1.3
		c0.4-0.2,1-0.1,1.3,0.4c5.9,10.7,11.4,21.7,16.4,32.9c0.2,0.5,0,1-0.5,1.2C375.1,342.4,375,342.4,374.9,342.4z" style="fill:#428DFC;"/>
	
		<ellipse transform="matrix(0.9508 -0.3098 0.3098 0.9508 -77.3159 125.7102)" cx="357.1" cy="306.3" rx="13.3" ry="5" style="fill:#E94A47;"/>
	<path d="M357,306.8c-0.3,0-0.6-0.2-0.8-0.5c-4.9-8.8-10.2-17.5-15.6-25.9c-0.3-0.4-0.2-1,0.3-1.3
		c0.4-0.3,1-0.2,1.3,0.3c5.5,8.4,10.8,17.2,15.7,26c0.2,0.4,0.1,1-0.4,1.3C357.3,306.8,357.1,306.8,357,306.8z" style="fill:#428DFC;"/>
	<ellipse transform="matrix(0.8096 -0.587 0.587 0.8096 -98.5117 251.7152)" cx="338.7" cy="277.7" rx="13.3" ry="5" style="fill:#E94A47;"/>
	<path d="M339,277.4c-0.3,0-0.6-0.1-0.8-0.4c-4.2-6.4-8.7-12.7-13.2-18.8c-0.3-0.4-0.2-1,0.2-1.3c0.4-0.3,1-0.2,1.3,0.2
		c4.5,6.1,9,12.5,13.2,18.9c0.3,0.4,0.2,1-0.3,1.3C339.4,277.3,339.2,277.4,339,277.4z" style="fill:#428DFC;"/>
	
		<ellipse transform="matrix(0.8096 -0.587 0.587 0.8096 -87.7639 238.2097)" cx="323.3" cy="254.4" rx="17.8" ry="6.7" style="fill:#E94A47;"/>
	<path d="M322.7,254.3c-0.3,0-0.6-0.1-0.7-0.4c-3.1-4.1-6.3-8.1-9.5-12.1c-0.3-0.4-0.3-1,0.1-1.3c0.4-0.3,1-0.3,1.3,0.1
		c3.2,4,6.4,8,9.5,12.1c0.3,0.4,0.2,1-0.2,1.3C323.1,254.2,322.9,254.3,322.7,254.3z" style="fill:#428DFC;"/>
	
		<rect x="500.4" y="102" transform="matrix(0.975 -0.2224 0.2224 0.975 -10.8756 114.7425)" width="7.4" height="7.4" style="fill:#79AEFD;"/>
	
		<rect x="444.1" y="153.7" transform="matrix(0.1942 -0.981 0.981 0.1942 206.474 566.0511)" width="7.4" height="7.4" style="fill:#E26767;"/>
	
		<rect x="567.7" y="205.4" transform="matrix(0.1942 -0.981 0.981 0.1942 255.3544 728.9272)" width="7.4" height="7.4" style="fill:#FFFFFF;"/>
	
		<rect x="546.7" y="104.1" transform="matrix(0.1942 -0.981 0.981 0.1942 338.0189 624.2382)" width="4.6" height="4.6" style="fill:#FFFFFF;"/>
	
		<rect x="509.1" y="113.7" transform="matrix(0.1942 -0.981 0.981 0.1942 298.2301 595.1371)" width="4.6" height="4.6" style="fill:#A1C3FC;"/>
	
		<rect x="517.2" y="181.1" transform="matrix(0.1942 -0.981 0.981 0.1942 238.4535 659.9906)" width="7.4" height="7.4" style="fill:#A1C3FC;"/>
	
		<rect x="525.8" y="180" transform="matrix(0.7863 -0.6179 0.6179 0.7863 -0.3232 366.4044)" width="7.4" height="7.4" style="fill:#FFFFFF;"/>
	
		<rect x="411.2" y="147.9" transform="matrix(0.9259 -0.3778 0.3778 0.9259 -26.2823 167.6037)" width="5.8" height="5.8" style="fill:#428DFC;"/>
	
		<rect x="442.5" y="138.9" transform="matrix(0.6502 -0.7598 0.7598 0.6502 48.0529 387.9815)" width="5.8" height="5.8" style="fill:#428DFC;"/>
	<rect x="408.1" y="228.4" width="13.8" height="70.1" style="fill:#66A3FD;"/>
	<polygon points="423.7,73.1 438.9,76.7 422.9,84 428,77.9 	" style="fill:#FFFFFF;"/>
	<path d="M418.5,80.5c-0.2,0-0.4-0.1-0.4-0.3c-0.1-0.2,0-0.5,0.3-0.6c5.2-2,7.9-2.8,13.3-3c0.3,0,0.5,0.2,0.5,0.4
		c0,0.3-0.2,0.5-0.4,0.5c-5.3,0.2-7.9,1-13,2.9C418.6,80.5,418.6,80.5,418.5,80.5z" style="fill:#FFFFFF;"/>
	<polygon points="441.2,255.8 443.3,240.3 452.2,255.5 445.6,251.1 	" style="fill:#FFFFFF;"/>
	<path d="M448.7,260.8c-0.2,0-0.3-0.1-0.4-0.3c-2.5-5-3.5-7.6-4.3-12.9c0-0.3,0.1-0.5,0.4-0.5c0.3,0,0.5,0.1,0.5,0.4
		c0.7,5.2,1.8,7.8,4.2,12.7c0.1,0.2,0,0.5-0.2,0.6C448.8,260.7,448.8,260.8,448.7,260.8z" style="fill:#FFFFFF;"/>
	<polygon points="528.1,118.8 524.2,133.9 517.3,117.8 523.2,123 	" style="fill:#FFFFFF;"/>
	<path d="M523.9,127.1c-0.3,0-0.5-0.2-0.5-0.5c0-0.4,0-0.8,0-1.4c-0.1-23.4-5.1-36.4-14.9-38.6
		c-0.2-0.1-0.4-0.3-0.3-0.6c0.1-0.2,0.3-0.4,0.6-0.3c10.3,2.3,15.5,15.6,15.6,39.5c0,0.6,0,1,0,1.4
		C524.4,126.9,524.2,127.1,523.9,127.1C524,127.1,523.9,127.1,523.9,127.1z" style="fill:#FFFFFF;"/>
	<path d="M648.6,84.6c-0.5,0-0.9-0.4-0.9-0.9V65.4c0-0.5,0.4-0.9,0.9-0.9s0.9,0.4,0.9,0.9v18.3
		C649.6,84.2,649.1,84.6,648.6,84.6z" style="fill:#A1C3FC;"/>
	<path d="M692.2,155.1c-0.5,0-0.9-0.4-0.9-0.9v-18.3c0-0.5,0.4-0.9,0.9-0.9c0.5,0,0.9,0.4,0.9,0.9v18.3
		C693.1,154.7,692.7,155.1,692.2,155.1z" style="fill:#A1C3FC;"/>
	<path d="M697.8,155.1c-0.5,0-0.9-0.4-0.9-0.9v-18.3c0-0.5,0.4-0.9,0.9-0.9s0.9,0.4,0.9,0.9v18.3
		C698.7,154.7,698.3,155.1,697.8,155.1z" style="fill:#A1C3FC;"/>
	<path d="M703.4,155.1c-0.5,0-0.9-0.4-0.9-0.9v-18.3c0-0.5,0.4-0.9,0.9-0.9s0.9,0.4,0.9,0.9v18.3
		C704.3,154.7,703.9,155.1,703.4,155.1z" style="fill:#A1C3FC;"/>
	<path d="M709,155.1c-0.5,0-0.9-0.4-0.9-0.9v-18.3c0-0.5,0.4-0.9,0.9-0.9s0.9,0.4,0.9,0.9v18.3
		C709.9,154.7,709.5,155.1,709,155.1z" style="fill:#A1C3FC;"/>
	<path d="M657.3,75.5H640c-0.5,0-0.9-0.4-0.9-0.9s0.4-0.9,0.9-0.9h17.3c0.5,0,0.9,0.4,0.9,0.9
		C658.2,75.1,657.8,75.5,657.3,75.5z" style="fill:#A1C3FC;"/>
	<path d="M704.6,114.1h-17.3c-0.5,0-0.9-0.4-0.9-0.9c0-0.5,0.4-0.9,0.9-0.9h17.3c0.5,0,0.9,0.4,0.9,0.9
		C705.6,113.7,705.1,114.1,704.6,114.1z" style="fill:#A1C3FC;"/>
	<path d="M704.6,119.2h-17.3c-0.5,0-0.9-0.4-0.9-0.9s0.4-0.9,0.9-0.9h17.3c0.5,0,0.9,0.4,0.9,0.9
		C705.6,118.8,705.1,119.2,704.6,119.2z" style="fill:#A1C3FC;"/>
	<path d="M693.1,97.6h-27.3V70.3h27.3V97.6z M667.6,95.8h23.6V72.2h-23.6V95.8z" style="fill:#A1C3FC;"/>
	<path d="M622.2,88.4c-0.5,0-0.9-0.4-0.9-0.9s0.4-0.9,0.9-0.9c5.8,0,10.5-4.7,10.5-10.5c0-5.8-4.7-10.5-10.5-10.5
		c-0.5,0-0.9-0.4-0.9-0.9c0-0.5,0.4-0.9,0.9-0.9c6.8,0,12.4,5.6,12.4,12.4C634.5,82.9,629,88.4,622.2,88.4z" style="fill:#A1C3FC;"/>
	<path d="M702.3,103h-11.1l11-11c0.4-0.4,0.9-0.4,1.3,0c0.4,0.4,0.4,0.9,0,1.3l-7.8,7.8h6.7c0.5,0,0.9,0.4,0.9,0.9
		C703.3,102.5,702.8,103,702.3,103z" style="fill:#A1C3FC;"/>
	<path d="M721.2,135.8H710l11-11c0.4-0.4,0.9-0.4,1.3,0c0.4,0.4,0.4,0.9,0,1.3l-7.8,7.8h6.7c0.5,0,0.9,0.4,0.9,0.9
		C722.1,135.4,721.7,135.8,721.2,135.8z" style="fill:#A1C3FC;"/>
	<path d="M712.3,145.2c-0.2,0-0.5-0.1-0.7-0.3c-0.4-0.4-0.4-0.9,0-1.3l9.4-9.4c0.4-0.4,0.9-0.4,1.3,0
		c0.4,0.4,0.4,0.9,0,1.3l-9.4,9.4C712.7,145.1,712.5,145.2,712.3,145.2z" style="fill:#A1C3FC;"/>
	<rect x="467.8" y="258.8" width="10.7" height="10.7" style="fill:#1D72D8;"/>
	<path d="M455.1,226.6c0-10.5,8.5-19,19-19c10.5,0,19,8.5,19,19C493.1,226.6,455.4,226.3,455.1,226.6z" style="fill:#FFFFFF;"/>
	<path d="M496.4,226.6h-6.5c0-8.7-7.1-15.8-15.8-15.8c-8.7,0-15.8,7.1-15.8,15.8h-6.5c0-12.3,10-22.2,22.2-22.2
		S496.4,214.4,496.4,226.6z" style="fill:#D62929;"/>
	<polygon points="475.7,253 469.2,253 469.2,234.4 493.1,234.4 493.1,240.9 475.7,240.9 	" style="fill:#D62929;"/>
	<polygon points="610.4,126 610.4,132.9 620,126 	" style="fill:#B0CDFC;"/>
	<polygon points="610.4,126 610.4,132.9 620,126 	" style="fill:#EF7B79;"/>
	<path d="M644,126h-11.7c1.4,1.8,2.8,3.6,4.1,5.4L644,126z" style="fill:#F7BCBB;"/>
	<path d="M610.4,140.6v9.4l26-18.6c-1.3-1.8-2.7-3.6-4.1-5.4h-1.5L610.4,140.6z" style="fill:#B0CDFC;"/>
	<path d="M610.4,140.6v9.4l26-18.6c-1.3-1.8-2.7-3.6-4.1-5.4h-1.5L610.4,140.6z" style="fill:#EF7B79;"/>
	<path d="M661.6,130.6V126h-6.9L640,136.6c1.4,2.1,2.8,4.3,4.2,6.4L661.6,130.6z" style="fill:#F7BCBB;"/>
	<path d="M610.4,167.2l33.8-24.2c-1.4-2.2-2.7-4.3-4.2-6.4l-29.6,21.2C610.4,157.8,610.4,167.2,610.4,167.2z" style="fill:#B0CDFC;"/>
	<path d="M610.4,167.2l33.8-24.2c-1.4-2.2-2.7-4.3-4.2-6.4l-29.6,21.2C610.4,157.8,610.4,167.2,610.4,167.2z" style="fill:#EF7B79;"/>
	<path d="M661.6,147.7v-9.4l-14.2,10.1c1.3,2.2,2.5,4.5,3.7,6.8L661.6,147.7z" style="fill:#F7BCBB;"/>
	<path d="M610.4,177.3h9.9l30.8-22.1c-1.2-2.3-2.4-4.6-3.7-6.8l-37,26.5C610.4,174.9,610.4,177.3,610.4,177.3z" style="fill:#B0CDFC;"/>
	<path d="M610.4,177.3h9.9l30.8-22.1c-1.2-2.3-2.4-4.6-3.7-6.8l-37,26.5C610.4,174.9,610.4,177.3,610.4,177.3z" style="fill:#EF7B79;"/>
	<path d="M661.6,164.8v-9.4l-7.7,5.5c1.1,2.3,2.2,4.7,3.2,7.1L661.6,164.8z" style="fill:#F7BCBB;"/>
	<path d="M644.2,177.3l12.9-9.2c-1-2.4-2.1-4.8-3.2-7.1l-22.9,16.4L644.2,177.3L644.2,177.3z" style="fill:#B0CDFC;"/>
	<path d="M644.2,177.3l12.9-9.2c-1-2.4-2.1-4.8-3.2-7.1l-22.9,16.4L644.2,177.3L644.2,177.3z" style="fill:#EF7B79;"/>
	<path d="M661.6,177.3v-4.7l-2,1.5c0.4,1.1,0.8,2.2,1.2,3.3L661.6,177.3L661.6,177.3L661.6,177.3z" style="fill:#F7BCBB;"/>
	<path d="M660.8,177.3c-0.4-1.1-0.8-2.2-1.2-3.3l-4.6,3.3H660.8z" style="fill:#B0CDFC;"/>
	<path d="M660.8,177.3c-0.4-1.1-0.8-2.2-1.2-3.3l-4.6,3.3H660.8z" style="fill:#EF7B79;"/>
</g>
<g>
	
		<linearGradient id="SVGID_3_" gradientUnits="userSpaceOnUse" x1="306.6896" y1="458.0536" x2="364.5195" y2="458.0536" gradientTransform="matrix(0.771 0 0 -0.769 25.724 590.614)">
		<stop offset="0" style="stop-color:#428DFC"/>
		<stop offset="1" style="stop-color:#1D72D8"/>
	</linearGradient>
	<path d="M306.7,228.9c-0.2-2.5-1.4-6.8-4.7-3.5c-0.6,0.6-1,1.6-1.2,2.8c-0.1,0-0.1,0-0.2,0c-0.2-0.7,0-3.6-0.9-3.8
		c-0.8-0.2-0.8,1.1-1.3,1.5c-0.4,0.3-1.3,0.2-1.8,0.2c-0.4,0-1.5,0-1.8-0.3c-0.2-0.3,0.1-1.5,0.1-1.9c-0.1-1.1,0.2-2.3-0.3-3.4
		c0,0-1.1-0.1-1.6-0.1c-0.9-0.1-1.2,0.4-1.7,1.1c-0.2,0.3-0.4,0.7-0.6,1.1c-0.9-3.6-2.5-7.9-4.9-8.8c-5.1-2-15.3,1.2-14.5,2.9
		c2,4.6,3.2,3.4,6.8,3.2c4.9-0.4,4.7,0,5.9,4.7c1.2,4.5,1.7,10.3,1.1,15.5c-1.2,1.1-2,2.7-3.5,3.5c-2.4,1.3-2.9,0.6-5.3,0.7
		c-3.9,0-9.8-1.8-12.9,1.8c-4.8,5.6,3.5,3.1,6.3,3.3c4.1,0.3,8.3,2.9,12.3,4c5.7,1.6,4.7,3.5,6.7,8.7c-0.6-0.7,0.9,1.4,1.5,1.3
		c3.3,0.7,9.4,1.2,12.8,0.5c1-4.5,2.5-7.9,2.9-10.9c0.5-3,0.3-6.3,0.3-8.7C306.5,242.7,307,232,306.7,228.9z" style="fill:url(#SVGID_3_);"/>
	<path d="M310.7,566.8c-13.7-13.3-29-14.9-36.1-26.8c-2.6,0.6-38-0.5-39.5,0c-0.8,2-0.6,4.3-1.2,6.4
		c-0.7,2.3-2,4.4-3,6.7c-2,4.3-4.3,9.3-4.2,13.9C228.1,566.7,307.9,566.7,310.7,566.8z" style="fill:#1D72D8;"/>
	
		<linearGradient id="SVGID_4_" gradientUnits="userSpaceOnUse" x1="286.3877" y1="61.9028" x2="209.0544" y2="33.2361" gradientTransform="matrix(0.771 0 0 -0.769 25.724 590.614)">
		<stop offset="0" style="stop-color:#428DFC"/>
		<stop offset="1" style="stop-color:#1D72D8"/>
	</linearGradient>
	<path d="M256.2,566.8c-13.7-13.3-29-14.9-36.1-26.8c-2.6,0.6-38-0.5-39.5,0c-0.8,2-0.6,4.3-1.2,6.4
		c-0.7,2.3-2,4.4-3,6.7c-2,4.3-4.3,9.3-4.2,13.9C173.7,566.7,255.2,567.1,256.2,566.8z" style="fill:url(#SVGID_4_);"/>
	
		<linearGradient id="SVGID_5_" gradientUnits="userSpaceOnUse" x1="259.2313" y1="154.274" x2="246.5882" y2="379.1887" gradientTransform="matrix(0.771 0 0 -0.769 25.724 590.614)">
		<stop offset="0" style="stop-color:#A1C3FC"/>
		<stop offset="1" style="stop-color:#78A9EF"/>
	</linearGradient>
	<path d="M168.9,257.8c-11.2,11.3-3,23.3-2.5,36.7c0.5,14.1-2.3,30.2-4.8,43.9c-2.9,15.2-2.1,29.3,15.5,31.6
		c-1.3,13.9-1.7,27.3-4.3,41.2c-1.4,7.2-2.1,14.4-1,21.7c1.1,7.4,5.7,16.2,3.9,24c-1.7,7.4-6.9,14-5.3,22.3
		c1.5,7.6,7.7,10.8,6.8,19.1c-0.9,8.3-6.7,11.4-3.9,20.6c1.6,5.1,2.1,8.2,3.9,14.9c0.7,2.5,3.2,7.9,3.2,7.9s39.7,0.5,40.6-0.1
		c-0.4-13.6,2-25.8,0.8-37.1c-1.2-11.4,0.2-25.3,1.6-38.4c2.2-20.8,0.3-13.2,1.8-41.3c0.2-2.8,1-6.8,1,5.6c0,6.7,0.5,17.8-0.5,24.6
		c-1.3,8.7,4,14.7,6.7,23.1c2,6.3-1,10.6-2.6,16.9c-2.1,8.3,0.8,11.9,3.6,20c3.9,11.5,1.2,13.8,1.5,25.9c3.5,0,37,0.1,39.7-0.3
		c-0.8-9.6-0.3-34.2,1-46.1c1.5-14.1,3.1-29.8,1.9-43.9c-1.3-14.6-3.7-29.2-4.6-43.8c-0.4-7-1.4-14-1.8-20.7
		c-0.2-5.2-5.6-14.3-4-18.6c0.1-0.4,0.2-1.8,0.2-2.2c19.6,1.9,4.4-31.3,4.6-38.4c0.3-8.3,2.2-14.5,1.4-23
		c-0.7-7.4-0.6-15.1-0.6-22.7c0-10.3-0.2-20.9-6.9-29c-2.6-3.1-8.7-5.6-12.3-7.9c-9-5.7-27.7-10.8-38.6-9.1c-4.3,0.7-11.8,3-16,4.1
		C193.4,240.7,176.9,249.8,168.9,257.8z" style="fill:url(#SVGID_5_);"/>
	<path d="M218,185.8c2.9-1.3,9.6,0.6,12.2,2.4c2.6,1.8,5.3,4.8,6.7,7.7c3,5.9,2.9,16,1.7,22.4
		c-2.7,13.8-9.3,24.7-24.4,24.7c-16.3,0-21.6-18.7-22.1-31.9c-0.3-6.6,1.4-14.7,6.4-19.4c3.2-3,13-8.4,17.7-7.4
		C217.8,184.8,216.9,184.1,218,185.8z" style="fill:#FFBEB6;"/>
	<path d="M236.8,238.8c0,0-6.4,4.2-19,4.2c-12.4,0-18.2-4.2-18.2-4.2v-18.3c0,0,13.4-7.8,18.4-7.8
		c5.1,0,18.8,7.8,18.8,7.8V238.8z" style="fill:#C3D9FD;"/>
	
		<linearGradient id="SVGID_6_" gradientUnits="userSpaceOnUse" x1="211.9791" y1="502.847" x2="286.4791" y2="474.347" gradientTransform="matrix(0.771 0 0 -0.769 25.724 590.614)">
		<stop offset="0" style="stop-color:#A1C3FC"/>
		<stop offset="1" style="stop-color:#78A9EF"/>
	</linearGradient>
	<path d="M242.6,208.4c-0.4-12.4,0.6-19.4-8.3-26.6c-5.6-4.6-8.8-5.7-15.2-7.2c-4.5-1.1-9.2-0.3-11.6,0.1
		c-6.7,1.2-11.2,2.5-17.9,10.3c-4.5,5.3-4.5,11-4.9,17.2c-0.5,6.4,0.9,15.5,1.4,23.9c0.7,11.3,1.9,13.8,12,19.1
		c6.2,3.3,18.6,12.3,25.7,12.3c4.7,0,5.8-5.2,8.3-9.2c2.8-4.4,4.2-7.4,6.3-12.2C244,223.4,242.9,218.4,242.6,208.4z M231.6,234.2
		c-7,10.8-16.1,9.6-23.3,2.4c-8-7.9-9.9-15.2-8-25.8c1.2-6.9,2.5-11.9,5.4-14.8c2.7-2.7,15.4-3.6,11.9-3.8
		c-3.3,0.3,6.9-0.2,11.9,2.5c6.3,3.5,7.8,11.7,7.8,18.1C237.2,223.3,236.9,226,231.6,234.2z" style="fill:url(#SVGID_6_);"/>
	
		<linearGradient id="SVGID_7_" gradientUnits="userSpaceOnUse" x1="157.7321" y1="349.5122" x2="224.5134" y2="392.8989" gradientTransform="matrix(0.771 0 0 -0.769 25.724 590.614)">
		<stop offset="0" style="stop-color:#A1C3FC"/>
		<stop offset="1" style="stop-color:#78A9EF"/>
	</linearGradient>
	<path d="M174.7,254.1c-12.8,6-26.5,29.6-30.3,48.2c-1.9,9.6-3.2,19.7-3.5,29.6c-0.2,7.1-2.6,23.5,5.1,27.7
		c6.3,3.5,20.6,0.9,25.8-3.5c6.7-5.7,9.2-19.7,11.2-27.7c4.2-16.8,4.8-38.5,1.7-55.9c-1.1-6.2-1.2-7-3.4-13
		C180.3,256.7,179.6,251.8,174.7,254.1z" style="fill:url(#SVGID_7_);"/>
	
		<linearGradient id="SVGID_8_" gradientUnits="userSpaceOnUse" x1="227.524" y1="226.6581" x2="263.5292" y2="280.6659" gradientTransform="matrix(0.7545 -0.1583 -0.1587 -0.7525 128.9501 526.4677)">
		<stop offset="0" style="stop-color:#A1C3FC"/>
		<stop offset="1" style="stop-color:#78A9EF"/>
	</linearGradient>
	<path d="M259.2,253c-3.1-10.8,12.6,2.5,17.9,9.6c6.9,9.2,9.8,21.1,13.3,32c3.2,9.9,6,18.5,4.3,29.1
		c-1.8,11.4-3.4,22.1-15,14.9c-16.3-10.1-7.7-39.3-12.9-56.4C263.5,270.8,262.9,268.7,259.2,253z" style="fill:url(#SVGID_8_);"/>
	<path d="M287.5,257.6c0,0,13.1,1.5,20.4,2.3c0.4,11.5,1.6,19.8,0.6,28.9c-1.3,11.9-3.1,23.2-8.1,34.4
		c-3.3,7.4-10.7,22.9-20.7,18c-9-4.5-9.3-14.7-9.6-23.2c-0.5-11.6,3.6-22.2,7-33.6C278.5,279.6,287.5,257.6,287.5,257.6z" style="fill:#A1C3FC;"/>
	<path d="M201.1,223.8h32.1c4.7,0,8.5-3.8,8.5-8.4v-15h-49v15C192.6,220,196.4,223.8,201.1,223.8z" style="opacity:0.4;fill:#FFFFFF;enable-background:new    ;"/>
	<rect x="183.8" y="198.2" width="59.6" height="7.7" style="fill:#23286B;"/>
	<path d="M177.8,373c-0.4,0-0.7,0-0.9,0l0.3-3.1c2.5,0.3,14.7-1.3,26.4-2.9c9.7-1.3,19.7-2.6,25.5-3.1
		c13.1-1,34.5,0.4,38.3,0.9l-0.4,3.1c-3.6-0.4-25-1.8-37.6-0.9c-5.7,0.4-15.7,1.8-25.4,3C190.3,371.9,181.3,373,177.8,373z" style="fill:#78A9EF;"/>
	<ellipse cx="223.3" cy="366.2" rx="1.2" ry="1.2" style="fill:#A1C3FC;"/>
	<ellipse cx="236.4" cy="365.3" rx="1.2" ry="1.2" style="fill:#A1C3FC;"/>
	<path d="M223.2,395c-0.2,0-0.4-0.2-0.4-0.4c0-1,0-2,0-3c0-3.8-0.1-7.7,0.5-11.2c0.1-0.8,0.3-1.7,0.5-2.5
		c0.8-4,1.5-7.8-0.4-11.4c-0.1-0.2,0-0.4,0.2-0.5s0.4,0,0.5,0.2c2.1,3.9,1.3,8,0.5,11.9c-0.2,0.8-0.3,1.6-0.5,2.5
		c-0.6,3.5-0.5,7.3-0.5,11.1c0,1,0,2,0,3C223.5,394.8,223.4,395,223.2,395z" style="fill:#23286B;"/>
	<path d="M236.9,397.7C236.9,397.7,236.9,397.7,236.9,397.7c-0.2,0-0.4-0.2-0.4-0.4c0-1.3-0.2-2.4-0.5-3.6
		c-0.3-1.5-0.6-3.1-0.4-4.8c0.1-1.3,0.5-2.7,0.9-4c0.4-1.4,0.8-2.9,0.9-4.4c0.1-1.4-0.7-3.4-1.5-5.6c-1.5-3.9-3.2-8.3,0.4-10.2
		c0.2-0.1,0.4,0,0.5,0.2c0.1,0.2,0,0.4-0.2,0.5c-3,1.6-1.5,5.5,0,9.3c0.9,2.2,1.7,4.3,1.6,5.9c-0.1,1.6-0.5,3.1-0.9,4.5
		c-0.4,1.3-0.7,2.6-0.8,3.9c-0.2,1.6,0.1,3.1,0.4,4.6c0.2,1.2,0.5,2.4,0.5,3.8C237.3,397.5,237.1,397.7,236.9,397.7z" style="fill:#23286B;"/>
	<path d="M266.3,332.7c-5.2-2.1-18.4-4-18.4-6.1c0.3-2.8,11.6,1.8,15.3,2.4c2.6,0.4,6.6,0.2,4.2-3.4
		c-1-1.6-5.9-2.8-7.7-3.4c-5.3-1.6-10.3-1.5-15.4-3.4c-4.1-1.5-3.5-2.5-0.9-5.8c2.1-2.6,4.8-4.7,4-9c-1.2-6.6-11.8,7.9-15,11.7
		c-5.1,5.9-8.5,3.1-15,6c-0.4,1.3-0.4,12.5-1.4,16.1c5.1-0.4,8-1.3,11.8,2.1c3.8,3.4,8.1,4.2,12.5,6.7c2,1.1,8.1,7.1,9.3,2.8
		c0.5-1.6-1-3.3-2.9-4.9c-0.4-0.5-0.9-0.9-1.2-1.1c-0.8-0.6-4.1-2.6-2.1-3.8c1.2-0.7,3.4,0.5,4.6,1c1.6,0.7,3.3,1.1,4.9,1.7
		c1.5,0.5,3,1,4.5,1.6c1.5,0.5,3,1.8,4.5,2c1.8,0.2,3.4-1.5,2.9-3.2c-0.5-1.7-2.4-2.4-3.9-2.9c-3-0.9-6-1.5-9-2.4
		c-0.8-0.2-1.6-0.4-2.3-0.7c-0.7-0.3-1.7-0.4-2.2-0.8c-1.1-0.6-0.2-1.1,0.9-1.4c3.9,0.3,9.5,1.3,17.6,3.2c0.9,0.2,4.2,0.3,4.1-2.4
		C269.7,333.4,267.5,333.1,266.3,332.7z" style="fill:#428DFC;"/>
	<path d="M288.5,221.5c-1,1.7-1.6,2.7-2.2,4.6c-0.5,1.5-0.8,3-0.9,4.5c-0.2,2.6,1.2,6.5,3.8,3.4
		c1.9-2.2,3.2-4.8,4.1-7.5c0.7-2,2.7-5.7,0.5-7.5c-2-1.6-2.8-0.4-4,0.7C289.6,220,289,220.8,288.5,221.5z" style="fill:#428DFC;"/>
	<path d="M293.9,224.7c-0.7,1.2-1.1,2.7-1.5,4c-0.5,1.6-3.1,7.1-0.2,7.6c1.9,0.3,4.4-3.9,5.3-5.2c1.5-2,3.6-4.9,2.6-7.6
		c-0.7-1.8-2-2.7-3.6-1.7C295.5,222.4,294.6,223.4,293.9,224.7z" style="fill:#428DFC;"/>
	<path d="M300.1,226.9c-0.7,1.1-1,2.5-1.4,3.7c-0.5,1.4-2.9,6.6-0.2,7.1c1.7,0.3,4.1-3.6,5-4.8c1.4-1.9,3.4-4.6,2.4-7
		c-0.6-1.6-1.9-2.5-3.3-1.6C301.6,224.7,300.8,225.7,300.1,226.9z" style="fill:#428DFC;"/>
	<path d="M271.8,244.5L271.8,244.5c-2,0-3.6-1.6-3.6-3.6v-21.5h7.1v21.5C275.3,242.9,273.7,244.5,271.8,244.5z" style="fill:#23286B;"/>
	<rect x="269.8" y="223.6" width="3.9" height="11.7" style="fill:#E94A47;"/>
	
		<linearGradient id="SVGID_9_" gradientUnits="userSpaceOnUse" x1="194.3041" y1="348.5173" x2="221.2873" y2="275.87" gradientTransform="matrix(0.771 0 0 -0.769 25.724 590.614)">
		<stop offset="0" style="stop-color:#A1C3FC"/>
		<stop offset="1" style="stop-color:#78A9EF"/>
	</linearGradient>
	<path d="M155,324.3c6.3-4.8,23.7-6.6,33.8-6c10.4,0.6,30.5,2.2,30.5,2.2l0.1,20.9c0,0-12.3,6.9-29.6,13.6
		c-8.4,3.2-15.7,2.6-26.3,4.7c-3.2,0.7-10.9,1.7-14,0.7c-5.4-1.8-8.3-7.5-8.3-12.5C141.1,336.5,147.6,329.9,155,324.3z" style="fill:url(#SVGID_9_);"/>
</g>
<g>
	
		<linearGradient id="R_shoe_1_IcsX4kMV04X6cwAzq2NGO_1_" gradientUnits="userSpaceOnUse" x1="805.9027" y1="1361.4077" x2="987.7808" y2="1361.4077" gradientTransform="matrix(0.4032 0 0 0.4037 182.4298 10.6564)">
		<stop offset="0" style="stop-color:#FFFFFF"/>
		<stop offset="1" style="stop-color:#F1F1E3"/>
	</linearGradient>
	<path id="R_shoe_1_IcsX4kMV04X6cwAzq2NGO" d="M570.4,545.8l10.4,28.9h-73.3c0,0,3.7-7.2,16.3-12.6
		c12.6-5.4,24.2-16.3,24.2-16.3H570.4" style="fill:url(#R_shoe_1_IcsX4kMV04X6cwAzq2NGO_1_);"/>
	
		<linearGradient id="L_shoe_1_IcsX4kMV04X6cwAzq2NGO_1_" gradientUnits="userSpaceOnUse" x1="1058.2263" y1="1361.4077" x2="1240.1044" y2="1361.4077" gradientTransform="matrix(0.4032 0 0 0.4037 182.4298 10.6564)">
		<stop offset="0" style="stop-color:#FFFFFF"/>
		<stop offset="1" style="stop-color:#F1F1E3"/>
	</linearGradient>
	<path id="L_shoe_1_IcsX4kMV04X6cwAzq2NGO" d="M672.1,545.8l10.4,28.9h-73.3c0,0,3.7-7.2,16.3-12.6
		c12.6-5.4,24.2-16.3,24.2-16.3H672.1" style="fill:url(#L_shoe_1_IcsX4kMV04X6cwAzq2NGO_1_);"/>
	
		<linearGradient id="L_hand_1_IcsX4kMV04X6cwAzq2NGO_1_" gradientUnits="userSpaceOnUse" x1="815.6103" y1="637.341" x2="739.0443" y2="518.2386" gradientTransform="matrix(0.4032 0 0 0.4037 182.4298 10.6564)">
		<stop offset="0" style="stop-color:#F2B7B7"/>
		<stop offset="1" style="stop-color:#E59A9D"/>
	</linearGradient>
	<path id="L_hand_1_IcsX4kMV04X6cwAzq2NGO" d="M523.8,263.4c0,0-12.7-7.8-21.9-19.4c-9.2-11.7-16.3-20.5-17.3-20
		c-1,0.5-2.7,2.6,0.5,6.8c3.2,4.2,5.7,7.1,3.7,9.7s-8.9,9.9,1.3,15.2c10.1,5.3,13.2,2.6,16.8,9.8c2.3,4.6,4.3,9.3,5.8,14.2
		l11.1-16.1" style="fill:url(#L_hand_1_IcsX4kMV04X6cwAzq2NGO_1_);"/>
	
		<linearGradient id="R_leg_1_IcsX4kMV04X6cwAzq2NGO_1_" gradientUnits="userSpaceOnUse" x1="853.5432" y1="1299.2233" x2="993.7179" y2="1034.6069" gradientTransform="matrix(0.4032 0 0 0.4037 182.4298 10.6564)">
		<stop offset="8.979999e-02" style="stop-color:#E1E7EF"/>
		<stop offset="0.8178" style="stop-color:#C9D0D9"/>
	</linearGradient>
	<path id="R_leg_1_IcsX4kMV04X6cwAzq2NGO" d="M607.1,379.7c-6.7,19.4-13.8,41.8-11.1,61.6c2.7,19.8-3,30.8-5.5,36.2
		c-2.5,5.5-3,17.9,1.6,35.4c4.7,17.5-2.7,32.8-2.7,32.8H548c0,0,1.1-65.8,2.1-99.7s2.8-42,5.8-52c2.9-10,12-66.3,12-66.3l6.4-0.6
		c16,5.2,31.2,3.7,42.7,1C618.1,339.9,612.8,363.1,607.1,379.7z" style="fill:url(#R_leg_1_IcsX4kMV04X6cwAzq2NGO_1_);"/>
	
		<linearGradient id="L_leg_1_IcsX4kMV04X6cwAzq2NGO_1_" gradientUnits="userSpaceOnUse" x1="1097.3973" y1="991.4321" x2="867.5792" y2="404.9997" gradientTransform="matrix(0.4032 0 0 0.4037 182.4298 10.6564)">
		<stop offset="8.979999e-02" style="stop-color:#E1E7EF"/>
		<stop offset="0.8178" style="stop-color:#C9D0D9"/>
	</linearGradient>
	<path id="L_leg_1_IcsX4kMV04X6cwAzq2NGO" d="M683.1,545.8h-33.4c0,0-37.3-93.7-47.9-116s-16.4-49-22.3-69.9
		c-3.1-11-5.6-22.1-7.3-33.4c19.6,6.9,38.4,3.8,50.6,0c1.6,4.4,7.9,22.3,7.9,41.1c0,21.7,6.4,39.6,12.1,49.2
		c7.2,11.7,12,24.7,14.1,38.3c2.6,16.6,8.3,19.2,16,31.3C680.5,498.7,690,529.8,683.1,545.8z" style="fill:url(#L_leg_1_IcsX4kMV04X6cwAzq2NGO_1_);"/>
	
		<linearGradient id="sweater_1_IcsX4kMV04X6cwAzq2NGO_1_" gradientUnits="userSpaceOnUse" x1="1070.2927" y1="612.5085" x2="1021.5621" y2="750.5784" gradientTransform="matrix(0.4032 0 0 0.4037 182.4298 10.6564)">
		<stop offset="0" style="stop-color:#FFFFFF"/>
		<stop offset="1" style="stop-color:#F1F1E3"/>
	</linearGradient>
	<path id="sweater_1_IcsX4kMV04X6cwAzq2NGO" d="M636.9,320.7c0,0-37.3,21.2-74.3,1.6c0,0,14.2-78.1,15-88.9
		c0,0,10.6,2.3,14.5-7.4C592.2,226.1,634.5,279.4,636.9,320.7z" style="fill:url(#sweater_1_IcsX4kMV04X6cwAzq2NGO_1_);"/>
	<path id="L_sleeve_1_IcsX4kMV04X6cwAzq2NGO" d="M599.6,236.8c6.4,8.6,12.2,17.6,17.3,27.1c0.6,37.6-16.8,54.1-34.1,64
		c-17.8,10-37.6,3.3-44.3-2.1c-2.8-2.3-9.6-7.2-22.5-7.2c-13,0-22.5-11.1-22.5-11.1l30.2-44.2c27.4,18.4,37.5,16.2,49.4,10.3
		c14.2-6.9,19-47.5,19-47.5C594.4,229.8,596.8,233.4,599.6,236.8z" style="fill:#FFFFFF;"/>
	
		<linearGradient id="neck_1_IcsX4kMV04X6cwAzq2NGO_1_" gradientUnits="userSpaceOnUse" x1="994.6693" y1="582.0266" x2="999.0151" y2="508.765" gradientTransform="matrix(0.4032 0 0 0.4037 182.4298 10.6564)">
		<stop offset="0" style="stop-color:#F2B7B7"/>
		<stop offset="1" style="stop-color:#E59A9D"/>
	</linearGradient>
	<path id="neck_1_IcsX4kMV04X6cwAzq2NGO" d="M592.2,226.1c-3.9,9.7-14.5,7.4-14.5,7.4c0.3-6.8,0.4-15.7,0.2-17.9
		c3.6,0.7,7.2,0.6,10.7-0.2C588.7,217.8,589.7,221.8,592.2,226.1z" style="fill:url(#neck_1_IcsX4kMV04X6cwAzq2NGO_1_);"/>
	<path id="face_1_IcsX4kMV04X6cwAzq2NGO" d="M591,205.1c-1,4.2-2.7,6.8-2.5,11c-4.4,1.2-13.2,1.3-16.5-3.1
		c-3.2-4.1-2.3-8.4-3.3-8.8c-1-0.4-2.9-1.6-2.7-2.6c0.2-1.1,3.8-3.5,5.2-7.3c0.1-0.4,0.3-0.7,0.5-1l0,0c0,0,0-0.1,0.1-0.2
		c1-2.3,2.6-4.3,4.6-5.9l0,0c1.1,0.6,12.1,7.2,14.3,14.2c0.2,0.4,0.3,0.8,0.3,1.3C591.2,203.4,591.2,204.3,591,205.1z" style="fill:#F2B7B7;"/>
	<path id="hair_1_IcsX4kMV04X6cwAzq2NGO" d="M652.8,276.3c-3-5-7.4-7.9-11.5-11.8c-7.7-7.2-2-17-3.1-25.6
		c0.2-2.8-0.8-5.6-2.6-7.7c-4.7-5.4-18.4-8.5-21.2-14.3c-1.6-3.5-1.6-6.2-1.7-9.2c0-1.2,0-2.3-0.2-3.6c-0.1-1-0.2-2-0.5-3
		c-1.3-6-4.4-15.8-16.4-18.2c-10.2-2.1-17.9,3.1-19.4,4.3c0,0,12.1,6.8,14.4,14.2c0.2,0.4,0.6,2.7,0.3,3.6c-2,8.5-7.4,10.9,8.6,31.7
		c16,20.8,29.2,50.8,30,54.2h23.1c0,0,1.5-12.5-8.5-21.1c-10-8.6-10.3-10.1-8.5-18.1c0.5-2,1-4,1.4-5.9c-0.8,5.8-2.3,11.7,1.4,16.8
		c2.6,3.5,6.7,5.6,9.6,8.7c4.9,5.3,7.9,12.2,8.4,19.4c0,0.5,0.8,0.5,0.8,0C656.9,285.7,655.4,280.7,652.8,276.3z" style="fill:#23286B;"/>
	<path id="texture_1_IcsX4kMV04X6cwAzq2NGO" d="M608.2,332.6c-0.1,0-0.2,0-0.3,0.1l0,0c0,0.1,0,0.2,0.1,0.3l0,0
		c0.1,0,0.2,0,0.3-0.1l0,0C608.4,332.7,608.3,332.6,608.2,332.6z M604,330.9c-0.1,0-0.2,0-0.3,0.1c0,0.1,0,0.2,0.1,0.3
		c0.1,0,0.2,0,0.3-0.1C604.1,331,604.1,330.9,604,330.9z M594.8,346.2c0-0.1-0.2-0.2-0.3-0.1c-0.1,0-0.2,0.2-0.1,0.3
		c0,0.1,0.2,0.2,0.3,0.1l0,0C594.8,346.4,594.9,346.3,594.8,346.2L594.8,346.2z M593.1,342c0-0.1-0.1-0.2-0.2-0.1l0,0
		c-0.1,0-0.2,0.2-0.1,0.3c0.1,0.1,0.2,0.2,0.3,0.1C593.1,342.3,593.2,342.1,593.1,342L593.1,342L593.1,342z M591.3,337.8
		c0-0.1-0.2-0.2-0.3-0.1c-0.1,0.1-0.2,0.2-0.1,0.3c0,0.1,0.2,0.2,0.3,0.1l0,0C591.3,338.1,591.3,338,591.3,337.8L591.3,337.8z
		 M589.6,333.6c0-0.1-0.2-0.2-0.3-0.1l0,0c-0.1,0.1-0.2,0.2-0.1,0.3c0,0.1,0.2,0.2,0.3,0.1l0,0C589.6,333.9,589.6,333.7,589.6,333.6
		L589.6,333.6z M601.3,338.9c-0.1-0.1-0.2-0.1-0.3,0c-0.1,0.1-0.1,0.2,0,0.3c0.1,0.1,0.2,0.1,0.3,0l0,0
		C601.4,339.1,601.4,338.9,601.3,338.9L601.3,338.9z M598.1,335.6c-0.1-0.1-0.2-0.1-0.3,0l-0.1,0.1c0,0.1,0,0.1,0.1,0.2l0,0l0,0
		c0.1,0,0.2,0,0.2,0C598.1,335.9,598.1,335.7,598.1,335.6L598.1,335.6z M594.8,332.4c-0.1-0.1-0.2-0.1-0.3,0c-0.1,0.1-0.1,0.2,0,0.3
		l0,0c0.1,0.1,0.2,0.1,0.3,0C594.9,332.7,594.9,332.5,594.8,332.4L594.8,332.4L594.8,332.4z M585.1,345.7c-0.1,0-0.2,0.1-0.2,0.2
		s0.1,0.2,0.2,0.2s0.2-0.1,0.2-0.2S585.3,345.7,585.1,345.7L585.1,345.7z M585.1,341.1c-0.1,0-0.2,0.1-0.2,0.2
		c0,0.1,0.1,0.2,0.2,0.2l0,0c0.1,0,0.2-0.1,0.2-0.2l0,0C585.3,341.2,585.2,341.1,585.1,341.1L585.1,341.1z M613,341.5
		c-0.2-0.1-0.4-0.1-0.5,0l0,0c-0.1,0.2-0.1,0.4,0,0.5c0.2,0.1,0.4,0.1,0.5,0l0,0C613.2,341.8,613.1,341.6,613,341.5L613,341.5z
		 M606.5,335.8c-0.2-0.1-0.4-0.1-0.5,0c-0.1,0.2-0.1,0.4,0,0.5c0.2,0.1,0.4,0.1,0.5,0l0,0C606.6,336.2,606.6,336,606.5,335.8
		L606.5,335.8L606.5,335.8z M593.3,368.9c-0.2,0-0.4,0.2-0.4,0.4c0,0.2,0.2,0.4,0.4,0.4l0,0c0.2,0,0.4-0.2,0.4-0.4
		C593.6,368.9,593.4,368.9,593.3,368.9L593.3,368.9L593.3,368.9z M592.6,360.3c-0.2,0-0.4,0.2-0.4,0.4l0,0c0,0.2,0.2,0.4,0.4,0.4
		s0.4-0.2,0.4-0.4l0,0C593,360.4,592.9,360.3,592.6,360.3L592.6,360.3z M592.1,351.7c-0.2,0-0.4,0.2-0.4,0.4c0,0.2,0.2,0.4,0.4,0.4
		l0,0c0.2,0,0.4-0.2,0.4-0.4l0,0C592.4,351.8,592.3,351.7,592.1,351.7L592.1,351.7z M591.4,343.1c-0.2,0-0.4,0.2-0.4,0.4l0,0
		c0,0.2,0.2,0.4,0.4,0.4c0.2,0,0.4-0.2,0.4-0.4C591.8,343.2,591.6,343.1,591.4,343.1L591.4,343.1z M590.9,334.5
		c-0.2,0-0.4,0.2-0.4,0.4c0,0.2,0.2,0.4,0.4,0.4s0.4-0.2,0.4-0.4l0,0C591.2,334.6,591.1,334.4,590.9,334.5L590.9,334.5z
		 M623.2,332.3c-0.2-0.1-0.4,0-0.5,0.2s0,0.4,0.2,0.5c0.2,0.1,0.4,0,0.5-0.2C623.5,332.6,623.4,332.3,623.2,332.3L623.2,332.3z
		 M615.1,329.6c-0.2-0.1-0.4,0-0.5,0.2l0,0c-0.1,0.2,0,0.4,0.2,0.5c0.2,0.1,0.4,0,0.5-0.2l0,0C615.4,329.9,615.3,329.7,615.1,329.6
		L615.1,329.6L615.1,329.6z M610.2,360.3c-0.1-0.2-0.3-0.3-0.5-0.2s-0.3,0.3-0.2,0.5c0.1,0.2,0.3,0.3,0.5,0.2l0,0
		C610.2,360.6,610.2,360.5,610.2,360.3L610.2,360.3z M606.3,352.6c-0.1-0.2-0.3-0.3-0.5-0.2c-0.2,0.1-0.3,0.3-0.2,0.5
		c0.1,0.2,0.3,0.3,0.5,0.2l0,0C606.3,353,606.4,352.8,606.3,352.6L606.3,352.6z M602.5,344.8c-0.1-0.2-0.3-0.3-0.5-0.2
		s-0.3,0.3-0.2,0.5c0.1,0.2,0.3,0.3,0.5,0.2C602.5,345.3,602.6,345,602.5,344.8L602.5,344.8z M598.6,337.2c-0.1-0.2-0.3-0.3-0.5-0.2
		s-0.3,0.3-0.2,0.5l0,0c0.1,0.2,0.3,0.3,0.5,0.2l0,0C598.6,337.5,598.7,337.4,598.6,337.2L598.6,337.2L598.6,337.2z M579.8,354.5
		c-0.2-0.1-0.4,0-0.5,0.2l0,0c-0.1,0.2,0,0.4,0.2,0.5c0.2,0.1,0.4-0.1,0.5-0.3C580.1,354.8,580,354.6,579.8,354.5L579.8,354.5
		L579.8,354.5z M582.6,346.4c-0.2-0.1-0.4,0-0.5,0.2s0,0.4,0.2,0.5l0,0c0.2,0.1,0.4,0,0.5-0.2l0,0
		C582.8,346.6,582.8,346.4,582.6,346.4L582.6,346.4z M585.3,338.2c-0.2-0.1-0.4,0.1-0.5,0.3c-0.1,0.2,0,0.4,0.2,0.5l0,0
		c0.2,0.1,0.4,0,0.5-0.2C585.6,338.5,585.5,338.3,585.3,338.2L585.3,338.2z M613.5,349.9c-0.1-0.2-0.3-0.2-0.5-0.1
		c-0.2,0.1-0.2,0.3-0.1,0.5c0.1,0.2,0.3,0.2,0.5,0.1l0,0C613.5,350.1,613.6,350,613.5,349.9L613.5,349.9L613.5,349.9z M609.4,343.3
		C609.4,343.2,609.3,343.2,609.4,343.3L609.4,343.3c-0.2-0.1-0.3-0.1-0.4-0.1c-0.2,0.1-0.2,0.3-0.1,0.5l0,0c0.1,0.2,0.3,0.2,0.5,0.1
		c0.1,0,0.1-0.1,0.1-0.2C609.5,343.5,609.5,343.4,609.4,343.3L609.4,343.3z M605.3,336.8c-0.1-0.2-0.3-0.2-0.5-0.1
		c-0.2,0.1-0.2,0.3-0.1,0.5c0.1,0.2,0.3,0.2,0.5,0.1l0,0C605.4,337.2,605.5,336.9,605.3,336.8L605.3,336.8L605.3,336.8z
		 M585.5,361.6c-0.2,0-0.4,0.1-0.4,0.3l0,0c0,0.2,0.1,0.4,0.2,0.4l0,0c0.2,0,0.4-0.1,0.4-0.3C585.8,361.7,585.6,361.6,585.5,361.6
		L585.5,361.6z M587.2,354.1c-0.2,0-0.4,0.1-0.4,0.3l0,0c0,0.2,0.1,0.4,0.2,0.4l0,0c0.2,0,0.4-0.1,0.4-0.3
		C587.5,354.2,587.3,354.1,587.2,354.1L587.2,354.1z M589,346.6c-0.2,0-0.4,0.1-0.4,0.3l0,0c-0.1,0.2,0,0.4,0.2,0.4l0,0
		c0.2,0,0.4-0.1,0.4-0.3l0,0C589.1,346.8,589.1,346.6,589,346.6L589,346.6z M590.6,339.1c-0.2,0-0.4,0.1-0.4,0.3
		c0,0.2,0.1,0.4,0.3,0.4s0.4-0.1,0.4-0.3C590.9,339.3,590.8,339.1,590.6,339.1L590.6,339.1z M592.3,331.6c-0.2,0-0.4,0.1-0.4,0.3
		c0,0.2,0.1,0.4,0.3,0.4c0.2,0,0.4-0.1,0.4-0.3l0,0C592.6,331.8,592.5,331.6,592.3,331.6L592.3,331.6z M620.7,337.9
		c-0.2-0.1-0.4-0.1-0.5,0.1l0,0c-0.1,0.1-0.1,0.4,0.1,0.5l0,0c0.1,0.1,0.4,0.1,0.5-0.1l0,0C620.8,338.3,620.7,338.1,620.7,337.9
		L620.7,337.9z M614.4,333.5c-0.2-0.1-0.4-0.1-0.5,0.1s-0.1,0.4,0.1,0.5c0.2,0.1,0.4,0.1,0.5-0.1
		C614.5,333.8,614.5,333.6,614.4,333.5L614.4,333.5z M601.8,358.2c-0.2,0-0.3,0.2-0.3,0.4c0,0.2,0.2,0.3,0.4,0.3s0.3-0.2,0.3-0.4
		C602.1,358.3,602,358.1,601.8,358.2L601.8,358.2z M600.6,350.6c-0.2,0-0.3,0.2-0.3,0.4c0,0.2,0.2,0.3,0.4,0.3s0.3-0.2,0.3-0.4l0,0
		C600.9,350.7,600.7,350.5,600.6,350.6L600.6,350.6z M599.3,343c-0.2,0-0.3,0.2-0.3,0.4l0,0c0,0.2,0.2,0.3,0.4,0.3s0.3-0.2,0.3-0.4
		C599.7,343.1,599.5,342.9,599.3,343L599.3,343L599.3,343z M598,335.4c-0.2,0-0.3,0.2-0.3,0.4c0,0.1,0,0.1,0.1,0.2l0,0
		c0.1,0.1,0.2,0.1,0.3,0.1c0.2,0,0.3-0.2,0.3-0.4C598.4,335.5,598.2,335.3,598,335.4L598,335.4L598,335.4z M577.8,345.6
		c-0.2-0.1-0.4-0.1-0.5,0.1c-0.1,0.2-0.1,0.4,0.1,0.5c0.2,0.1,0.4,0.1,0.5-0.1C578,345.8,577.9,345.7,577.8,345.6L577.8,345.6z
		 M617,337.4c-0.1-0.1-0.2-0.1-0.3,0c-0.1,0.1-0.1,0.2,0,0.3s0.2,0.1,0.3,0l0,0C617.1,337.6,617.1,337.5,617,337.4L617,337.4z
		 M613.9,334.2c-0.1-0.1-0.2-0.1-0.3,0s-0.1,0.2,0,0.3s0.2,0.1,0.3,0l0,0C614,334.3,614,334.3,613.9,334.2L613.9,334.2z
		 M610.8,330.9c-0.1-0.1-0.2-0.1-0.3,0c-0.1,0.1-0.1,0.2,0,0.3l0,0c0.1,0.1,0.2,0.1,0.3,0C610.9,331.1,610.9,331,610.8,330.9
		L610.8,330.9z M599,344.1c-0.1,0-0.2,0.1-0.2,0.2c0,0.1,0.1,0.2,0.2,0.2s0.2-0.1,0.2-0.2C599.2,344.2,599.1,344.1,599,344.1
		L599,344.1L599,344.1z M599.1,339.5c-0.1,0-0.2,0.1-0.2,0.2l0,0c0,0.1,0.1,0.2,0.2,0.2l0,0c0.1,0,0.2-0.1,0.2-0.2
		S599.2,339.5,599.1,339.5L599.1,339.5L599.1,339.5z M599.3,335.1c-0.1,0-0.2,0.1-0.2,0.2l0,0c0,0.1,0.1,0.2,0.2,0.2
		c0.1,0,0.2-0.1,0.2-0.2C599.5,335.2,599.4,335.1,599.3,335.1z M620.6,328.2c-0.1,0-0.2,0-0.3,0.1l0,0c0,0.1,0,0.2,0.1,0.3
		c0.1,0,0.2,0,0.3-0.1C620.7,328.4,620.7,328.3,620.6,328.2L620.6,328.2z M608.1,340.3c0-0.1-0.1-0.2-0.2-0.1l0,0
		c-0.1,0-0.2,0.1-0.1,0.3l0,0c0,0.1,0.2,0.2,0.3,0.1C608.1,340.5,608.1,340.4,608.1,340.3L608.1,340.3z M606.5,336.1
		c0-0.1-0.2-0.2-0.3-0.1l0,0c-0.1,0-0.2,0.2-0.1,0.3c0,0.1,0.2,0.2,0.3,0.1C606.5,336.3,606.5,336.2,606.5,336.1L606.5,336.1
		L606.5,336.1z M604.9,331.8c0-0.1-0.2-0.2-0.3-0.1c-0.1,0-0.2,0.2-0.1,0.3c0,0.1,0.1,0.2,0.2,0.1l0,0
		C604.9,332,604.9,331.9,604.9,331.8L604.9,331.8L604.9,331.8z M590.6,339.7c-0.1,0-0.2,0-0.3,0.1l0,0c0,0.1,0,0.2,0.1,0.3
		c0.1,0.1,0.2,0,0.3-0.1C590.8,339.9,590.7,339.7,590.6,339.7z M592.5,335.6c-0.1,0-0.2,0-0.3,0.1l0,0c0,0.1,0,0.2,0.1,0.3l0,0
		c0.1,0,0.2,0,0.3-0.1C592.6,335.8,592.6,335.6,592.5,335.6L592.5,335.6L592.5,335.6z M594.4,331.5c-0.1,0-0.2,0-0.3,0.1
		c0,0.1,0,0.2,0.1,0.3c0.1,0,0.2,0,0.3-0.1C594.5,331.6,594.4,331.5,594.4,331.5L594.4,331.5z M620.3,341.9
		c-0.1-0.1-0.2-0.1-0.3-0.1l0,0c-0.1,0.1-0.1,0.2-0.1,0.3l0,0c0.1,0.1,0.2,0.1,0.3,0.1l0,0C620.3,342.2,620.4,342,620.3,341.9
		L620.3,341.9z M617.5,337.5c-0.1-0.1-0.2-0.1-0.3-0.1l0,0c-0.1,0.1-0.1,0.2-0.1,0.3c0.1,0.1,0.2,0.1,0.3,0.1
		C617.6,337.8,617.6,337.7,617.5,337.5L617.5,337.5L617.5,337.5z M614.7,333.2c-0.1-0.1-0.2-0.1-0.3-0.1c-0.1,0-0.1,0.2-0.1,0.3l0,0
		c0.1,0.1,0.2,0.1,0.3,0C614.7,333.4,614.8,333.3,614.7,333.2L614.7,333.2z M598.7,345.7c-0.1,0-0.2,0.1-0.3,0.2
		c0,0.1,0,0.2,0.2,0.3c0.1,0,0.2,0,0.3-0.1l0,0C598.9,345.8,598.8,345.7,598.7,345.7L598.7,345.7z M599.8,340.6
		c-0.1,0-0.2,0.1-0.3,0.2c0,0.1,0,0.2,0.2,0.3c0.1,0,0.3,0,0.3-0.2l0,0C600,340.7,599.9,340.6,599.8,340.6L599.8,340.6z
		 M600.9,335.5c-0.1,0-0.2,0.1-0.3,0.2c0,0.1,0,0.2,0.2,0.3c0.1,0,0.2,0,0.3-0.2l0,0C601.1,335.7,601,335.6,600.9,335.5L600.9,335.5
		z M602,330.5c-0.1,0-0.3,0.1-0.3,0.2s0,0.2,0.2,0.3c0.1,0,0.2,0,0.3-0.2l0,0C602.2,330.6,602.1,330.5,602,330.5L602,330.5z
		 M621.8,329.4c-0.1-0.1-0.3-0.1-0.3,0.1c-0.1,0.1,0,0.3,0.1,0.3l0,0c0.1,0.1,0.2,0,0.3-0.1C621.9,329.7,621.9,329.5,621.8,329.4
		L621.8,329.4z M609.5,343.4c0-0.1-0.1-0.2-0.3-0.2l0,0l0,0c-0.1,0-0.2,0.1-0.2,0.3c0,0.1,0.1,0.2,0.3,0.2l0,0h0.1
		C609.5,343.6,609.6,343.5,609.5,343.4L609.5,343.4z M608.4,338.1c-0.1,0-0.2,0.2-0.2,0.3s0.2,0.2,0.3,0.2s0.2-0.1,0.2-0.3l0,0
		C608.6,338.2,608.5,338.1,608.4,338.1L608.4,338.1z M607.5,333c-0.1,0-0.2,0.1-0.2,0.3c0,0.1,0.1,0.2,0.3,0.2
		c0.1,0,0.2-0.1,0.2-0.3l0,0C607.7,333.1,607.6,333,607.5,333L607.5,333L607.5,333z M590.1,339.1c-0.1-0.1-0.2,0-0.3,0.1l0,0
		c-0.1,0.1,0,0.2,0.1,0.3c0.1,0.1,0.2,0.1,0.3,0l0,0C590.2,339.4,590.2,339.2,590.1,339.1L590.1,339.1z M593.1,334.9
		c-0.1-0.1-0.3,0-0.3,0.1c-0.1,0.1,0,0.2,0.1,0.3l0,0c0.1,0.1,0.2,0.1,0.3,0l0,0C593.2,335.1,593.2,335,593.1,334.9L593.1,334.9
		L593.1,334.9z M617.2,364.7c-0.2,0-0.4,0.2-0.3,0.5c0,0.2,0.2,0.4,0.5,0.3c0.2,0,0.4-0.2,0.3-0.5
		C617.6,364.7,617.5,364.7,617.2,364.7z M615.8,355.9c-0.2,0-0.4,0.2-0.3,0.5c0,0.2,0.2,0.4,0.5,0.3c0.2,0,0.4-0.2,0.3-0.5
		C616.2,356,616,355.9,615.8,355.9L615.8,355.9z M614.4,347.1c-0.2,0-0.4,0.2-0.3,0.4c0.1,0.2,0.2,0.4,0.4,0.3l0,0
		c0.2,0,0.4-0.2,0.3-0.5C614.8,347.2,614.6,347,614.4,347.1L614.4,347.1z M613.1,338.4c-0.2,0-0.4,0.2-0.3,0.5l0,0
		c0,0.2,0.2,0.4,0.5,0.3c0.2,0,0.4-0.2,0.3-0.5C613.4,338.5,613.3,338.3,613.1,338.4L613.1,338.4L613.1,338.4z M611.7,329.6
		c-0.2,0-0.4,0.2-0.3,0.5c0,0.2,0.2,0.4,0.4,0.3c0.2,0,0.4-0.2,0.3-0.5C612.1,329.7,611.9,329.5,611.7,329.6L611.7,329.6z
		 M581.1,356c-0.2-0.1-0.4-0.1-0.5,0.1c-0.1,0.2-0.1,0.4,0.1,0.5c0.2,0.1,0.4,0.1,0.5-0.1C581.4,356.3,581.3,356.1,581.1,356z
		 M586.4,348.8c-0.2-0.1-0.4-0.1-0.5,0.1c-0.1,0.2-0.1,0.4,0.1,0.5c0.2,0.2,0.4,0.1,0.5-0.1C586.6,349.1,586.5,348.9,586.4,348.8
		L586.4,348.8z M591.6,341.6c-0.2-0.1-0.4-0.1-0.5,0.1l0,0c-0.1,0.2-0.1,0.4,0.1,0.5c0.2,0.1,0.4,0.1,0.5-0.1
		C591.8,341.9,591.8,341.7,591.6,341.6L591.6,341.6L591.6,341.6z M596.8,334.4c-0.2-0.1-0.4-0.1-0.5,0.1l0,0
		c-0.1,0.2-0.1,0.4,0.1,0.5c0.2,0.1,0.4,0.1,0.5-0.1C597,334.8,597,334.5,596.8,334.4L596.8,334.4L596.8,334.4z M624.4,339.5
		c-0.1-0.2-0.4-0.3-0.5-0.1c-0.2,0.1-0.3,0.4-0.1,0.5c0.1,0.2,0.4,0.3,0.5,0.1C624.5,339.8,624.5,339.6,624.4,339.5L624.4,339.5z
		 M619.7,331.9c-0.1-0.2-0.4-0.3-0.5-0.1l0,0c-0.2,0.1-0.2,0.4-0.1,0.5c0.1,0.2,0.4,0.2,0.5,0.1
		C619.8,332.2,619.8,332.1,619.7,331.9z M599.9,360c-0.2-0.1-0.4,0.1-0.5,0.3l0,0c-0.1,0.2,0.1,0.4,0.3,0.5c0.2,0,0.4-0.1,0.5-0.3
		C600.2,360.2,600.1,360,599.9,360L599.9,360L599.9,360z M602,351.3c-0.2-0.1-0.4,0.1-0.5,0.3l0,0c-0.1,0.2,0.1,0.4,0.3,0.5l0,0
		c0.2,0.1,0.4-0.1,0.5-0.3l0,0C602.3,351.6,602.2,351.4,602,351.3L602,351.3L602,351.3z M604,342.7c-0.2,0-0.4,0.1-0.5,0.3
		c0,0.2,0.1,0.4,0.3,0.5c0.2,0.1,0.4-0.1,0.5-0.3l0,0C604.4,342.9,604.3,342.7,604,342.7L604,342.7L604,342.7z M606.1,334.1
		c-0.2,0-0.4,0.1-0.5,0.3c0,0.2,0.1,0.4,0.3,0.5c0.2,0,0.4-0.1,0.5-0.3C606.5,334.3,606.3,334.2,606.1,334.1L606.1,334.1
		L606.1,334.1z M605.3,362.8c-0.2,0-0.4,0.1-0.5,0.3c-0.1,0.2,0.1,0.4,0.3,0.5c0.2,0,0.4-0.1,0.5-0.3
		C605.6,363.1,605.5,362.8,605.3,362.8L605.3,362.8L605.3,362.8z M607,354.2c-0.2,0-0.4,0.1-0.5,0.3c0,0.2,0.1,0.4,0.3,0.5
		c0.2,0,0.4-0.1,0.5-0.3C607.3,354.4,607.2,354.2,607,354.2L607,354.2z M608.7,345.5c-0.2,0-0.4,0.1-0.5,0.3
		c-0.1,0.2,0.1,0.4,0.3,0.5l0,0c0.2,0,0.4-0.1,0.5-0.3C609.1,345.8,608.9,345.6,608.7,345.5L608.7,345.5z M610.4,336.8
		c-0.2,0-0.4,0.1-0.5,0.3l0,0c0,0.2,0.1,0.4,0.3,0.5c0.2,0,0.4-0.1,0.5-0.3l0,0C610.7,337.1,610.6,336.9,610.4,336.8L610.4,336.8
		L610.4,336.8z M589.2,332.5c-0.1-0.2-0.4-0.2-0.5-0.1l0,0c-0.2,0.1-0.2,0.4-0.1,0.5c0.1,0.2,0.4,0.2,0.5,0.1
		C589.2,332.9,589.3,332.7,589.2,332.5L589.2,332.5L589.2,332.5z M620,340.7c-0.2,0-0.4,0.3-0.3,0.5c0,0.2,0.3,0.4,0.5,0.3
		c0.2,0,0.4-0.3,0.3-0.5l0,0C620.5,340.8,620.3,340.6,620,340.7L620,340.7L620,340.7z M618.3,332.1c-0.2,0-0.4,0.3-0.3,0.5
		c0.1,0.2,0.3,0.4,0.5,0.3c0.2,0,0.3-0.2,0.3-0.5C618.7,332.2,618.6,332,618.3,332.1L618.3,332.1z M590.5,351.8
		c-0.2-0.1-0.4-0.1-0.5,0.1l0,0c-0.1,0.2-0.1,0.4,0.1,0.5c0.2,0.1,0.4,0.1,0.5-0.1C590.8,352.1,590.7,352,590.5,351.8L590.5,351.8z
		 M595.4,344.5c-0.2-0.1-0.4-0.1-0.5,0.1l0,0c-0.1,0.2-0.1,0.4,0.1,0.5c0.2,0.1,0.4,0.1,0.5-0.1
		C595.6,344.8,595.6,344.6,595.4,344.5L595.4,344.5L595.4,344.5z M600.4,337.1c-0.2-0.1-0.4-0.1-0.5,0.1c-0.1,0.2-0.1,0.4,0.1,0.5
		c0.2,0.1,0.4,0.1,0.5-0.1C600.6,337.4,600.6,337.2,600.4,337.1L600.4,337.1L600.4,337.1z M605.2,347.7c-0.1-0.1-0.3,0-0.4,0.1l0,0
		c-0.1,0.2,0,0.3,0.2,0.4c0.2,0.1,0.3,0,0.4-0.2C605.4,347.9,605.4,347.7,605.2,347.7z M607.9,341.6c-0.2-0.1-0.3,0-0.4,0.1l0,0
		c-0.1,0.2,0,0.3,0.2,0.4c0.2,0.1,0.3,0,0.4-0.2C608.1,341.7,608,341.6,607.9,341.6L607.9,341.6z M610.5,335.3
		c-0.2-0.1-0.3,0-0.4,0.2c-0.1,0.2,0,0.3,0.2,0.4c0.2,0.1,0.3,0,0.4-0.2l0,0C610.7,335.6,610.6,335.4,610.5,335.3L610.5,335.3z
		 M613.1,329.2c-0.2-0.1-0.3,0-0.4,0.2c-0.1,0.2,0,0.3,0.2,0.4l0,0c0.1,0.1,0.3,0,0.4-0.1l0,0C613.4,329.5,613.3,329.3,613.1,329.2
		L613.1,329.2L613.1,329.2z M619.3,340.4c-0.2,0-0.3,0.1-0.3,0.3l0,0c0,0.2,0.1,0.3,0.3,0.3l0,0c0.2,0,0.3-0.1,0.3-0.3
		C619.6,340.5,619.5,340.4,619.3,340.4L619.3,340.4L619.3,340.4z M619.4,333.7c-0.2,0-0.3,0.1-0.3,0.3c0,0.2,0.1,0.3,0.3,0.3l0,0
		c0.2,0,0.3-0.1,0.3-0.3l0,0C619.7,333.8,619.6,333.7,619.4,333.7L619.4,333.7L619.4,333.7z M595.9,337.3c-0.1-0.1-0.3-0.1-0.4,0
		l0,0c-0.1,0.1-0.1,0.3,0,0.4l0,0c0.1,0.1,0.3,0.1,0.4,0C596,337.5,596,337.4,595.9,337.3L595.9,337.3z M600.7,332.6
		c-0.1-0.1-0.3-0.1-0.4,0c-0.1,0.1-0.1,0.3,0,0.4c0.1,0.1,0.3,0.1,0.4,0C600.7,332.9,600.7,332.7,600.7,332.6L600.7,332.6z
		 M621.1,332.4c-0.1,0-0.2,0-0.2,0.1c0,0.1,0,0.2,0.1,0.2l0,0c0.1,0,0.2-0.1,0.2-0.1C621.2,332.5,621.1,332.5,621.1,332.4
		L621.1,332.4z M621.7,328.9c-0.1,0-0.2,0-0.2,0.1l0,0c0,0.1,0,0.2,0.1,0.2l0,0c0.1,0,0.2,0,0.2-0.1l0,0
		C621.8,329,621.8,328.9,621.7,328.9L621.7,328.9z M616.8,338.2c-0.1-0.1-0.3,0-0.4,0.1l0,0c-0.1,0.1-0.1,0.3,0.1,0.3l0,0
		c0.1,0.1,0.3,0.1,0.4-0.1l0,0C617,338.4,617,338.3,616.8,338.2L616.8,338.2z M620,333.1c-0.1-0.1-0.3,0-0.4,0.1
		c-0.1,0.1,0,0.3,0.1,0.4l0,0c0.1,0.1,0.3,0,0.4-0.1l0,0C620.2,333.2,620.2,333.2,620,333.1C620.1,333.1,620.1,333.1,620,333.1
		L620,333.1z M623.3,328c-0.1-0.1-0.3,0-0.4,0.1c-0.1,0.1,0,0.3,0.1,0.4l0,0c0.1,0.1,0.3,0,0.4-0.1C623.4,328.2,623.4,328,623.3,328
		L623.3,328z" style="opacity:0.86;fill:#FFFFFF;enable-background:new    ;"/>
	<path id="lips_1_IcsX4kMV04X6cwAzq2NGO" d="M574.2,207.2c-1.1,1.6-3.2,2-4.7,1c-0.5-0.4-1-0.9-1.3-1.6
		c-0.2-0.5,0.5-0.9,0.7-0.4c0.5,1.4,2,2.1,3.4,1.6c0.5-0.2,0.9-0.5,1.3-1C573.7,206.3,574.4,206.8,574.2,207.2L574.2,207.2z" style="fill:#F8FFFC;"/>
</g>
</svg>