<svg enable-background="new 0 0 529.138 596.7" height="596.7" viewBox="0 0 529.138 596.7" width="529.138" xmlns="http://www.w3.org/2000/svg"><path d="m412.438 589.4s8.3-1.5 12.8-2.8c3.4-1 5.8-4.1 5.8-7.7v-35.2c0-3.6-2.4-6.7-5.8-7.7-4.5-1.3-12.8-2.8-12.8-2.8z" fill="#fff"/><path d="m429.137 409v58.6s-22.7 13.1-32.1 18.5c-.8.5-1.8.5-2.7 0-.8-.5-1.3-1.4-1.3-2.3 0-12.2 0-45 0-52.5 0-1 .5-1.8 1.3-2.3 6.5-3.7 34.8-20 34.8-20z" fill="#00e6b3"/><circle cx="407.038" cy="433.3" fill="#fff" r="2.5"/><circle cx="402.837" cy="468.3" fill="#fff" r="3.6"/><circle cx="412.637" cy="473.6" fill="#fff" r="2.5"/><circle cx="423.637" cy="453.9" fill="#fff" r="2.5"/><circle cx="418.938" cy="436.9" fill="#fff" r="5.6"/><path d="m296.438 228.2c0-47.8-38.8-86.6-86.6-86.6h-84.8c-47.8 0-86.6 38.8-86.6 86.6v269.2h258z" fill="#fff"/><path d="m192.238 145.3 9-2c11.1-2.5 22.5-2.4 33.6.1 12.8 3 31.4 7.2 49.5 11.4 34.6 8 59.1 38.7 59.1 74.2v270.6h-50.7v-270.6c0-35.5-24.5-66.3-59.1-74.2z" fill="#00e6b3"/><path d="m484.038 382.9c-16.5-.4-28.5-6.2-36.6-14.2-9.1-8.9-13.9-21.2-13.9-35.3 0-16.6-.3-104.6-.3-127.1 0-11.6-8.1-23.5-19.7-23.5h-74.3v-40.3h74.3c33.3 0 60 30.5 60 63.7 0 22.4.3 110.4.3 127.1 0 2.5.3 5 1.9 6.6 2.2 2.2 5.8 2.7 10.3 2.7 7.8 0 19.3 4.3 28.4 12.9 8.6 8.2 14.7 19.8 14.7 31.6 0 12.9-.2 86.5-.2 100.3 0 22.4-10.9 46.3-28.8 64.3-17.7 17.8-42 29.8-67.6 29.8v-40.3c14.9 0 28.8-7.5 39.1-17.9 10.1-10.2 17.1-23.3 17.1-35.9 0-13.7.2-85.8.2-99.9-.2-.3-.7-1.3-1.1-1.8-1.1-1-3.001-2.3-3.8-2.8z" fill="#ff2e93"/><path d="m435.938 541.1c-1.2.1-2.4.1-3.6.1v40.3c2.3 0 4.6-.1 6.9-.3zm36.399-18.7c-3.5 3.7-7.5 7.1-11.9 9.9l21.9 33.8c6.9-4.5 13.3-9.9 19-15.8zm16.201-36.6v1.6c0 4-.7 8-2 12l38.3 12.5c2.6-8.1 4-16.3 4-24.4 0-.5 0-1 0-1.6zm.099-56.4c0 6.7 0 13.5-.1 20.1l40.3.1c0-6.6 0-13.5.1-20.1zm.101-41.8c-.1-.3-.5-1-.8-1.3l32.3-24.1c5.5 7.3 8.8 16.1 8.8 25v6.1l-40.3-.1zm-49.7-30.2c5.2 10 13.9 18 26.4 22.3l13.1-38.1c-1.7-.6-3.1-1.5-3.8-2.9zm-5.701-65.1c0 7.3 0 14.1.1 20.1l40.3-.1c0-6 0-12.9-.1-20.1zm-.099-56.4c0 6.3 0 13.1.1 20.1l40.3-.1c0-7 0-13.8-.1-20.1zm-4.401-43.7c2.1 3.1 3.5 6.7 4.1 10.5l39.8-6.1c-1.5-9.6-5.1-18.8-10.4-26.7zm-33.299-9.3h17.9 1l2.5-40.2c-1.2-.1-2.3-.1-3.5-.1h-17.9zm-56.4 0h20.1v-40.3h-20.1z" fill="#142664"/><path d="m389.538 215.2c-.2-1.6-1.6-2.8-3.3-2.8h-3.5c-1.7 0-3 1.2-3.3 2.8-.5 3.7-1.4 9.8-1.4 9.8h12.8c-.001 0-.8-6.1-1.3-9.8z" fill="#142664"/><path d="m355.538 162h14.4c3.2 0 5.8 2.6 5.8 5.8v1.1c0 2.8-2 5.1-4.6 5.7 2.6.6 4.6 2.9 4.6 5.7v1.1c0 2.8-2 5.1-4.6 5.7 2.6.6 4.6 2.9 4.6 5.7v1.1c0 2.8-2 5.1-4.6 5.7 2.6.6 4.6 2.9 4.6 5.7v1.1c0 2.8-2 5.1-4.6 5.7 2.6.6 4.6 2.9 4.6 5.7v1.1c0 3.2-2.6 5.8-5.8 5.8h-14.4z" fill="#00e6b3"/><path d="m195.137 77.8c0-20.7 16.8-37.5 37.5-37.5s37.5 16.8 37.5 37.5v23.6c0 11.1 9 20.1 20.1 20.1s20.1-9 20.1-20.1v-23.6c0-42.9-34.8-77.8-77.8-77.8s-77.8 34.8-77.8 77.8c0 11.1 9 20.1 20.1 20.1 11.2.1 20.3-9 20.3-20.1z" fill="#ff2e93"/><path d="m195.137 77.8c0-4.5.8-8.8 2.3-12.8l-37.8-13.8c-3 8.3-4.7 17.3-4.7 26.6zm71.801-15.1c1.7 3.9 2.8 8.2 3.1 12.6l40.2-2.7c-.6-9.3-2.9-18.2-6.5-26.3zm-57.401-14.4c3.4-2.7 7.3-4.8 11.5-6.1l-12.4-38.3c-8.7 2.8-16.8 7.2-23.9 12.7zm32.201-6.8c4.3 1.1 8.3 2.9 11.9 5.3l22.6-33.3c-7.4-5-15.8-8.8-24.7-11.1z" fill="#142664"/><path d="m215.738 75.1c0-6.8 5.5-12.3 12.3-12.3s12.3 5.5 12.3 12.3v14.7c0 3.2 2.6 5.8 5.8 5.8s5.8-2.6 5.8-5.8v-14.7c0-13.2-10.7-23.9-23.9-23.9s-23.9 10.7-23.9 23.9c0 3.2 2.6 5.8 5.8 5.8 3.199-.1 5.8-2.6 5.8-5.8z" fill="#142664"/><path d="m223.337 87.2s-1.9-7.4-3.2-12.6c-.7-3-3.4-5.1-6.5-5.1-12.5 0-44.1 0-56.6 0-3.1 0-5.8 2.1-6.5 5.1-1.3 5.2-3.2 12.6-3.2 12.6z" fill="#fff"/><path d="m113.838 123.6s-1.9-12.6-3-20.3c-.5-3.3-3.3-5.7-6.6-5.7-1.7 0-3.6 0-5.3 0-3.3 0-6.2 2.4-6.6 5.7-1.1 7.7-3 20.3-3 20.3z" fill="#ff2e93"/><path d="m105.138 119.9s-.6-8.2-.9-12.4c-.1-1.4-1.2-2.4-2.6-2.4-1.4 0-2.5 1.1-2.6 2.4-.3 4.2-.9 12.4-.9 12.4z" fill="#142664"/><path d="m103.037 91.9s.2-1.7.3-4c.1-1.2.2-2.6.2-4 0-.8 0-1.6-.1-2.4-.2-3.1-.4-5.6-.4-5.6 0-.8-.6-1.4-1.4-1.4s-1.4.6-1.4 1.4c0 0-.3 2.5-.4 5.6 0 .8-.1 1.6-.1 2.4 0 1.4.1 2.8.2 4 .1 2.3.3 4 .3 4 0 .8.6 1.4 1.4 1.4s1.4-.6 1.4-1.4z" fill="#ff2e93"/><path d="m87.237 100.5s-1.4-1-3.3-2.3c-1-.7-2.2-1.4-3.4-2.1-.7-.4-1.4-.8-2.1-1.1-2.7-1.4-5.1-2.4-5.1-2.4-.7-.4-1.5-.2-1.9.5s-.2 1.5.5 1.9c0 0 2.1 1.5 4.6 3.2.7.4 1.3.9 2 1.3 1.2.7 2.4 1.3 3.5 1.9 2.1 1 3.6 1.7 3.6 1.7.7.4 1.5.2 1.9-.5.601-.9.4-1.7-.3-2.1z" fill="#ff2e93"/><path d="m113.037 92.7s.6-.6 1.3-1.6c.4-.5.8-1 1.1-1.6.2-.3.4-.7.5-1.1.6-1.4 1-2.6 1-2.6.4-.7.2-1.5-.5-1.9s-1.5-.2-1.9.5c0 0-.8.9-1.8 2.2-.2.3-.5.6-.7 1-.3.6-.6 1.2-.9 1.8-.5 1.1-.7 1.9-.7 1.9-.4.7-.2 1.5.5 1.9.8.4 1.701.1 2.1-.5z" fill="#ff2e93"/><path d="m92.737 91.2s-.3-.8-.7-1.9c-.2-.6-.5-1.2-.9-1.8-.2-.4-.4-.7-.7-1-.9-1.3-1.8-2.2-1.8-2.2-.4-.7-1.3-.9-1.9-.5-.7.4-.9 1.3-.5 1.9 0 0 .4 1.2 1 2.6.2.4.3.7.5 1.1.4.6.8 1.2 1.1 1.6.7.9 1.3 1.6 1.3 1.6.4.7 1.3.9 1.9.5.801-.3 1.101-1.2.7-1.9z" fill="#ff2e93"/><path d="m83.537 110.2s-.8-.2-2-.3c-.6-.1-1.3-.2-2-.2-.4 0-.8 0-1.2.1-1.6.2-2.8.4-2.8.4-.8 0-1.4.6-1.4 1.4s.6 1.4 1.4 1.4c0 0 1.2.3 2.8.4.4 0 .8.1 1.2.1.7 0 1.4-.1 2-.2 1.2-.1 2-.3 2-.3.8 0 1.4-.6 1.4-1.4s-.599-1.4-1.4-1.4z" fill="#ff2e93"/><path d="m355.538 245.6h.1c38 0 61.7 7.2 61.7 37v120.2h-61.8z" fill="#00e6b3"/><path d="m190.037 162s9.8-26.7 13.7-37.6c1-2.7 3.6-4.5 6.5-4.5h17.3c2.9 0 5.5-1.8 6.5-4.5l1.3-3.5-8.1-22.1c-1-2.7-3.6-4.5-6.5-4.5h104.3c2.9 0 5.5 1.8 6.5 4.5 2.4 6.6 6.9 19 9.4 25.6 1 2.7 3.6 4.5 6.5 4.5h17.3c2.9 0 5.5 1.8 6.5 4.5 2.5 6.9 7.3 20.1 10.6 28.9.7 2 .4 4.2-.8 5.9s-3.2 2.8-5.3 2.8c-8.6 0-20.1 0-20.1 0v233.3c0 2 .8 3.9 2.2 5.3s3.3 2.2 5.3 2.2h67.2c1.4 0 2.6 1.1 2.6 2.6v3.9c0 .9-.5 1.8-1.3 2.2-5.7 3.3-28.4 16.4-34.1 19.7-.8.5-1.3 1.3-1.3 2.2v14.3c0 .9.5 1.8 1.3 2.2s1.8.5 2.6 0c7-4.1 21.9-12.6 28.9-16.7.8-.5 1.8-.5 2.6 0s1.3 1.3 1.3 2.2v5.4c0 .9-.5 1.8-1.3 2.2-5.7 3.3-28.4 16.4-34.1 19.7-.8.5-1.3 1.3-1.3 2.2v14.3c0 .9.5 1.8 1.3 2.2s1.8.5 2.6 0c7-4.1 21.9-12.6 28.9-16.7.8-.5 1.8-.5 2.6 0s1.3 1.3 1.3 2.2v22l-31.5 18.2 1.5 2.5h-92.3v-282.4c0-24.9-11.6-47.7-30.8-65.2z" fill="#142664"/><path d="m414.337 532.6c0-4.9-4-8.9-8.9-8.9-27.2 0-107.4 0-107.4 0v72.7h107.4c4.9 0 8.9-4 8.9-8.9 0-13.9 0-40.9 0-54.9z" fill="#142664"/><path d="m327.638 530.7c.6-1.6.3-3.4-.6-4.8-1-1.4-2.6-2.2-4.3-2.2-43.4 0-263.6 0-294.7 0-2.2 0-4.2 1.4-4.9 3.4-4.1 11.2-17.2 47-22.8 62.2-.6 1.6-.4 3.4.6 4.8s2.6 2.2 4.3 2.2h295.2c2.2 0 4.2-1.4 4.9-3.5 3.999-11.1 16.8-46.8 22.3-62.1z" fill="#00e6b3"/><circle cx="248.238" cy="556.7" fill="#142664" r="2.9"/><path d="m231.637 214.3 42.1 255.5h-210.3l42.1-255.5z" fill="#00e6b3"/><path d="m278.038 305.1c.1-.3.2-.5.2-.5 0-.8.6-1.4 1.4-1.4s1.4.6 1.4 1.4c0 0 .1.2.2.5.3.1.5.2.5.2.8 0 1.4.6 1.4 1.4s-.6 1.4-1.4 1.4c0 0-.2.1-.5.2-.1.3-.2.5-.2.5 0 .8-.6 1.4-1.4 1.4s-1.4-.6-1.4-1.4c0 0-.1-.2-.2-.5-.3-.1-.5-.2-.5-.2-.8 0-1.4-.6-1.4-1.4s.6-1.4 1.4-1.4c-.1 0 .1-.1.5-.2zm-208.101-8.5c.2-2.5.4-4.4.4-4.4 0-.8.6-1.4 1.4-1.4s1.4.6 1.4 1.4c0 0 .3 2 .4 4.4.5 0 .9.1 1.3.1 1.8.1 3.1.3 3.1.3.8 0 1.4.6 1.4 1.4s-.6 1.4-1.4 1.4c0 0-1.3.2-3.1.3-.4 0-.8.1-1.3.1 0 .5-.1.9-.1 1.3-.1 1.8-.3 3.1-.3 3.1 0 .8-.6 1.4-1.4 1.4s-1.4-.6-1.4-1.4c0 0-.2-1.3-.3-3.1 0-.4-.1-.9-.1-1.3-2.4-.2-4.4-.4-4.4-.4-.8 0-1.4-.6-1.4-1.4s.6-1.4 1.4-1.4c-.1.1 1.9-.2 4.4-.4zm198.9-22.5c.2-1.1.3-2 .3-2 0-.8.6-1.4 1.4-1.4s1.4.6 1.4 1.4c0 0 .2.8.3 2h.1c1.1.1 1.9.3 1.9.3.8 0 1.4.6 1.4 1.4s-.6 1.4-1.4 1.4c0 0-.8.2-1.9.3h-.1v.1c-.1 1.1-.3 1.9-.3 1.9 0 .8-.6 1.4-1.4 1.4s-1.4-.6-1.4-1.4c0 0-.2-.8-.3-1.9v-.1c-1.1-.2-2-.3-2-.3-.8 0-1.4-.6-1.4-1.4s.6-1.4 1.4-1.4c0 .1.901-.1 2-.3zm-203.199-10.8c.1-.3.2-.5.2-.5 0-.8.6-1.4 1.4-1.4s1.4.6 1.4 1.4c0 0 .1.2.2.5.3.1.5.2.5.2.8 0 1.4.6 1.4 1.4s-.6 1.4-1.4 1.4c0 0-.2.1-.5.2-.1.3-.2.5-.2.5 0 .8-.6 1.4-1.4 1.4s-1.4-.6-1.4-1.4c0 0-.1-.2-.2-.5-.3-.1-.5-.2-.5-.2-.8 0-1.4-.6-1.4-1.4s.6-1.4 1.4-1.4c0-.1.2-.1.5-.2zm15.099-16.4c.2-1.1.3-2 .3-2 0-.8.6-1.4 1.4-1.4s1.4.6 1.4 1.4c0 0 .2.8.3 2h.1c1.1.1 1.9.3 1.9.3.8 0 1.4.6 1.4 1.4s-.6 1.4-1.4 1.4c0 0-.8.2-1.9.3h-.1v.1c-.1 1.1-.3 1.9-.3 1.9 0 .8-.6 1.4-1.4 1.4s-1.4-.6-1.4-1.4c0 0-.2-.8-.3-1.9v-.1c-1.1-.2-2-.3-2-.3-.8 0-1.4-.6-1.4-1.4s.6-1.4 1.4-1.4c0-0 .8-.2 2-.3zm-23.894 117.983c.1-.3.2-.5.2-.5 0-.8.6-1.4 1.4-1.4s1.4.6 1.4 1.4c0 0 .1.2.2.5.3.1.5.2.5.2.8 0 1.4.6 1.4 1.4s-.6 1.4-1.4 1.4c0 0-.2.1-.5.2-.1.3-.2.5-.2.5 0 .8-.6 1.4-1.4 1.4s-1.4-.6-1.4-1.4c0 0-.1-.2-.2-.5-.3-.1-.5-.2-.5-.2-.8 0-1.4-.6-1.4-1.4s.6-1.4 1.4-1.4c0-.1.2-.1.5-.2zm218.795 28.567c.1-.3.2-.5.2-.5 0-.8.6-1.4 1.4-1.4s1.4.6 1.4 1.4c0 0 .1.2.2.5.3.1.5.2.5.2.8 0 1.4.6 1.4 1.4s-.6 1.4-1.4 1.4c0 0-.2.1-.5.2-.1.3-.2.5-.2.5 0 .8-.6 1.4-1.4 1.4s-1.4-.6-1.4-1.4c0 0-.1-.2-.2-.5-.3-.1-.5-.2-.5-.2-.8 0-1.4-.6-1.4-1.4s.6-1.4 1.4-1.4c0-.1.199-.1.5-.2zm-217.895 11.933c.1-.3.2-.5.2-.5 0-.8.6-1.4 1.4-1.4s1.4.6 1.4 1.4c0 0 .1.2.2.5.3.1.5.2.5.2.8 0 1.4.6 1.4 1.4s-.6 1.4-1.4 1.4c0 0-.2.1-.5.2-.1.3-.2.5-.2.5 0 .8-.6 1.4-1.4 1.4s-1.4-.6-1.4-1.4c0 0-.1-.2-.2-.5-.3-.1-.5-.2-.5-.2-.8 0-1.4-.6-1.4-1.4s.6-1.4 1.4-1.4c0-.1.2-.1.5-.2zm9.2-73.9c.2-1.1.3-2 .3-2 0-.8.6-1.4 1.4-1.4s1.4.6 1.4 1.4c0 0 .2.8.3 2h.1c1.1.1 1.9.3 1.9.3.8 0 1.4.6 1.4 1.4s-.6 1.4-1.4 1.4c0 0-.8.2-1.9.3h-.1v.1c-.1 1.1-.3 1.9-.3 1.9 0 .8-.6 1.4-1.4 1.4s-1.4-.6-1.4-1.4c0 0-.2-.8-.3-1.9v-.1c-1.1-.2-2-.3-2-.3-.8 0-1.4-.6-1.4-1.4s.6-1.4 1.4-1.4c0 0 .8-.2 2-.3zm195.394-92.383c.2-2.5.4-4.4.4-4.4 0-.8.6-1.4 1.4-1.4s1.4.6 1.4 1.4c0 0 .3 2 .4 4.4.5 0 .9.1 1.3.1 1.8.1 3.1.3 3.1.3.8 0 1.4.6 1.4 1.4s-.6 1.4-1.4 1.4c0 0-1.3.2-3.1.3-.4 0-.8.1-1.3.1 0 .5-.1.9-.1 1.3-.1 1.8-.3 3.1-.3 3.1 0 .8-.6 1.4-1.4 1.4s-1.4-.6-1.4-1.4c0 0-.2-1.3-.3-3.1 0-.4-.1-.9-.1-1.3-2.4-.2-4.4-.4-4.4-.4-.8 0-1.4-.6-1.4-1.4s.6-1.4 1.4-1.4c-.1 0 1.9-.2 4.4-.4zm8.001 99c.2-2.5.4-4.4.4-4.4 0-.8.6-1.4 1.4-1.4s1.4.6 1.4 1.4c0 0 .3 2 .4 4.4.5 0 .9.1 1.3.1 1.8.1 3.1.3 3.1.3.8 0 1.4.6 1.4 1.4s-.6 1.4-1.4 1.4c0 0-1.3.2-3.1.3-.4 0-.8.1-1.3.1 0 .5-.1.9-.1 1.3-.1 1.8-.3 3.1-.3 3.1 0 .8-.6 1.4-1.4 1.4s-1.4-.6-1.4-1.4c0 0-.2-1.3-.3-3.1 0-.4-.1-.9-.1-1.3-2.4-.2-4.4-.4-4.4-.4-.8 0-1.4-.6-1.4-1.4s.6-1.4 1.4-1.4c-.1-0 1.9-.2 4.4-.4zm-22.701-111.1c.1-.3.2-.5.2-.5 0-.8.6-1.4 1.4-1.4s1.4.6 1.4 1.4c0 0 .1.2.2.5.3.1.5.2.5.2.8 0 1.4.6 1.4 1.4s-.6 1.4-1.4 1.4c0 0-.2.1-.5.2-.1.3-.2.5-.2.5 0 .8-.6 1.4-1.4 1.4s-1.4-.6-1.4-1.4c0 0-.1-.2-.2-.5-.3-.1-.5-.2-.5-.2-.8 0-1.4-.6-1.4-1.4s.6-1.4 1.4-1.4c0 0 .2-.1.5-.2z" fill="#00e6b3"/><path d="m229.037 163.7s5.2 32 7.4 45.1c.2 1.4-.2 2.8-1.1 3.8-.9 1.1-2.2 1.7-3.6 1.7h-126.3c-1.4 0-2.7-.6-3.6-1.7s-1.3-2.5-1.1-3.8c2.1-13.1 7.4-45.1 7.4-45.1z" fill="#142664"/><path d="m238.937 162s4.1 24.9 5.9 36.2c.2 1.4-.2 2.8-1.1 3.8-.9 1.1-2.2 1.7-3.6 1.7-24.1 0-119.1 0-143.1 0-1.4 0-2.7-.6-3.6-1.7s-1.3-2.5-1.1-3.8c1.9-11.3 5.9-36.2 5.9-36.2z" fill="#ff2e93"/><path d="m286.938 484.7-13.1-14.8h-215l-13.7 15.5" fill="none"/><path d="m355.538 225h31.9c2.3 0 4.5.9 6.1 2.5s2.5 3.8 2.5 6.1v17.3h-40.6z" fill="#fff"/><ellipse cx="353.137" cy="461.6" fill="#fff" rx="21.2" ry="24.2"/><path d="m351.238 426.1v4.7c0 1.1.9 1.9 1.9 1.9 1.1 0 1.9-.9 1.9-1.9v-4.7c0-1.1-.9-1.9-1.9-1.9-1.1-.1-1.9.8-1.9 1.9z" fill="#00e6b3"/><path d="m320.837 463.5h3.6c1.1 0 1.9-.9 1.9-1.9 0-1.1-.9-1.9-1.9-1.9h-3.6c-1.1 0-1.9.9-1.9 1.9.001 1.1.9 1.9 1.9 1.9z" fill="#00e6b3"/><path d="m343.038 431.3.3 1c.3 1 1.3 1.6 2.3 1.4 1-.3 1.6-1.3 1.4-2.3l-.3-1c-.3-1-1.3-1.6-2.3-1.4-1.101.2-1.7 1.3-1.4 2.3z" fill="#00e6b3"/><path d="m335.538 434.9.5.9c.5.9 1.7 1.2 2.6.7s1.2-1.7.7-2.6l-.5-.9c-.5-.9-1.7-1.2-2.6-.7-.901.6-1.2 1.7-.7 2.6z" fill="#00e6b3"/><path d="m329.238 440.2.6.8c.6.8 1.8 1 2.7.4.8-.6 1-1.8.4-2.7l-.6-.8c-.6-.8-1.8-1-2.7-.4-.9.7-1 1.9-.4 2.7z" fill="#00e6b3"/><path d="m325.738 447.2.7.5c.8.6 2 .5 2.7-.4.6-.8.5-2-.4-2.7l-.7-.5c-.8-.6-2-.5-2.7.4-.6.8-.4 2.1.4 2.7z" fill="#00e6b3"/><path d="m323.837 455.2.8.3c1 .4 2.1-.2 2.4-1.2.4-1-.2-2.1-1.2-2.4l-.8-.3c-1-.4-2.1.2-2.4 1.2-.3.9.2 2 1.2 2.4z" fill="#00e6b3"/><path d="m383.137 458h-4c-1.1 0-1.9.9-1.9 1.9s.9 1.9 1.9 1.9h4c1.1 0 1.9-.9 1.9-1.9s-.799-1.9-1.9-1.9z" fill="#ff2e93"/><path d="m378.538 449.9-.9.3c-1 .3-1.6 1.4-1.2 2.4.3 1 1.4 1.6 2.4 1.2l.9-.3c1-.3 1.6-1.4 1.2-2.4-.301-1-1.4-1.5-2.4-1.2z" fill="#ff2e93"/><path d="m375.337 442.4-.8.5c-.9.6-1.1 1.8-.5 2.7s1.8 1.1 2.7.5l.8-.5c.9-.6 1.1-1.8.5-2.7-.599-.8-1.799-1.1-2.7-.5z" fill="#ff2e93"/><path d="m370.938 436.2-.6.6c-.8.7-.8 1.9-.1 2.7s1.9.8 2.7.1l.6-.6c.8-.7.8-1.9.1-2.7s-2-.8-2.7-.1z" fill="#00e6b3"/><path d="m364.938 432.7-.5.7c-.6.9-.3 2.1.6 2.6.9.6 2.1.3 2.6-.6l.5-.7c.6-.9.3-2.1-.6-2.6-.8-.5-2-.3-2.6.6z" fill="#00e6b3"/><path d="m358.238 430.8-.2.8c-.3 1 .3 2.1 1.3 2.4s2.1-.3 2.4-1.3l.2-.8c.3-1-.3-2.1-1.3-2.4s-2.1.3-2.4 1.3z" fill="#00e6b3"/><ellipse cx="358.538" cy="461.6" fill="#00e6b3" rx="15.8" ry="18.2"/><ellipse cx="358.538" cy="461.6" fill="#142664" rx="2.7" ry="3.1"/><path d="m368.837 451.7c.2-.6 0-1.2-.4-1.6s-1-.6-1.6-.4c-1.7.5-3.9 1.1-5.6 1.5-.6.2-1 .6-1.1 1.1-.1.6 0 1.2.4 1.6l4 4c.4.4 1 .6 1.6.4s1-.6 1.1-1.1c.501-1.6 1.1-3.8 1.6-5.5z" fill="#142664"/><path d="m335.938 327.6-23.2 23.2c-.7.7-2 .7-2.7 0s-.7-2 0-2.7l26.5-26.5c.5-.5 1.4-.7 2.1-.4s1.2 1 1.2 1.8v55.6h15.7c1.1 0 1.9.9 1.9 1.9 0 1.1-.9 1.9-1.9 1.9h-17.6c-1.1 0-1.9-.9-1.9-1.9v-52.9z" fill="#00e6b3"/><path d="m379.538 413.5 9.9-9.9c.7-.7 2-.7 2.7 0s.7 2 0 2.7l-10.4 10.4c-.4.4-.8.6-1.4.6h-42.4c-.5 0-1-.2-1.4-.6l-26.5-26.4c-.7-.7-.7-2 0-2.7s2-.7 2.7 0l25.9 25.9z" fill="#00e6b3"/><path d="m310.438 424.9h-15.7c-1.1 0-1.9.9-1.9 1.9 0 1.1.9 1.9 1.9 1.9h15.7c1.1 0 1.9-.9 1.9-1.9-.001-1.1-.9-1.9-1.9-1.9z" fill="#142664"/><path d="m310.438 263.8h-15.7c-1.1 0-1.9.9-1.9 1.9s.9 1.9 1.9 1.9h15.7c1.1 0 1.9-.9 1.9-1.9s-.9-1.9-1.9-1.9z" fill="#142664"/><path d="m310.438 436.2h-15.7c-1.1 0-1.9.9-1.9 1.9s.9 1.9 1.9 1.9h15.7c1.1 0 1.9-.9 1.9-1.9s-.9-1.9-1.9-1.9z" fill="#142664"/><path d="m405.538 503.2c0-2.8-1.1-5.5-3.1-7.5s-4.7-3.1-7.5-3.1c-54.1 0-300.5 0-354.6 0-2.8 0-5.5 1.1-7.5 3.1s-3.1 4.7-3.1 7.5v9.9c0 2.8 1.1 5.5 3.1 7.5s4.7 3.1 7.5 3.1h354.6c2.8 0 5.5-1.1 7.5-3.1s3.1-4.7 3.1-7.5c0-3.1 0-6.7 0-9.9z" fill="#ff2e93"/><path d="m405.538 500s-40-.3-93.9-.5c-28.7-.1-61.3-.2-93.9-.3-19 0-38.1.1-56.4.1-71.8.2-131.5.6-131.5.6-1.2 0-2.1 1-2.1 2.1s1 2.1 2.1 2.1c0 0 59.7.4 131.5.6 18.3.1 37.3.1 56.4.1 32.6 0 65.2-.1 93.9-.3 53.9-.2 93.9-.5 93.9-.5 1.2 0 2.1-1 2.1-2.1-.001-1.1-1.001-1.9-2.1-1.9z" fill="#142664"/><path d="m405.538 512.1s-40-.3-93.9-.5c-28.7-.1-61.3-.2-93.9-.3-19 0-38.1.1-56.4.1-71.8.2-131.5.6-131.5.6-1.2 0-2.1 1-2.1 2.1 0 1.2 1 2.1 2.1 2.1 0 0 59.7.4 131.5.6 18.3.1 37.3.1 56.4.1 32.6 0 65.2-.1 93.9-.3 53.9-.2 93.9-.5 93.9-.5 1.2 0 2.1-1 2.1-2.1-.001-.9-1.001-1.9-2.1-1.9z" fill="#142664"/><g fill="#fff"><circle cx="395.637" cy="363.8" r="5.6"/><circle cx="382.837" cy="373" r="3.6"/><circle cx="388.137" cy="322.9" r="3.6"/><circle cx="391.738" cy="265.4" r="3.6"/><path d="m355.538 292.6c.5-.2 1.1-.3 1.7-.3 3.1 0 5.6 2.5 5.6 5.6s-2.5 5.6-5.6 5.6c-.6 0-1.2-.1-1.7-.3z"/><circle cx="364.738" cy="342.9" r="3.6"/><circle cx="365.538" cy="393.3" r="3.6"/><circle cx="399.938" cy="346.1" r="2.5"/><ellipse cx="367.631" cy="278.301" rx="2.5" ry="2.5"/><circle cx="372.337" cy="307.9" r="2.5"/><circle cx="405.438" cy="279.7" r="2.5"/></g><path d="m37.338 539.3c.8-2.2 2.9-3.7 5.2-3.7h71.3c1.8 0 3.5.9 4.6 2.4 1 1.5 1.3 3.4.7 5.1-3.9 10.7-10.9 29.8-13.8 37.8-.8 2.2-2.9 3.7-5.2 3.7-12.8 0-53.8 0-71.3 0-1.8 0-3.5-.9-4.6-2.4-1-1.5-1.3-3.4-.7-5.1 3.899-10.7 10.899-29.9 13.8-37.8z" fill="#142664"/><path d="m103.437 541.5c-.1-.5-.5-.8-.9-1-.5-.1-.9 0-1.3.3-3.8 3.8-13.4 13.2-17.8 17.5-.4.4-.5.9-.3 1.4s.7.8 1.2.8h21.9c.4 0 .8-.2 1-.5s.3-.7.2-1.1c-.7-3.7-2.9-13.1-4-17.4z" fill="#fff"/><path d="m100.037 548.9c0-.2-.2-.3-.4-.4s-.4 0-.5.1c-1.5 1.5-5.2 5.1-6.9 6.8-.1.1-.2.4-.1.6s.3.3.5.3h8.5c.2 0 .3-.1.4-.2s.1-.3.1-.4c-.4-1.5-1.2-5.1-1.6-6.8z" fill="#ff2e93"/><path d="m80.937 569.8h6.5c1.1 0 1.9-.9 1.9-1.9s-.9-1.9-1.9-1.9h-6.5c-1.1 0-1.9.9-1.9 1.9s.801 1.9 1.9 1.9z" fill="#ff2e93"/><path d="m93.037 569.8h9.2c1.1 0 1.9-.9 1.9-1.9s-.9-1.9-1.9-1.9h-9.2c-1.1 0-1.9.9-1.9 1.9s.8 1.9 1.9 1.9z" fill="#ff2e93"/><path d="m78.138 576.2h10.9c1.1 0 1.9-.9 1.9-1.9 0-1.1-.9-1.9-1.9-1.9h-10.9c-1.1 0-1.9.9-1.9 1.9-.001 1.1.799 1.9 1.9 1.9z" fill="#ff2e93"/><path d="m94.737 576.2h1.5c1.1 0 1.9-.9 1.9-1.9 0-1.1-.9-1.9-1.9-1.9h-1.5c-1.1 0-1.9.9-1.9 1.9.001 1.1.801 1.9 1.9 1.9z" fill="#ff2e93"/><path d="m55.237 564.8 11-21.4c.6-1.3 2.1-1.9 3.5-1.4 1.4.4 2.2 1.7 2 3.2l-3.1 24.1 4.8-10.9c.4-1 1.6-1.4 2.5-1 1 .4 1.4 1.6 1 2.5 0 0-4.4 9.9-7.4 16.7-.6 1.3-2.1 2-3.4 1.6-1.4-.4-2.3-1.7-2.1-3.2l3.2-25.2-10.1 19.6c-.6 1.2-1.9 1.8-3.2 1.5s-2.2-1.3-2.3-2.6l-.3-4-6 10.6c-.7 1.2-2.1 1.8-3.4 1.3-1.3-.4-2.1-1.7-2-3.1l1.5-15.1-5.6 10.2c-.5.9-1.7 1.3-2.6.8s-1.3-1.7-.8-2.6c0 0 4.8-8.7 7.8-14.1.7-1.2 2.1-1.8 3.4-1.4s2.2 1.7 2 3.1l-1.6 15.2 5.3-9.4c.6-1.1 1.9-1.7 3.2-1.4 1.2.3 2.2 1.3 2.3 2.6z" fill="#ff2e93"/><circle cx="129.238" cy="571.5" fill="#ff2e93" r="7.4"/><path d="m129.238 562.2c-5.1 0-9.3 4.2-9.3 9.3s4.2 9.3 9.3 9.3 9.3-4.2 9.3-9.3c-.001-5.2-4.201-9.3-9.3-9.3zm0 3.8c3 0 5.5 2.5 5.5 5.5s-2.5 5.5-5.5 5.5-5.5-2.5-5.5-5.5 2.4-5.5 5.5-5.5z" fill="#142664"/><circle cx="151.238" cy="571.5" fill="#fff" r="7.4"/><path d="m151.238 562.2c-5.1 0-9.3 4.2-9.3 9.3s4.2 9.3 9.3 9.3 9.3-4.2 9.3-9.3c-.001-5.2-4.201-9.3-9.3-9.3zm0 3.8c3 0 5.5 2.5 5.5 5.5s-2.5 5.5-5.5 5.5-5.5-2.5-5.5-5.5 2.5-5.5 5.5-5.5z" fill="#142664"/><ellipse cx="366.238" cy="149.858" fill="#00e6b3" rx="2.9" ry="2.9"/><circle cx="327.337" cy="351.6" fill="#00e6b3" r="2.9"/><circle cx="182.437" cy="171.4" fill="#142664" r="2.9"/><circle cx="363.438" cy="244.3" fill="#142664" r="2.9"/><circle cx="423.738" cy="544" fill="#142664" r="2.9"/><circle cx="363.438" cy="234.7" fill="#142664" r="2.9"/><ellipse cx="366.21" cy="138.977" fill="#00e6b3" rx="2.9" ry="2.9"/><path d="m344.238 559.7v-13c0-2.1-1.7-3.8-3.8-3.8s-3.8 1.7-3.8 3.8v13c0 2.1 1.7 3.8 3.8 3.8s3.8-1.7 3.8-3.8z" fill="#ff2e93"/><path d="m386.438 559.7v-12.7c0-2.1-1.7-3.8-3.8-3.8s-3.8 1.7-3.8 3.8v12.7c0 2.1 1.7 3.8 3.8 3.8s3.8-1.7 3.8-3.8z" fill="#ff2e93"/><path d="m394.637 537.2-14.1 14.1c-1.1 1.1-1.1 2.9 0 4.1 1.1 1.1 2.9 1.1 4.1 0l14.1-14.1c1.1-1.1 1.1-2.9 0-4.1-1.1-1.1-2.9-1.1-4.1 0z" fill="#fff"/><path d="m352.438 537.2-14.1 14.1c-1.1 1.1-1.1 2.9 0 4.1 1.1 1.1 2.9 1.1 4.1 0l14.1-14.1c1.1-1.1 1.1-2.9 0-4.1-1.1-1.1-2.9-1.1-4.1 0z" fill="#fff"/><path d="m374.837 580c0-1.2-.5-2.3-1.3-3.1s-2-1.3-3.1-1.3c-4.5 0-11.4 0-15.9 0-1.2 0-2.3.5-3.1 1.3s-1.3 2-1.3 3.1v8.4c0 1.2.5 2.3 1.3 3.1s2 1.3 3.1 1.3h15.9c1.2 0 2.3-.5 3.1-1.3s1.3-2 1.3-3.1c0-2.6 0-5.8 0-8.4z" fill="#ff2e93"/><path d="m384.038 594.8c0-5.3 0-16.1 0-21.3 0-3.4-2.7-6.1-6-6.1-7.5 0-23.4 0-31 0-3.3 0-6 2.7-6 6.1v21.3c0 1.1.9 1.9 1.9 1.9 1.1 0 1.9-.9 1.9-1.9 0-5.3 0-16.1 0-21.3 0-1.3 1-2.3 2.2-2.3h31c1.2 0 2.2 1 2.2 2.3v21.3c0 1.1.9 1.9 1.9 1.9.999 0 1.9-.9 1.9-1.9z" fill="#ff2e93"/><path d="m354.337 582.9h7.3c1.1 0 1.9-.9 1.9-1.9s-.9-1.9-1.9-1.9h-7.3c-1.1 0-1.9.9-1.9 1.9s.9 1.9 1.9 1.9z" fill="#142664"/><path d="m367.738 582.9h2.9c1.1 0 1.9-.9 1.9-1.9s-.9-1.9-1.9-1.9h-2.9c-1.1 0-1.9.9-1.9 1.9s.8 1.9 1.9 1.9z" fill="#142664"/><path d="m354.337 589.3h10c1.1 0 1.9-.9 1.9-1.9 0-1.1-.9-1.9-1.9-1.9h-10c-1.1 0-1.9.9-1.9 1.9.001 1 .9 1.9 1.9 1.9z" fill="#142664"/><circle cx="403.137" cy="583.7" fill="#ff2e93" r="3.5"/><circle cx="403.137" cy="571.2" fill="#ff2e93" r="3.5"/><path d="m371.138 173.2s-1.7-.2-3.9-.3c-1.2-.1-2.6-.2-3.9-.2-.8 0-1.6 0-2.4.1-3 .2-5.5.4-5.5.4-.8 0-1.4.6-1.4 1.4s.6 1.4 1.4 1.4c0 0 2.5.3 5.5.4.8 0 1.6.1 2.4.1 1.4 0 2.7-.1 3.9-.2 2.3-.1 3.9-.3 3.9-.3.8 0 1.4-.6 1.4-1.4.1-.7-.6-1.4-1.4-1.4z" fill="#142664"/><path d="m371.138 185.8s-1.7-.2-3.9-.3c-1.2-.1-2.6-.2-3.9-.2-.8 0-1.6 0-2.4.1-3 .2-5.5.4-5.5.4-.8 0-1.4.6-1.4 1.4s.6 1.4 1.4 1.4c0 0 2.5.3 5.5.4.8 0 1.6.1 2.4.1 1.4 0 2.7-.1 3.9-.2 2.3-.1 3.9-.3 3.9-.3.8 0 1.4-.6 1.4-1.4.1-.8-.6-1.4-1.4-1.4z" fill="#142664"/><path d="m371.138 198.4s-1.7-.2-3.9-.3c-1.2-.1-2.6-.2-3.9-.2-.8 0-1.6 0-2.4.1-3 .2-5.5.4-5.5.4-.8 0-1.4.6-1.4 1.4s.6 1.4 1.4 1.4c0 0 2.5.3 5.5.4.8 0 1.6.1 2.4.1 1.4 0 2.7-.1 3.9-.2 2.3-.1 3.9-.3 3.9-.3.8 0 1.4-.6 1.4-1.4s-.6-1.4-1.4-1.4z" fill="#142664"/><path d="m371.138 210.9s-1.7-.2-3.9-.3c-1.2-.1-2.6-.2-3.9-.2-.8 0-1.6 0-2.4.1-3 .2-5.5.4-5.5.4-.8 0-1.4.6-1.4 1.4s.6 1.4 1.4 1.4c0 0 2.5.3 5.5.4.8 0 1.6.1 2.4.1 1.4 0 2.7-.1 3.9-.2 2.3-.1 3.9-.3 3.9-.3.8 0 1.4-.6 1.4-1.4.1-.7-.6-1.4-1.4-1.4z" fill="#142664"/><path d="m178.537 580.4 11.2-31.6h-35c-.6 0-1.2-.3-1.6-.8s-.4-1.2-.2-1.8l8.5-23.2c.4-1 1.5-1.5 2.5-1.1s1.5 1.5 1.1 2.5l-7.5 20.6h35c.6 0 1.2.3 1.6.8s.4 1.2.2 1.7l-11.2 31.6h51.8l4.9-14.1c.3-.8 1-1.3 1.8-1.3h54.4c.6 0 1.2.3 1.6.8s.4 1.2.2 1.7l-10.2 28.6c-.4 1-1.5 1.5-2.4 1.2-1-.4-1.5-1.5-1.2-2.4l9.3-26h-11.2l-3.2 9c-.3.8-1 1.3-1.8 1.3h-24.6c-.6 0-1.2-.3-1.6-.8s-.5-1.2-.2-1.7l2.7-7.7h-10.4l-4.9 14v.1l-4.6 13.2c-.3 1-1.4 1.5-2.4 1.2s-1.5-1.4-1.2-2.4l3.7-10.7h-51.8l-4.3 12c-.4 1-1.5 1.5-2.4 1.2-1-.4-1.5-1.5-1.2-2.4zm79.001-12.8-2.2 6.4h20.5l2.3-6.4zm-232.2 2.4h-17.8c-1.1 0-1.9.9-1.9 1.9 0 1.1.9 1.9 1.9 1.9h17.8c1.1 0 1.9-.9 1.9-1.9.1-1-.801-1.9-1.9-1.9z" fill="#142664"/><path d="m265.138 523.8h-8.5s-2 5.6-3.6 10.1c-.5 1.3-.3 2.8.5 3.9s2.1 1.8 3.5 1.8c1.4 0 2.7-.9 3.2-2.2 1.599-4.4 4.9-13.6 4.9-13.6z" fill="#142664"/><path d="m281.738 523.8h-8.5s-2 5.6-3.6 10.1c-.5 1.3-.3 2.8.5 3.9s2.1 1.8 3.5 1.8c1.4 0 2.7-.9 3.2-2.2 1.6-4.4 4.9-13.6 4.9-13.6z" fill="#142664"/><path d="m248.637 523.8h-8.5s-2 5.6-3.6 10.1c-.5 1.3-.3 2.8.5 3.9s2.1 1.8 3.5 1.8c1.4 0 2.7-.9 3.2-2.2 1.6-4.4 4.9-13.6 4.9-13.6z" fill="#142664"/><path d="m342.938 245.5c0-2.5-1-4.9-2.8-6.7s-4.2-2.8-6.7-2.8c-2.5 0-4.9 1-6.7 2.8s-2.8 4.2-2.8 6.7v54.3c0 2.5 1 4.9 2.8 6.7s4.2 2.8 6.7 2.8c2.5 0 4.9-1 6.7-2.8s2.8-4.2 2.8-6.7c0-14.1 0-40.3 0-54.3z" fill="#ff2e93"/><path d="m325.738 288.8h7.7c1.1 0 1.9-.9 1.9-1.9 0-1.1-.9-1.9-1.9-1.9h-7.7c-1.1 0-1.9.9-1.9 1.9-.001 1 .8 1.9 1.9 1.9z" fill="#fff"/><path d="m325.738 259.8h7.7c1.1 0 1.9-.9 1.9-1.9 0-1.1-.9-1.9-1.9-1.9h-7.7c-1.1 0-1.9.9-1.9 1.9-.001 1 .8 1.9 1.9 1.9z" fill="#fff"/><path d="m325.738 303.2h3.9c1.1 0 1.9-.9 1.9-1.9 0-1.1-.9-1.9-1.9-1.9h-3.9c-1.1 0-1.9.9-1.9 1.9-.001 1.1.8 1.9 1.9 1.9z" fill="#fff"/><path d="m325.738 281.5h3.9c1.1 0 1.9-.9 1.9-1.9s-.9-1.9-1.9-1.9h-3.9c-1.1 0-1.9.9-1.9 1.9s.8 1.9 1.9 1.9z" fill="#fff"/><path d="m325.738 296h3.9c1.1 0 1.9-.9 1.9-1.9 0-1.1-.9-1.9-1.9-1.9h-3.9c-1.1 0-1.9.9-1.9 1.9-.001 1 .8 1.9 1.9 1.9z" fill="#fff"/><path d="m325.738 274.3h3.9c1.1 0 1.9-.9 1.9-1.9 0-1.1-.9-1.9-1.9-1.9h-3.9c-1.1 0-1.9.9-1.9 1.9-.001 1 .8 1.9 1.9 1.9z" fill="#fff"/><path d="m325.738 252.6h3.9c1.1 0 1.9-.9 1.9-1.9 0-1.1-.9-1.9-1.9-1.9h-3.9c-1.1 0-1.9.9-1.9 1.9-.001 1 .8 1.9 1.9 1.9z" fill="#fff"/><path d="m325.738 267h3.9c1.1 0 1.9-.9 1.9-1.9 0-1.1-.9-1.9-1.9-1.9h-3.9c-1.1 0-1.9.9-1.9 1.9-.001 1.1.8 1.9 1.9 1.9z" fill="#fff"/><path d="m325.738 245.3h3.9c1.1 0 1.9-.9 1.9-1.9s-.9-1.9-1.9-1.9h-3.9c-1.1 0-1.9.9-1.9 1.9s.8 1.9 1.9 1.9z" fill="#fff"/><path d="m197.837 67.5c.1 0 .1 0 0 0h16c3.9 0 7.3 2.6 8.3 6.3l1.3 4.5v.1l1.8 6.3c.3 1-.3 2.1-1.3 2.4s-2.1-.3-2.4-1.3l-1.4-4.9h-19.3c-.8 0-1.6-.5-1.8-1.4l-2.5-8.1h-31.7l-3.5 12.6c-.3 1-1.3 1.6-2.4 1.3-1-.3-1.6-1.3-1.3-2.4l3.3-11.6h-3.9c-2.1 0-4 1.4-4.6 3.5-1.3 4.6-3.1 10.9-3.1 10.9-.3 1-1.3 1.6-2.4 1.3-1-.3-1.6-1.3-1.3-2.4 0 0 1.8-6.3 3.1-10.9 1-3.7 4.4-6.3 8.3-6.3h6.4.1zm21.2 9.5-.6-2.1c-.6-2.1-2.5-3.5-4.6-3.5h-13.3l1.7 5.6z" fill="#142664"/><path d="m355.538 223.1h30.1 1.8c2.8 0 5.5 1.1 7.5 3.1s3.1 4.7 3.1 7.5v17.3c0 1.1-.9 1.9-1.9 1.9s-1.9-.9-1.9-1.9v-11.1h-18.4c-1.1 0-1.9-.9-1.9-1.9v-11.1h-18.4c-1.1 0-1.9-.9-1.9-1.9s.8-1.9 1.9-1.9zm22.2 13h16.5v-2.4c0-1.8-.7-3.5-2-4.8s-3-2-4.8-2h-9.7z" fill="#142664"/><path d="m429.238 553.5v-9.8c0-2.7-1.8-5.1-4.4-5.8-4.5-1.3-10-2.8-10-2.8-1-.3-1.6-1.3-1.3-2.4.3-1 1.3-1.6 2.4-1.3 0 0 5.5 1.5 10 2.8 4.3 1.2 7.2 5.1 7.2 9.5v9.6c.3.5.3 1.2 0 1.7v8.7c.3.5.3 1.2 0 1.7v13.5c0 4.4-3 8.3-7.2 9.5-4.5 1.3-10 2.8-10 2.8-1 .3-2.1-.3-2.4-1.3s.3-2.1 1.3-2.4c0 0 5.5-1.5 10-2.8 2.6-.7 4.4-3.1 4.4-5.8v-9.5l-13.5 13.5c-.7.7-2 .7-2.7 0s-.7-2 0-2.7l16.2-16.2v-5l-13.5 13.5c-.7.7-2 .7-2.7 0s-.7-2 0-2.7z" fill="#142664"/><path d="m40.638 488.3v-261.1-.6c.2-22 9.6-42.3 25.4-58.6.7-.8.7-2 0-2.7-.8-.7-2-.7-2.7 0-16.5 17-26.3 38.2-26.5 61.2v.7 261.1c0 1.1.9 1.9 1.9 1.9s1.9-.9 1.9-1.9zm46.599-16.6h-27.5l-13.1 14.9c-.7.8-1.9.9-2.7.2s-.9-1.9-.2-2.7l13.7-15.5c.4-.4.9-.7 1.4-.7h215c.6 0 1.1.2 1.4.7l13.1 14.8c.7.8.6 2-.2 2.7s-2 .6-2.7-.2l-12.5-14.2h-16.1v14.5c0 1.1-.9 1.9-1.9 1.9-1.1 0-1.9-.9-1.9-1.9v-14.5h-22.5v5.9c0 .5-.2 1-.6 1.4l-8.7 8.7c-.7.7-2 .7-2.7 0s-.7-2 0-2.7l8.1-8.1v-5.2h-121.7l-4.9 5.6h23.2c1.1 0 1.9.9 1.9 1.9v7.1c0 1.1-.9 1.9-1.9 1.9-1.1 0-1.9-.9-1.9-1.9v-5.2h-25.6c-.8 0-1.4-.4-1.7-1.1s-.2-1.5.3-2.1l5.5-6.2h-7.4l-13.1 14.9c-.7.8-1.9.9-2.7.2s-.9-1.9-.2-2.7z" fill="#142664"/><circle cx="137.238" cy="482.5" fill="#142664" r="2.9"/><circle cx="146.738" cy="482.5" fill="#142664" r="2.9"/><circle cx="269.238" cy="477.5" fill="#142664" r="2.9"/><circle cx="301.638" cy="276" fill="#142664" r="2.9"/><path d="m101.138 198.2h4.6c1.1 0 1.9-.9 1.9-1.9s-.9-1.9-1.9-1.9h-4.6c-1.1 0-1.9.9-1.9 1.9s.799 1.9 1.9 1.9z" fill="#fff"/><path d="m113.237 198.2h4.6c1.1 0 1.9-.9 1.9-1.9s-.9-1.9-1.9-1.9h-4.6c-1.1 0-1.9.9-1.9 1.9s.801 1.9 1.9 1.9z" fill="#fff"/><circle cx="232.837" cy="193.8" fill="#fff" r="5.1"/><path d="m304.938 387h4.5c1.1 0 1.9.9 1.9 1.9 0 1.1-.9 1.9-1.9 1.9h-6.4c-1.1 0-1.9-.9-1.9-1.9v-39.5c0-1.1.9-1.9 1.9-1.9h6.5c1.1 0 1.9.9 1.9 1.9 0 1.1-.9 1.9-1.9 1.9h-4.5v35.7z" fill="#142664"/><path d="m286.337 118.4c-2.1-5.3-3.2-11.1-3.2-17.1 0-4.8.7-9.5 2-13.8.3-1 1.4-1.6 2.4-1.3s1.6 1.4 1.3 2.4c-1.2 4-1.9 8.3-1.9 12.7 0 6 1.2 11.7 3.4 16.9v.1c.6 0 1.2 0 1.9-.1 4.2-.1 8.8-.2 13.3-.2h.4c-1.9-3-3.5-6.4-4.5-9.9-.2-.6 0-1.2.3-1.7.4-.5.9-.8 1.5-.8h20.8c1.1 0 1.9.9 1.9 1.9s-.9 1.9-1.9 1.9h-18c1.1 3.1 2.7 6 4.7 8.6 2.8 0 5.6.1 8.2.2 11.2.3 20 .7 20 .7.5 0 .9.4.9.9s-.4.9-.9.9c0 0-5.3.3-13 .5 6 6.5 14.6 10.5 24.1 10.5 1.3 0 2.5-.1 3.8-.2v-10c0-1.1.9-1.9 1.9-1.9 1.1 0 1.9.9 1.9 1.9v11.6.1 17.1c0 .9-.7 1.7-1.6 1.9-2.8.5-5.6.7-8.5.7-13.2 0-25.3-5-34.5-13.1l-13.8 13.9 25.5 25.5c.4.4.6.8.6 1.4v25.1h30.2c1.1 0 1.9.9 1.9 1.9 0 1.1-.9 1.9-1.9 1.9h-32.1c-1.1 0-1.9-.9-1.9-1.9v-13.9h-18.9c-1.1 0-1.9-.9-1.9-1.9 0-1.1.9-1.9 1.9-1.9h18.9v-8.5l-37.2-37.2h-11c-1.1 0-1.9-.9-1.9-1.9 0-1.1.9-1.9 1.9-1.9h11.7c.5 0 1 .2 1.4.6l10 10 13.7-13.7c-4.4-4.5-7.9-9.7-10.4-15.6-2.6 0-5.1-.1-7.5-.2-11.2-.3-20-.8-20-.8-.5 0-.9-.4-.9-.9s.4-.9.9-.9c.1.1 5.901-.2 14.1-.5zm34.701 3.1c-.7 0-1.4 0-2.1.1-2.8.1-5.8.2-8.8.2-.2 0-.5.1-.7 0-1.3 0-2.5 0-3.8 0-.5 0-1.1 0-1.6 0 2.5 5.3 6 10.1 10.2 14.1 8.7 8.2 20.4 13.3 33.2 13.3 2.1 0 4.2-.1 6.3-.4v-13.3c-1.2.1-2.5.2-3.8.2-11.7 0-22.2-5.5-28.9-14.1.1 0 .1 0 0-.1zm-51.6-22.9v-10.4c0-1.1.9-1.9 1.9-1.9 1.1 0 1.9.9 1.9 1.9v12.4c0 1.1-.9 1.9-1.9 1.9h-27.9l-8.3 8.3c-.7.7-2 .7-2.7 0s-.7-2 0-2.7l8.9-8.9c.4-.4.8-.6 1.4-.6z" fill="#00e6b3"/><path d="m291.837 205.2 12-12c.7-.7.7-2 0-2.7s-2-.7-2.7 0l-12 12c-.7.7-.7 2 0 2.7.801.8 2.001.8 2.7 0z" fill="#142664"/><path d="m68.537 162s9.8-26.7 13.7-37.6c1-2.7 3.6-4.5 6.5-4.5h17.3c2.9 0 5.5-1.8 6.5-4.5 2.4-6.6 6.9-19 9.4-25.6 1-2.7 3.6-4.5 6.5-4.5h92.5c2.9 0 5.5 1.8 6.5 4.5 2.4 6.6 6.9 19 9.4 25.6 1 2.7 3.6 4.5 6.5 4.5h17.3c2.9 0 5.5 1.8 6.5 4.5 4 10.9 15.1 41.2 15.1 41.2l-29.2-3.6z" fill="#00e6b3"/><path d="m201.837 105.5c-1.1-1.2-2.7-1.9-4.4-1.9-9 0-39 0-48.1 0-1.7 0-3.2.7-4.4 1.9-2.9 3.1-8.5 9.3-12.3 13.4-2.1 2.3-2.1 5.7 0 8 3.8 4.1 9.5 10.3 12.3 13.4 1.1 1.2 2.7 1.9 4.4 1.9h48.1c1.7 0 3.2-.7 4.4-1.9 2.9-3.1 8.5-9.3 12.3-13.4 2.1-2.3 2.1-5.7 0-8-3.7-4-9.399-10.2-12.3-13.4z" fill="#ff2e93"/><path d="m149.437 101.7h48.1c2.2 0 4.3.9 5.8 2.5l12.3 13.4c2.7 3 2.7 7.6 0 10.6-3.8 4.1-9.5 10.3-12.3 13.4-1.5 1.6-3.6 2.5-5.8 2.5h-48.1c-2.2 0-4.3-.9-5.8-2.5-2.9-3.1-8.5-9.3-12.3-13.4-2.7-3-2.7-7.6 0-10.6 3.8-4.1 9.5-10.3 12.3-13.4 1.5-1.6 3.601-2.5 5.8-2.5zm54.1 34.1v-1.2h-6.8v5.8h.7c1.1 0 2.2-.5 3-1.3zm-17.4-1.2v5.8h6.8v-5.8zm-10.6 0v5.8h6.8v-5.8zm-10.6 0v5.8h6.8v-5.8zm-10.6 0v5.8h6.8v-5.8zm-3.8 5.8v-5.8h-6.8v1.6l2.7 3c.8.8 1.8 1.3 3 1.3h1.1zm-11.7-9.7h1.1v-5.8h-6.3c.2.3.3.5.6.8zm4.901-5.8v5.8h6.8v-5.8zm10.599 0v5.8h6.8v-5.8zm10.6 0v5.8h6.8v-5.8zm10.6 0v5.8h6.8v-5.8zm10.6 0v5.8h6.8v-5.8zm10.601 0v5.8h6.8v-5.8zm16.599 0h-6v5.8h.8l4.6-5.1c.2-.2.4-.4.6-.7zm-79.7-3.8h6.3v-5.8h-1.1l-4.6 5.1c-.3.1-.499.4-.6.7zm10.101-5.9v5.8h6.8v-5.8zm10.599 0v5.8h6.8v-5.8zm10.6 0v5.8h6.8v-5.8zm10.6 0v5.8h6.8v-5.8zm10.6 0v5.8h6.8v-5.8zm10.601 0v5.8h6.8v-5.8zm11.399 0h-.8v5.8h6c-.2-.3-.3-.5-.6-.8zm-57.6-9.7h-1.1c-1.1 0-2.2.5-3 1.3l-2.7 3v1.6h6.8zm3.8 5.9h6.8v-5.8h-6.8zm10.6 0h6.8v-5.8h-6.8zm10.6 0h6.8v-5.8h-6.8zm10.6 0h6.8v-5.8h-6.8zm10.601-5.9v5.8h6.8v-1.2l-3.1-3.4c-.8-.8-1.8-1.3-3-1.3h-.7z" fill="#142664"/><circle cx="204.137" cy="95.1" fill="#142664" r="2.9"/><circle cx="193.037" cy="95.1" fill="#142664" r="2.9"/><path d="m248.238 144.2v17.7c0 1.1-.9 1.9-1.9 1.9-1.1 0-1.9-.9-1.9-1.9v-19.6c0-1.1.9-1.9 1.9-1.9h27c1.1 0 1.9.9 1.9 1.9 0 1.1-.9 1.9-1.9 1.9z" fill="#142664"/><path d="m202.837 139.2 24.1 24.1c.7.7 2 .7 2.7 0s.7-2 0-2.7l-24.1-24.1c-.7-.7-2-.7-2.7 0s-.7 1.9 0 2.7zm-107.499 8.2c-.9-1.4-1.5-3.2-1.5-5 0-5.1 4.1-9.2 9.2-9.2 4.4 0 8.1 3.1 9 7.3h45.4c1.1 0 1.9.9 1.9 1.9 0 1.1-.9 1.9-1.9 1.9h-45.4c-.9 4.2-4.6 7.3-9 7.3-1.9 0-3.6-.5-5-1.5l-13.3 13.3c-.7.7-2 .7-2.7 0s-.7-2 0-2.7zm3.899-1.2c1 1 2.3 1.6 3.8 1.6 3 0 5.4-2.4 5.4-5.4s-2.4-5.4-5.4-5.4-5.4 2.4-5.4 5.4c.001 1.4.6 2.7 1.6 3.8 0-.1 0-.1 0 0zm134.6-38.8h-28.5c-1.1 0-1.9.9-1.9 1.9s.9 1.9 1.9 1.9h28.5c1.1 0 1.9-.9 1.9-1.9s-.9-1.9-1.9-1.9z" fill="#142664"/><path d="m189.337 178.6-8.2 8.2c-.4.4-.8.6-1.4.6h-11.6l-4.8 4.8v11.5c0 1.1-.9 1.9-1.9 1.9-1.1 0-1.9-.9-1.9-1.9v-12.2c0-.5.2-1 .6-1.4l14.8-14.8v-11.4h-50.7l-3.6 21.9c-.2.9-1 1.6-1.9 1.6h-22.4c-1.1 0-1.9-.9-1.9-1.9 0-1.1.9-1.9 1.9-1.9h20.7l3.2-19.7h-51.8c-1.1 0-1.9-.9-1.9-1.9 0-1.1.9-1.9 1.9-1.9h54 .1 130.2c1.1 0 1.9.9 1.9 1.9 0 1.1-.9 1.9-1.9 1.9h-74.1v10.9h27.3c.5 0 1 .2 1.4.6l13.3 13.3c1.4-3.9 4.9-6.9 9.1-7.6v-8.2c0-1.1.9-1.9 1.9-1.9h7.4c1.1 0 1.9.9 1.9 1.9 0 1.1-.9 1.9-1.9 1.9h-5.5v8c0 1.1-.9 1.9-1.9 1.9-4.3 0-7.8 3.5-7.8 7.8 0 .8-.5 1.5-1.2 1.8s-1.5.1-2.1-.4l-15.3-15.3zm-10.4 5 5-5h-7l-5 5z" fill="#142664"/><path d="m278.638 156.7c1.6 4.7 3.2 7.9 9.5 14.1 6.2 6.2-13-2.8-13-2.8s1.9-16 3.5-11.3z" fill="#00e6b3"/><path d="m398.438 545.4c3 0 5.5-3.1 5.5-6.8s-2.5-6.8-5.5-6.8h-46.9v13.6z" fill="#00e6b3"/><ellipse cx="351.438" cy="538.6" fill="#fff" rx="5.5" ry="6.8"/><path d="m347.138 542.6c.3.4.6.8 1.1 1.2.9.7 2.3 1.4 4.2 1.6l-3.2 3.2c-1.4-.5-2.5-1.1-3.4-1.8-.6-.5-1.1-1-1.5-1.4z" fill="#142664"/></svg>