<svg xmlns="http://www.w3.org/2000/svg" version="1.1" viewBox="0 0 3000 2000" width="3000" height="2000">
<defs/><!--ITEM: Illustration component 1--><g transform="translate(2852.5 577.5) rotate(0.0 -1355.0 612.5)  scale(-3.4126684296688072 3.408211982438666)"><svg width="794.1" height="359.426" viewBox="0.0 0.0 794.1 359.426"><path d="m701.393 294.606h-13.62l2.805-177.058 10.815 134.086z" fill="#ff2e93"/><path d="m591.878 109.854h18v24.366h-18z" fill="#00e6b3"/><path d="m488.25 189.902-23.908-30.39-.147 107.41h25.548v-72.698c0-1.567-.526-3.089-1.493-4.322z" fill="#ff2e93"/><path d="m85.724 225.513h37.934v57.249h-37.934z" fill="#ff2e93"/><path d="m224.822 171.111-31.668-16.513c-1.332-.694-2.925.272-2.925 1.773v123.111h38.356v-102.164c0-2.609-1.45-5.001-3.763-6.207z" fill="#ff2e93"/><path d="m343.933 210.082c.874 0 1.582-.708 1.582-1.582v-129.616c0-.874-.708-1.582-1.582-1.582-.874 0-1.582.708-1.582 1.582v129.616c0 .873.708 1.582 1.582 1.582z" fill="#ff2e93"/><path d="m792.3 355.826h-33.641v-35.029h-18.324v-31.802-8.569-28.792c0-2.209-1.791-4-4-4h-30.942c-2.209 0-4 1.791-4 4v28.792h-10.815v-88.987-73.891h-21.252c-1.268 0-2.296 1.028-2.296 2.296v30.801h-2.428c-9.389 0-17 7.611-17 17v23.793h-3.017c-6.075 0-11 4.925-11 11v21.607h-20.225v-10.168h-.001v-117.311c0-.56-.45-1-1-1h-3.61c-.55 0-1 .44-1 1v2.41h-13.43v-2.41c0-.56-.45-1-1-1h-3.61c-.55 0-1 .44-1 1v110.181c-.152-.093-.32-.161-.512-.161h-3.611c-.552 0-1 .448-1 1v6.293h-3.901v-6.293c0-.552-.448-1-1-1h-3.611c-.552 0-1 .448-1 1v6.293h-3.901v-6.293c0-.552-.448-1-1-1h-3.611c-.552 0-1 .448-1 1v6.293h-3.901v-6.293c0-.552-.448-1-1-1h-3.611c-.552 0-1 .448-1 1v6.293h-3.901v-6.293c0-.552-.448-1-1-1h-3.611c-.552 0-1 .448-1 1v6.293h-3.901v-6.293c0-.552-.448-1-1-1h-3.611c-.552 0-1 .448-1 1v6.293h-3.901v-6.293c0-.552-.448-1-1-1h-3.611c-.552 0-1 .448-1 1v6.293 66.548h-20.226v-65.129c0-1.567-.526-3.089-1.494-4.322l-22.055-28.097v67.431h-16.544v-178.972c0-1.924-.555-3.808-1.599-5.424l-7.81-12.096c-.368-.57-1.001-.915-1.68-.915h-19.223c-.679 0-1.312.345-1.68.915l-7.81 12.096c-1.044 1.617-1.599 3.5-1.599 5.424v178.971h-26.88l-10.4-119.436c-.18-2.067-1.91-3.653-3.985-3.653h-17.629v-33.903c0-2.209-1.791-4-4-4h-15.549c-2.209 0-4 1.791-4 4v37.902 100.294h-11.584v-12.635c0-3.314-2.686-6-6-6h-11.549c-3.314 0-6 2.686-6 6v12.635h-7.731l-1.005-60.637 1.753-105.723c17.214-1.919 29.765-7.866 29.765-14.909 0-8.242-17.188-14.983-38.927-15.522v-31.917c0-1.549-1.256-2.805-2.805-2.805-1.549 0-2.805 1.256-2.805 2.805v31.916c-21.738.539-38.927 7.28-38.927 15.522 0 7.06 12.612 13.017 29.889 14.921l2.629 105.71-2.724 109.55h-8.725v-31.699c0-2.227-1.819-4.025-4.046-4l-16.899.195v-58.09c0-2.609-1.451-5.001-3.764-6.207l-31.668-16.513c-1.331-.694-2.925.272-2.925 1.773v79.479l-10.648.123v-112.308c0-2.209-1.791-4-4-4h-15.549c-2.209 0-4 1.791-4 4v147.249h-16.813v-185.946l-40.989-29v214.946h-23.597v-47.913c0-3.866-3.134-7-7-7l-24.941 7c-3.866 0-7 3.134-7 7v40.913 8.569 31.802h-18.325v35.029h-33.641c-1 0-1.8.8-1.8 1.8s.8 1.8 1.8 1.8h33.641 18.324 686.568 18.324 33.643c1 0 1.8-.8 1.8-1.8s-.8-1.8-1.8-1.8zm-197.981-239.15c0-.552.448-1 1-1h11.43c.552 0 1 .448 1 1v13.13c0 .552-.448 1-1 1h-11.43c-.552 0-1-.448-1-1z" fill="#142664"/><path d="m327.053 50.8c-6.137 1.432-21.189 2.444-38.786 2.444-17.65 0-32.741-1.018-38.842-2.457" style="fill:none;stroke:#00e6b3;stroke-width:4;stroke-linecap:round;stroke-linejoin:round;stroke-miterlimit:10"/><ellipse cx="136.805" cy="80.289" fill="#00e6b3" rx="11.218" ry="26.732" transform="matrix(.7071 -.7071 .7071 .7071 -16.704 120.2519)"/><path d="m141.663 89.817h-.389c-1.442 0-2.611 1.169-2.611 2.611v203.742c0 1.442 1.169 2.611 2.611 2.611h.389c1.442 0 2.611-1.169 2.611-2.611v-203.742c0-1.442-1.169-2.611-2.611-2.611z" fill="#00e6b3"/><path d="m380.577 144.189h-13.083c-.88 0-1.594-.714-1.594-1.594v-3.214c0-.88.714-1.594 1.594-1.594h13.083c.88 0 1.594.714 1.594 1.594v3.214c0 .88-.714 1.594-1.594 1.594z" fill="#00e6b3"/><path d="m380.577 158.128h-13.083c-.88 0-1.594-.714-1.594-1.594v-3.214c0-.88.714-1.594 1.594-1.594h13.083c.88 0 1.594.714 1.594 1.594v3.214c0 .88-.714 1.594-1.594 1.594z" fill="#00e6b3"/><path d="m380.577 172.067h-13.083c-.88 0-1.594-.714-1.594-1.594v-3.214c0-.88.714-1.594 1.594-1.594h13.083c.88 0 1.594.714 1.594 1.594v3.214c0 .88-.714 1.594-1.594 1.594z" fill="#00e6b3"/><path d="m380.577 186.006h-13.083c-.88 0-1.594-.714-1.594-1.594v-3.214c0-.88.714-1.594 1.594-1.594h13.083c.88 0 1.594.714 1.594 1.594v3.214c0 .88-.714 1.594-1.594 1.594z" fill="#ff2e93"/><path d="m380.577 199.945h-13.083c-.88 0-1.594-.714-1.594-1.594v-3.214c0-.88.714-1.594 1.594-1.594h13.083c.88 0 1.594.714 1.594 1.594v3.214c0 .88-.714 1.594-1.594 1.594z" fill="#ff2e93"/><path d="m380.577 213.884h-13.083c-.88 0-1.594-.714-1.594-1.594v-3.214c0-.88.714-1.594 1.594-1.594h13.083c.88 0 1.594.714 1.594 1.594v3.214c0 .88-.714 1.594-1.594 1.594z" fill="#ff2e93"/><path d="m380.577 227.823h-13.083c-.88 0-1.594-.714-1.594-1.594v-3.214c0-.88.714-1.594 1.594-1.594h13.083c.88 0 1.594.714 1.594 1.594v3.214c0 .88-.714 1.594-1.594 1.594z" fill="#ff2e93"/><path d="m380.577 241.762h-13.083c-.88 0-1.594-.714-1.594-1.594v-3.214c0-.88.714-1.594 1.594-1.594h13.083c.88 0 1.594.714 1.594 1.594v3.214c0 .88-.714 1.594-1.594 1.594z" fill="#ff2e93"/><g fill="#00e6b3"><path d="m440.329 77.695h-4.402c-.552 0-1-.448-1-1v-4.402c0-.552.448-1 1-1h4.402c.552 0 1 .448 1 1v4.402c0 .552-.447 1-1 1z"/><path d="m440.329 91.634h-4.402c-.552 0-1-.448-1-1v-4.402c0-.552.448-1 1-1h4.402c.552 0 1 .448 1 1v4.402c0 .552-.447 1-1 1z"/><path d="m440.329 105.573h-4.402c-.552 0-1-.448-1-1v-4.402c0-.552.448-1 1-1h4.402c.552 0 1 .448 1 1v4.402c0 .552-.447 1-1 1z"/><path d="m440.329 119.512h-4.402c-.552 0-1-.448-1-1v-4.402c0-.552.448-1 1-1h4.402c.552 0 1 .448 1 1v4.402c0 .552-.447 1-1 1z"/><path d="m440.329 133.451h-4.402c-.552 0-1-.448-1-1v-4.402c0-.552.448-1 1-1h4.402c.552 0 1 .448 1 1v4.402c0 .553-.447 1-1 1z"/><path d="m440.329 147.39h-4.402c-.552 0-1-.448-1-1v-4.402c0-.552.448-1 1-1h4.402c.552 0 1 .448 1 1v4.402c0 .553-.447 1-1 1z"/><path d="m440.329 161.329h-4.402c-.552 0-1-.448-1-1v-4.402c0-.552.448-1 1-1h4.402c.552 0 1 .448 1 1v4.402c0 .553-.447 1-1 1z"/><path d="m440.329 175.268h-4.402c-.552 0-1-.448-1-1v-4.402c0-.552.448-1 1-1h4.402c.552 0 1 .448 1 1v4.402c0 .553-.447 1-1 1z"/><path d="m440.329 189.207h-4.402c-.552 0-1-.448-1-1v-4.402c0-.552.448-1 1-1h4.402c.552 0 1 .448 1 1v4.402c0 .553-.447 1-1 1z"/><path d="m440.329 203.146h-4.402c-.552 0-1-.448-1-1v-4.402c0-.552.448-1 1-1h4.402c.552 0 1 .448 1 1v4.402c0 .553-.447 1-1 1z"/><path d="m440.329 217.085h-4.402c-.552 0-1-.448-1-1v-4.402c0-.552.448-1 1-1h4.402c.552 0 1 .448 1 1v4.402c0 .553-.447 1-1 1z"/><path d="m440.329 231.024h-4.402c-.552 0-1-.448-1-1v-4.402c0-.552.448-1 1-1h4.402c.552 0 1 .448 1 1v4.402c0 .553-.447 1-1 1z"/><path d="m440.329 244.963h-4.402c-.552 0-1-.448-1-1v-4.402c0-.552.448-1 1-1h4.402c.552 0 1 .448 1 1v4.402c0 .553-.447 1-1 1z"/><path d="m440.329 258.902h-4.402c-.552 0-1-.448-1-1v-4.402c0-.552.448-1 1-1h4.402c.552 0 1 .448 1 1v4.402c0 .553-.447 1-1 1z"/><path d="m440.329 272.841h-4.402c-.552 0-1-.448-1-1v-4.402c0-.552.448-1 1-1h4.402c.552 0 1 .448 1 1v4.402c0 .553-.447 1-1 1z"/><path d="m440.329 286.78h-4.402c-.552 0-1-.448-1-1v-4.402c0-.552.448-1 1-1h4.402c.552 0 1 .448 1 1v4.402c0 .553-.447 1-1 1z"/></g></svg></g><!--ITEM: Illustration component 2--><g transform="translate(977.5 917.5) rotate(0.0 25.0 25.0)  scale(3.2894736842105265 3.2894736842105265)"><svg width="15.2" height="15.2" viewBox="0.0 0.0 15.2 15.2"><path d="m5.8 5.8c.2-2.5.4-4.4.4-4.4 0-.8.6-1.4 1.4-1.4s1.4.6 1.4 1.4c0 0 .3 2 .4 4.4.5 0 .9.1 1.3.1 1.8.1 3.1.3 3.1.3.8 0 1.4.6 1.4 1.4s-.6 1.4-1.4 1.4c0 0-1.3.2-3.1.3-.4 0-.8.1-1.3.1 0 .5-.1.9-.1 1.3-.1 1.8-.3 3.1-.3 3.1 0 .8-.6 1.4-1.4 1.4s-1.4-.6-1.4-1.4c0 0-.2-1.3-.3-3.1 0-.4-.1-.9-.1-1.3-2.4-.2-4.4-.4-4.4-.4-.8 0-1.4-.6-1.4-1.4s.6-1.4 1.4-1.4c0 0 1.9-.3 4.4-.4z" fill="#ff2e93"/></svg></g><!--ITEM: Illustration component 3--><g transform="translate(1365.0 200.0) rotate(0.0 26.25 26.25)  scale(3.4539473684210527 3.4539473684210527)"><svg width="15.2" height="15.2" viewBox="0.0 0.0 15.2 15.2"><path d="m5.8 5.8c.2-2.5.4-4.4.4-4.4 0-.8.6-1.4 1.4-1.4s1.4.6 1.4 1.4c0 0 .3 2 .4 4.4.5 0 .9.1 1.3.1 1.8.1 3.1.3 3.1.3.8 0 1.4.6 1.4 1.4s-.6 1.4-1.4 1.4c0 0-1.3.2-3.1.3-.4 0-.8.1-1.3.1 0 .5-.1.9-.1 1.3-.1 1.8-.3 3.1-.3 3.1 0 .8-.6 1.4-1.4 1.4s-1.4-.6-1.4-1.4c0 0-.2-1.3-.3-3.1 0-.4-.1-.9-.1-1.3-2.4-.2-4.4-.4-4.4-.4-.8 0-1.4-.6-1.4-1.4s.6-1.4 1.4-1.4c0 0 1.9-.3 4.4-.4z" fill="#ff2e93"/></svg></g><!--ITEM: Illustration component 4--><g transform="translate(260.0 942.5) rotate(0.0 26.25 26.25)  scale(3.4539473684210527 3.4539473684210527)"><svg width="15.2" height="15.2" viewBox="0.0 0.0 15.2 15.2"><path d="m5.8 5.8c.2-2.5.4-4.4.4-4.4 0-.8.6-1.4 1.4-1.4s1.4.6 1.4 1.4c0 0 .3 2 .4 4.4.5 0 .9.1 1.3.1 1.8.1 3.1.3 3.1.3.8 0 1.4.6 1.4 1.4s-.6 1.4-1.4 1.4c0 0-1.3.2-3.1.3-.4 0-.8.1-1.3.1 0 .5-.1.9-.1 1.3-.1 1.8-.3 3.1-.3 3.1 0 .8-.6 1.4-1.4 1.4s-1.4-.6-1.4-1.4c0 0-.2-1.3-.3-3.1 0-.4-.1-.9-.1-1.3-2.4-.2-4.4-.4-4.4-.4-.8 0-1.4-.6-1.4-1.4s.6-1.4 1.4-1.4c0 0 1.9-.3 4.4-.4z" fill="#ff2e93"/></svg></g><!--ITEM: Illustration component 5--><g transform="translate(2762.5 672.5) rotate(0.0 26.25 26.25)  scale(3.4539473684210527 3.4539473684210527)"><svg width="15.2" height="15.2" viewBox="0.0 0.0 15.2 15.2"><path d="m5.8 5.8c.2-2.5.4-4.4.4-4.4 0-.8.6-1.4 1.4-1.4s1.4.6 1.4 1.4c0 0 .3 2 .4 4.4.5 0 .9.1 1.3.1 1.8.1 3.1.3 3.1.3.8 0 1.4.6 1.4 1.4s-.6 1.4-1.4 1.4c0 0-1.3.2-3.1.3-.4 0-.8.1-1.3.1 0 .5-.1.9-.1 1.3-.1 1.8-.3 3.1-.3 3.1 0 .8-.6 1.4-1.4 1.4s-1.4-.6-1.4-1.4c0 0-.2-1.3-.3-3.1 0-.4-.1-.9-.1-1.3-2.4-.2-4.4-.4-4.4-.4-.8 0-1.4-.6-1.4-1.4s.6-1.4 1.4-1.4c0 0 1.9-.3 4.4-.4z" fill="#ff2e93"/></svg></g><!--ITEM: Illustration component 6--><g transform="translate(2617.5 1152.5) rotate(0.0 18.75 18.75)  scale(2.4671052631578947 2.4671052631578947)"><svg width="15.2" height="15.2" viewBox="0.0 0.0 15.2 15.2"><path d="m5.8 5.8c.2-2.5.4-4.4.4-4.4 0-.8.6-1.4 1.4-1.4s1.4.6 1.4 1.4c0 0 .3 2 .4 4.4.5 0 .9.1 1.3.1 1.8.1 3.1.3 3.1.3.8 0 1.4.6 1.4 1.4s-.6 1.4-1.4 1.4c0 0-1.3.2-3.1.3-.4 0-.8.1-1.3.1 0 .5-.1.9-.1 1.3-.1 1.8-.3 3.1-.3 3.1 0 .8-.6 1.4-1.4 1.4s-1.4-.6-1.4-1.4c0 0-.2-1.3-.3-3.1 0-.4-.1-.9-.1-1.3-2.4-.2-4.4-.4-4.4-.4-.8 0-1.4-.6-1.4-1.4s.6-1.4 1.4-1.4c0 0 1.9-.3 4.4-.4z" fill="#ff2e93"/></svg></g><!--ITEM: Illustration component 7--><g transform="translate(2787.5 1470.0) rotate(0.0 18.75 18.75)  scale(2.4671052631578947 2.4671052631578947)"><svg width="15.2" height="15.2" viewBox="0.0 0.0 15.2 15.2"><path d="m5.8 5.8c.2-2.5.4-4.4.4-4.4 0-.8.6-1.4 1.4-1.4s1.4.6 1.4 1.4c0 0 .3 2 .4 4.4.5 0 .9.1 1.3.1 1.8.1 3.1.3 3.1.3.8 0 1.4.6 1.4 1.4s-.6 1.4-1.4 1.4c0 0-1.3.2-3.1.3-.4 0-.8.1-1.3.1 0 .5-.1.9-.1 1.3-.1 1.8-.3 3.1-.3 3.1 0 .8-.6 1.4-1.4 1.4s-1.4-.6-1.4-1.4c0 0-.2-1.3-.3-3.1 0-.4-.1-.9-.1-1.3-2.4-.2-4.4-.4-4.4-.4-.8 0-1.4-.6-1.4-1.4s.6-1.4 1.4-1.4c0 0 1.9-.3 4.4-.4z" fill="#ff2e93"/></svg></g><!--ITEM: Illustration component 8--><g transform="translate(1510.0 687.5) rotate(0.0 18.75 18.75) translate(0.0 0.0) scale(2.4671052631578947 2.4671052631578947)"><svg width="15.2" height="15.2" viewBox="0.0 0.0 15.2 15.2"><path d="m5.8 5.8c.2-2.5.4-4.4.4-4.4 0-.8.6-1.4 1.4-1.4s1.4.6 1.4 1.4c0 0 .3 2 .4 4.4.5 0 .9.1 1.3.1 1.8.1 3.1.3 3.1.3.8 0 1.4.6 1.4 1.4s-.6 1.4-1.4 1.4c0 0-1.3.2-3.1.3-.4 0-.8.1-1.3.1 0 .5-.1.9-.1 1.3-.1 1.8-.3 3.1-.3 3.1 0 .8-.6 1.4-1.4 1.4s-1.4-.6-1.4-1.4c0 0-.2-1.3-.3-3.1 0-.4-.1-.9-.1-1.3-2.4-.2-4.4-.4-4.4-.4-.8 0-1.4-.6-1.4-1.4s.6-1.4 1.4-1.4c0 0 1.9-.3 4.4-.4z" fill="#ff2e93"/></svg></g><!--ITEM: Illustration component 9--><g transform="translate(2132.5 852.5) rotate(0.0 18.75 18.75) translate(0.0 0.0) scale(2.4671052631578947 2.4671052631578947)"><svg width="15.2" height="15.2" viewBox="0.0 0.0 15.2 15.2"><path d="m5.8 5.8c.2-2.5.4-4.4.4-4.4 0-.8.6-1.4 1.4-1.4s1.4.6 1.4 1.4c0 0 .3 2 .4 4.4.5 0 .9.1 1.3.1 1.8.1 3.1.3 3.1.3.8 0 1.4.6 1.4 1.4s-.6 1.4-1.4 1.4c0 0-1.3.2-3.1.3-.4 0-.8.1-1.3.1 0 .5-.1.9-.1 1.3-.1 1.8-.3 3.1-.3 3.1 0 .8-.6 1.4-1.4 1.4s-1.4-.6-1.4-1.4c0 0-.2-1.3-.3-3.1 0-.4-.1-.9-.1-1.3-2.4-.2-4.4-.4-4.4-.4-.8 0-1.4-.6-1.4-1.4s.6-1.4 1.4-1.4c0 0 1.9-.3 4.4-.4z" fill="#ff2e93"/></svg></g><!--ITEM: Illustration component 10--><g transform="translate(1070.0 497.5) rotate(0.0 18.75 18.75) translate(0.0 0.0) scale(2.4671052631578947 2.4671052631578947)"><svg width="15.2" height="15.2" viewBox="0.0 0.0 15.2 15.2"><path d="m5.8 5.8c.2-2.5.4-4.4.4-4.4 0-.8.6-1.4 1.4-1.4s1.4.6 1.4 1.4c0 0 .3 2 .4 4.4.5 0 .9.1 1.3.1 1.8.1 3.1.3 3.1.3.8 0 1.4.6 1.4 1.4s-.6 1.4-1.4 1.4c0 0-1.3.2-3.1.3-.4 0-.8.1-1.3.1 0 .5-.1.9-.1 1.3-.1 1.8-.3 3.1-.3 3.1 0 .8-.6 1.4-1.4 1.4s-1.4-.6-1.4-1.4c0 0-.2-1.3-.3-3.1 0-.4-.1-.9-.1-1.3-2.4-.2-4.4-.4-4.4-.4-.8 0-1.4-.6-1.4-1.4s.6-1.4 1.4-1.4c0 0 1.9-.3 4.4-.4z" fill="#ff2e93"/></svg></g><!--ITEM: Illustration component 11--><g transform="translate(500.0 725.0) rotate(0.0 18.75 18.75) translate(0.0 0.0) scale(2.4671052631578947 2.4671052631578947)"><svg width="15.2" height="15.2" viewBox="0.0 0.0 15.2 15.2"><path d="m5.8 5.8c.2-2.5.4-4.4.4-4.4 0-.8.6-1.4 1.4-1.4s1.4.6 1.4 1.4c0 0 .3 2 .4 4.4.5 0 .9.1 1.3.1 1.8.1 3.1.3 3.1.3.8 0 1.4.6 1.4 1.4s-.6 1.4-1.4 1.4c0 0-1.3.2-3.1.3-.4 0-.8.1-1.3.1 0 .5-.1.9-.1 1.3-.1 1.8-.3 3.1-.3 3.1 0 .8-.6 1.4-1.4 1.4s-1.4-.6-1.4-1.4c0 0-.2-1.3-.3-3.1 0-.4-.1-.9-.1-1.3-2.4-.2-4.4-.4-4.4-.4-.8 0-1.4-.6-1.4-1.4s.6-1.4 1.4-1.4c0 0 1.9-.3 4.4-.4z" fill="#ff2e93"/></svg></g><!--ITEM: Illustration component 12--><g transform="translate(190.0 1390.0) rotate(0.0 18.75 18.75) translate(0.0 0.0) scale(2.4671052631578947 2.4671052631578947)"><svg width="15.2" height="15.2" viewBox="0.0 0.0 15.2 15.2"><path d="m5.8 5.8c.2-2.5.4-4.4.4-4.4 0-.8.6-1.4 1.4-1.4s1.4.6 1.4 1.4c0 0 .3 2 .4 4.4.5 0 .9.1 1.3.1 1.8.1 3.1.3 3.1.3.8 0 1.4.6 1.4 1.4s-.6 1.4-1.4 1.4c0 0-1.3.2-3.1.3-.4 0-.8.1-1.3.1 0 .5-.1.9-.1 1.3-.1 1.8-.3 3.1-.3 3.1 0 .8-.6 1.4-1.4 1.4s-1.4-.6-1.4-1.4c0 0-.2-1.3-.3-3.1 0-.4-.1-.9-.1-1.3-2.4-.2-4.4-.4-4.4-.4-.8 0-1.4-.6-1.4-1.4s.6-1.4 1.4-1.4c0 0 1.9-.3 4.4-.4z" fill="#ff2e93"/></svg></g><!--ITEM: Illustration component 13--><g transform="translate(242.5 395.0) rotate(0.0 18.75 18.75) translate(0.0 0.0) scale(2.4671052631578947 2.4671052631578947)"><svg width="15.2" height="15.2" viewBox="0.0 0.0 15.2 15.2"><path d="m5.8 5.8c.2-2.5.4-4.4.4-4.4 0-.8.6-1.4 1.4-1.4s1.4.6 1.4 1.4c0 0 .3 2 .4 4.4.5 0 .9.1 1.3.1 1.8.1 3.1.3 3.1.3.8 0 1.4.6 1.4 1.4s-.6 1.4-1.4 1.4c0 0-1.3.2-3.1.3-.4 0-.8.1-1.3.1 0 .5-.1.9-.1 1.3-.1 1.8-.3 3.1-.3 3.1 0 .8-.6 1.4-1.4 1.4s-1.4-.6-1.4-1.4c0 0-.2-1.3-.3-3.1 0-.4-.1-.9-.1-1.3-2.4-.2-4.4-.4-4.4-.4-.8 0-1.4-.6-1.4-1.4s.6-1.4 1.4-1.4c0 0 1.9-.3 4.4-.4z" fill="#ff2e93"/></svg></g><!--ITEM: Illustration component 14--><g transform="translate(1807.5 312.5) rotate(0.0 18.75 18.75) translate(0.0 0.0) scale(2.4671052631578947 2.4671052631578947)"><svg width="15.2" height="15.2" viewBox="0.0 0.0 15.2 15.2"><path d="m5.8 5.8c.2-2.5.4-4.4.4-4.4 0-.8.6-1.4 1.4-1.4s1.4.6 1.4 1.4c0 0 .3 2 .4 4.4.5 0 .9.1 1.3.1 1.8.1 3.1.3 3.1.3.8 0 1.4.6 1.4 1.4s-.6 1.4-1.4 1.4c0 0-1.3.2-3.1.3-.4 0-.8.1-1.3.1 0 .5-.1.9-.1 1.3-.1 1.8-.3 3.1-.3 3.1 0 .8-.6 1.4-1.4 1.4s-1.4-.6-1.4-1.4c0 0-.2-1.3-.3-3.1 0-.4-.1-.9-.1-1.3-2.4-.2-4.4-.4-4.4-.4-.8 0-1.4-.6-1.4-1.4s.6-1.4 1.4-1.4c0 0 1.9-.3 4.4-.4z" fill="#ff2e93"/></svg></g><!--ITEM: Illustration component 15--><g transform="translate(2655.0 200.0) rotate(0.0 18.75 18.75) translate(0.0 0.0) scale(2.4671052631578947 2.4671052631578947)"><svg width="15.2" height="15.2" viewBox="0.0 0.0 15.2 15.2"><path d="m5.8 5.8c.2-2.5.4-4.4.4-4.4 0-.8.6-1.4 1.4-1.4s1.4.6 1.4 1.4c0 0 .3 2 .4 4.4.5 0 .9.1 1.3.1 1.8.1 3.1.3 3.1.3.8 0 1.4.6 1.4 1.4s-.6 1.4-1.4 1.4c0 0-1.3.2-3.1.3-.4 0-.8.1-1.3.1 0 .5-.1.9-.1 1.3-.1 1.8-.3 3.1-.3 3.1 0 .8-.6 1.4-1.4 1.4s-1.4-.6-1.4-1.4c0 0-.2-1.3-.3-3.1 0-.4-.1-.9-.1-1.3-2.4-.2-4.4-.4-4.4-.4-.8 0-1.4-.6-1.4-1.4s.6-1.4 1.4-1.4c0 0 1.9-.3 4.4-.4z" fill="#ff2e93"/></svg></g><!--ITEM: Illustration component 16--><g transform="translate(350.0 240.0) rotate(0.0 340.0 198.75)  scale(2.222156864667379 2.227914223901176)"><svg width="306.009" height="178.418" viewBox="0.0 0.0 306.009 178.418"><path d="m189.116 123.961a4.5 4.5 0 0 1 -3.89-2.231l-31.208-53.43c-.084-.143-.124-.145-.166-.138-.026 0-.07.007-.143.12l-34.655 53.618a4.5 4.5 0 1 1 -7.559-4.885l34.655-53.621a9.136 9.136 0 0 1 15.64.364l31.21 53.433a4.5 4.5 0 0 1 -3.881 6.77z" fill="#142664"/><path d="m153.671 74.8a2.46 2.46 0 0 1 -2.571-2.33v-39.38a2.588 2.588 0 0 1 5.149 0v39.38a2.461 2.461 0 0 1 -2.578 2.33z" fill="#ff2e93"/><path d="m199.437 117.237a2.461 2.461 0 0 1 -2.575-2.326v-77.38a2.588 2.588 0 0 1 5.149 0v77.38a2.46 2.46 0 0 1 -2.574 2.326z" fill="#ff2e93"/><path d="m106.364 117.237a2.46 2.46 0 0 1 -2.574-2.326v-77.38a2.588 2.588 0 0 1 5.149 0v77.38a2.461 2.461 0 0 1 -2.575 2.326z" fill="#ff2e93"/><path d="m250.665 18.949-1.742-1.876a2.576 2.576 0 0 0 -2.583-.727l-50.457 8.509a2.574 2.574 0 0 1 -2.54-.681l-16.81-11.574a2.573 2.573 0 0 0 -1.843-.777h-42.013a2.573 2.573 0 0 0 -1.843.777l-16.782 11.545a2.573 2.573 0 0 1 -2.539.681l-50.355-8.48a2.573 2.573 0 0 0 -2.582.727l-1.742 1.876a2.574 2.574 0 0 0 .87 4.117l41.856 18.042a12.915 12.915 0 0 0 5.112 1.055h33.058a2.57 2.57 0 0 1 1.779.714l2.694 2.577a2.578 2.578 0 0 0 1.78.714h19.4a2.577 2.577 0 0 0 1.78-.714l2.694-2.577a2.572 2.572 0 0 1 1.78-.714h33.063a12.9 12.9 0 0 0 5.1-1.05l42-18.047a2.575 2.575 0 0 0 .865-4.117z" fill="#142664"/><ellipse cx="254.649" cy="18.388" fill="#142664" rx="11.407" ry="11.362"/><ellipse cx="51.361" cy="18.388" fill="#142664" rx="11.407" ry="11.362"/><path d="m305.451 0c.658 0 .774 1.666.135 1.943-8.286 3.585-27.974 10.877-50.937 10.877s-42.649-7.292-50.937-10.877c-.639-.277-.523-1.943.135-1.943z" fill="#00e6b3"/><path d="m102.163 0c.658 0 .774 1.666.134 1.943-8.289 3.585-27.973 10.877-50.936 10.877s-42.648-7.292-50.937-10.877c-.64-.277-.524-1.943.134-1.943z" fill="#00e6b3"/><rect fill="#ff2e93" height="3.297" rx="1" transform="matrix(0 1 -1 0 193.745 -150.969)" width="3.297" x="170.708" y="19.74"/><rect fill="#ff2e93" height="3.297" rx="1" transform="matrix(0 1 -1 0 186.567 -143.792)" width="3.297" x="163.531" y="19.74"/><g fill="#00e6b3"><rect height="3.297" rx="1" transform="matrix(0 1 -1 0 179.39 -136.615)" width="3.297" x="156.354" y="19.74"/><rect height="3.297" rx="1" transform="matrix(0 1 -1 0 172.213 -129.437)" width="3.297" x="149.177" y="19.74"/><rect height="3.297" rx="1" transform="matrix(0 1 -1 0 165.036 -122.26)" width="3.297" x="142" y="19.74"/><rect height="3.297" rx="1" transform="matrix(0 1 -1 0 157.859 -115.083)" width="3.297" x="134.823" y="19.74"/></g><path d="m259.124 18.388a1.011 1.011 0 0 1 .973 1.252 5.6 5.6 0 0 1 -10.9 0 1.011 1.011 0 0 1 .973-1.252z" fill="#fff"/><path d="m55.836 18.388a1.011 1.011 0 0 1 .973 1.252 5.6 5.6 0 0 1 -10.9 0 1.011 1.011 0 0 1 .973-1.252z" fill="#fff"/><rect fill="#00e6b3" height="63.297" rx="5" width="86.637" x="122.761" y="115.121"/><rect fill="#142664" height="63.297" rx="5" width="86.637" x="96.794" y="115.121"/><path d="m96.794 131.146h86.637v7.912h-86.637z" fill="#ff2e93"/><path d="m174.99 31.9h-41.971a1 1 0 0 1 0-2h41.971a1 1 0 0 1 0 2z" fill="#00e6b3"/></svg></g><!--ITEM: Illustration component 17--><g transform="translate(2170.0 200.0) rotate(0.0 148.75 225.0)  scale(2.5063817956645913 2.5079278385563253)"><svg width="118.697" height="179.431" viewBox="0.0 0.0 118.697 179.431"><path d="m68.475 127.961a2.459 2.459 0 0 1 -2.574-2.326v-77.38a2.588 2.588 0 0 1 5.149 0v77.38a2.46 2.46 0 0 1 -2.575 2.326z" fill="#142664"/><path d="m29.533 127.961a2.46 2.46 0 0 1 -2.575-2.326v-77.38a2.588 2.588 0 0 1 5.149 0v77.38a2.459 2.459 0 0 1 -2.574 2.326z" fill="#142664"/><rect fill="#ff2e93" height="63.297" rx="5" width="73.457" x="23.117" y="116.134"/><rect fill="#142664" height="63.297" rx="5" width="63.297" x=".26" y="116.134"/><path d="m114 28a9.859 9.859 0 0 0 -9.9-9.9h-20.8v31h30.6v-21.1z" fill="#ff2e93"/><path d="m107.1 27.9h6.6a1.9 1.9 0 0 0 0-3.8h-6.6a1.9 1.9 0 0 0 -1.9 1.9 1.837 1.837 0 0 0 1.9 1.9z" fill="#142664"/><path d="m107.1 33.7h6.6a1.9 1.9 0 0 0 1.9-1.9 1.967 1.967 0 0 0 -1.9-1.9h-6.6a1.9 1.9 0 1 0 0 3.8z" fill="#142664"/><path d="m107.1 39.6h6.6a1.9 1.9 0 0 0 0-3.8h-6.6a1.9 1.9 0 0 0 -1.9 1.9 1.837 1.837 0 0 0 1.9 1.9z" fill="#142664"/><path d="m94.9 69.9a4.568 4.568 0 0 0 -3.9 2.2 47.193 47.193 0 1 1 6.7-31.1 4.536 4.536 0 0 0 4.5 4h13.9a2.609 2.609 0 0 1 2.1 1.1 2.924 2.924 0 0 1 .4 2.4c-1.1 3.4-2.8 8.9-4.2 13.4a11.581 11.581 0 0 1 -11.1 8.2z" fill="#00e6b3"/><g fill="#142664"><circle cx="74.4" cy="26.1" r="2.3"/><circle cx="97.8" cy="62.6" r="2.3"/><circle cx="105.4" cy="62.6" r="2.3"/><path d="m52.7 25.5 19-19a2 2 0 0 1 2.7 0 2 2 0 0 1 0 2.7l-19.5 19.6a1.816 1.816 0 0 1 -1.4.6h-43.6a1.9 1.9 0 0 1 0-3.8z"/><path d="m56 14.9h8.1a1.9 1.9 0 0 1 1.9 1.9 1.967 1.967 0 0 1 -1.9 1.9h-12.7a1.975 1.975 0 0 1 -1.8-1.2 2.044 2.044 0 0 1 .4-2.1l12.7-12.7a2 2 0 0 1 2.7 0 2 2 0 0 1 0 2.7z"/><path d="m31.7 77.6v-6.8a1.9 1.9 0 0 1 3.8 0v8.7a1.9 1.9 0 0 1 -1.9 1.9h-14.2a1.9 1.9 0 0 1 -1.9-1.9 1.967 1.967 0 0 1 1.9-1.9z"/><path d="m45.5 84.9 6.2 6.2a1.909 1.909 0 0 1 -2.7 2.7l-6.7-6.7a1.816 1.816 0 0 1 -.6-1.4v-14.9a1.9 1.9 0 0 1 3.8 0z"/></g><path d="m51.6 81.3a6.7 6.7 0 0 0 .6 1.1 5.5 5.5 0 0 0 .7.9 2.092 2.092 0 0 0 .6.4c.8.5 1.5.9 1.5.9a1.414 1.414 0 0 0 2-2 8.138 8.138 0 0 0 -.9-1.5c-.1-.2-.3-.4-.4-.6a5.5 5.5 0 0 0 -.9-.7 6.7 6.7 0 0 0 -1.1-.6 1.335 1.335 0 0 0 -2 0 1.665 1.665 0 0 0 -.1 2.1z" fill="#fff"/><path d="m58.3 81.3a6.7 6.7 0 0 0 .6 1.1 5.5 5.5 0 0 0 .7.9 2.092 2.092 0 0 0 .6.4c.8.5 1.5.9 1.5.9a1.414 1.414 0 0 0 2-2 8.138 8.138 0 0 0 -.9-1.5c-.1-.2-.3-.4-.4-.6a5.5 5.5 0 0 0 -.9-.7 6.7 6.7 0 0 0 -1.1-.6 1.335 1.335 0 0 0 -2 0 1.665 1.665 0 0 0 -.1 2.1z" fill="#fff"/><path d="m65.1 81.3a6.7 6.7 0 0 0 .6 1.1 5.5 5.5 0 0 0 .7.9 2.092 2.092 0 0 0 .6.4c.8.5 1.5.9 1.5.9a1.414 1.414 0 0 0 2-2 8.138 8.138 0 0 0 -.9-1.5c-.1-.2-.3-.4-.4-.6a5.5 5.5 0 0 0 -.9-.7 6.7 6.7 0 0 0 -1.1-.6 1.335 1.335 0 0 0 -2 0 1.549 1.549 0 0 0 -.1 2.1z" fill="#fff"/><path d="m95.2 37.5a44.909 44.909 0 0 0 -8.5-18.2 1.921 1.921 0 1 1 3-2.4 49.418 49.418 0 0 1 10 23.7 2.678 2.678 0 0 0 2.6 2.3h11.8a1.9 1.9 0 1 1 0 3.8h-7.9v4.9h8a1.9 1.9 0 0 1 1.9 1.9 1.967 1.967 0 0 1 -1.9 1.9h-9.9a1.9 1.9 0 0 1 -1.9-1.9v-6.8h-.1a6.278 6.278 0 0 1 -6.3-5.4h-6.3v21.5a1.974 1.974 0 0 1 -.6 1.4l-10.9 10.9a2 2 0 0 1 -2.7 0l-8.9-8.9a1.909 1.909 0 1 1 2.7-2.7l7.6 7.6 8.9-8.9v-22.6a1.9 1.9 0 0 1 1.9-1.9h7.5z" fill="#142664"/><path d="m1.9 34.4h76.2a1.9 1.9 0 0 1 1.9 1.9v23a1.936 1.936 0 0 1 -1 1.7l-21.6 11.5a2.92 2.92 0 0 1 -.9.2h-33a2.92 2.92 0 0 1 -.9-.2l-21.6-11.5a1.936 1.936 0 0 1 -1-1.7v-23a1.965 1.965 0 0 1 1.9-1.9z" fill="#142664"/><path d="m39.7 57.455a11.931 11.931 0 0 1 -10.3-6 1.612 1.612 0 1 1 2.8-1.6 8.527 8.527 0 0 0 7.5 4.3 8.863 8.863 0 0 0 7.5-4.3 1.612 1.612 0 1 1 2.8 1.6 11.81 11.81 0 0 1 -10.3 6z" fill="#fff"/><path d="m16.1 53.455h-8a1.58 1.58 0 0 1 -1.6-1.6v-9.7a1.6 1.6 0 0 1 3.2 0v8.1h6.4a1.6 1.6 0 1 1 0 3.2z" fill="#fff"/><path d="m71.3 53.455h-8a1.58 1.58 0 0 1 -1.6-1.6v-9.7a1.6 1.6 0 1 1 3.2 0v8.1h6.4a1.58 1.58 0 0 1 1.6 1.6 1.522 1.522 0 0 1 -1.6 1.6z" fill="#fff"/><path d="m20.309 140.282a1.421 1.421 0 0 0 -.2-.6.735.735 0 0 0 -.6-.2h-2.4a.752.752 0 0 1 -.7-.5.972.972 0 0 1 .1-.9c1.5-2 4.4-5.9 5.7-7.7a.967.967 0 0 1 1.4 0c1.3 1.7 4.2 5.6 5.7 7.7a.972.972 0 0 1 .1.9.752.752 0 0 1 -.7.5h-2.4a1.421 1.421 0 0 0 -.6.2.735.735 0 0 0 -.2.6v16.8a1.421 1.421 0 0 1 -.2.6.735.735 0 0 1 -.6.2h-3.3a1.421 1.421 0 0 1 -.6-.2.735.735 0 0 1 -.2-.6c-.3-3-.3-13.7-.3-16.8z" fill="#00e6b3"/><path d="m36.609 140.282a1.421 1.421 0 0 0 -.2-.6.735.735 0 0 0 -.6-.2h-2.4a.752.752 0 0 1 -.7-.5.972.972 0 0 1 .1-.9c1.5-2 4.4-5.9 5.7-7.7a.967.967 0 0 1 1.4 0c1.3 1.7 4.2 5.6 5.7 7.7a.972.972 0 0 1 .1.9.752.752 0 0 1 -.7.5h-2.4a1.421 1.421 0 0 0 -.6.2.735.735 0 0 0 -.2.6v16.8a1.421 1.421 0 0 1 -.2.6.735.735 0 0 1 -.6.2h-3.3a1.421 1.421 0 0 1 -.6-.2.735.735 0 0 1 -.2-.6c-.3-3-.3-13.7-.3-16.8z" fill="#00e6b3"/><path d="m43.909 161.682h-26a1.9 1.9 0 0 0 -1.9 1.9 1.967 1.967 0 0 0 1.9 1.9h26a1.9 1.9 0 0 0 1.9-1.9 1.967 1.967 0 0 0 -1.9-1.9z" fill="#00e6b3"/></svg></g><!--ITEM: Illustration component 18--><g transform="translate(1285.0 497.5) rotate(0.0 177.5 31.25)  scale(2.366161885464434 2.401721554009914)"><svg width="150.032" height="26.023" viewBox="0.0 0.0 150.032 26.023"><g fill="#142664"><path d="m122.9 9.29-.855-.919a1.261 1.261 0 0 0 -1.266-.357l-24.74 4.172a1.261 1.261 0 0 1 -1.245-.334l-8.242-5.676a1.263 1.263 0 0 0 -.9-.381h-20.602a1.263 1.263 0 0 0 -.9.381l-8.228 5.662a1.261 1.261 0 0 1 -1.245.334l-24.692-4.158a1.262 1.262 0 0 0 -1.266.357l-.854.919a1.263 1.263 0 0 0 .426 2.019l20.522 11.233a6.331 6.331 0 0 0 2.506.517h48.063a6.318 6.318 0 0 0 2.5-.515l20.589-11.235a1.263 1.263 0 0 0 .429-2.019z"/><ellipse cx="124.851" cy="9.015" rx="5.593" ry="5.57"/><ellipse cx="25.181" cy="9.015" rx="5.593" ry="5.57"/><path d="m149.758 0c.323 0 .38.817.067.953a65.568 65.568 0 0 1 -24.974 5.332 65.558 65.558 0 0 1 -24.974-5.332c-.313-.136-.256-.953.066-.953z"/><path d="m50.089 0c.323 0 .379.817.066.953a65.558 65.558 0 0 1 -24.974 5.332 65.557 65.557 0 0 1 -24.973-5.332c-.314-.136-.257-.953.066-.953z"/><path d="m92.2 26.023h-34.866a2.14 2.14 0 0 1 -1.374-.507l-7.005-5.867h51.621l-7 5.867a2.145 2.145 0 0 1 -1.376.507z"/></g><rect fill="#00e6b3" height="3.934" rx="1" transform="matrix(0 1 -1 0 99.726 -68.168)" width="3.934" x="81.98" y="13.812"/><rect fill="#00e6b3" height="3.934" rx="1" transform="matrix(0 1 -1 0 91.16 -59.602)" width="3.934" x="73.414" y="13.812"/><rect fill="#00e6b3" height="3.934" rx="1" transform="matrix(0 1 -1 0 82.595 -51.036)" width="3.934" x="64.848" y="13.812"/></svg></g></svg>