<svg xmlns="http://www.w3.org/2000/svg"  viewBox="0 0 256 256" width="204px" height="204px"><path fill="#f4efed" d="M246.537,244.352H9.463c-3.017,0-5.463-2.446-5.463-5.463v-57.903c0-3.017,2.446-5.463,5.463-5.463h237.075 c3.017,0,5.463,2.446,5.463,5.463v57.903C252,241.907,249.554,244.352,246.537,244.352z"/><path fill="#f4efed" d="M246.537,80.476H9.463C6.446,80.476,4,78.03,4,75.013V17.11c0-3.017,2.446-5.462,5.463-5.462h237.075 c3.017,0,5.463,2.446,5.463,5.462v57.903C252,78.03,249.554,80.476,246.537,80.476z"/><path fill="#f4efed" d="M246.537,162.414H9.463c-3.017,0-5.463-2.446-5.463-5.463V99.049c0-3.017,2.446-5.463,5.463-5.463h237.075 c3.017,0,5.463,2.446,5.463,5.463v57.903C252,159.968,249.554,162.414,246.537,162.414z"/><path fill="#fff" d="M9.463,175.524h10c-3.017,0-5.463,2.446-5.463,5.463v57.903c0,3.017,2.446,5.463,5.463,5.463h-10 c-3.017,0-5.463-2.446-5.463-5.463v-57.903C4,177.97,6.446,175.524,9.463,175.524z"/><path fill="#fff" d="M9.463,93.586h10c-3.017,0-5.463,2.446-5.463,5.463v57.903c0,3.017,2.446,5.462,5.463,5.462h-10 c-3.017,0-5.463-2.446-5.463-5.462V99.048C4,96.032,6.446,93.586,9.463,93.586z"/><path fill="#fff" d="M9.463,11.648h10c-3.017,0-5.463,2.446-5.463,5.462v57.903c0,3.017,2.446,5.463,5.463,5.463h-10 C6.446,80.476,4,78.03,4,75.013V17.11C4,14.093,6.446,11.648,9.463,11.648z"/><path fill="#d6d1cf" d="M246.537,175.524h-10c3.017,0,5.463,2.446,5.463,5.463v57.903c0,3.017-2.446,5.463-5.463,5.463h10 c3.017,0,5.463-2.446,5.463-5.463v-57.903C252,177.97,249.554,175.524,246.537,175.524z"/><path fill="#d6d1cf" d="M246.537,93.586h-10c3.017,0,5.463,2.446,5.463,5.463v57.903c0,3.017-2.446,5.462-5.463,5.462h10 c3.017,0,5.463-2.446,5.463-5.462V99.048C252,96.032,249.554,93.586,246.537,93.586z"/><path fill="#d6d1cf" d="M246.537,11.648h-10c3.017,0,5.463,2.446,5.463,5.462v57.903c0,3.017-2.446,5.463-5.463,5.463h10 c3.017,0,5.463-2.446,5.463-5.463V17.11C252,14.093,249.554,11.648,246.537,11.648z"/><path fill="#7bac51" d="M216.762,58.626H88.938c-6.335,0-11.471-5.136-11.471-11.471l0,0c0-6.336,5.136-11.471,11.471-11.471h127.824 c6.335,0,11.471,5.136,11.471,11.471l0,0C228.234,53.49,223.098,58.626,216.762,58.626z"/><path fill="#7bac51" d="M216.762,139.471H88.938c-6.335,0-11.471-5.136-11.471-11.471l0,0c0-6.336,5.136-11.471,11.471-11.471 h127.824c6.335,0,11.471,5.136,11.471,11.471l0,0C228.234,134.335,223.098,139.471,216.762,139.471z"/><path fill="#7bac51" d="M216.762,220.317H88.938c-6.335,0-11.471-5.136-11.471-11.471l0,0c0-6.335,5.136-11.471,11.471-11.471 h127.824c6.335,0,11.471,5.136,11.471,11.471l0,0C228.234,215.181,223.098,220.317,216.762,220.317z"/><rect width="211.947" height="13.11" x="22.026" y="80.476" fill="#d6d1cf"/><rect width="211.947" height="13.11" x="22.026" y="162.414" fill="#d6d1cf"/><path fill="#690589" d="M246.537,82.476H9.463C5.348,82.476,2,79.128,2,75.014V17.11c0-4.115,3.348-7.463,7.463-7.463h237.074 c4.115,0,7.463,3.348,7.463,7.463v57.903C254,79.128,250.652,82.476,246.537,82.476z M9.463,13.647C7.554,13.647,6,15.201,6,17.11 v57.903c0,1.909,1.554,3.462,3.463,3.462h237.074c1.909,0,3.463-1.553,3.463-3.462V17.11c0-1.909-1.554-3.463-3.463-3.463H9.463z"/><path fill="#690589" d="M233.974,95.586H22.026c-1.104,0-2-0.896-2-2v-13.11c0-1.104,0.896-2,2-2h211.947c1.104,0,2,0.896,2,2v13.11 C235.974,94.69,235.078,95.586,233.974,95.586z M24.026,91.586h207.947v-9.11H24.026V91.586z"/><path fill="#690589" d="M246.537,164.414H9.463c-4.115,0-7.463-3.348-7.463-7.463V99.049c0-4.115,3.348-7.463,7.463-7.463h237.074 c4.115,0,7.463,3.348,7.463,7.463v57.902C254,161.066,250.652,164.414,246.537,164.414z M9.463,95.586 C7.554,95.586,6,97.14,6,99.049v57.902c0,1.909,1.554,3.463,3.463,3.463h237.074c1.909,0,3.463-1.554,3.463-3.463V99.049 c0-1.909-1.554-3.463-3.463-3.463H9.463z"/><path fill="#690589" d="M233.974,177.524H22.026c-1.104,0-2-0.896-2-2v-13.11c0-1.104,0.896-2,2-2h211.947c1.104,0,2,0.896,2,2v13.11 C235.974,176.629,235.078,177.524,233.974,177.524z M24.026,173.524h207.947v-9.11H24.026V173.524z"/><path fill="#690589" d="M246.537,246.353H9.463c-4.115,0-7.463-3.348-7.463-7.463v-57.903c0-4.114,3.348-7.462,7.463-7.462h237.074 c4.115,0,7.463,3.348,7.463,7.462v57.903C254,243.005,250.652,246.353,246.537,246.353z M9.463,177.524 c-1.909,0-3.463,1.553-3.463,3.462v57.903c0,1.909,1.554,3.463,3.463,3.463h237.074c1.909,0,3.463-1.554,3.463-3.463v-57.903 c0-1.909-1.554-3.462-3.463-3.462H9.463z"/><path fill="#690589" d="M216.762,60.626H88.938c-7.429,0-13.472-6.043-13.472-13.472s6.043-13.472,13.472-13.472h127.823 c7.429,0,13.472,6.043,13.472,13.472S224.19,60.626,216.762,60.626z M88.938,37.683c-5.223,0-9.472,4.249-9.472,9.472 s4.249,9.472,9.472,9.472h127.823c5.223,0,9.472-4.249,9.472-9.472s-4.249-9.472-9.472-9.472H88.938z"/><path fill="#690589" d="M216.762,141.472H88.938c-7.429,0-13.472-6.043-13.472-13.472s6.043-13.472,13.472-13.472h127.823 c7.429,0,13.472,6.043,13.472,13.472S224.19,141.472,216.762,141.472z M88.938,118.528c-5.223,0-9.472,4.249-9.472,9.472 s4.249,9.472,9.472,9.472h127.823c5.223,0,9.472-4.249,9.472-9.472s-4.249-9.472-9.472-9.472H88.938z"/><path fill="#690589" d="M216.762,222.317H88.938c-7.429,0-13.472-6.043-13.472-13.472s6.043-13.472,13.472-13.472h127.823 c7.429,0,13.472,6.043,13.472,13.472S224.19,222.317,216.762,222.317z M88.938,199.374c-5.223,0-9.472,4.249-9.472,9.472 s4.249,9.472,9.472,9.472h127.823c5.223,0,9.472-4.249,9.472-9.472s-4.249-9.472-9.472-9.472H88.938z"/><circle cx="39.238" cy="47.154" r="11.471" fill="#ff4397"/><circle cx="39.238" cy="128" r="11.471" fill="#ff4397"/><circle cx="39.238" cy="208.846" r="11.471" fill="#ff4397"/><path fill="#690589" d="M12,40.585c-1.104,0-2-0.896-2-2v-12c0-1.104,0.896-2,2-2s2,0.896,2,2v12C14,39.689,13.104,40.585,12,40.585z"/><path fill="#690589" d="M39.238,60.626c-7.429,0-13.472-6.043-13.472-13.472s6.043-13.472,13.472-13.472 c7.428,0,13.471,6.043,13.471,13.472S46.666,60.626,39.238,60.626z M39.238,37.683c-5.223,0-9.472,4.249-9.472,9.472 s4.249,9.472,9.472,9.472c5.222,0,9.471-4.249,9.471-9.472S44.46,37.683,39.238,37.683z"/><path fill="#690589" d="M39.238,141.472c-7.429,0-13.472-6.043-13.472-13.472s6.043-13.472,13.472-13.472 c7.428,0,13.471,6.043,13.471,13.472S46.666,141.472,39.238,141.472z M39.238,118.528c-5.223,0-9.472,4.249-9.472,9.472 s4.249,9.472,9.472,9.472c5.222,0,9.471-4.249,9.471-9.472S44.46,118.528,39.238,118.528z"/><path fill="#690589" d="M39.238,222.317c-7.429,0-13.472-6.043-13.472-13.472s6.043-13.472,13.472-13.472 c7.428,0,13.471,6.043,13.471,13.472S46.666,222.317,39.238,222.317z M39.238,199.374c-5.223,0-9.472,4.249-9.472,9.472 s4.249,9.472,9.472,9.472c5.222,0,9.471-4.249,9.471-9.472S44.46,199.374,39.238,199.374z"/><path fill="#ff4397" d="M185.439,70.64H70.561c-5.502,0-9.962,4.46-9.962,9.962v94.797c0,5.502,4.46,9.962,9.962,9.962h114.878 c5.502,0,9.962-4.46,9.962-9.962V80.602C195.401,75.1,190.941,70.64,185.439,70.64z"/><path fill="#e12579" d="M185.439,70.64h-8.918c5.502,0,9.962,4.46,9.962,9.962v94.797c0,5.502-4.46,9.962-9.962,9.962h8.918 c5.502,0,9.962-4.46,9.962-9.962V80.602C195.401,75.1,190.941,70.64,185.439,70.64z"/><path fill="#ff61b5" d="M70.561,185.36h8.918c-5.502,0-9.962-4.46-9.962-9.962V80.602c0-5.502,4.46-9.962,9.962-9.962h-8.918 c-5.502,0-9.962,4.46-9.962,9.962v94.797C60.599,180.9,65.059,185.36,70.561,185.36z"/><path fill="#fcc24c" d="M105.53,100.789c0,7.567-6.134,13.701-13.701,13.701c-7.567,0-13.701-6.134-13.701-13.701 c0-7.567,6.134-13.701,13.701-13.701C99.396,87.088,105.53,93.222,105.53,100.789z"/><polygon fill="#7bac51" points="128,185.36 80.92,185.36 104.46,144.588 128,103.816 151.54,144.588 175.08,185.36"/><path fill="#690589" d="M185.439,187.36H70.561c-6.596,0-11.962-5.366-11.962-11.962V80.602c0-6.596,5.366-11.962,11.962-11.962 h114.879c6.596,0,11.962,5.366,11.962,11.962v94.797C197.401,181.994,192.035,187.36,185.439,187.36z M70.561,72.64 c-4.391,0-7.962,3.571-7.962,7.962v94.797c0,4.391,3.571,7.962,7.962,7.962h114.879c4.391,0,7.962-3.571,7.962-7.962V80.602 c0-4.391-3.571-7.962-7.962-7.962H70.561z"/><path fill="#690589" d="M91.829,116.49c-8.657,0-15.701-7.044-15.701-15.701s7.044-15.701,15.701-15.701s15.701,7.044,15.701,15.701 S100.486,116.49,91.829,116.49z M91.829,89.088c-6.452,0-11.701,5.249-11.701,11.701s5.249,11.701,11.701,11.701 s11.701-5.249,11.701-11.701S98.281,89.088,91.829,89.088z"/><path fill="#690589" d="M175.08,187.36H80.92c-0.715,0-1.375-0.381-1.732-1c-0.356-0.619-0.356-1.381,0-2l47.08-81.545 c0.357-0.619,1.018-1,1.732-1s1.375,0.381,1.732,1l47.08,81.545c0.356,0.619,0.356,1.381,0,2 C176.455,186.979,175.795,187.36,175.08,187.36z M84.384,183.36h87.232L128,107.815L84.384,183.36z"/></svg>