<svg xmlns="http://www.w3.org/2000/svg" version="1.1" viewBox="0 0 3000 1687" width="916" height="611">
<defs/><!--ITEM: Illustration component 1--><g transform="translate(170.3125 121.875) rotate(0.0 861.71875 500.78125)  scale(1.561385937685441 1.5622051063683766)"><svg width="1103.787" height="641.121" viewBox="0.0 0.0 1103.787 641.121"><path d="m1103.782 44.44v539.94h-1103.782v-539.94a44.438 44.438 0 0 1 44.442-44.44h1014.9a44.446 44.446 0 0 1 44.44 44.44z" fill="#494242"/><path d="m99.3 423.3c-1.122 37.341 50.662 81.793 22.887 112.573-25.4 28.15-62.7-9.145-90.155 15.566-9.473 8.514-10.818 21.144-13.531 32.944h-18.501v-374.693c16.455-10.327 35.494-14.97 50.334-8.795 51.715 21.507 21.975 70.017 47.6 90.155 24.559 19.285 49.878 7.777 57.2 36.6 9.657 38.025-53.997 35.241-55.834 95.65z" fill="#403838"/><path d="m1103.787 422.1v162.278h-346.27c2.234-21.775 17.542-44.264 53.234-47.586 45.762-4.268 72.765 18.911 104.037-2.444 32.079-21.9-19-86.284 21.659-122.035 57.959-50.954 119.204 22.746 167.34 9.787z" fill="#403838"/><g fill="#ffe3c3"><path d="m366.522 160.048a6.522 6.522 0 0 1 -5.643-5.643 3.194 3.194 0 0 0 -3.132-2.844 3.008 3.008 0 0 0 -2.992 2.685l-.02.159a6.523 6.523 0 0 1 -5.643 5.643 3.193 3.193 0 0 0 -2.843 3.131 3.007 3.007 0 0 0 2.685 2.991l.159.02a6.524 6.524 0 0 1 5.643 5.644 3.194 3.194 0 0 0 3.132 2.844 3.008 3.008 0 0 0 2.991-2.685l.021-.159a6.523 6.523 0 0 1 5.643-5.644l.159-.02a3.008 3.008 0 0 0 2.685-2.991 3.193 3.193 0 0 0 -2.845-3.131z"/><path d="m231.991 504.763a6.523 6.523 0 0 1 -5.643-5.643 3.194 3.194 0 0 0 -3.132-2.844 3.008 3.008 0 0 0 -2.992 2.685l-.02.159a6.524 6.524 0 0 1 -5.643 5.643 3.2 3.2 0 0 0 -2.843 3.132 3.008 3.008 0 0 0 2.685 2.991l.159.02a6.524 6.524 0 0 1 5.643 5.643 3.194 3.194 0 0 0 3.132 2.844 3.008 3.008 0 0 0 2.991-2.685l.021-.16a6.523 6.523 0 0 1 5.643-5.643l.159-.02a3.008 3.008 0 0 0 2.685-2.991 3.2 3.2 0 0 0 -2.845-3.131z"/><path d="m795.121 468.5a6.524 6.524 0 0 1 -5.643-5.643 3.194 3.194 0 0 0 -3.132-2.844 3.007 3.007 0 0 0 -2.991 2.685l-.021.159a6.523 6.523 0 0 1 -5.643 5.643 3.193 3.193 0 0 0 -2.843 3.131 3.008 3.008 0 0 0 2.685 2.991l.159.02a6.523 6.523 0 0 1 5.643 5.644 3.2 3.2 0 0 0 3.133 2.844 3.008 3.008 0 0 0 2.991-2.685l.02-.159a6.524 6.524 0 0 1 5.643-5.644l.159-.02a3.008 3.008 0 0 0 2.685-2.991 3.2 3.2 0 0 0 -2.845-3.131z"/><path d="m319.9 119.107a4.129 4.129 0 0 1 -3.571-3.571 2.02 2.02 0 0 0 -1.982-1.8 1.9 1.9 0 0 0 -1.893 1.7l-.013.1a4.127 4.127 0 0 1 -3.571 3.571 2.021 2.021 0 0 0 -1.8 1.982 1.9 1.9 0 0 0 1.7 1.893l.1.013a4.126 4.126 0 0 1 3.571 3.571 2.022 2.022 0 0 0 1.983 1.8 1.9 1.9 0 0 0 1.892-1.7l.013-.1a4.128 4.128 0 0 1 3.571-3.566l.1-.013a1.9 1.9 0 0 0 1.7-1.893 2.02 2.02 0 0 0 -1.8-1.987z"/><path d="m758.087 28.835a4.13 4.13 0 0 1 -3.572-3.572 2.021 2.021 0 0 0 -1.982-1.8 1.9 1.9 0 0 0 -1.893 1.7l-.013.1a4.128 4.128 0 0 1 -3.571 3.572 2.02 2.02 0 0 0 -1.8 1.982 1.9 1.9 0 0 0 1.7 1.892l.1.013a4.128 4.128 0 0 1 3.571 3.572 2.023 2.023 0 0 0 1.983 1.8 1.9 1.9 0 0 0 1.892-1.7l.013-.1a4.13 4.13 0 0 1 3.572-3.572l.1-.013a1.9 1.9 0 0 0 1.7-1.892 2.02 2.02 0 0 0 -1.8-1.982z"/><path d="m198.521 248.409a4.13 4.13 0 0 1 -3.572-3.571 2.02 2.02 0 0 0 -1.982-1.8 1.9 1.9 0 0 0 -1.893 1.7l-.013.1a4.128 4.128 0 0 1 -3.571 3.571 2.021 2.021 0 0 0 -1.8 1.982 1.9 1.9 0 0 0 1.7 1.893l.1.013a4.126 4.126 0 0 1 3.571 3.571 2.022 2.022 0 0 0 1.983 1.8 1.9 1.9 0 0 0 1.892-1.7l.013-.1a4.128 4.128 0 0 1 3.572-3.571l.1-.013a1.9 1.9 0 0 0 1.7-1.893 2.02 2.02 0 0 0 -1.8-1.982z"/><path d="m1041.89 280.206a4.128 4.128 0 0 1 -3.571-3.572 2.022 2.022 0 0 0 -1.982-1.8 1.9 1.9 0 0 0 -1.893 1.7l-.013.1a4.13 4.13 0 0 1 -3.571 3.572 2.02 2.02 0 0 0 -1.8 1.982 1.9 1.9 0 0 0 1.7 1.892l.1.013a4.13 4.13 0 0 1 3.571 3.572 2.02 2.02 0 0 0 1.982 1.8 1.9 1.9 0 0 0 1.893-1.7l.013-.1a4.128 4.128 0 0 1 3.571-3.572l.1-.013a1.9 1.9 0 0 0 1.7-1.892 2.02 2.02 0 0 0 -1.8-1.982z"/><path d="m878.452 492.263a4.13 4.13 0 0 1 -3.572-3.571 2.02 2.02 0 0 0 -1.982-1.8 1.9 1.9 0 0 0 -1.893 1.7l-.013.1a4.128 4.128 0 0 1 -3.571 3.571 2.021 2.021 0 0 0 -1.8 1.982 1.9 1.9 0 0 0 1.7 1.893l.1.012a4.128 4.128 0 0 1 3.571 3.572 2.022 2.022 0 0 0 1.983 1.8 1.9 1.9 0 0 0 1.892-1.7l.013-.1a4.13 4.13 0 0 1 3.572-3.572l.1-.012a1.9 1.9 0 0 0 1.7-1.893 2.02 2.02 0 0 0 -1.8-1.982z"/></g><path d="m1103.787 573.853v22.828a44.443 44.443 0 0 1 -44.44 44.44h-1014.907a44.436 44.436 0 0 1 -44.44-44.44v-22.828z" fill="#ae84d3"/><path d="m1103.782 44.44v130.46a176.985 176.985 0 0 1 -195.4 14.69 177.908 177.908 0 0 1 -58.7-53.17 176.237 176.237 0 0 1 -31.32-86.82c-.4-4.83-.59-9.73-.59-14.67a178.583 178.583 0 0 1 3.428-34.93h238.14a44.446 44.446 0 0 1 44.44 44.44z" fill="#ff5e43"/><path d="m1103.782 49.76v31.31a62.223 62.223 0 0 0 -18.71 16.41c-32.09 43.01-79.24 41.88-116.51 53.13-26.35 7.96-34.26 31.87-35.71 50.36a176.831 176.831 0 0 1 -24.47-11.38c1.42-14.04 6.22-30.19 23.19-46.35 25.62-24.41 92.13-13.43 120.2-49.43-28.07 11.6-87.26 2.44-122.65-3.04-31.51-4.9-64.96 17.78-79.44 45.65a176.237 176.237 0 0 1 -31.32-86.82c64.39-34.85 108.73 29.37 210.82 25.9 19.918-.67 46.618-13.09 74.6-25.74z" fill="#e54630"/><path d="m1103.782 132.33v42.57a176.886 176.886 0 0 1 -45.98 25.83c5.99-21.14 17.54-47.93 45.98-68.4z" fill="#e54630"/><path d="m1091.422 13.69c-20.05 7.21-41.44 11.78-62.24 11.78-32.1 0-55.95-12.23-75.01-25.47h105.17a44.3 44.3 0 0 1 32.08 13.69z" fill="#e54630"/></svg></g><!--ITEM: Illustration component 2--><g transform="translate(2254.6875 243.75) rotate(0.0 146.09375 168.75)  scale(1.5574362500533026 1.5558229266066466)"><svg width="187.608" height="216.927" viewBox="0.0 0.0 187.608 216.927"><ellipse cx="16.596" cy="134.949" fill="#dda094" rx="16.59" ry="16.605" transform="matrix(.83219614 -.55448137 .55448137 .83219614 -72.042 31.847)"/><ellipse cx="98.68" cy="110.802" fill="#2b2929" rx="86.301" ry="86.38" transform="matrix(.83219614 -.55448137 .55448137 .83219614 -44.878 73.309)"/><path d="m105.955 69.182c37.463 12.836 63.654 75.949 63.654 75.949l-4.382 11.677a90.334 90.334 0 0 1 -84.944 58.624 69.21 69.21 0 0 1 -26.9-3.672c-32.3-11.068-50.689-42.884-41.062-71.058a47.506 47.506 0 0 1 7.021-13.24 45.445 45.445 0 0 1 .358-27.628c9.87-28.877 48.786-43.488 86.255-30.652z" fill="#f8b5a4" fill-rule="evenodd"/><path d="m33.512 201.623c-34.641-27.518-21.9-58.527-21.125-61.078 1.944-6.4 1.3-5.264 4.471-10.513.844-1.4 1.565-2.333 2.141-3.207.385-.584 1.963.417 2.378 1.028.671.988-4.916 4.744-7.373 8.428-5.914 8.869 1.893 23.948 5.238 30.41 0 0 7.246 14 19.426 23.507 35.387 27.634 86.237 11.487 93.691 8.965-32.93 23.829-73.353 22.712-98.847 2.46z" fill="#dda094" fill-rule="evenodd"/><path d="m61.273 157.112a1 1 0 0 1 -.671-.258l-5.695-5.148a5.663 5.663 0 0 1 -1.867-4.49 5.187 5.187 0 0 1 2.379-4.133l2.562-1.614a1 1 0 1 1 1.066 1.692l-2.555 1.609a3.186 3.186 0 0 0 -1.454 2.537 3.673 3.673 0 0 0 1.21 2.915l5.7 5.148a1 1 0 0 1 -.671 1.742z" fill="#403838"/><path d="m156.333 127.046c-9.278-.354-56.974-3.071-83.919-39.92-3.058-4.182-4-5.813-7.678-10.9-.531-.735-18.235 40.162-45.88 29.253-3.5-4.99 31.673-43.85 39.713-51.074z" fill="#dda094"/><path d="m54.378 59.266c7.757 9.89 24.147 25.516 42.745 40.031s47.642 25.11 80.538 36.469q4.18-41.592-21.731-65.99c-17.269-16.265-55.142-19.496-101.552-10.51z" fill="#2b2929" fill-rule="evenodd"/><ellipse cx="168.633" cy="142.471" fill="#f8b5a4" rx="19.014" ry="18.975" transform="matrix(.03196898 -.99948886 .99948886 .03196898 20.844 306.463)"/><path d="m172.1 156.62a1 1 0 0 1 -.452-1.892c5.953-3.012 8.953-7.1 9.171-12.5.215-5.368-2.44-9.427-8.119-12.409a1 1 0 1 1 .929-1.771c6.344 3.331 9.435 8.129 9.188 14.261-.246 6.1-3.7 10.88-10.267 14.2a1 1 0 0 1 -.45.111z" fill="#403838"/><path d="m73.745 49.874q-17.583 19.5-27.24 29.059t-30.378 27.96l3.991-14.772c6.443-23.852 27.791-40.664 53.627-42.247z" fill="#2b2929" fill-rule="evenodd"/><path d="m54.266 168.546c.333.689 4.379 8.7 12.373 7.23 8.169-1.5 12.986-11.516 13.337-12.267z" fill="#fff"/><path d="m19.684 110.4a6 6 0 0 1 -.931-11.927l23.005-3.643a6 6 0 0 1 1.877 11.852l-23 3.644a6.077 6.077 0 0 1 -.951.074z" fill="#2b2929"/><path d="m112.61 108.689a6.142 6.142 0 0 1 -.872-.063l-27.158-3.951a6 6 0 0 1 1.729-11.875l27.157 3.951a6 6 0 0 1 -.856 11.938z" fill="#2b2929"/><path d="m52.589 130.185c-.3-6.17-8.962-10.773-19.343-10.28a30.913 30.913 0 0 0 -5.1.666c4.3 3.366 6.257 8.857 4.46 13.854a11.742 11.742 0 0 1 -7.036 6.961 29.478 29.478 0 0 0 8.766.863c10.385-.493 18.555-5.894 18.253-12.064z" fill="#fff"/><path d="m28.15 120.57c-7.829 1.7-13.4 6.283-13.154 11.393.21 4.3 4.49 7.836 10.578 9.417a11.74 11.74 0 0 0 7.035-6.961c1.797-4.986-.164-10.482-4.459-13.849z" fill="#2b2929"/><path d="m117.231 130.631c-.474-6.321-9.957-11.246-21.179-11a34.768 34.768 0 0 0 -5.5.555c4.729 3.551 6.983 9.224 5.157 14.288a11.609 11.609 0 0 1 -7.446 6.95 34.17 34.17 0 0 0 9.507 1.1c11.222-.246 19.936-5.571 19.461-11.893z" fill="#fff"/><g fill="#2b2929"><path d="m90.552 120.187c-8.431 1.545-14.355 6.1-13.962 11.338.331 4.408 5.047 8.13 11.673 9.9a11.609 11.609 0 0 0 7.446-6.95c1.826-5.064-.428-10.737-5.157-14.288z"/><path d="m106.206 30c-6.16-6.222-9.206-14.938-9.587-23.316-.393-8.637 1.96-7.637 5.458-4.061 3.808 3.892 8.758 10.366 10.027 21.662 6.728-10.281 14.47-15.993 23.609-19 5.553-1.825 7.811.237 4.189 6.177-4.953 8.123-12.437 14.462-23.353 20.3a76.9 76.9 0 0 1 -10.343-1.762z"/></g></svg></g><!--ITEM: Illustration component 3--><g transform="translate(1193.75 443.75) rotate(0.0 211.71875 161.71875)  scale(1.57092852425931 1.5733462079164091)"><svg width="269.546" height="205.573" viewBox="0.0 0.0 269.546 205.573"><path d="m9.68 57.351-2.308-8.076a8.441 8.441 0 0 1 5.375-10.3l30.085-10.332a8.439 8.439 0 0 1 9.023 2.346l7.77 8.659z" fill="#ff5e43"/><path d="m147.021 15.475-1.121-2.675a5.711 5.711 0 0 1 3.817-7.733l18.556-4.88a5.715 5.715 0 0 1 5.3 1.3l10.4 9.472z" fill="#ff5e43"/><path d="m242.937 123.5c-10.437-16.36-29.053-35.688-46.816-40.336-21.158 8.886-63.879 23.136-82.921 33.717-6.444 13.7-5.923 37.638 3.8 63.615a20.491 20.491 0 0 1 .573 2.367c3.568 14.52-4.238 33.418-33.007 15.234s-71.879-53.949-82.906-97.206c-4.66-18.238-1.276-51.711 33.418-63.138 23.06-7.59 36.8 0 43.148 1.7 21.136-9.719 56.349-19.439 68.22-24.531a.079.079 0 0 1 .032-.011c7.2-8.173 28.769-15.222 48.479-6.108 12.433 5.752 61.8 30.65 73.084 95.81 7.19 41.524-13.081 37.729-25.104 18.887z" fill="#ffe3c3"/><path d="m243.5 126.19a24.877 24.877 0 0 0 -.563-2.692 7.233 7.233 0 0 1 .563 2.692z" fill="#ffe3c3"/><path d="m242.937 123.5c-10.437-16.36-28.488-30.047-46.251-34.7-21.158 8.887-58.241 21.007-77.28 31.591-6.443 13.7-8.627 33.256-2.4 60.1-10.854-11.871-26.087-56.155-24.39-106.644-2.043-9.136-5.644-22.844-14.39-34.4 21.136-9.719 56.349-19.439 68.22-24.531a.079.079 0 0 1 .032-.011s16.222 11 28.453 27.494c23.446 9.601 56.169 36.816 68.006 81.101z" fill="#2b2929"/><path d="m165.394 48.745c-13.039 4.774-37.595 13.7-54.263 20.189a11.6 11.6 0 0 1 -14.343-5.171c-4.939-8.826-11.963-20.112-18.562-24.313 21.136-9.719 56.349-19.439 68.22-24.531a.079.079 0 0 1 .032-.011c6.376 4.808 15.232 15.112 21.861 24.234a6.3 6.3 0 0 1 -2.945 9.603z" fill="#ffe3c3"/><circle cx="121.964" cy="91.561" fill="#ff5e43" r="12.618"/><ellipse cx="176.793" cy="70.13" fill="#ff5e43" rx="11.501" ry="12.618" transform="matrix(.78470064 -.61987491 .61987491 .78470064 -5.408 124.687)"/><path d="m77.322 69.523-2.159-.059-2.941-5.588a2.163 2.163 0 0 0 -2.922-.906l-9.048 4.764-5.8-10.827a2.162 2.162 0 0 0 -2.927-.885l-5.009 2.683-2.865-.414-.787 3.058a2.15 2.15 0 0 0 .149 1.68l4.995 9.325-10.432 5.458-.815 3.136h.009a2.143 2.143 0 0 0 .185 1.493l4.029 7.659a2.161 2.161 0 0 0 2.916.9l11-5.786 6.727 12.558a2.164 2.164 0 0 0 2.928.884l7.624-4.084a2.149 2.149 0 0 0 1.086-1.467l.011-.005.837-3.245-7.676-10.715 8.908-4.69a2.148 2.148 0 0 0 1.087-1.41l.01-.006z" fill="#ff5e43"/><path d="m77.082 68.316-4.029-7.653a2.161 2.161 0 0 0 -2.92-.906l-9.049 4.763-5.8-10.827a2.163 2.163 0 0 0 -2.927-.885l-7.624 4.085a2.163 2.163 0 0 0 -.885 2.927l5.752 10.744-10.908 5.745a2.161 2.161 0 0 0 -.906 2.92l4.029 7.654a2.163 2.163 0 0 0 2.92.906l10.995-5.789 6.728 12.557a2.162 2.162 0 0 0 2.927.885l7.624-4.084a2.164 2.164 0 0 0 .885-2.927l-6.683-12.474 8.965-4.72a2.162 2.162 0 0 0 .906-2.921z" fill="#494242"/><g fill="#ff5e43"><ellipse cx="183.967" cy="16.079" rx="5.621" ry="6.116" transform="matrix(.6353507 -.77222373 .77222373 .6353507 54.666 147.926)"/><ellipse cx="196.325" cy="36.491" rx="5.621" ry="6.116" transform="matrix(.6353507 -.77222373 .77222373 .6353507 43.41 164.912)"/><ellipse cx="199.921" cy="21.192" rx="5.621" ry="6.116" transform="matrix(.6353507 -.77222373 .77222373 .6353507 56.536 162.11)"/><ellipse cx="179.517" cy="31.005" rx="5.621" ry="6.116" transform="matrix(.6353507 -.77222373 .77222373 .6353507 41.517 149.932)"/></g></svg></g><!--ITEM: Illustration component 4--><g transform="translate(1073.4375 476.5625) rotate(0.0 909.375 581.25)  scale(1.5620008038668054 1.5622648203496248)"><svg width="1164.372" height="744.112" viewBox="0.0 0.0 1164.372 744.112"><path d="m553.173 460.886a.749.749 0 0 1 -.6-1.2c5.2-6.976 20.251-29.457 24.56-36.9a.75.75 0 0 1 1.3.752c-4.327 7.469-19.443 30.038-24.656 37.038a.747.747 0 0 1 -.604.31z" fill="#403838"/><path d="m190.383 432.025-8.278-33.991c-1.267-1.344-21.3-21.961-45.733-16.067a41.519 41.519 0 0 0 -18.551 10.25l.044.026a231.57 231.57 0 0 1 72.518 39.782z" fill="#ffe3c3"/><path d="m325.162 564.738c-25.185 3.731-52.383 6.819-81.4 8.813-26.576 1.826-51.748 2.534-75.315 2.449a300.771 300.771 0 0 1 -38.1-125.559c13.146-.733 46.946-1.329 79.719-1.441 23.473-.073 46.434.107 60.885.675 11.688 9.865 33.758 31.341 45.89 66.057a149.671 149.671 0 0 1 8.321 49.006z" fill="#fcf0e3"/><path d="m43.544 321.969a42.621 42.621 0 0 0 -18.164 3.368c-10.286 4.118-17.935 13.529-19.553 23.625q-.5 3.126-1 6.255c-4.827 30.116-2.448 59.654 6.961 86.353l68.705 194.969c4.42 12.543 19.865 16.972 33.743 9.676l86.371-45.4c13.735-7.221 22.738-21.8 22.768-36.857l.086-43.731c25.129-2.5 45.347-18.439 49.27-35.015 3.606-15.236-7.794-25.783-9.132-26.977-12.494-11.147-35.347-10.973-57.156 1.1-68.22-20.163-98.443-51.952-113.285-78.422-2.99-5.334-5.784-11.217-8.636-17.14-9.672-20.085-20.015-40.618-40.978-41.804z" fill="#e5d2d8"/><path d="m35.835 322.235c-14.119.842-27.28 11.818-30.2 25.367l-.061.288a110 110 0 0 0 -2.413 20.547 52.815 52.815 0 0 1 16.065 1.2c43.862 10.544 41.438 78.712 60.472 128.2 12.319 32.027 40.416 73.878 112.6 107.345-4.806-3.235-28.72-30.472-19.157-53.559 7.891-19.05 40.363-16.552 50.279-12.389-.079-6.163.349-12.156.271-18.319l-51.119-19.572 13.021-48.949-11.4-4.542c-1.575 5.385-6.168 18.337-18.473 27.608-19.948 15.028-46.947 10.427-60.978.429-16.442-11.723-15.982-31.5-19.277-54.299-4.944-34.216-15.148-75.472-35.86-99.616z" fill="#4097ff"/><path d="m87.722 370.39-.686 3.281c-4.176 19.98-1.078 39.47 8.7 55.2a202.837 202.837 0 0 0 76.836 72.467 221 221 0 0 0 50.613 19.406c21.568 2.523 43.58-11.622 50.13-29.821 6.9-19.189-6.051-35.467-21.077-40.891-21.6-7.8-44.379 7.954-45.525 8.771a220.147 220.147 0 0 1 -46.013-19.091 202.29 202.29 0 0 1 -72.978-69.322z" fill="#ae75bc"/><path d="m114.059 403.952c5.516 19.244 11.889 36.46 1.7 80.292 26.365 5.352 48.079-8.8 50.887-15.554q4.479-10.709 8.956-21.419c-19.915-13.805-51.741-35.58-61.543-43.319z" fill="#ffe3c3"/><path d="m12.772 444.373a129.881 129.881 0 0 1 25.24 24.846c38.749 50.46 21.726 108 51.648 121.584 15.409 7 28.38-4.42 43.724 7.087 10.654 7.991 14.367 20.969 15.884 29.906l-37.115 20.013c-12.574 6.779-26.7 2.829-30.727-8.591z" fill="#ae75bc"/><ellipse cx="179.133" cy="474.326" fill="#403838" rx="6.381" ry="5.665" transform="matrix(.6650479 -.74680071 .74680071 .6650479 -294.226 292.653)"/><ellipse cx="155.371" cy="463.279" fill="#403838" rx="6.381" ry="5.665" transform="matrix(.6650479 -.74680071 .74680071 .6650479 -293.935 271.208)"/><ellipse cx="130.55" cy="447.701" fill="#403838" rx="6.381" ry="5.665" transform="matrix(.6650479 -.74680071 .74680071 .6650479 -290.616 247.454)"/><path d="m132.186 448.084a1 1 0 0 1 -.824-1.567 26.748 26.748 0 0 0 4.531-12.217 22.36 22.36 0 0 0 -1.914-11.741 1 1 0 1 1 1.816-.836 24.34 24.34 0 0 1 2.086 12.793 28.772 28.772 0 0 1 -4.87 13.134 1 1 0 0 1 -.825.434z" fill="#403838"/><path d="m156.306 463.572a1 1 0 0 1 -.749-1.662 27.638 27.638 0 0 0 5.027-8.213 25.106 25.106 0 0 0 1.276-14.11 1 1 0 0 1 1.963-.387 27.117 27.117 0 0 1 -1.378 15.23 29.617 29.617 0 0 1 -5.39 8.8 1 1 0 0 1 -.749.342z" fill="#403838"/><path d="m180 473.932a1 1 0 0 1 -.837-1.546 32.473 32.473 0 0 0 4.215-9.541 29.057 29.057 0 0 0 .688-11.372 1 1 0 0 1 1.983-.271 31.114 31.114 0 0 1 -.735 12.15 34.5 34.5 0 0 1 -4.475 10.125 1 1 0 0 1 -.839.455z" fill="#403838"/><path d="m1024.154 63.64a68.734 68.734 0 0 1 55.346 21.85c6.256 6.851 10.237 14.136 9.334 20.467-2.391 16.755-18.3 24.939-19.851 25.7 18.834 2.692 33.554 12.262 36.219 24.52 4.224 19.421-23.678 36.989-28.023 39.725-49.9 31.423-126.963-13.727-139.013-20.977l-106.794-92.958z" fill="#ffe3c3"/><path d="m1051.839 82.444c-1.955-8.809-55.979-9.883-93.13-9-29.851.71-79.937 7.2-81.587 16.044-1.344 7.2 27.775 13.026 54.369 15.99 59.841 6.669 122.5-13.365 120.348-23.034" fill="#eacaac"/><path d="m1068.982 131.657c-5.844 2.195-8.436 6.059-41.6 7.037 7.043 3.326 41.723 6.066 52.082-4.711a56.9 56.9 0 0 0 -10.482-2.326z" fill="#eacaac"/><path d="m838.805 608.8c-134.752 0-286.32-21.094-373.433-57.829-7.194 7.968-88.629 18.605-131 12 0-30.307 12.952-25.847 27.709-50.685 33.839-57.018 98.3-98.163 155.648-116.7 22.244-7.206 43.418-10.993 61.317-10.993 78.926-.002 259.759 93.538 259.759 224.207z" fill="#4ca2bb"/><path d="m666.567 527.408c-8.967 22.449-29.762 17.573-36.2 6.156-43.112-76.451-60.809-26.554-85.609-16.586-50.2 18.051-93.77-22.343-103.257 7.18-2.849 8.863 14.284 17.678 24.8 27.137a115.407 115.407 0 0 1 -29.426 12.69c-39.86 10.881-80.953-1.574-119.667-20.014 8.663-29.043 25.186-53.185 46.428-72.769 48.725-44.966 122.254-65.97 182.511-67.338a206.661 206.661 0 0 1 41.353 13.324c34.745 15.618 65.191 44.168 75.641 80.8 3.146 11.048 11.926 21.692 3.426 29.42z" fill="#3d768a"/><path d="m517.572 483.4c17.736 4.745 37.494-9.2 50.861-25.474 10.711-13.04 30.509 11.216 51.739 20.324 6.288 2.7 2.992-19.136-2.053-36.6-25.506-78.725-100.547 41.75-100.547 41.75z" fill="#3d768a"/><path d="m683.586 542.551c6.492 11.219 15.362 29.611 10.536 38.48-5.643 10.372-18.391 6-32.485 16.3l65.4 8.982a303.39 303.39 0 0 0 39.415 2.817c35.757.222 61.891.022 72.355-.336a4.242 4.242 0 0 0 2.748-.915c10.306-9.093-42.42-82.714-42.42-82.714l-42.174-91.358-47.9-5.811z" fill="#3d768a"/><path d="m352.7 156.736c-45.328-10.769-72.346-64.236-72.346-64.236-8.859-4.43-11.886-38.661 14.427-62.81 3.443-3.16 8.976-7.039 13.553-5.666-18.306-12.487-12.99-30.9 10.252-21.4 24.115 9.866 43.322 16.868 63.931 29.583s31.568 42.093 30.692 76.293c-18.416 20.613-60.509 48.236-60.509 48.236z" fill="#f8b5a4"/><path d="m337.752 40.089c4.251 2.939 3.8 7.6 1.137 13.169s-16.232 37.449-8.789 43.629 18.22-3.237 37.074 18.633c-10.13-13.652-13.4-37.715-12.621-50.482.893-14.738-1.545-18.523-16.801-24.949z" fill="#dda094"/><path d="m280.6 82.7a.875.875 0 0 1 -.134-.011.75.75 0 0 1 -.605-.871c2.882-16.072 12.766-37.953 27.656-48.015 5.51-3.723 10.609-4.553 13.646-2.223 3.124 2.4 3.55 7.724 1.168 14.608a.75.75 0 1 1 -1.418-.491c2.158-6.234 1.916-10.946-.664-12.927-2.5-1.92-6.945-1.067-11.892 2.276-14.53 9.818-24.192 31.265-27.02 47.037a.749.749 0 0 1 -.737.617z" fill="#403838"/><path d="m359.946 103.018a.75.75 0 0 1 -.687-.451c-7.287-16.742-6.559-31.567-5.109-42.61 1.1-8.42-3.212-13.988-13.991-18.055-8.564-3.232-25.481-12.019-32.284-17.284a.75.75 0 0 1 .918-1.187c6.708 5.193 23.424 13.87 31.9 17.068 11.391 4.3 16.141 10.543 14.949 19.653-1.425 10.852-2.144 25.413 5 41.816a.75.75 0 0 1 -.389.987.73.73 0 0 1 -.307.063z" fill="#403838"/><path d="m295.967 94.853a.766.766 0 0 1 -.126-.011.749.749 0 0 1 -.614-.864c3.368-19.9 11.972-37.224 23.016-46.341 9.415-7.773 17.074-10.491 21.01-7.449 2.966 2.291 3.087 7.42.317 13.385a.75.75 0 1 1 -1.361-.632c2.422-5.215 2.472-9.755.127-11.566-3.284-2.538-10.439.237-19.138 7.419-10.774 8.9-19.182 25.879-22.493 45.434a.749.749 0 0 1 -.738.625z" fill="#403838"/><path d="m365.772 200.64-17.151-31.561a12.687 12.687 0 0 1 2.605-16.458l56.306-43.982a12.686 12.686 0 0 1 16.132-.133l27.03 19.949z" fill="#ffe3c3"/><path d="m571.05 217.246s-74.783 48.385-122.445 74.427c-4.465 2.45-8.687 4.689-12.6 6.683-20.985-12.709-45.568-44.164-59.981-71.308-.033-.067-.077-.134-.111-.2a154.768 154.768 0 0 1 -8.075-17.621 35.544 35.544 0 0 1 3.709-32.323c12.564-18.646 37.1-38.261 59.8-47.249a36.045 36.045 0 0 1 25.986-.145c41.128 15.504 97.477 60.39 113.717 87.736z" fill="#ffe3c3"/><path d="m1081.723 203.357c-4.678 49.677-23.657 114.9-45.411 172.021-19.6 51.449-41.457 96.314-57.151 117.332a1.558 1.558 0 0 1 -.1.145q-.852 1.135-1.671 2.172c-.067.067-.134.156-.2.234a195.512 195.512 0 0 1 -22.19-1.526 162.334 162.334 0 0 1 -36.4-8.777h-.012c-1.314-.49-2.517-.969-3.609-1.415-.4-.178-.79-.334-1.158-.5a66.647 66.647 0 0 1 -6.494-3.108l-290.966-245.01c40.922-41.5 156.094-162.525 275.353-162.525 114.303 0 177.001 109.325 190.009 130.957z" fill="#ffe3c3"/><path d="m448.605 291.673c-4.465 2.45-8.687 4.689-12.6 6.683-20.985-12.709-45.568-44.164-59.981-71.308 17.048 29.283 48.812 54.244 72.581 64.625z" fill="#eacaac"/><path d="m714.1 230.467c-6.759 10.476-16.224 23.186-19.929 51.517-16.78-6.1-49.033-42.06-41.623-41.624s35.524 12.64 61.552-9.893z" fill="#eacaac"/><path d="m731.7 210.332a38.694 38.694 0 0 1 13.686-20.1c4.358-3.051 1.8-6.429.926-9.044s3.23-6.921 8.025-7.357c.218 4.794 2.631 17.977 2.631 17.977-7.227 3.005-19.996 12.25-25.268 18.524z" fill="#eacaac"/><path d="m696.245 270.78a.708.708 0 0 1 -.192-.025.748.748 0 0 1 -.532-.917c9.09-34.264 30.6-62.092 60.6-78.421a170.288 170.288 0 0 1 -2.535-17.513.75.75 0 1 1 1.494-.137 168.517 168.517 0 0 0 2.62 17.9.75.75 0 0 1 -.38.809c-40.32 21.712-55.12 58.03-60.35 77.747a.75.75 0 0 1 -.725.557z" fill="#403838"/><path d="m522.813 450.79c-16.135 6.477-89.665 39-108.441 48.177a261.349 261.349 0 0 1 -68.65-42.7c-13.594-11.8-20.111-21.675-28.35-32.228 15.041-13.591 102.358-62.772 121-73.075 15.224 13.544 23.582 22.216 40.009 41.047a523.536 523.536 0 0 1 44.432 58.779z" fill="#fcf0e3"/><path d="m964.4 505.405c0 29.272-16 56.371-41.067 75.485a.091.091 0 0 1 -.045.022c-22.533 17.176-52.383 27.88-84.473 27.88-79.506 0-168.079-54.078-261.029-185.622-15.783 24.56-28.517 55.687-49.409 42.8-47-29-82.414-129.632-105.616-135.179-12.653-3.03-16.384-23.821-4.384-32.821 36.189-33.771 88.023-54.937 131.2-82.917 23.68-15.349 53.052-19.726 78.492.88 85.331 69.146 256.657 209.067 283.066 233.616 33.312 30.984 53.265 45.664 53.265 55.856z" fill="#4ca2bb"/><path d="m964.4 505.405c0 29.272-16 56.371-41.067 75.485a.091.091 0 0 1 -.045.022c-1.18.656-2.25 1.281-3.2 1.883 15.471-21.365 9.357-31.295 14.455-46.492 4.259-12.7 7.3-26.811 5.99-38.573 0-0 9.628-10.391 23.867 7.675z" fill="#3d768a"/><path d="m986.6 469.364a40.1 40.1 0 0 1 -7.439 23.346c-.031.05-.065.1-.1.145q-.8 1.119-1.671 2.172c-.067.067-.135.156-.2.234a40.248 40.248 0 0 1 -30.92 14.435c-20.372 0-27.8-12.185-31.288-26.153-.59-2.339-1.058-4.734-1.47-7.128v-.045c-2.294-13.555-2.395-27.144-8.008-31.878-17.044-14.357 18.487-15.467 40.767-15.467a40.366 40.366 0 0 1 40.333 40.343z" fill="#ffe3c3"/><path d="m1002.5 593.445c-19.731 1.316-47.793 6.139-57.439 16.224s-17.1 30.254-21.485 50.861c-12.326 17.42-20.608 32.447-23.238 44.724-2.184 10.19 7.665 18.7 19.73 5.7 14.987-16.153 53.493-52.616 63.139-52.616s-13.154 41.216-20.168 63.139c-7.4 23.119 3.946 26.746 14.031 18.854 9.534 13.592 64.016-22.8 80.677-47.793s31.568-49.546 35.077-71.031c-39.024-23.238-90.324-28.062-90.324-28.062z" fill="#f8b5a4"/><path d="m925.406 658.723a.75.75 0 0 1 -.607-1.189c9.186-12.727 26.578-28.122 34.05-32.72a.75.75 0 0 1 .787 1.277c-7.371 4.536-24.539 19.74-33.62 32.321a.75.75 0 0 1 -.61.311z" fill="#403838"/><path d="m978 740.2a.75.75 0 0 1 -.522-1.289c9.722-9.427 39.671-51.238 45.085-64.061a.75.75 0 0 1 1.382.583c-5.459 12.928-35.631 55.061-45.423 64.555a.75.75 0 0 1 -.522.212z" fill="#403838"/><path d="m909.081 709.106a5.465 5.465 0 0 1 -2.208-.462 3.407 3.407 0 0 1 -1.891-2.134c-.907-2.668.443-7.085 2.082-10.059 1.715-3.107 6.26-3.274 9.662-1.64 2.64 1.267 3.824 3.356 3.015 5.32-.883 2.156-4.167 6.847-8.1 8.439a6.829 6.829 0 0 1 -2.56.536zm3.28-13.795a4.335 4.335 0 0 0 -3.984 1.864c-1.494 2.712-2.694 6.737-1.975 8.852a1.936 1.936 0 0 0 1.071 1.242 4.531 4.531 0 0 0 3.608-.089c3.2-1.3 6.334-5.329 7.273-7.619.585-1.419-.793-2.686-2.278-3.4a8.779 8.779 0 0 0 -3.715-.85z" fill="#403838"/><path d="m969.472 737.77a4.3 4.3 0 0 1 -1.611-.306c-3.84-1.535-2.973-8.786-1.683-12.147 1.255-3.264 5.339-3.785 8.725-2.613 2.917 1.009 5.45 3.36 4.532 6.338a16.915 16.915 0 0 1 -7.307 8.058 6.2 6.2 0 0 1 -2.656.67zm2.113-14.143c-1.8 0-3.4.662-4.007 2.229-1.159 3.019-1.72 9.191.84 10.215a3.784 3.784 0 0 0 3.064-.324 15.642 15.642 0 0 0 6.518-7.147c.623-2.02-1.353-3.7-3.588-4.478a8.794 8.794 0 0 0 -2.827-.495z" fill="#403838"/><path d="m990.063 742.4a.748.748 0 0 1 -.484-.177 2.924 2.924 0 0 1 -.723-3.252 8.267 8.267 0 0 1 6.385-5.29c2.26-.231 4.236.972 5.564 3.387a.75.75 0 0 1 -1.315.723c-1.048-1.908-2.421-2.785-4.1-2.617a6.717 6.717 0 0 0 -5.105 4.239 1.528 1.528 0 0 0 .257 1.663.75.75 0 0 1 -.483 1.324z" fill="#403838"/><path d="m998.972 596.264c8.794 9.448 50.1 40.484 92.044 32.484-17.655-18.896-66.951-42.476-92.044-32.484z" fill="#dda094"/><path d="m1036.312 375.378c-19.6 51.448-41.457 96.314-57.151 117.332a1.558 1.558 0 0 1 -.1.145q-.8 1.119-1.671 2.172c-.067.067-.134.156-.2.234a40.245 40.245 0 0 1 -30.92 14.439c-20.249 0-27.711-12.038-31.224-25.9 0 0-.105-.233-.127-.315a41.383 41.383 0 0 1 -1.407-7.066l-.109-.7a35.782 35.782 0 0 0 5.188 9.244h.011c9.167 11.049 24.583 14.146 34.251 9.8.746-.335 1.459-.68 2.15-1.025 22.421-11.45 15.081-31.054 19.96-52.707a57.669 57.669 0 0 1 2-6.928c7.841-21.8 28.1-46.024 17.142-54.634-39.23-30.8-60.148-79.317-57.965-132.258l55.926-.523s37.782 83.683 43.006 101.694c1.575 5.41 1.786 15.301 1.24 26.996z" fill="#eacaac"/><path d="m1003.161 565.238-6.3 20.574a11.308 11.308 0 0 0 7.156 13.942l82.652 28.4a11.307 11.307 0 0 0 14.367-7.018q.168-.489.29-.989l8.824-32.836-55.9-22.069z" fill="#ffe3c3"/><path d="m1081.72 203.359c18.708 31.569 40.923 85.354 49.108 115.754 35.423 39.424 59.681 150.324-17.28 265.573a19.535 19.535 0 0 1 -15.849 8.733c-29.584.566-66.787-9.846-87.913-19.4a19.437 19.437 0 0 1 -10.707-12.451c-10.394-36.968-17.113-100.974 14.821-188.668-30.4-22.215-63.137-55.538-77.754-125.693 39.754-61.382 97.054-70.74 145.574-43.848z" fill="#ffe3c3"/><path d="m322.007 56.065c-2.13 0-4.719-1.091-7.375-4.082a.75.75 0 1 1 1.121-1c2.925 3.293 6.175 4.426 8.484 2.955 1.686-1.074 5.313-6.746 5.261-10.049a2 2 0 0 0 -.869-1.854.75.75 0 1 1 .766-1.29 3.42 3.42 0 0 1 1.6 3.12c.063 4.014-3.956 10.065-5.956 11.338a5.62 5.62 0 0 1 -3.032.862z" fill="#403838"/><path d="m319.362 10.985a5.476 5.476 0 0 1 -1.748-.294c-3.893-1.3-7.341-4.016-8.581-6.748a4.248 4.248 0 0 1 -.22-3.427.75.75 0 1 1 1.384.578 2.875 2.875 0 0 0 .2 2.23c1.077 2.375 4.168 4.764 7.691 5.946a3.512 3.512 0 0 0 3.077-.3 4.568 4.568 0 0 0 1.976-3.362.75.75 0 1 1 1.488.19 6.054 6.054 0 0 1 -2.667 4.443 4.86 4.86 0 0 1 -2.6.744z" fill="#403838"/><path d="m577.782 423.17c3.542-5.678 17.057-28.215 21.59-37.2 7.083 10.57.125 54.706-4 63-4.572-6.497-14.984-18.299-17.59-25.8z" fill="#3d768a"/><path d="m635.52 496.539a.747.747 0 0 1 -.52-.21c-15.39-14.8-51.4-62.272-57.857-72.769a.748.748 0 0 1 -.006-.777c2.1-3.528 5.743-9.866 9.6-16.577 4.7-8.164 9.553-16.606 11.991-20.628a.75.75 0 0 1 1.283.777c-2.429 4.008-7.28 12.442-11.973 20.6-3.724 6.473-7.25 12.6-9.382 16.2 7.033 11.178 42.237 57.524 57.38 72.091a.75.75 0 0 1 -.519 1.291z" fill="#403838"/><path d="m1130.827 319.113c-11.194-14.61-17-14.719-25.432-20.24s10.969-7.155 6.176-33.963a490.383 490.383 0 0 1 19.256 54.203z" fill="#eacaac"/><path d="m306.2 43.742c-.117 0-.236 0-.355-.009a7.37 7.37 0 0 1 -5.526-2.957.75.75 0 1 1 1.22-.872 5.915 5.915 0 0 0 4.383 2.33 3.878 3.878 0 0 0 3.2-1.189c2.073-2.35 4.6-7.66 3.444-8.749a.749.749 0 1 1 1.025-1.093c2.513 2.357-1.971 9.278-3.344 10.834a5.257 5.257 0 0 1 -4.047 1.705z" fill="#403838"/><path d="m293.269 33.915a2.971 2.971 0 0 1 -1.943-.591.75.75 0 1 1 .965-1.149c.49.412 2.077.332 3.781-.513.984-.488 4.177-2.371 4-6.141a.749.749 0 0 1 .712-.786.763.763 0 0 1 .786.713 8.007 8.007 0 0 1 -4.826 7.558 8.246 8.246 0 0 1 -3.475.909z" fill="#403838"/><path d="m1130.828 319.862a.75.75 0 0 1 -.592-.288c-7.362-9.434-17.208-17.281-25.084-19.992a.75.75 0 0 1 .489-1.418c8.131 2.8 18.249 10.84 25.777 20.487a.749.749 0 0 1 -.59 1.211z" fill="#403838"/><path d="m1013.9 373.648a.75.75 0 0 1 -.426-.134c-60.808-42.214-72.459-99.072-76.845-120.477-.456-2.223-.85-4.144-1.212-5.658a.75.75 0 1 1 1.459-.349c.368 1.537.764 3.469 1.223 5.706 4.762 23.243 15.917 77.675 76.23 119.545a.75.75 0 0 1 -.429 1.367z" fill="#403838"/><path d="m905.5 445.242a.743.743 0 0 1 -.483-.177l-95.93-80.995a.75.75 0 1 1 .967-1.147l95.932 81a.75.75 0 0 1 -.483 1.323z" fill="#403838"/><path d="m838.811 609.542c-33.52 0-67.911-9.475-102.22-28.16-31.992-17.423-51.422-36.213-53.532-38.3a.75.75 0 0 1 1.054-1.067c2.095 2.07 21.384 20.723 53.2 38.048 34.085 18.564 68.235 27.977 101.5 27.977a.75.75 0 0 1 0 1.5z" fill="#403838"/><path d="m40.774 331.9c-2.438-3.943-6.783-11.218-16.339-7.958-37 14-23.472 90.324-14.063 117.024 22.9 64.99 46.2 129.633 68 195 6.861 20.572 23.023 18.31 36.874 11.066l.126-.066s.874-.46 2.145-1.252c0 0 3.04-2.567 3.147-8.641.173-9.744-30.212-103-47.281-177.608-8.218-67.695-14.498-98.285-32.609-127.565z" fill="#eacaac"/><path d="m122.1 388.792a42.646 42.646 0 0 0 -12.358 13.733c-5.653 9.529-5.989 21.652-1.126 30.646l3.013 5.573c14.506 26.829 34.381 48.811 58.1 64.262l173.215 112.827c11.145 7.259 26.093 1.368 32.66-12.87q20.435-44.3 40.868-88.607c6.5-14.092 4.767-31.135-4.381-43.1l-26.559-34.742c18.411-17.285 24.745-42.238 17.765-57.776-6.417-14.281-21.882-15.707-23.67-15.839-16.7-1.236-34.721 12.818-44.673 35.67-66.393 25.544-109.727 18.731-137.614 6.768-5.62-2.411-11.419-5.376-17.287-8.338-19.894-10.04-40.601-20.029-57.953-8.207z" fill="#e5d2d8"/><path d="m116.148 393.7c-10.687 9.265-14.444 25.985-8.507 38.509l.126.266a110.142 110.142 0 0 0 10.6 17.767 52.863 52.863 0 0 1 13.474-8.831c41.214-18.342 80.8 37.208 126.025 64.872 29.273 17.9 77.044 34 154.68 16.594-5.782.36-41.363-5.7-49.028-21.789-12.309-25.836 23.163-46.739 33.564-49.473-3.815-4.841-7.124-9.856-10.939-14.7l-52.47 15.6-19.473-46.762-11.81 3.337c2.03 5.231 6.273 18.3 2.156 33.149-6.673 24.066-30.892 36.856-48.11 37.468-20.177.716-31.855-15.252-48.35-31.332-24.755-24.13-31.712-27.073-45.459-35.917a206.612 206.612 0 0 0 -43.642-21.269z" fill="#4097ff"/><path d="m186.628 400.3 1.454 3.021c8.853 18.392 23.177 31.966 40.513 38.491a202.831 202.831 0 0 0 105.074 10.7 220.979 220.979 0 0 0 51.965-15.423c18.645-11.131 27.494-35.754 21.608-54.178-6.206-19.427-26.394-24.451-41.616-19.6-21.885 6.967-30.361 33.332-30.773 34.677a220.06 220.06 0 0 1 -48.123 12.872 202.294 202.294 0 0 1 -100.102-10.56z" fill="#ae75bc"/><path d="m227.956 410.891c16.093 11.907 37.427 37.749 50.235 62.658 6.389-1.96 21.366-10.692 27.93-22.469 6.088-13.527-.173-35.726-2.972-43.3-3.723-.878-10.766-.748-14.916 1.529-6.415-.712-24.155.984-31.783 3.318-7.502-1.944-20.369-2.321-28.494-1.736z" fill="#ffe3c3"/><path d="m172.221 504.625a129.92 129.92 0 0 1 35.151 4.342c61.462 16.435 82.991 72.441 115 65 16.483-3.831 19.822-20.785 39-21 13.317-.148 24.163 7.887 30.811 14.052l-17.257 38.473c-5.846 13.034-19.461 18.5-29.6 11.895z" fill="#ae75bc"/><g fill="#403838"><ellipse cx="322.423" cy="427.089" rx="6.381" ry="5.665" transform="matrix(.07285525 -.99734253 .99734253 .07285525 -127.019 717.543)"/><ellipse cx="296.847" cy="432.793" rx="6.381" ry="5.665" transform="matrix(.07283784 -.9973438 .9973438 .07283784 -156.418 697.328)"/><ellipse cx="267.673" cy="435.552" rx="6.381" ry="5.665" transform="matrix(.07283784 -.9973438 .9973438 .07283784 -186.219 670.789)"/><path d="m268.6 435.068a1 1 0 0 1 -1-.964 23.54 23.54 0 0 0 -12.534-20.595 1 1 0 1 1 .976-1.745c10.762 6.018 13.312 15.432 13.556 22.269a1 1 0 0 1 -.963 1.035z"/><path d="m297.162 432.67h-.049a1 1 0 0 1 -.951-1.047c.517-10.743-2.095-17.367-8.471-21.479a1 1 0 1 1 1.084-1.681c9.03 5.825 9.758 15.488 9.385 23.255a1 1 0 0 1 -.998.952z"/><path d="m322.273 426.458c-.033 0-.066 0-.1-.005a1 1 0 0 1 -.9-1.094c.77-7.795-3.16-16.591-8.581-19.209a1 1 0 0 1 .87-1.8c5.415 2.614 10.664 11.466 9.7 21.207a1 1 0 0 1 -.989.901z"/><path d="m354.981 425.357a1 1 0 0 1 -.977-.788c-.992-4.565-4.946-19.818-14.168-24.46-3.611-1.816-7.674-1.729-12.079.261a1 1 0 0 1 -.822-1.823c4.981-2.25 9.624-2.325 13.8-.224 10.012 5.039 14.184 21.038 15.224 25.821a1 1 0 0 1 -.765 1.19 1.043 1.043 0 0 1 -.213.023z"/></g><path d="m339.154 433.1 1.432 11.9c.7 5.846 5.547 9.95 10.764 9.119l13.535-2.156c5.217-.831 8.909-6.293 8.206-12.139l-1.432-11.91c-1.023-8.508-8.072-14.479-15.663-13.27l-4.9.78c-7.59 1.213-12.965 9.163-11.942 17.676z" fill="#4097ff"/><ellipse cx="357.092" cy="435.852" fill="#c7d94f" rx="8.832" ry="7.871" transform="matrix(.03107931 -.99951692 .99951692 .03107931 -89.647 779.225)"/><ellipse cx="357.092" cy="435.852" fill="#ae75bc" rx="5.196" ry="4.63" transform="matrix(.03107931 -.99951692 .99951692 .03107931 -89.647 779.225)"/><path d="m356.3 455.771a1 1 0 0 1 -.955-1.3 33.941 33.941 0 0 0 .9-18.687 1 1 0 0 1 1.944-.472 35.84 35.84 0 0 1 -.93 19.75 1 1 0 0 1 -.959.709z" fill="#403838"/><ellipse cx="356.022" cy="454.52" fill="#403838" rx="6.381" ry="5.665" transform="matrix(.07283784 -.9973438 .9973438 .07283784 -123.223 776.49)"/><path d="m439.372 321.967-27.7 20.213a12.229 12.229 0 0 0 -3.088 16.48 263.118 263.118 0 0 1 69.4 108.221 16.274 16.274 0 0 0 9.821 6.929 15.917 15.917 0 0 0 11.87-1.892l24.7-14.951z" fill="#4ca2bb"/><path d="m466.371 551.716a.746.746 0 0 1 -.408-.121 134.054 134.054 0 0 1 -22.526-18.471.75.75 0 0 1 1.072-1.05 132.554 132.554 0 0 0 22.272 18.264.75.75 0 0 1 -.41 1.378z" fill="#403838"/></svg></g><!--ITEM: Illustration component 5--><g transform="translate(1056.25 226.5625) rotate(0.0 110.9375 103.125)  scale(1.554192730405789 1.5593930275284849)"><svg width="142.759" height="132.263" viewBox="0.0 0.0 142.759 132.263"><path d="m142.713 49.977c1.412-36.977-29.926-38.362-53.58-17.877a2.681 2.681 0 0 1 -1.782.662h-.057a2.691 2.691 0 0 1 -2.243-4.142c9.926-15.236 31.058-21.134 51.028-13.346-24.246-21.156-58.386-3.774-69.43 21.247a3.642 3.642 0 0 1 -1.649 1.779l-.06.032a3.491 3.491 0 0 1 -5.05-3.632c2.04-13.5 19.778-27.727 44.842-34.7-39.827 2.509-63.881 31.057-59.418 51.324a4.77 4.77 0 0 1 -.842 3.977l-.042.053a4.677 4.677 0 0 1 -7.258.193c-7.321-8.647 1.62-26.954 23.473-45.563-40.476 24.673-46.275 54.416-27.677 63.157a3.629 3.629 0 0 1 2.069 3.644l-.005.054a3.662 3.662 0 0 1 -3.072 3.244c-17.5 2.807-22.584-13.245-11.3-38.668-26.415 38.224-10.592 58.107 16.373 50.742a2.7 2.7 0 0 1 2.7.8l.03.034a2.612 2.612 0 0 1 -.432 3.883c-16.741 12.016-33.497 6.17-39.285-14.588-1.412 36.977 29.926 38.362 53.581 17.874a2.678 2.678 0 0 1 1.781-.662h.057a2.692 2.692 0 0 1 2.244 4.142c-9.926 15.237-31.058 21.134-51.029 13.346 24.247 21.158 58.387 3.781 69.43-21.244a3.645 3.645 0 0 1 1.649-1.779l.061-.031a3.49 3.49 0 0 1 5.049 3.634c-2.04 13.5-19.777 27.723-44.841 34.7 39.834-2.51 63.89-31.069 59.415-51.336a4.754 4.754 0 0 1 .845-3.964l.041-.054a4.7 4.7 0 0 1 7.309-.133c7.229 8.67-1.721 26.937-23.524 45.5 40.476-24.673 46.276-54.414 27.678-63.157a3.631 3.631 0 0 1 -2.07-3.644l.005-.053a3.664 3.664 0 0 1 3.073-3.245c17.5-2.807 22.584 13.245 11.3 38.668 26.414-38.224 10.59-58.107-16.375-50.742a2.7 2.7 0 0 1 -2.7-.8l-.025-.037a2.613 2.613 0 0 1 .432-3.883c16.738-12.013 33.493-6.167 39.281 14.591z" fill="#403838"/><ellipse cx="71.38" cy="66.132" fill="#2b2929" rx="33.149" ry="21.502" transform="matrix(.779 -.627 .627 .779 -25.693 59.4)"/></svg></g><!--ITEM: Illustration component 6--><g transform="translate(257.8125 696.875) rotate(0.0 112.5 112.5)  scale(1.5697820444841348 1.5697820444841348)"><svg width="143.332" height="143.332" viewBox="0.0 0.0 143.332 143.332"><path d="m120.286 71.666a48.616 48.616 0 0 1 -48.62 48.62c-1.082 0-2.155-.04-3.217-.111a48.066 48.066 0 0 1 -19.329-5.431 48.64 48.64 0 1 1 71.166-43.078z" fill="#ff5e43"/><path d="m118.091 57.187c-7.295 17.185-31.565 47.356-49.642 62.988a48.066 48.066 0 0 1 -19.329-5.431l63.069-61.115z" fill="#e54630"/><path d="m141.078 2.254c-7.024-7.014-28.978 2.806-54.932 22.987a46.535 46.535 0 0 1 5.761 2.215c16.113-12.426 28.469-18.698 31.905-15.256 3.287 3.286-2.294 14.71-13.647 29.781a354.224 354.224 0 0 1 -31.965 36.219 354.1 354.1 0 0 1 -36.225 31.965c-15.075 11.353-26.494 16.935-29.775 13.648-3.438-3.437 2.835-15.792 15.261-31.9a46.451 46.451 0 0 1 -2.215-5.762c-20.186 25.949-30.006 47.903-22.992 54.927s28.98-2.806 54.932-22.987a348.423 348.423 0 0 0 32.256-28.648 348.7 348.7 0 0 0 28.649-32.256c20.181-25.953 30.001-47.908 22.987-54.933z" fill="#ffe3c3"/></svg></g><!--ITEM: Illustration component 7--><g transform="translate(228.125 176.5625) rotate(0.0 148.4375 90.625)  scale(1.5615466346861915 1.555246651393072)"><svg width="190.116" height="116.541" viewBox="0.0 0.0 190.116 116.541"><path d="m116.541 19.423v-19.423h-19.423v19.423h-19.424v19.424h-19.423v-19.424h-19.424v-19.423h-19.423v19.423h-19.424v19.424 19.423h19.424v19.424h19.423v19.423h19.424v19.424h19.423v-19.424h19.424v-19.423h19.423v-19.424h19.424v-19.423-19.424z" fill="#f75c84"/><g fill="#fff"><path d="m186.881 62.1c-.306-.009-.611-.005-.908-.005-5.373 0-10.746.02-16.12.02-2.972 0-3.759.852-4.3 2.775-.953 3.37-1.568 5.522-2.12 7.58-.7 2.61-.466 3.636 3.628 3.636h5.794c-2.774 9.994-6.614 24-8.724 31.688-1.74 6.34-.616 6.967 3.478 6.967h5.767c3.285 0 4-1.652 4.626-3.794 1.583-5.42 3.015-10.884 4.458-16.342 1.279-4.837 2.539-9.673 3.811-14.51q1.4-5.308 2.8-10.615.454-1.727.908-3.453a3.043 3.043 0 0 0 -.987-3.427 4.072 4.072 0 0 0 -2.111-.52z"/><path d="m156.3 86.5-3.48-4.75a2.339 2.339 0 0 0 -3.336-.455l-10.1 7.962-5.5-7.507a2.339 2.339 0 0 0 -3.336-.455l-7.14 5.63a2.34 2.34 0 0 0 -.439 3.219l5.6 7.643-10.228 8.066a2.338 2.338 0 0 0 -.439 3.218l3.478 4.752a2.339 2.339 0 0 0 3.336.455l10.1-7.962 5.5 7.507a2.339 2.339 0 0 0 3.336.455l7.139-5.63a2.34 2.34 0 0 0 .439-3.219l-5.595-7.643 10.225-8.066a2.338 2.338 0 0 0 .44-3.22z"/></g></svg></g><!--ITEM: Illustration component 8--><g transform="translate(540.625 968.75) rotate(0.0 115.625 148.4375)  scale(1.5573649049081408 1.5568951773614985)"><svg width="148.488" height="190.684" viewBox="0.0 0.0 148.488 190.684"><path d="m141.571 190.684a6.88 6.88 0 0 0 5.882-10.473 86.182 86.182 0 0 0 -146.418 0 6.88 6.88 0 0 0 5.881 10.473z" fill="#5dace2"/><ellipse cx="106.433" cy="176.964" fill="#3591ba" rx="8.331" ry="6.92"/><circle cx="74.244" cy="148.991" fill="#3591ba" r="8.331"/><path d="m98.489 164.958h15.939a0 0 0 0 1 0 0v9.789a7.323 7.323 0 0 1 -7.323 7.323h-1.293a7.323 7.323 0 0 1 -7.323-7.323v-9.789a0 0 0 0 1 0 0z" fill="#ff5e43"/><rect fill="#ffe3c3" height="102.498" rx="6.613" width="14.394" x="67.047" y="50.512"/><circle cx="74.693" cy="31.879" fill="#ff5e43" r="31.879"/><g fill="#ff8d6e"><ellipse cx="106.459" cy="164.846" rx="7.97" ry="4.153"/><path d="m48.721 39.462c-2.334-7.876-1.4-25.137 14.479-33.074 9.368-4.685 9.278 3.019 4.968 5.394-6.956 3.833-15.047 12.492-11.924 25.693 1.488 6.291-5.252 9.653-7.523 1.987z"/></g></svg></g><!--ITEM: Illustration component 9--><g transform="translate(193.75 1265.625) rotate(0.0 386.71875 84.375)  scale(1.618537360158372 1.6201659049886707)"><svg width="477.862" height="104.156" viewBox="0.0 0.0 477.862 104.156"><path d="m457.352 26.687-18.724 45.679h-416.56l18.724-45.679z" fill="#2b2929"/><path d="m22.54 58.488h425.26a6.075 6.075 0 0 1 5.621 8.38l-12.712 31a10.124 10.124 0 0 1 -9.368 6.284h-425.26a6.075 6.075 0 0 1 -5.621-8.375l12.712-31a10.126 10.126 0 0 1 9.368-6.289z" fill="#ffe3c3"/><path d="m477.4 8.379-12.711 31.015a10.125 10.125 0 0 1 -9.368 6.284h-425.265a6.075 6.075 0 0 1 -5.621-8.378l12.714-31.015a10.124 10.124 0 0 1 9.368-6.285h425.264a6.075 6.075 0 0 1 5.619 8.379z" fill="#ffe3c3"/><path d="m444.728 25.484h-13.814a3.432 3.432 0 0 1 -3.146-4.805l2.017-4.623a3.432 3.432 0 0 1 3.146-2.056h13.815a3.432 3.432 0 0 1 3.145 4.8l-2.017 4.624a3.433 3.433 0 0 1 -3.146 2.06z" fill="#ff5e43"/><path d="m416.814 25.484h-9.014a3.432 3.432 0 0 1 -3.146-4.805l2.017-4.623a3.432 3.432 0 0 1 3.15-2.056h9.011a3.431 3.431 0 0 1 3.145 4.8l-2.017 4.624a3.433 3.433 0 0 1 -3.146 2.06z" fill="#2b2929"/></svg></g><!--ITEM: Illustration component 10--><g transform="translate(637.5 128.125) rotate(0.0 295.3125 403.90625)  scale(1.5613021755795817 1.5615697031555669)"><svg width="378.29" height="517.308" viewBox="0.0 0.0 378.29 517.308"><path d="m204.7 489.459a15.559 15.559 0 1 0 -31.118 0c0 8.593 10.678 18.7 15.559 27.849 5.19-9.152 15.559-19.256 15.559-27.849z" fill="#ff5e43"/><path d="m199.2 483.951a10.051 10.051 0 1 0 -20.1 0c0 5.55 6.9 12.077 10.05 17.989 3.35-5.912 10.05-12.44 10.05-17.989z" fill="#ffdc83"/><path d="m113.881 446.648a8.329 8.329 0 0 0 -16.657 0c0 4.6 5.715 10.008 8.328 14.907 2.776-4.899 8.329-10.307 8.329-14.907z" fill="#ff5e43"/><path d="m110.932 443.7a5.38 5.38 0 1 0 -10.76 0c0 2.971 3.692 6.464 5.38 9.629 1.794-3.165 5.38-6.658 5.38-9.629z" fill="#ffdc83"/><path d="m281.065 446.648a8.329 8.329 0 0 0 -16.657 0c0 4.6 5.716 10.008 8.328 14.907 2.777-4.899 8.329-10.307 8.329-14.907z" fill="#ff5e43"/><path d="m278.116 443.7a5.38 5.38 0 1 0 -10.759 0c0 2.971 3.692 6.464 5.379 9.629 1.794-3.165 5.38-6.658 5.38-9.629z" fill="#ffdc83"/><path d="m146.481 303.393h1.219a0 0 0 0 1 0 0v42.738a0 0 0 0 1 0 0h-8.4a0 0 0 0 1 0 0v-35.554a7.184 7.184 0 0 1 7.181-7.184z" fill="#ff5e43"/><path d="m230.59 303.393h8.4a0 0 0 0 1 0 0v42.738a0 0 0 0 1 0 0h-1.218a7.184 7.184 0 0 1 -7.184-7.184v-35.554a0 0 0 0 1 .002 0z" fill="#ff5e43" transform="matrix(-1 0 -0 -1 469.582 649.524)"/><path d="m150.822 276.728h1.059a3.123 3.123 0 0 1 3.119 3.123v66.28a0 0 0 0 1 0 0h-7.3a0 0 0 0 1 0 0v-66.28a3.123 3.123 0 0 1 3.122-3.123z" fill="#ffe3c3"/><path d="m223.285 276.728h7.306a0 0 0 0 1 0 0v66.28a3.123 3.123 0 0 1 -3.123 3.123h-1.059a3.123 3.123 0 0 1 -3.123-3.123v-66.28a0 0 0 0 1 -.001-0z" fill="#ffe3c3" transform="matrix(-1 -0 0 -1 453.875 622.859)"/><path d="m265.987 424.678h13.5a0 0 0 0 1 0 0v13.1a2 2 0 0 1 -2 2h-9.5a2 2 0 0 1 -2-2v-13.1a0 0 0 0 1 0 0z" fill="#eacaac"/><path d="m98.8 424.678h13.5a0 0 0 0 1 0 0v13.1a2 2 0 0 1 -2 2h-9.5a2 2 0 0 1 -2-2v-13.1a0 0 0 0 1 0 0z" fill="#eacaac"/><path d="m217.822 412.7h-57.355v48.177a4.677 4.677 0 0 0 4.678 4.678h11.567v5.39a4.678 4.678 0 0 0 4.678 4.678h15.51a4.677 4.677 0 0 0 4.678-4.678v-5.39h11.568a4.677 4.677 0 0 0 4.678-4.678z" fill="#ffe3c3"/><path d="m135.827 372.8v-27.034c4.931-4.749 17.533-5.123 22.647 0v40.181z" fill="#eacaac"/><path d="m160.467 432.839v-20.135h57.355v20.288l-9.152 1.983-10.221-10.678-18.152-1.22-10.525 13.118z" fill="#eacaac"/><path d="m242.462 372.8v-27.034c-4.931-4.749-17.534-5.123-22.648 0v40.181z" fill="#eacaac"/><path d="m378.29 423.048v7.152a2.339 2.339 0 0 1 -2.339 2.339h-163.773l-11.59-13.426-22.98-1.2-9.824 14.63h-165.445a2.339 2.339 0 0 1 -2.339-2.343v-7.149a2.338 2.338 0 0 1 1.354-2.122l98.554-45.729 24.477-11.355 9.893-4.591a5.844 5.844 0 0 1 2.461-.543h104.813a5.845 5.845 0 0 1 2.459.542l9.882 4.58 24.489 11.367 98.554 45.73a2.338 2.338 0 0 1 1.354 2.118z" fill="#ffe3c3"/><path d="m145.213 432.534v-26.847l-12.203 26.847z" fill="#ff5e43"/><path d="m78.095 432.534v-26.847l-12.203 26.847z" fill="#ff5e43"/><path d="m233.076 432.534v-26.847l12.203 26.847z" fill="#ff5e43"/><path d="m300.194 432.534v-26.847l12.203 26.847z" fill="#ff5e43"/><path d="m194.184 244.733a5.459 5.459 0 0 0 -10.079 0c-10.485 24.969-16.927 52.757-16.927 68.745v68.87a21.966 21.966 0 0 0 21.966 21.966 21.965 21.965 0 0 0 21.966-21.966v-68.87c0-15.988-6.441-43.778-16.926-68.745z" fill="#eacaac"/><path d="m187.816 337.592a14.049 14.049 0 0 1 -12.451-14.121v-9.993c0-11.034 3.278-27.546 8.531-44.291a5.5 5.5 0 0 1 10.5 0c5.253 16.745 8.531 33.257 8.531 44.291v10.4a13.8 13.8 0 0 1 -15.111 13.714z" fill="#403838"/><path d="m226.937 262.887a3.509 3.509 0 0 1 -3.508-3.508v-12.179a3.509 3.509 0 1 1 7.017 0v12.184a3.509 3.509 0 0 1 -3.509 3.503zm0-30.46a3.509 3.509 0 0 1 -3.508-3.509v-12.185a3.509 3.509 0 0 1 7.017 0v12.185a3.509 3.509 0 0 1 -3.509 3.509zm0-30.462a3.509 3.509 0 0 1 -3.508-3.508v-12.184a3.509 3.509 0 1 1 7.017 0v12.184a3.509 3.509 0 0 1 -3.509 3.508zm0-30.46a3.509 3.509 0 0 1 -3.508-3.505v-12.188a3.509 3.509 0 0 1 7.017 0v12.188a3.509 3.509 0 0 1 -3.509 3.505zm0-30.461a3.509 3.509 0 0 1 -3.508-3.508v-12.184a3.509 3.509 0 1 1 7.017 0v12.184a3.509 3.509 0 0 1 -3.509 3.508zm0-30.461a3.508 3.508 0 0 1 -3.508-3.508v-12.185a3.509 3.509 0 0 1 7.017 0v12.185a3.508 3.508 0 0 1 -3.509 3.508zm0-30.461a3.509 3.509 0 0 1 -3.508-3.508v-12.184a3.509 3.509 0 1 1 7.017 0v12.184a3.509 3.509 0 0 1 -3.509 3.508zm0-30.46a3.509 3.509 0 0 1 -3.508-3.509v-12.184a3.509 3.509 0 0 1 7.017 0v12.184a3.509 3.509 0 0 1 -3.509 3.509zm0-30.461a3.509 3.509 0 0 1 -3.508-3.508v-12.185a3.509 3.509 0 0 1 7.017 0v12.185a3.509 3.509 0 0 1 -3.509 3.507z" fill="#ff5e43"/><path d="m151.351 262.887a3.509 3.509 0 0 1 -3.508-3.508v-12.179a3.509 3.509 0 1 1 7.017 0v12.184a3.509 3.509 0 0 1 -3.509 3.503zm0-30.46a3.509 3.509 0 0 1 -3.508-3.509v-12.185a3.509 3.509 0 0 1 7.017 0v12.185a3.509 3.509 0 0 1 -3.509 3.509zm0-30.462a3.509 3.509 0 0 1 -3.508-3.508v-12.184a3.509 3.509 0 1 1 7.017 0v12.184a3.509 3.509 0 0 1 -3.509 3.508zm0-30.46a3.509 3.509 0 0 1 -3.508-3.505v-12.188a3.509 3.509 0 0 1 7.017 0v12.188a3.509 3.509 0 0 1 -3.509 3.505zm0-30.461a3.509 3.509 0 0 1 -3.508-3.508v-12.184a3.509 3.509 0 1 1 7.017 0v12.184a3.509 3.509 0 0 1 -3.509 3.508zm0-30.461a3.508 3.508 0 0 1 -3.508-3.508v-12.185a3.509 3.509 0 0 1 7.017 0v12.185a3.508 3.508 0 0 1 -3.509 3.508zm0-30.461a3.509 3.509 0 0 1 -3.508-3.508v-12.184a3.509 3.509 0 1 1 7.017 0v12.184a3.509 3.509 0 0 1 -3.509 3.508zm0-30.46a3.509 3.509 0 0 1 -3.508-3.509v-12.184a3.509 3.509 0 0 1 7.017 0v12.184a3.509 3.509 0 0 1 -3.509 3.509zm0-30.461a3.509 3.509 0 0 1 -3.508-3.508v-12.185a3.509 3.509 0 0 1 7.017 0v12.185a3.509 3.509 0 0 1 -3.509 3.507z" fill="#ff5e43"/><g fill="#eacaac"><path d="m176.712 465.559v-41.567l-5.11 6.712z"/><path d="m201.576 465.559v-42.635l4.958 6.559z"/><path d="m124.385 363.841v44.054h-24.477v-32.699z"/><path d="m132.857 373.577h12.356v12.356h-12.356z"/><path d="m278.382 375.196v32.699h-24.489v-44.066z"/><path d="m233.076 373.577h12.356v12.356h-12.356z" transform="matrix(-1 0 -0 -1 478.508 759.511)"/><path d="m10.137 424.297h36.838v8.237h-36.838z"/><path d="m331.387 424.297h36.838v8.237h-36.838z"/></g><path d="m217.822 433.286h-5.644a.752.752 0 0 1 -.568-.26l-11.38-13.183-22.236-1.166-9.587 14.277a.751.751 0 0 1 -.623.332h-7.317a.75.75 0 0 1 0-1.5h6.918l9.6-14.3a.777.777 0 0 1 .663-.331l22.979 1.2a.746.746 0 0 1 .528.259l11.367 13.166h5.3a.75.75 0 0 1 0 1.5z" fill="#403838"/><path d="m28.557 433.286a.75.75 0 0 1 -.75-.75v-8.236a.75.75 0 0 1 1.5 0v8.239a.75.75 0 0 1 -.75.747z" fill="#403838"/><path d="m349.807 433.286a.75.75 0 0 1 -.75-.75v-8.236a.75.75 0 0 1 1.5 0v8.239a.75.75 0 0 1 -.75.747z" fill="#403838"/><path d="m189.145 405.064a.75.75 0 0 1 0-1.5 21.239 21.239 0 0 0 21.215-21.215v-22.424a.75.75 0 0 1 1.5 0v22.424a22.741 22.741 0 0 1 -22.715 22.715z" fill="#403838"/></svg></g><!--ITEM: Illustration component 11--><g transform="translate(559.375 571.875) rotate(0.0 45.3125 42.1875)  scale(1.599989406966685 1.5954429422331475)"><svg width="56.641" height="52.885" viewBox="0.0 0.0 56.641 52.885"><circle cx="28.199" cy="26.443" fill="#ae84d3" r="26.443"/><g fill="#ffe3c3"><path d="m43.614 31.751c-6.255 0-12.324-2.422-17.938-4.661-8.027-3.2-15.609-6.228-22.746-2.481a2 2 0 0 1 -1.86-3.542c8.77-4.6 17.573-1.09 26.088 2.307 9.1 3.629 17.691 7.056 26.393 1.392a2 2 0 0 1 2.181 3.353 21.654 21.654 0 0 1 -12.118 3.632z"/><path d="m42.661 50.584a1.994 1.994 0 0 1 -.725-.137c-11.018-4.285-26.078-7.665-33.118-4.956a2 2 0 1 1 -1.435-3.733c8.626-3.318 24.785.6 36 4.961a2 2 0 0 1 -.725 3.865z"/><path d="m40.057 11.821c-10.649 0-22.76-4.086-26.155-6.834a2 2 0 1 1 2.518-3.109c3.646 2.952 20.907 8.052 30.904 5.022a2 2 0 1 1 1.162 3.827 29.352 29.352 0 0 1 -8.429 1.094z"/></g></svg></g></svg>