<svg xmlns="http://www.w3.org/2000/svg"  viewBox="0 0 256 256" width="204px" height="204px"><path fill="#63bce7" d="M227.074,108.923v14.019h-14.019c0,7.742,6.277,14.019,14.019,14.019c7.742,0,14.019-6.277,14.019-14.019 C241.093,115.199,234.816,108.923,227.074,108.923z"/><path fill="#f8af23" d="M227.074,108.923c-7.742,0-14.019,6.276-14.019,14.019h14.019V108.923z"/><path fill="#67dceb" d="M227.074,108.923v2.813c3.407,2.557,5.62,6.618,5.62,11.206c0,6.279-4.129,11.593-9.82,13.378 c1.326,0.416,2.736,0.641,4.199,0.641c7.742,0,14.019-6.277,14.019-14.019C241.093,115.199,234.816,108.923,227.074,108.923z"/><path fill="#9e9e9e" d="M196.858,180.138v14.019h-14.019c0,7.742,6.277,14.019,14.019,14.019s14.019-6.277,14.019-14.019 C210.877,186.414,204.6,180.138,196.858,180.138z"/><path fill="#63bce7" d="M196.858,180.138c-7.742,0-14.019,6.276-14.019,14.019h14.019V180.138z"/><path fill="#cecece" d="M196.858,180.138v2.813c3.407,2.557,5.62,6.618,5.62,11.206c0,6.279-4.129,11.593-9.82,13.378 c1.326,0.416,2.736,0.641,4.199,0.641c7.742,0,14.019-6.277,14.019-14.019C210.877,186.414,204.6,180.138,196.858,180.138z"/><path fill="#f8af23" d="M128,207.997c-7.742,0-14.019,6.276-14.019,14.019H128V207.997z"/><path fill="#f87023" d="M128,210.81v-2.813c-7.742,0-14.019,6.276-14.019,14.019h8.399C122.38,217.428,124.593,213.367,128,210.81 z"/><path fill="#f46275" d="M128,207.997v14.019h-14.019c0,7.742,6.277,14.019,14.019,14.019s14.019-6.277,14.019-14.019 C142.019,214.273,135.742,207.997,128,207.997z"/><path fill="#f43075" d="M122.38,222.016h-8.399c0,7.742,6.277,14.019,14.019,14.019c1.463,0,2.873-0.226,4.199-0.641 C126.509,233.608,122.38,228.295,122.38,222.016z"/><path fill="#63bce7" d="M59.151,180.138c-7.742,0-14.019,6.276-14.019,14.019h14.019V180.138z"/><path fill="#6377e7" d="M59.151,182.951v-2.813c-7.742,0-14.019,6.276-14.019,14.019h8.399 C53.531,189.569,55.745,185.509,59.151,182.951z"/><path fill="#9e9e9e" d="M59.151,180.138v14.019H45.133c0,7.742,6.277,14.019,14.019,14.019s14.019-6.277,14.019-14.019 C73.17,186.414,66.894,180.138,59.151,180.138z"/><path fill="#707070" d="M53.531,194.157h-8.399c0,7.742,6.277,14.019,14.019,14.019c1.463,0,2.873-0.226,4.199-0.641 C57.66,205.75,53.531,200.436,53.531,194.157z"/><path fill="#63bce7" d="M59.151,37.794c-7.742,0-14.019,6.276-14.019,14.019h14.019V37.794z"/><path fill="#6377e7" d="M59.151,40.608v-2.813c-7.742,0-14.019,6.276-14.019,14.019h8.399 C53.531,47.226,55.745,43.165,59.151,40.608z"/><path fill="#9e9e9e" d="M59.151,37.794v14.019H45.133c0,7.742,6.277,14.019,14.019,14.019S73.17,59.556,73.17,51.813 C73.17,44.071,66.894,37.794,59.151,37.794z"/><path fill="#707070" d="M53.531,51.813h-8.399c0,7.742,6.277,14.019,14.019,14.019c1.463,0,2.873-0.226,4.199-0.641 C57.66,63.406,53.531,58.093,53.531,51.813z"/><path fill="#f8af23" d="M28.926,108.923c-7.742,0-14.019,6.276-14.019,14.019h14.019V108.923z"/><path fill="#f87023" d="M28.926,111.736v-2.813c-7.742,0-14.019,6.276-14.019,14.019h8.399 C23.306,118.354,25.519,114.294,28.926,111.736z"/><path fill="#63bce7" d="M28.926,108.923v14.019H14.907c0,7.742,6.277,14.019,14.019,14.019s14.019-6.277,14.019-14.019 C42.945,115.199,36.668,108.923,28.926,108.923z"/><path fill="#6377e7" d="M23.306,122.942h-8.399c0,7.742,6.277,14.019,14.019,14.019c1.463,0,2.873-0.226,4.199-0.641 C27.435,134.534,23.306,129.221,23.306,122.942z"/><g><path fill="#63bce7" d="M128,60.546c-34.46,0-62.395,27.935-62.395,62.395S93.54,185.337,128,185.337 c13.819,0,26.583-4.5,36.922-12.104L128,122.942V60.546z"/></g><g><path fill="#67dceb" d="M156.524,173.232c-9.274,6.82-20.501,11.132-32.687,11.951c1.378,0.091,2.763,0.154,4.163,0.154 c13.819,0,26.583-4.5,36.922-12.104l-3.164-4.31C160.093,170.45,158.348,171.891,156.524,173.232z"/></g><g><path fill="#f8af23" d="M128,60.546v62.395h62.395C190.395,88.482,162.46,60.546,128,60.546z"/></g><g><path fill="#f8d323" d="M128,60.546v0.579c30.486,4.104,53.997,30.207,53.997,61.816h8.399 C190.395,88.482,162.46,60.546,128,60.546z"/></g><g><path fill="#6377e7" d="M74.003,122.942c0-31.61,23.511-57.712,53.997-61.816v-0.579c-34.46,0-62.395,27.935-62.395,62.395 S93.54,185.337,128,185.337c1.425,0,2.835-0.06,4.235-0.154C99.719,183.039,74.003,156.001,74.003,122.942z"/></g><g><path fill="#9e9e9e" d="M190.395,122.942H128l36.922,50.291C180.366,161.875,190.395,143.583,190.395,122.942z"/></g><g><path fill="#cecece" d="M181.997,122.942c0,18.203-7.803,34.577-20.238,45.981l3.164,4.31c15.444-11.358,25.473-29.65,25.473-50.291 H181.997z"/></g><g><circle cx="128.001" cy="122.942" r="29.857" fill="#f8af23"/></g><g><circle cx="128.001" cy="122.942" r="20.916" fill="#f46275" transform="rotate(-13.286 127.97 122.92)"/></g><g><path fill="#3f3679" d="M157.49,88.391c-0.574,0-0.991,0-1.357-0.496c-0.287-0.391-0.287-0.678-0.287-1.174V85.26 c0-0.496,0-0.783,0.287-1.174c0.366-0.496,0.783-0.496,1.357-0.496h1.878c0.574,0,0.991,0,1.357,0.496 c0.287,0.391,0.287,0.678,0.287,1.174v1.461c0,0.496,0,0.783-0.287,1.174c-0.366,0.496-0.783,0.496-1.357,0.496H157.49z M158.038,101.461c-0.392,0.444-1.383,0.496-1.853,0c-0.443-0.469-0.417-1.383,0-1.852l10.358-13.515 c0.366-0.47,1.383-0.496,1.853,0c0.443,0.47,0.417,1.383,0,1.853L158.038,101.461z M165.213,103.888 c-0.574,0-0.991,0-1.357-0.496c-0.287-0.392-0.287-0.679-0.287-1.174v-1.461c0-0.496,0-0.783,0.287-1.174 c0.366-0.496,0.783-0.496,1.357-0.496h1.878c0.574,0,0.991,0,1.357,0.496c0.287,0.392,0.287,0.679,0.287,1.174v1.461 c0,0.496,0,0.783-0.287,1.174c-0.366,0.496-0.783,0.496-1.357,0.496H165.213z"/></g><g><rect width="5.384" height="6.153" x="155.624" y="141.934" fill="#f46275"/><rect width="5.384" height="10.947" x="165.37" y="137.14" fill="#f46275"/><rect width="5.384" height="14.998" x="175.116" y="133.089" fill="#f46275"/></g><g><path fill="#f8af23" d="M196.858,37.794v14.019h-14.019c0,7.742,6.277,14.019,14.019,14.019c7.742,0,14.019-6.277,14.019-14.019 C210.877,44.071,204.6,37.794,196.858,37.794z"/><path fill="#f46275" d="M196.858,37.794c-7.742,0-14.019,6.276-14.019,14.019h14.019V37.794z"/><path fill="#f8d323" d="M196.858,37.794v2.813c3.407,2.557,5.62,6.618,5.62,11.206c0,6.279-4.129,11.593-9.82,13.378 c1.326,0.416,2.736,0.641,4.199,0.641c7.742,0,14.019-6.277,14.019-14.019C210.877,44.071,204.6,37.794,196.858,37.794z"/></g><g><path fill="#f8af23" d="M128,9.849c-7.742,0-14.019,6.276-14.019,14.019H128V9.849z"/><path fill="#f87023" d="M128,12.662V9.849c-7.742,0-14.019,6.276-14.019,14.019h8.399C122.38,19.28,124.593,15.22,128,12.662z"/><path fill="#f46275" d="M128,9.849v14.019h-14.019c0,7.742,6.277,14.019,14.019,14.019s14.019-6.277,14.019-14.019 C142.019,16.125,135.742,9.849,128,9.849z"/><path fill="#f43075" d="M122.38,23.868h-8.399c0,7.742,6.277,14.019,14.019,14.019c1.463,0,2.873-0.226,4.199-0.641 C126.509,35.461,122.38,30.147,122.38,23.868z"/></g><g><path fill="#3f3679" d="M227.074,107.423c-8.051,0-14.686,6.163-15.444,14.019h-6.341c-0.828,0-1.5,0.671-1.5,1.5 s0.672,1.5,1.5,1.5h6.341c0.758,7.855,7.392,14.019,15.444,14.019c8.557,0,15.519-6.962,15.519-15.519 S235.631,107.423,227.074,107.423z M225.574,110.512v10.929h-10.93C215.329,115.735,219.868,111.197,225.574,110.512z M227.074,135.46c-6.396,0-11.687-4.821-12.43-11.019h12.43c0.828,0,1.5-0.671,1.5-1.5v-12.429 c6.198,0.744,11.019,6.034,11.019,12.429C239.593,129.844,233.977,135.46,227.074,135.46z"/><path fill="#3f3679" d="M196.857,178.638c-3.135,0-6.051,0.941-8.494,2.546l-4.651-4.651c-0.586-0.586-1.535-0.586-2.121,0 c-0.586,0.585-0.586,1.536,0,2.121l4.421,4.421c-2.88,2.819-4.674,6.742-4.674,11.081c0,8.557,6.962,15.519,15.519,15.519 c8.558,0,15.52-6.962,15.52-15.519S205.415,178.638,196.857,178.638z M195.357,181.728v10.929h-10.929 C185.113,186.951,189.651,182.412,195.357,181.728z M196.857,206.676c-6.396,0-11.686-4.821-12.429-11.019h12.429 c0.828,0,1.5-0.671,1.5-1.5v-12.429c6.198,0.744,11.02,6.034,11.02,12.429C209.377,201.06,203.761,206.676,196.857,206.676z"/><path fill="#3f3679" d="M59.151,67.333c3.155,0,6.09-0.952,8.543-2.576l4.593,4.593c0.293,0.293,0.677,0.439,1.061,0.439 s0.768-0.146,1.061-0.439c0.586-0.585,0.586-1.536,0-2.121l-4.371-4.371c2.857-2.816,4.634-6.725,4.634-11.044 c0-8.557-6.962-15.519-15.52-15.519c-8.557,0-15.519,6.962-15.519,15.519S50.595,67.333,59.151,67.333z M57.651,39.384v10.93 h-10.93C47.406,44.607,51.945,40.068,57.651,39.384z M59.151,53.313c0.828,0,1.5-0.671,1.5-1.5v-12.43 c6.198,0.744,11.02,6.034,11.02,12.43c0,6.903-5.616,12.519-12.52,12.519c-6.396,0-11.686-4.821-12.43-11.019H59.151z"/><path fill="#3f3679" d="M44.369,124.441h6.341c0.828,0,1.5-0.671,1.5-1.5s-0.672-1.5-1.5-1.5h-6.341 c-0.757-7.855-7.392-14.019-15.444-14.019c-8.557,0-15.519,6.961-15.519,15.519s6.962,15.519,15.519,15.519 C36.977,138.46,43.612,132.297,44.369,124.441z M27.426,110.512v10.929H16.497C17.182,115.735,21.72,111.197,27.426,110.512z M16.497,124.441h12.429c0.828,0,1.5-0.671,1.5-1.5v-12.429c6.198,0.744,11.02,6.034,11.02,12.429 c0,6.903-5.616,12.519-12.52,12.519C22.53,135.46,17.24,130.64,16.497,124.441z"/><path fill="#3f3679" d="M207.172,244.651H48.828c-0.828,0-1.5,0.671-1.5,1.5s0.672,1.5,1.5,1.5h158.344c0.828,0,1.5-0.671,1.5-1.5 S208,244.651,207.172,244.651z"/><path fill="#3f3679" d="M232.003,244.651h-12.75c-0.828,0-1.5,0.671-1.5,1.5s0.672,1.5,1.5,1.5h12.75c0.828,0,1.5-0.671,1.5-1.5 S232.831,244.651,232.003,244.651z"/><path fill="#3f3679" d="M36.747,244.651h-12.75c-0.828,0-1.5,0.671-1.5,1.5s0.672,1.5,1.5,1.5h12.75c0.828,0,1.5-0.671,1.5-1.5 S37.575,244.651,36.747,244.651z"/><path fill="#3f3679" d="M77.933,76.087C90.854,62.286,109.103,54.37,128,54.37c37.811,0,68.571,30.761,68.571,68.571 c0,14.626-4.541,28.583-13.131,40.362c-0.488,0.669-0.341,1.607,0.328,2.096c0.267,0.194,0.576,0.288,0.883,0.288 c0.463,0,0.919-0.213,1.213-0.616c8.967-12.295,13.707-26.864,13.707-42.13c0-39.464-32.106-71.571-71.571-71.571 c-19.724,0-38.771,8.262-52.257,22.666c-0.566,0.605-0.535,1.554,0.069,2.121C76.416,76.721,77.367,76.692,77.933,76.087z"/><path fill="#3f3679" d="M177.868,172.189c-0.576-0.595-1.525-0.61-2.121-0.032c-12.862,12.482-29.819,19.356-47.747,19.356 c-37.811,0-68.571-30.761-68.571-68.572c0-13.742,4.049-26.999,11.71-38.337c0.464-0.687,0.283-1.619-0.403-2.083 c-0.688-0.464-1.618-0.283-2.083,0.403c-7.997,11.836-12.224,25.674-12.224,40.017c0,39.465,32.106,71.572,71.571,71.572 c18.712,0,36.41-7.175,49.837-20.203C178.431,173.733,178.445,172.784,177.868,172.189z"/><path fill="#3f3679" d="M128,59.046c-35.232,0-63.896,28.663-63.896,63.895S92.768,186.837,128,186.837 c13.71,0,26.784-4.287,37.811-12.396c16.334-12.012,26.085-31.264,26.085-51.5C191.896,87.709,163.232,59.046,128,59.046z M188.858,121.441H159.32c-0.762-16.1-13.72-29.058-29.82-29.819V62.064C161.887,62.853,188.069,89.055,188.858,121.441z M128.001,151.299c-15.637,0-28.357-12.721-28.357-28.357s12.721-28.357,28.357-28.357s28.357,12.721,28.357,28.357 S143.638,151.299,128.001,151.299z M67.104,122.941c0-33.075,26.51-60.055,59.396-60.857v29.538 c-16.596,0.786-29.856,14.532-29.856,31.319c0,17.291,14.066,31.357,31.357,31.357c6.398,0,12.352-1.93,17.318-5.233 l17.49,23.822c-10.246,7.161-22.245,10.949-34.808,10.949C94.422,183.837,67.104,156.52,67.104,122.941z M165.231,171.12 l-17.497-23.832c6.722-5.459,11.15-13.637,11.586-22.846h29.557C188.422,142.676,179.682,159.929,165.231,171.12z"/><path fill="#3f3679" d="M128.001,100.526c-12.359,0-22.415,10.056-22.415,22.416c0,12.36,10.056,22.416,22.415,22.416 c12.36,0,22.416-10.056,22.416-22.416C150.417,110.582,140.361,100.526,128.001,100.526z M128.001,142.357 c-10.705,0-19.415-8.71-19.415-19.416c0-10.706,8.71-19.416,19.415-19.416c10.706,0,19.416,8.71,19.416,19.416 C147.417,133.647,138.707,142.357,128.001,142.357z"/><path fill="#3f3679" d="M131.451,108.356h-15.562c-0.828,0-1.5,0.671-1.5,1.5s0.672,1.5,1.5,1.5h15.562c0.828,0,1.5-0.671,1.5-1.5 S132.279,108.356,131.451,108.356z"/><path fill="#3f3679" d="M140.022,108.356h-4.076c-0.828,0-1.5,0.671-1.5,1.5s0.672,1.5,1.5,1.5h4.076c0.828,0,1.5-0.671,1.5-1.5 S140.851,108.356,140.022,108.356z"/><path fill="#3f3679" d="M131.451,116.807h-15.562c-0.828,0-1.5,0.671-1.5,1.5s0.672,1.5,1.5,1.5h15.562c0.828,0,1.5-0.671,1.5-1.5 S132.279,116.807,131.451,116.807z"/><path fill="#3f3679" d="M140.022,116.807h-4.076c-0.828,0-1.5,0.671-1.5,1.5s0.672,1.5,1.5,1.5h4.076c0.828,0,1.5-0.671,1.5-1.5 S140.851,116.807,140.022,116.807z"/><path fill="#3f3679" d="M131.451,125.258h-15.562c-0.828,0-1.5,0.671-1.5,1.5s0.672,1.5,1.5,1.5h15.562c0.828,0,1.5-0.671,1.5-1.5 S132.279,125.258,131.451,125.258z"/><path fill="#3f3679" d="M140.022,125.258h-4.076c-0.828,0-1.5,0.671-1.5,1.5s0.672,1.5,1.5,1.5h4.076c0.828,0,1.5-0.671,1.5-1.5 S140.851,125.258,140.022,125.258z"/><path fill="#3f3679" d="M131.451,133.709h-15.562c-0.828,0-1.5,0.671-1.5,1.5s0.672,1.5,1.5,1.5h15.562c0.828,0,1.5-0.671,1.5-1.5 S132.279,133.709,131.451,133.709z"/><path fill="#3f3679" d="M140.022,133.709h-4.076c-0.828,0-1.5,0.671-1.5,1.5s0.672,1.5,1.5,1.5h4.076c0.828,0,1.5-0.671,1.5-1.5 S140.851,133.709,140.022,133.709z"/><path fill="#3f3679" d="M155.624,140.434c-0.828,0-1.5,0.671-1.5,1.5v6.153c0,0.829,0.672,1.5,1.5,1.5h5.384 c0.828,0,1.5-0.671,1.5-1.5v-6.153c0-0.829-0.672-1.5-1.5-1.5H155.624z M159.508,146.587h-2.384v-3.153h2.384V146.587z"/><path fill="#3f3679" d="M165.37,149.587h5.384c0.828,0,1.5-0.671,1.5-1.5V137.14c0-0.829-0.672-1.5-1.5-1.5h-5.384 c-0.828,0-1.5,0.671-1.5,1.5v10.947C163.87,148.916,164.542,149.587,165.37,149.587z M166.87,138.64h2.384v7.947h-2.384V138.64z"/><path fill="#3f3679" d="M175.116,149.587h5.384c0.828,0,1.5-0.671,1.5-1.5v-14.998c0-0.829-0.672-1.5-1.5-1.5h-5.384 c-0.828,0-1.5,0.671-1.5,1.5v14.998C173.616,148.916,174.288,149.587,175.116,149.587z M176.616,134.589H179v11.998h-2.384 V134.589z"/><path fill="#3f3679" d="M181.592,69.35c0.293,0.293,0.677,0.439,1.061,0.439s0.768-0.146,1.061-0.439l4.597-4.597 c2.453,1.626,5.39,2.58,8.548,2.58c8.558,0,15.52-6.962,15.52-15.519s-6.962-15.519-15.52-15.519 c-8.557,0-15.519,6.962-15.519,15.519c0,4.316,1.775,8.224,4.629,11.039l-4.376,4.376 C181.006,67.814,181.006,68.764,181.592,69.35z M195.357,39.384v10.93h-10.93C185.112,44.607,189.651,40.068,195.357,39.384z M184.429,53.313h12.429c0.828,0,1.5-0.671,1.5-1.5v-12.43c6.198,0.744,11.02,6.034,11.02,12.43 c0,6.903-5.616,12.519-12.52,12.519C190.462,64.333,185.172,59.512,184.429,53.313z"/><path fill="#3f3679" d="M74.408,176.534c-0.586-0.586-1.535-0.586-2.121,0l-4.647,4.647c-2.442-1.603-5.356-2.543-8.488-2.543 c-8.557,0-15.519,6.961-15.519,15.519s6.962,15.519,15.519,15.519c8.558,0,15.52-6.962,15.52-15.519 c0-4.341-1.797-8.266-4.679-11.085l4.417-4.417C74.994,178.069,74.994,177.119,74.408,176.534z M57.651,181.728v10.929h-10.93 C47.407,186.951,51.945,182.412,57.651,181.728z M71.671,194.157c0,6.903-5.616,12.519-12.52,12.519 c-6.396,0-11.686-4.821-12.43-11.019h12.43c0.828,0,1.5-0.671,1.5-1.5v-12.429C66.85,182.471,71.671,187.762,71.671,194.157z"/><path fill="#3f3679" d="M128,198.732c-0.828,0-1.5,0.671-1.5,1.5v6.341c-7.855,0.758-14.019,7.392-14.019,15.443 c0,8.557,6.962,15.519,15.519,15.519s15.519-6.962,15.519-15.519c0-8.051-6.164-14.686-14.019-15.443v-6.341 C129.5,199.403,128.828,198.732,128,198.732z M126.5,209.586v10.93h-10.93C116.255,214.81,120.794,210.271,126.5,209.586z M140.519,222.016c0,6.903-5.616,12.519-12.519,12.519c-6.396,0-11.686-4.821-12.429-11.019H128c0.828,0,1.5-0.671,1.5-1.5 v-12.43C135.698,210.33,140.519,215.62,140.519,222.016z"/><path fill="#3f3679" d="M126.5,39.311v6.341c0,0.829,0.672,1.5,1.5,1.5s1.5-0.671,1.5-1.5v-6.341 c7.855-0.758,14.019-7.392,14.019-15.443c0-8.557-6.962-15.519-15.519-15.519s-15.519,6.962-15.519,15.519 C112.481,31.918,118.645,38.553,126.5,39.311z M126.5,11.438v10.93h-10.93C116.255,16.662,120.794,12.123,126.5,11.438z M128,25.368c0.828,0,1.5-0.671,1.5-1.5v-12.43c6.198,0.744,11.019,6.034,11.019,12.43c0,6.903-5.616,12.519-12.519,12.519 c-6.396,0-11.686-4.821-12.429-11.019H128z"/><path fill="#3f3679" d="M83,228c-0.828,0-1.5,0.671-1.5,1.5s0.672,1.5,1.5,1.5h20c0.828,0,1.5-0.671,1.5-1.5s-0.672-1.5-1.5-1.5H83 z"/><path fill="#3f3679" d="M32,228c-0.828,0-1.5,0.671-1.5,1.5s0.672,1.5,1.5,1.5h32c0.828,0,1.5-0.671,1.5-1.5S64.828,228,64,228H32z"/><path fill="#3f3679" d="M153,228c-0.828,0-1.5,0.671-1.5,1.5s0.672,1.5,1.5,1.5h20c0.828,0,1.5-0.671,1.5-1.5s-0.672-1.5-1.5-1.5 H153z"/><path fill="#3f3679" d="M190.5,229.5c0,0.829,0.672,1.5,1.5,1.5h32c0.828,0,1.5-0.671,1.5-1.5s-0.672-1.5-1.5-1.5h-32 C191.172,228,190.5,228.671,190.5,229.5z"/></g></svg>