<svg xmlns="http://www.w3.org/2000/svg" version="1.1" viewBox="0 0 3000 3000" width="3300" height="3300">
<defs/><!--ITEM: Illustration component 1--><g transform="translate(413.88888888888886 1052.7777777777778) rotate(0.0 858.3333333333334 625.0)  scale(3.056737197167859 3.0584182350235376)"><svg width="561.601" height="408.708" viewBox="0.0 0.0 561.601 408.708"><path d="m561.599 21.11v24.13h-561.597v-24.13c0-11.659 9.451-21.11 21.109-21.11h519.379c11.658 0 21.109 9.451 21.109 21.11z" fill="#000000"/><path d="m561.601 45.239v342.359c0 11.659-9.451 21.11-21.11 21.11h-519.381c-11.659 0-21.11-9.451-21.11-21.11v-342.359z" fill="#2724f2"/><g fill="#fff"><circle cx="43.004" cy="22.62" r="7.108"/><circle cx="78.52" cy="22.62" r="7.108"/><circle cx="114.037" cy="22.62" r="7.108"/><path d="m302.481 0h3v45.239h-3z"/><path d="m365.921 0h3v45.239h-3z"/><path d="m429.361 0h3v45.239h-3z"/><path d="m492.802 0h3v45.239h-3z"/></g></svg></g><!--ITEM: Illustration component 2--><g transform="translate(827.7777777777777 816.6666666666666) rotate(0.0 861.1111111111111 611.1111111111111)  scale(3.354490429097759 3.3682653066223773)"><svg width="513.408" height="362.864" viewBox="0.0 0.0 513.408 362.864"><path d="m513.407 18.174v20.775h-513.406v-20.775c0-10.037 8.137-18.174 18.175-18.174h477.056c10.038 0 18.175 8.137 18.175 18.174z" fill="#000000"/><path d="m513.408 38.949v305.741c0 10.037-8.137 18.174-18.174 18.174h-477.06c-10.037 0-18.174-8.137-18.174-18.174v-305.741z" fill="#f5c845"/><g fill="#fff"><circle cx="40.969" cy="19.474" r="6.12"/><circle cx="71.547" cy="19.474" r="6.12"/><circle cx="102.125" cy="19.474" r="6.12"/><path d="m141.594 0h3v38.949h-3z"/><path d="m202.484 0h3v38.949h-3z"/><path d="m263.374 0h3v38.949h-3z"/><path d="m324.265 0h3v38.949h-3z"/><path d="m385.155 0h3v38.949h-3z"/><path d="m446.045 0h3v38.949h-3z"/></g><path d="m32 92.943c0-11.219 9.095-20.314 20.314-20.314h408.78c11.219 0 20.314 9.095 20.314 20.314 0 11.219-9.095 20.314-20.314 20.314h-408.78c-11.219 0-20.314-9.095-20.314-20.314z" fill="#e45e47"/><path d="m461.408 320.761h-169.913c-11.046 0-20-8.954-20-20v-143.046c0-11.046 8.954-20 20-20h169.913c11.046 0 20 8.954 20 20v143.046c0 11.045-8.954 20-20 20z" fill="#2724f2"/><path d="m300.495 173.612c0-3.809 3.088-6.897 6.897-6.897h138.119c3.809 0 6.897 3.088 6.897 6.897 0 3.809-3.088 6.897-6.897 6.897h-138.119c-3.809.001-6.897-3.087-6.897-6.897z" fill="#fff"/><path d="m163.247 156.208h83.173v3.288h-83.173z" fill="#000000"/><path d="m163.247 177.221h83.173v3.288h-83.173z" fill="#000000"/><path d="m163.247 198.235h83.173v3.288h-83.173z" fill="#000000"/><path d="m163.247 219.249h83.173v3.288h-83.173z" fill="#000000"/><path d="m163.247 240.263h83.173v3.288h-83.173z" fill="#000000"/><path d="m163.247 261.277h83.173v3.288h-83.173z" fill="#000000"/><path d="m357.888 254.134c.513.513.513 1.346 0 1.859l-2.538 2.538c-.513.513-1.346.513-1.859 0l-5.657-5.657-2.966 5.78c-.353.687-1.353.634-1.63-.088l-8.437-21.965c-.275-.715.418-1.421 1.138-1.161l22.13 7.994c.717.259.801 1.24.139 1.617l-5.99 3.413z" fill="#fff"/><path d="m46.009 92.943c0-3.809 3.088-6.897 6.897-6.897h144.181c3.809 0 6.897 3.088 6.897 6.897 0 3.809-3.088 6.897-6.897 6.897h-144.181c-3.809 0-6.897-3.088-6.897-6.897z" fill="#fff"/></svg></g><!--ITEM: Illustration component 3--><g transform="translate(975.0 1833.3333333333333) rotate(0.0 350.0 391.66666666666663)  scale(3.3627978478093774 3.3441198987941245)"><svg width="208.16" height="234.242" viewBox="0.0 0.0 208.16 234.242"><path d="m119.651 194.847h-37.302c-11.855 0-21.5-9.645-21.5-21.5v-61.438c0-.828.671-1.5 1.5-1.5s1.5.672 1.5 1.5v61.438c0 10.201 8.299 18.5 18.5 18.5h37.302c.829 0 1.5.672 1.5 1.5s-.672 1.5-1.5 1.5z" fill="#000000"/><path d="m196.601 234.242h-58.673c-6.384 0-11.559-5.175-11.559-11.559v-58.673c0-6.384 5.175-11.559 11.559-11.559h58.673c6.384 0 11.559 5.175 11.559 11.559v58.672c0 6.385-5.175 11.56-11.559 11.56z" fill="#2724f2"/><circle cx="167.265" cy="193.347" fill="#fff" r="21"/><path d="m126.37 15v75.19c0 8.29-6.71 15-15 15h-96.37c-8.28 0-15-6.71-15-15v-75.19c0-8.29 6.72-15 15-15h96.37c8.29 0 15 6.71 15 15z" fill="#e45e47"/><path d="m126.37 15v8.83h-126.37v-8.83c0-8.29 6.72-15 15-15h96.37c8.29 0 15 6.71 15 15z" fill="#000000"/><path d="m126.37 72.02v18.17c0 8.29-6.71 15-15 15h-96.37c-8.28 0-15-6.71-15-15v-2.68l27.53-27.53 24.55 24.55 43.4-43.4z" fill="#fff"/><circle cx="27.533" cy="42.405" fill="#fff" r="7.049"/><circle cx="62.349" cy="111.909" r="6.719" fill="#000000"/><circle cx="119.651" cy="193.347" r="6.719" fill="#000000"/></svg></g><!--ITEM: Illustration component 4--><g transform="translate(1388.888888888889 436.1111111111111) rotate(0.0 340.2777777777777 191.66666666666669)  scale(3.37917424567176 3.3876536227273264)"><svg width="201.397" height="113.156" viewBox="0.0 0.0 201.397 113.156"><path d="m6.719 107.937c-.829 0-1.5-.672-1.5-1.5v-45.542c0-11.855 9.645-21.5 21.5-21.5h86.168c.829 0 1.5.672 1.5 1.5s-.671 1.5-1.5 1.5h-86.168c-10.201 0-18.5 8.299-18.5 18.5v45.542c-0 .828-.671 1.5-1.5 1.5z" fill="#000000"/><path d="m201.397 11.55v58.68c0 6.39-5.17 11.56-11.56 11.56h-58.68c-6.38 0-11.55-5.17-11.55-11.56v-58.68c0-6.38 5.17-11.55 11.55-11.55h58.68c6.39 0 11.56 5.17 11.56 11.55z" fill="#e45e47"/><path d="m164.401 52.899-3.907 13.234-3.899-13.234-10.934 8.411 4.624-13.001-13.787.389 11.384-7.805-11.384-7.797 13.787.38-4.624-13 10.934 8.419 3.899-13.234 3.907 13.234 10.934-8.419-4.633 13 13.796-.38-11.384 7.797 11.384 7.805-13.796-.389 4.633 13.001z" fill="#fff"/><circle cx="112.888" cy="40.897" r="6.719" fill="#000000"/><circle cx="6.719" cy="106.437" r="6.719" fill="#000000"/></svg></g><!--ITEM: Illustration component 5--><g transform="translate(2255.5555555555557 1488.888888888889) rotate(0.0 312.5 515.2777777777777)  scale(3.3724901927985194 3.3733958184440183)"><svg width="185.323" height="305.495" viewBox="0.0 0.0 185.323 305.495"><path d="m145.615 17.58v7.565h-145.615v-7.565c0-9.701 7.868-17.58 17.585-17.58h110.445c9.701 0 17.585 7.879 17.585 17.58z" fill="#000000"/><path d="m0 25.145h145.615v207.962h-145.615z" fill="#e45e47"/><path d="m145.615 233.107v7.565c0 9.712-7.884 17.585-17.585 17.585h-110.445c-9.717 0-17.585-7.873-17.585-17.585v-7.565z" fill="#f5c845"/><path d="m16.87 194.989c0 5.891 4.776 10.667 10.667 10.667h90.538c5.891 0 10.667-4.776 10.667-10.667 0-5.891-4.776-10.667-10.667-10.667h-90.537c-5.892 0-10.668 4.776-10.668 10.667z" fill="#fff"/><path d="m145.612 162.601 29.667 29.723c6.432 6.398 10.044 15.082 10.044 24.141v67.531h-51.056l-2.061-3.306c-7.462-11.935-7.756-27.017-.77-39.246l-23.246-25.352c-4.427-4.846-4.269-12.32.362-16.973 4.801-4.812 12.58-4.824 17.392-.034l19.668 19.68" fill="#000000"/><path d="m185.323 283.996v13.369c0 4.495-3.646 8.13-8.13 8.13h-34.796c-4.484 0-8.13-3.635-8.13-8.13v-13.369z" fill="#f5c845"/><path d="m108.769 144.614h-71.925c-5.523 0-10-4.477-10-10v-71.925c0-5.523 4.477-10 10-10h71.925c5.523 0 10 4.477 10 10v71.925c0 5.522-4.477 10-10 10z" fill="#f5c845"/><g fill="#fff"><circle cx="72.807" cy="82.526" r="12.634"/><path d="m56.202 127.411c-6.098 0-10.045-6.415-7.33-11.876 4.372-8.794 13.447-14.837 23.935-14.837 10.487 0 19.563 6.043 23.935 14.837 2.715 5.461-1.232 11.876-7.33 11.876z"/></g></svg></g><!--ITEM: Illustration component 6--><g transform="translate(1802.7777777777776 2433.333333333333) rotate(0.0 51.388888888888914 51.388888888888914)  scale(3.425925925925928 3.425925925925928)"><svg width="30.0" height="30.0" viewBox="0.0 0.0 30.0 30.0"><path d="m18.272 2.278 1.996 5.393c.353.955 1.106 1.708 2.061 2.061l5.393 1.996c3.037 1.124 3.037 5.42 0 6.544l-5.393 1.996c-.955.353-1.708 1.106-2.061 2.061l-1.996 5.393c-1.124 3.037-5.42 3.037-6.544 0l-1.996-5.393c-.353-.955-1.106-1.708-2.061-2.061l-5.393-1.996c-3.037-1.124-3.037-5.42 0-6.544l5.393-1.996c.955-.353 1.708-1.106 2.061-2.061l1.996-5.393c1.124-3.037 5.42-3.037 6.544 0z" fill="#000000"/></svg></g><!--ITEM: Illustration component 7--><g transform="translate(488.88888888888886 977.7777777777777) rotate(-90.00000000000014 223.61111111111111 586.1111111111111)  scale(3.440700278675352 3.4407701585102477)"><svg width="129.98" height="340.686" viewBox="0.0 0.0 129.98 340.686"><path d="m37.127 100.138h55.728v146.214h-55.728z" fill="#2724f2"/><path d="m92.855 100.138h37.125v146.214h-37.125z" fill="#f5c845"/><path d="m0 246.354h129.97l-59.241 91.211c-2.701 4.158-8.787 4.158-11.488 0z" fill="#fff"/><path d="m.002 100.138h37.125v146.214h-37.125z" fill="#f5c845"/><path d="m0 78.524v-13.54c0-35.89 29.094-64.984 64.984-64.984h.002c35.89 0 64.984 29.094 64.984 64.984v13.54z" fill="#e45e47"/><path d="m.002 100.138v-21.621h129.978v21.621" fill="#000000"/><path d="m40.198 308.274h49.553l-19.026 29.293c-2.7 4.157-8.785 4.158-11.487.002z" fill="#000000"/></svg></g><!--ITEM: Upload 8--><g transform="translate(113.88888888888889 1338.888888888889) rotate(0.0 594.4444444444445 223.6111111111111)  scale(3.439236091022115 3.4407002786753518)"><svg width="345.684" height="129.98" viewBox="0.0 0.0 345.684 129.98"><g>
	<g>
		<g>
			<rect x="85.136" y="37.125" style="fill:#2724F2;" width="166.214" height="55.728"/>
		</g>
		<g>
			<g>
				<rect x="85.136" y="0" style="fill:#E45E47;" width="166.214" height="37.125"/>
			</g>
		</g>
		<g>
			<path style="fill:#FFFFFF;" d="M251.352,129.98V0.01l91.211,59.241c4.158,2.701,4.158,8.787,0,11.488L251.352,129.98z"/>
		</g>
		<g>
			<g>
				<rect x="85.136" y="92.853" style="fill:#E45E47;" width="166.214" height="37.125"/>
			</g>
		</g>
		<path style="fill:#F5C845;" d="M64.98,0.01v129.97C29.09,129.98,0,100.89,0,65v-0.01C0,29.1,29.09,0.01,64.98,0.01z"/>
		<g>
			<path d="M313.272,89.782V40.229l29.293,19.026c4.157,2.7,4.158,8.785,0.002,11.487L313.272,89.782z" fill="#000000"/>
		</g>
		<polygon points="85.14,0 85.14,129.98 64.98,129.98 64.98,0.01   " fill="#000000"/>
	</g>
</g>
</svg></g></svg>