<svg xmlns="http://www.w3.org/2000/svg"  viewBox="0 0 256 256" width="204px" height="204px"><path fill="#fc5d3d" d="M223.88,191.05l7,15.49a10,10,0,0,1-9.13,14.09H33.88a10,10,0,0,1-9.17-14L31.92,190l-7.21-16.64a10,10,0,0,1,9.17-14H222.12a10,10,0,0,1,9.22,13.87Z"/><path fill="#ffcbc3" d="M221.7,213.13H48.16a2.5,2.5,0,1,1,0-5H217.84l-5.36-12a12.51,12.51,0,0,1-.13-9.95l7.46-17.8a2.5,2.5,0,1,1,4.61,1.94L217,188.15a7.51,7.51,0,0,0,.08,6l7,15.49A2.5,2.5,0,0,1,221.7,213.13Zm-183.54,0H33.88a2.5,2.5,0,0,1,0-5h4.28a2.5,2.5,0,0,1,0,5Z"/><path fill="#efefef" d="M213.51,52.33V159.38H42.29V17.17a10,10,0,0,1,10-10H168.34Z"/><rect width="171.22" height="7" x="42.29" y="152.39" fill="#afafaf"/><path fill="#fff" d="M52.29,147.17a2.5,2.5,0,0,1-2.5-2.5V17.17a2.5,2.5,0,0,1,5,0v127.5A2.5,2.5,0,0,1,52.29,147.17Z"/><path fill="#efefef" d="M213.51,220.63v18.21a10,10,0,0,1-10,10H52.29a10,10,0,0,1-10-10V220.63Z"/><rect width="171.22" height="7" x="42.29" y="220.63" fill="#afafaf"/><path fill="#fff" d="M203.51,241.34H52.29a2.5,2.5,0,0,1-2.5-2.5v-5.5a2.5,2.5,0,0,1,5,0v3H203.51a2.5,2.5,0,0,1,0,5Z"/><path fill="#afafaf" d="M213.51,52.33H178.34a10,10,0,0,1-10-10V7.17Z"/><path fill="#f0c020" d="M159.61,78H96.39a4,4,0,0,0-4,4v50.5a11.06,11.06,0,0,0,11.06,11.05h49.1a11.06,11.06,0,0,0,11.06-11.05V82A4,4,0,0,0,159.61,78Z"/><path d="M145.46,207.84a2.49,2.49,0,0,0,2.37-1.7l9.6-28.59a2.51,2.51,0,0,0-1.58-3.17,2.55,2.55,0,0,0-3.16,1.58l-7.23,21.54L138.22,176a2.55,2.55,0,0,0-3.16-1.58,2.51,2.51,0,0,0-1.58,3.17l9.61,28.59A2.47,2.47,0,0,0,145.46,207.84Z"/><path d="M81.27,202.84a7.13,7.13,0,0,1-7.1-7.09,2.5,2.5,0,0,0-5,0,12.1,12.1,0,0,0,24.2,0v-19a2.49,2.49,0,0,0-2.5-2.5H71.67a2.5,2.5,0,1,0,0,5h16.7v16.5A7.12,7.12,0,0,1,81.27,202.84Z"/><circle cx="213.51" cy="104.47" r="2.5"/><path d="M104.93,248.84a2.51,2.51,0,1,0,2.5-2.5A2.5,2.5,0,0,0,104.93,248.84Z"/><path d="M222.12,156.88H216V114.47a2.5,2.5,0,0,0-5,0v42.41H44.79V17.17a7.52,7.52,0,0,1,7.5-7.5H165.84V42.33a12.51,12.51,0,0,0,12.5,12.5H211V94.47a2.5,2.5,0,1,0,5,0V52.34h0a2.6,2.6,0,0,0-.73-1.76L170.11,5.4a2.51,2.51,0,0,0-1.77-.73h-116a12.51,12.51,0,0,0-12.5,12.5V156.88H33.88a12.66,12.66,0,0,0-3.25.43,2.5,2.5,0,1,0,1.29,4.83,7.47,7.47,0,0,1,2-.26H222.12A7.51,7.51,0,0,1,229,172.29l-6.81,16.25h-8.71a2.5,2.5,0,1,0,0,5h8.75l6.29,14a7.51,7.51,0,0,1-6.85,10.58H33.88A7.51,7.51,0,0,1,27,207.65l6.12-14.11h9.17a2.5,2.5,0,1,0,0-5H34L28.13,175a2.54,2.54,0,0,0-3.29-1.29,2.49,2.49,0,0,0-1.3,3.29l5.66,13-6.79,15.65a12.52,12.52,0,0,0,11.47,17.48h5.91v15.71a12.51,12.51,0,0,0,12.5,12.49H97.43a2.5,2.5,0,1,0,0-5H52.29a7.54,7.54,0,0,1-7.5-7.5V223.13H211v15.71a7.54,7.54,0,0,1-7.5,7.5H117.43a2.5,2.5,0,1,0,0,5h86.08A12.51,12.51,0,0,0,216,238.84V223.13h5.69a12.51,12.51,0,0,0,11.41-17.62l-6.5-14.5,7-16.8A12.51,12.51,0,0,0,222.12,156.88ZM170.84,13.2l36.64,36.64H178.34a7.54,7.54,0,0,1-7.5-7.51Z"/><path d="M23.58,168.73A2.5,2.5,0,1,0,25.11,164,2.53,2.53,0,0,0,22,165.59,2.5,2.5,0,0,0,23.58,168.73Z"/><path d="M123,207.84a2.51,2.51,0,0,0,2.5-2.5v-19a12.11,12.11,0,0,0-24.21,0v19a2.5,2.5,0,0,0,5,0h0V193.55h14.2v11.79A2.51,2.51,0,0,0,123,207.84Zm-16.71-19.29v-2.19a7.1,7.1,0,1,1,14.2,0v2.19Z"/><path d="M187.15,207.84a2.5,2.5,0,0,0,2.5-2.5v-19a12.1,12.1,0,1,0-24.2,0v19a2.5,2.5,0,0,0,5,0V193.55h14.2v11.79A2.5,2.5,0,0,0,187.15,207.84Zm-16.7-19.29v-2.19a7.1,7.1,0,1,1,14.2,0v2.19Z"/><path d="M89.89,82v50.5A13.57,13.57,0,0,0,103.45,146h49.1a13.57,13.57,0,0,0,13.56-13.55v-9.8h7.51a20.11,20.11,0,0,0,20.08-20.08V96.82a16.27,16.27,0,0,0-27.59-11.71V82a6.5,6.5,0,0,0-6.5-6.5H96.39A6.5,6.5,0,0,0,89.89,82Zm76.22,14.87a11.3,11.3,0,0,1,22.59,0v5.75a15.1,15.1,0,0,1-15.08,15.08h-7.51Zm-5-14.87v50.5a8.56,8.56,0,0,1-8.56,8.55h-49.1a8.56,8.56,0,0,1-8.56-8.55V82a1.5,1.5,0,0,1,1.5-1.5h63.22A1.5,1.5,0,0,1,161.11,82Z"/><path d="M112.33,123.42a2.5,2.5,0,1,0,3.53-3.54l-9.16-9.16,9.16-9.16a2.5,2.5,0,0,0,0-3.54,2.56,2.56,0,0,0-3.53,0L101.4,109a2.51,2.51,0,0,0,0,3.54Z"/><path d="M140.14,123.42a2.49,2.49,0,0,0,3.53,0s0,0,0,0l10.92-10.9a2.51,2.51,0,0,0,0-3.54L143.67,98a2.56,2.56,0,0,0-3.53,0,2.5,2.5,0,0,0,0,3.54l9.16,9.16-9.16,9.16A2.5,2.5,0,0,0,140.14,123.42Z"/><path d="M123.88,124a2.48,2.48,0,0,0,3.13-1.64l6.76-21.86a2.51,2.51,0,0,0-1.65-3.13A2.54,2.54,0,0,0,129,99.05l-6.76,21.87A2.49,2.49,0,0,0,123.88,124Z"/><path d="M121.15,61.2a2.5,2.5,0,0,0,0,5h13.5a2.5,2.5,0,0,0,0-5Z"/><path d="M143.5,49.45A2.5,2.5,0,0,0,141,47H114.8a2.5,2.5,0,0,0,0,5H141A2.5,2.5,0,0,0,143.5,49.45Z"/><path d="M150.75,35.2a2.5,2.5,0,0,0-2.5-2.5h-40.7a2.5,2.5,0,0,0,0,5h40.7A2.5,2.5,0,0,0,150.75,35.2Z"/></svg>