<svg enable-background="new 0 0 1179.455 1191.226" height="1192" viewBox="0 0 1179.455 1191.226" width="1180" xmlns="http://www.w3.org/2000/svg" xmlns:xlink="http://www.w3.org/1999/xlink"><linearGradient id="a" gradientUnits="userSpaceOnUse" x1="225.5694" x2="260.6983" y1="346.5391" y2="346.5391"><stop offset=".3823" stop-color="#f89578"/><stop offset=".9941" stop-color="#fdb899"/></linearGradient><linearGradient id="b" gradientTransform="matrix(-.9117 .1186 -.1332 -.9707 17428.2129 -220.587)" gradientUnits="userSpaceOnUse" x1="18519.0645" x2="18542.1094" y1="1681.7228" y2="1681.7228"><stop offset=".1972" stop-color="#fdb899"/><stop offset=".724" stop-color="#f89578"/></linearGradient><path d="m640.881 1019.991 26.634 32.273c16.201-12.766 32.402-25.533 48.603-38.299l-28.384-35.189z" fill="#dbded6"/><path d="m649.609 1045.334c-1.131 1.764 8.278 5.697 15.334 16.313 5.89 8.862 7.245 25.279 20.228 51.222 5.355 10.7 9.083 16.922 12.071 19.249 2.988 2.328 28.233-4.236 75.039-5.22 50.755-1.067 62.758-9.114 77.558-15.177 18.444-7.557 55.635-31.047 53.868-40.388-1.455-7.69-8.029-22.285-17.167-28.479-14.471-9.809-56.297 5.506-105.776-12.527-20.21-7.366-37.364-11.503-56.046-28.67-9.657-8.874-17.212-20.285-25.693-19.816-12.219.676-26.733 22.166-22.765 35.074 1.917 6.237 5.648 9.823 5.648 9.823-5.155 10.009-31.168 16.832-32.299 18.596z" fill="#b72e33"/><path d="m846.648 1089.935s-7.063-19.359-26.249-22.894c-27.661-5.096-43.756 6.816-69.735-1.784-12.852-4.255-20.22-8.842-36.043-21.947-9.679-8.017-16.714-21.456-26.255-19.944-2.491.395-3.536 1.495-6.457 3.37-5.156 10.01-31.168 16.833-32.299 18.596-1.131 1.764 8.278 5.697 15.334 16.313 5.89 8.862 7.245 25.279 20.228 51.222 5.355 10.7 9.083 16.922 12.071 19.249 2.988 2.328 28.233-4.236 75.039-5.22 50.754-1.067 62.758-9.114 77.558-15.177.747-4.154-3.192-21.784-3.192-21.784z" fill="#d9383f"/><path d="m903.708 1071.333c-1.455-7.69-7.861-22.38-16.906-28.709-4.946-3.461-13.546-3.734-24.539-3.346-14.763 6.032-18.986 36.609-12.329 55.725 1.262 3.623 3.666 8.727 8.44 12.768 19.413-9.807 46.858-28.383 45.334-36.438z" fill="#ecefe8"/><path d="m752.741 1115.765c10.603-2.02 47.693-3.199 65.385-7.826 16.409-4.292 76.287-27.479 81.344-48.769-1.147-2.474-2.453-4.798-3.416-6.22-5.085 21.286-65.002 44.506-81.407 48.797-17.692 4.627-54.782 5.806-65.385 7.826-42.82 8.156-58.29 6.066-63.839 3.796 1.111 2.212 2.168 4.299 3.146 6.125 5.231 2.323 20.403 4.608 64.172-3.729z" fill="#1d1c1c"/><path d="m903.83 1071.501c-.601-3.178-2.171-7.877-4.352-12.316 0 .001-.046.198-.046.198-5.056 21.291-64.895 44.264-81.305 48.556-17.692 4.627-54.782 5.807-65.385 7.826-43.774 8.338-58.943 6.052-64.172 3.728 3.32 6.694 5.998 11.527 8.313 13.33 2.988 2.328 28.435-4.319 75.241-5.303 50.755-1.067 63.012-9.275 77.811-15.339 18.444-7.555 55.662-31.339 53.895-40.68z" fill="#ecefe8"/><path d="m711.414 1067.762c0-1.094.373-2.108 1.005-2.943-3.049-4.638-9.165-8.428-15.558-7.386-8.438 1.375-14.099 9.721-12.646 18.641s9.471 15.036 17.909 13.661c7.976-1.299 13.463-8.828 12.812-17.183-2.063-.766-3.522-2.62-3.522-4.79z" fill="#fff"/><path d="m711.414 1067.762c0-.923.543-2.193 1.005-2.943-6.458 2.986-19.209 9.427-18.974 11.305.164 1.309 13.544-1.641 21.492-3.572-1.986-.798-3.523-2.672-3.523-4.79z" fill="#ebeee7"/><path d="m834.404 1038.214c-16.558 17.62-17.896 28.252-17.264 27.018-3.158 6.172 3.253-19.588 12.774-26.394.911-.651-2.256-2.446-6.086-1.567-3.655.839-22.604 27.323-22.32 29.999-5.031-6.796 13.283-27.349 13.579-29.056.3-1.727-4.353-2.154-4.353-2.154-7.664-1.417-24.941 20.724-27.09 27.467.716-7.47 5.847-20.203 18.032-28.073 1.065-.688-3.815-2.237-6.317-2.216-9.069.076-28.561 28.875-27.504 29.916-5.074-4.709 14.656-28.934 15.714-30.974.878-1.694-1.824-2.317-4.476-2.459-9.918-.498-28.336 27.538-28.336 27.538.547-4.223.725-4.117 3.327-10.045 4.777-10.886 16.012-19.531 15.047-20.994-5.485-8.319-29.584 25.814-32.399 26.052s22.803-25.83 22.955-28.303c.035-1.556.125-1.955-2.038-3.353-7.09-4.579-32.005 29.026-33.86 26.527s19.831-26.703 20.798-27.934 1.957-3.038-.169-5.004c-7.17-6.629-31.023 18.052-35.661 23.228s2.213-15.681 23.335-25.531c-1.855-9.577-32.442 17.6-27.527 28.137.66 1.416 1.652 1.752 3.191 1.768 1.964.02 27.47-23.133 30.783-23.863s-21.496 20.909-20.246 28.374c.349 2.085.952 3.782 3.979 5.336 3.028 1.553 26.759-24.963 32.701-26.684s-26.313 17.177-22.046 30.519c.738 2.306 2.191 3.653 4.541 2.689 2.349-.964 30.986-39.829 14.543-14.895-5.755 8.726-10.009 23.133-2.829 23.284 3.401.076 26.47-33.202 27.758-32.252.177.131-.181.884-.297 1.139-1.463 3.225-15.265 19.318-14.391 26.866-.12 1.699.402 5.547 3.16 5.824 7.146.719 24.063-32.104 28.72-30.214 0 0-19.982 17.483-13.723 29.511 1.082 2.08 2.766 1.534 4.294.864s12.977-20.812 20.194-25.452c7.218-4.639-11.482 11.784-7.853 24.655.962 3.411 5.976 4.579 6.722 3.744 4.033-4.517 12.078-24.537 14.081-24.123 0 0-7.608 15.687-2.581 24.683 1.035 1.851 1.944 2.396 2.374 1.638 5.635-9.935 12.286-25.736 25.055-35.243-1.014-1.753-7.217-1.135-8.291.007z" fill="#fff"/><path d="m274.052 739.363c100.008 64.82 184.737 58.801 187.052 65.746 38.429 115.287 161.497 210.957 171.346 220.127 7.94 7.393 67.04-42.357 62.526-50.424-3.075-5.496-73.976-172.57-73.976-172.57s109.1 22.318 114.659 25.557c5.56 3.239 121.017 196.214 158.813 238.905 10.892 12.303 90.014-31.178 82.414-49.541s-125.473-306.969-158.809-318.544c-100.523-34.903-339.379-50.93-339.379-50.93-95.03 6.232-217.856 83.112-204.646 91.674z" fill="#1d1c1c"/><path d="m311.069 760.696s-1.539-17.686 9.746-38.927c7.871-14.816 88.952-52.476 82.426-52.276-27.133.83-134.026 54.602-130.171 68.326.587 3.142 37.999 22.877 37.999 22.877z"/><path d="m478.698 647.689c116.676 36.114 246.885 177.028 250.02 169.921 1.377-3.122 4.903-28.424 7.119-26.852 1.83 1.298-.178 37.041-.178 37.041-19.114-6.563-69.178-16.295-114.659-25.557-59.739-105.171-60.251-154.552-205.449-142.228 10.177-2.122 19.654-8.25 63.147-12.325z"/><path d="m977.188 1018.061c2.093 8.766-12.791 23.491-35.785 36.063-25.888 14.154-42.057 17.4-46.931 12.58-1.451-1.435 13.591-18.666 36.736-31.996 35.576-20.491 45.509-18.617 45.98-16.647z"/><path d="m456.085 802.856s1.043-29.645 1.856-29.114c2.3 1.503 2.824 22.099 4.665 25.169s9.945-16.82 8.349-8.349c-4.567 24.239-3.881 30.652-3.881 30.652s-5.387-14.694-5.971-16.104c-.583-1.411-5.018-2.254-5.018-2.254z"/><path d="m502.215 728.483c15.674-40.287 49.035-31.059 52.929-32.691 2.611-1.095-25.781-7.58-41.182 5.944-17.408 15.284-15.35 36.008-11.747 26.747z"/><path d="m783.654 737.744c12.54-32.165 32.551-31.097 35.278-34.526 1.457-1.831-16.118-3.731-28.049 10.77-8.497 10.327-10.455 32.032-7.229 23.756z"/><path d="m2.361 265.466c3.834 2.56 5.282 2.198 6.187 3.103s3.452 122.998 27.177 176.215c2.056 4.612 20.553 25.593 47.714 65.611 22.572 33.257 31.622 83.5 79.144 124.675 13.127 11.374 32.182 95.614 71.084 109.36 16.822 5.943 34.371 3.999 44.335-4.72 124.355-108.81 234.669-68.195 205.085-95.272-6.156-5.635-23.401-2.503-28.582-8.524-8.486-9.863 6.543-22.014-1.504-38.109-5.014-10.029-26.813-4.08-29.205-45.663-1.382-24.036 113.186-72.874 128.108-71.27.53.057 1.26 1.47 4.337 1.651s25.892-8.021 28.969-14.175-27.641-81.5-38.32-80.052c-10.68 1.448-31.381 7.578-33.331 11.322-.781 1.5-.316 3.189-1.086 4.706-.77 1.518-118.01 26.805-134.103 38.234-1.587 2.812-41.708 2.663-45.094-.585-8.869-8.507-19.381-3.466-24.074-7.783-15.404-14.173-11.521-12.226-24.314-17.969s-59.131-7.915-71.62-4.838c-12.49 3.077-15.374 6.563-27.151 15.023-2.943 2.114.999-.477-31.396-7.687-1.109-.247-6.99-16.527-15.485-21.274 0 0-30.964-129.594-30.055-130.803s2.333-.609 3.976-3.142c1.643-2.534 2.299-24.677-3.245-30.59-2.715-2.896-98.287-21.721-103.536-9.593-7.354 16.99-7.849 39.588-4.015 42.149z" fill="#2b3d51"/><path d="m249.567 482.908c16.82 30.136 5.655 49.478 12.32 54.354 2.359 1.725 13.389-3.268 19.16 2.928 2.708 2.907 3.308 7.1 3.373 8.956.332 9.578-1.995 34.653 6.567 41.326 23.92 18.642 54.496 42.692 52.525 39.994-30.453-41.676-42.933-43.511-45.013-58.592-1.866-13.529 12.272-43.588 3.916-58.453-6.222-11.069-19.96-10.04-18.271-19.701 7.527-43.058 10.678-44.451 7.921-57.984-1.069-5.247-76.214-4.495-77.463-1.41-2.249 5.554 7.466 7.912 34.965 48.582z" fill="#fff"/><path d="m343.512 630.466c-30.453-41.676-42.932-43.511-45.012-58.592-1.866-13.529 12.272-43.588 3.916-58.453-6.222-11.069-19.96-10.04-18.271-19.701 7.527-43.058 10.678-44.451 7.921-57.984-.455-2.232-14.312-3.378-30.184-3.721 13.894 6.439 26.197 6.105 20.278 57.814-2.413 21.081 20.135 17.705 15.043 77.715-1.243 14.652 8.505 30.218 19.244 42.783 15.649 12.171 28.358 21.908 27.065 20.139z" fill="#ecefe8"/><path d="m204.583 414.185c-8.451 3.526-20.266 12.968-21.358 15.7-8.906 22.289 51.08 66.706 50.604 62.898s-3.562-27.899-2.748-28.031c.814-.131 21.467 25.356 21.467 25.356-5.379-17.535-41.733-53.259-37.946-55.783 3.787-2.525 72.751-3.24 77.463 1.41 4.712 4.649-10.056 63.656-7.28 57.539 2.777-6.117 15.361-36.765 17.085-37.632s14.714 27.112 15.153 24.661 6.059-27.846-6.768-44.656c-1.559-2.043-5.768-8.235-18.551-16.293-12.094-7.623-61.576-15.828-87.121-5.169z" fill="#212e3c"/><path d="m286.721 417.179c-.285-.188-.585-.371-.876-.557-15.676-5.815-49.482-10.571-72.661-5.151-7.493 7.298-1.361 21.164 1.589 24.944-.508-1.076-.603-1.801-.171-2.089 3.787-2.525 72.751-3.24 77.463 1.41 4.712 4.649-10.056 63.656-7.28 57.539 2.48-5.463 12.779-30.483 16.18-36.385 2.337-14.966.017-30.278-14.244-39.711z" fill="#161f29"/><path d="m8.863 267.802c51.065 10.748 71.871 7.083 98.591-.364 7.982 1.314-31.758 37.89-96.916 16.834z" fill="#212e3c"/><path d="m551.395 480.265s-23.603-42.096-32.483-61.423c-15.894-34.593 21.057 63.666 21.057 63.666 4.179-.988 7.357-1.724 11.426-2.243z" fill="#161f29"/><path d="m91.866 523.526s3.443-5.484-3.202-46.599c-3.769-23.322 21.259 44.537 29.205 99.889z" fill="#212e3c"/><path d="m158.924 553.038c-.969 2.482 10.185 15.768 11.608 22.34.903 4.172-43.272-8.525-42.49-7.009 7.426 14.389 119.645 51.914 110.385 45.994-24.884-15.908-78.572-63.712-79.503-61.325z" fill="#212e3c"/><path d="m259.234 520.842s-9.894 32.903-7.885 33.729c1.156.475 10.538-17.31 10.538-17.31-3.007-1.778-2.781-5.159-2.653-16.419z" fill="#161f29"/><path d="m284.421 548.001s-5.868 58.736 2.628 63.953c1.326.814 3.947-21.557 3.947-21.557-6.17-4.476-6.609-23.875-6.575-42.396z" fill="#161f29"/><path d="m317.493 598.594c.396 1.744 29.059 32.758 26.019 31.872-3.04-.887-12.659-9.094-12.659-9.094s42.774 38.805 43.804 41.833c1.789 5.262-55.085-12.598-50.374-8.542 3.158 2.719 52.923 22.924 52.923 22.924l15.327-5.32c-.001-.001-76.067-78.197-75.04-73.673z" fill="#212e3c"/><path d="m161.464 632.784s77.506 51.881 80.991 55.216c6.245 5.977-59.451-12.481-59.451-12.481-8.04-20.583-17.327-39.712-21.54-42.735z" fill="#161f29"/><g fill="#212e3c"><path d="m454.196 603.557-20.814 52.836s16.3-21.958 21.123-20.477c-8.486-9.863 6.543-22.014-1.504-38.109-5.014-10.029-26.813-4.08-29.205-45.663-.121-2.1.661-4.393 2.167-6.822-.659-9.282.481-18.972.481-18.972s-9.251 39.849-9.251 46.253 21.348 23.838 37.003 30.954z"/><ellipse cx="299.225" cy="496.46" rx="3.68" ry="6.032" transform="matrix(.7418 -.6706 .6706 .7418 -255.6649 328.8141)"/><ellipse cx="314.907" cy="528.864" rx="6.032" ry="3.68" transform="matrix(.1738 -.9848 .9848 .1738 -260.6358 747.0699)"/><ellipse cx="343.782" cy="609.114" rx="3.68" ry="6.032" transform="matrix(.866 -.5 .5 .866 -258.499 253.4966)"/><ellipse cx="365.287" cy="635.988" rx="3.68" ry="6.032" transform="matrix(.8412 -.5407 .5407 .8412 -285.8715 298.4848)"/><ellipse cx="317.482" cy="571.874" rx="6.032" ry="3.68" transform="matrix(.0465 -.9989 .9989 .0465 -268.5244 862.4431)"/></g><path d="m901.85 1056.886 18.175 35.012c18.02-10.037 36.04-20.073 54.06-30.11l-22.749-37.686c-20.355 9.496-37.063 20.346-49.486 32.784z" fill="#ecefe8"/><path d="m901.036 1070.567c1.411 5.228 6.627 8.259 12.017 28.462 2.761 10.351-4.306 27.176-6.947 61.032-.364 4.668-1.706 22.5 20.44 27.862 36.459 8.827 57.661-3.509 71.877-2.343 100.781 8.269 177.785-27.016 180.904-59.987.675-7.137-2.42-18.677-9.53-24.271-22.078-17.373-77.001 5.939-85.552 2.331s-39.979-21.213-60.192-46.684c-15.728-19.819-26.875-41.082-36.549-37.236-5.254 2.089-5.944 12.588-5.944 12.588s-8.477-6.488-15.152-5.711c-10.919 1.27-19.814 33.335-42.771 40.12-16.282 4.812-24.013-1.39-22.601 3.837z" fill="#ff4e56"/><path d="m1179.325 1125.593c.838-7.358-2.402-18.892-9.512-24.487-9.652-7.595-26.7-7.518-41.168-4.894-4.864 2.886-8.931 7.778-11.763 11.945-1.997 2.938-3.478 5.568-4.449 7.614-2.711 1.939-.568 9.941-.568 9.941s-67.866 28.535-94.58 33.231c-69.711 12.254-114.924-2.824-110.114 12.837 2.002 6.516 7.174 13.188 19.374 16.142 36.459 8.827 57.661-3.509 71.877-2.343 100.781 8.27 177.156-27.082 180.903-59.986z" fill="#ecefe8"/><path d="m1179.325 1125.593c.129-1.362.187-2.898.04-4.509-17.464-11.295-37.048.378-71.193 14.002-32.987 13.161-75.317 31.665-112.473 35.219-32.663 3.124-76.402 1.136-82.651 6.249-.92.753-1.732 1.433-2.394 2.026 3.031 3.934 7.972 7.425 15.891 9.343 36.459 8.827 56.784-2.959 71-1.793 100.781 8.268 178.662-27.567 181.78-60.537z" fill="#dbded6"/><path d="m905.939 1162.839c.186-1.387 2.568-4.68 17.839-6.842 15.271-2.161 39.115.385 64.965-2.161 48.597-4.788 111.052-33.155 121.656-37.29 12.883-5.024 35.328-13.243 52.727-14.016 10.246 0 12.349 5.331 12.994 6.784 1.479 3.334 1.855 4.502 2.419 6.779 0 0-5.477-9.106-23.575-4.601-59.145 14.72-95.074 43.265-158.699 50.615-43.493 6.065-81.084-.96-89.017 9.887-.308.418-1.661-6.537-1.309-9.155z" fill="#1d1c1c"/><path d="m909.451 1087.7s3.886 13.607 12.918 17.019c6.702 2.531 12.979-2.625 14.005-1.064 1.857 2.826-25.274 19.869-25.274 19.869 4.178-18.322 3.525-24.032-1.649-35.824z" fill="#d9383f"/><path d="m964.049 1074.578c-10.966 0-21.67 10.284-21.67 20.319 0 .297.009.589.024.878 2.364 2.589 4.58 4.391 6.38 3.98-.593 2.293-.628 4.661-.402 7.065 3.532 2.603 8.348 4.011 13.698 4.011 10.966 0 19.855-8.135 19.855-18.171s-6.919-18.082-17.885-18.082z" fill="#fff"/><path d="m969.209 1080.266c.004 0 .014-.011.012-.014-.065-.111-26.818 15.523-26.818 15.523 2.364 2.589 4.58 4.391 6.38 3.98-.983 2.774-.402 7.065-.402 7.065-.755-.529 20.071-26.513 20.828-26.554z" fill="#ecefe8"/><path d="m1024.052 1056.969c-15.728-19.819-26.875-41.082-36.549-37.236-4.824 1.918-5.944 11.059-5.944 12.588 2.778 6.313 9.037 13.424 18.389 20.888 36.927 29.471 42.241 31.272 59.743 40.279 17.561 9.036 24.552 10.165 24.552 10.165-8.55-3.609-39.977-21.213-60.191-46.684z" fill="#d9383f"/><path d="m1065.876 1109.971c8.539-2.899 12.894-5.789 14.175-7.15 8.916-9.471-27.953 4.381-31.197 3.258s18.825-9.649 19.678-11.266c.468-1.045.681-1.276-1.377-3.216-6.741-6.358-30.382 7.829-31.787 5.279s17.89-9.015 19.322-9.413c1.431-.398 3.047-1.178 1.189-3.489-6.267-7.792-24.619-4.543-31.408-4.013-5.364.419-8.466-8.254 18.093-5.332.546-7.377-32.549-1.458-29.906 7.97.355 1.267 1.382 1.949 3.114 2.662 2.212.91 28.499-2.434 32.439-1.42s-17.62 4.981-18.266 10.641c-.181 1.581-.118 4.131 3.021 5.454 3.556 1.499 22.663-7.337 29.97-6.591 4.775.488-21.668 6.665-22.196 14.321-.132 1.915 1.477 3.427 4.385 3.906 5.413.892 30.124-10.163 30.778-9.334.682.865-8.863 4.364-11.509 6.047-2.346 1.493-2.474 3.029 1.482 1.686z" fill="#fff"/><path d="m103.782 76.986c-5.424 13.17-100.046 135.972-90.443 153.277 6.263 11.287 55.785 24.88 80.677 8.523 6.909-4.54 39.372-126.528 44.214-132.248s39.021-6.664 55.996-26.22c4.996-5.756 5.301-39.647 2.38-59.026-1.134-7.525-11.201-1.406-12.377 4.76 0 0-3.956-16.627-19.55-13.272-8.599-5.322-15.026-7.035-23.666-2.124 0 0-12.653-.245-21.733 12.388-4.56 6.345-10.074 40.773-15.498 53.942z" fill="#ffb493"/><path d="m194.225 80.318c4.996-5.756 5.301-39.647 2.38-59.026-1.134-7.525-11.201-1.406-12.377 4.76 0 0-.089-.367-.285-.972.979 17.002-41.925 23.399-51.599 48.456-4.337 11.234-1.875 25.91 5.884 33.002 4.843-5.719 39.022-6.664 55.997-26.22z" fill="#f79173"/><path d="m173.197 5.888c-2.57-.452-5.194-.508-7.173 1.638 0 0-56.861 59.259-45.619 91.768 2.297 6.641 12.3 12.165 18.071 8.114 8.646-6.068 14.328-18.531 26.894-24.918 4.988-2.535 8.481-2.468 12.178-.022 7.471 4.944 13.025 6.113 17.512 7.632 10.86 3.677 23.257 8.203 32.582 11.764 9.061 3.46 12.172 4.615 16.231 5 5.448.517 7.765 4.826 8.443 6.844 5.23 15.558 3.08 19.858 3.673 36.25.266 7.362 13.689 13.148 20.27 7.279 29.925-26.688 25.429-98.236 25.429-98.236-.069-2.474-1.884-5.079-3.677-6.064-40.699-22.822-81.336-38.914-124.814-47.049z" fill="#dcdfe8"/><path d="m301.809 75.629c-19.147-12.486-93.688-38.598-107.05-36.825-35.532 4.716-49.537 6.475-62.724 13.469-9.547 16.281-16.234 33.921-11.663 47.139 2.297 6.641 12.3 12.165 18.071 8.114 8.646-6.068 14.328-18.531 26.894-24.918 4.988-2.535 8.481-2.468 12.178-.022 7.471 4.944 13.025 6.113 17.512 7.632 10.86 3.677 23.257 8.203 32.582 11.764 9.061 3.46 12.172 4.615 16.231 5 5.448.517 7.765 4.826 8.443 6.844 5.23 15.558 3.08 19.858 3.673 36.25.266 7.362 13.689 13.148 20.27 7.279 20.845-18.59 24.988-58.947 25.583-81.726z" fill="#c0c1cc"/><path d="m263.272 63.211c-1.055-.224-1.009 26.022-16.722 36.869-5.686 3.925-64.167-19.744-66.361-26.086-6.169-17.834 9.104-37.194 8.229-37.586-.924-.414-19.112 20.392-14.088 40.808.344 1.398.796 2.768 1.337 4.11.802.305 1.596.717 2.4 1.248 7.471 4.944 13.024 6.113 17.512 7.632 10.889 3.687 23.228 8.191 32.582 11.764 9.061 3.46 12.172 4.615 16.231 5 1.003.095 1.9.32 2.7.634 1.046-.596 2.052-1.252 3.007-1.975 16.75-12.705 14.267-42.186 13.173-42.418z" fill="#b3b4bc"/><path d="m276.553 45.958c8.588 6.431 20.569 10.209 20.57 9.39.002-.963-.365-2.161-.985-3.452-7.758-4.311-15.515-8.376-23.292-12.188.592 2.411 2.235 5.147 3.707 6.25z" fill="#c0c1cc"/><path d="m176.549 6.535c-2.695.766-4.997 1.879-6.046 3.146-.522.631 11.11 5.376 21.825 5.912 2.254.113 6.277-1.501 8.021-3.504-7.851-2.118-15.778-3.972-23.8-5.554z" fill="#c0c1cc"/><path d="m297.116 55.379s2.005-7.417 2.234-9.501c.416-3.78-15.94-10.118-19.347-8.476-1.689.814-3.6 8.111-3.6 8.111-.138 2.66 19.192 11.184 20.713 9.866z" fill="#2e3237"/><path d="m170.503 9.681s3.194-6.988 4.348-8.737c2.094-3.174 18.728 2.394 20.301 5.833.78 1.705-2.41 8.541-2.41 8.541-1.593 2.135-21.91-3.651-22.239-5.637z" fill="#2e3237"/><path d="m119.805 84.685c1.525-1.07 6.967.719 9.275 3.304 1.75 1.96.183 7.38 1.655 14.831.664 3.362 2.442 6.065 2.442 6.065s-8.028-.099-12.27-8.209c-3.109-5.941-1.702-15.571-1.102-15.991z" fill="#2e3237"/><path d="m284.415 147.323c-.49-1.797-5.82-3.896-9.247-3.381-2.599.391-4.854 5.562-10.745 10.356-2.658 2.163-5.952 1.015-5.952 1.015s6.441 7.144 14.885 3.613c6.185-2.588 11.252-10.896 11.059-11.603z" fill="#2e3237"/><path d="m152.892 57.806c4.074 8.004 16.84 5.094 14.919-7.392 3.36 13.531 17.697 9.626 16.34-24.65-.604-2.162-5.079-16.08-19.473-12.983-8.599-5.322-15.026-7.035-23.666-2.124 0 0-12.653-.245-21.733 12.388-.591.822-1.199 2.125-1.82 3.784.97 1.698 1.982 3.55 3.036 5.604 4.864 9.48 9.001 14.128 17.431 26.223 8.015 11.499 17.498 5.963 14.966-.85z" fill="#ffb493"/><path d="m152.892 57.806c-4.874-12.473-12.656-41.265-10.046-40.446 1.999.627 14.222 44.367 14.222 44.367-2.025-.657-3.78-2.908-4.176-3.921z" fill="#f79173"/><path d="m167.838 50.596c-4.076-17.379-4.993-34.301-3.922-34.686 1.831-.657 7.223 40.606 7.223 40.606-2.039-1.597-2.82-3.869-3.301-5.92z" fill="#f79173"/><path d="m140.37 61.618s-12.16-28.673-15.13-27.728c-1.427.454 8.161 18.267 8.161 18.267 3.484 5.039 3.28 5.634 6.969 9.461z" fill="#f79173"/><path d="m543.854 396.295s107.9-72.858 109.386-79.293c1.707-7.39-4.195-15.726-4.426-30.711-.24-15.584 14.433-42.2 14.962-43.167 4.17-7.624 11.029 1.256 8.572 14.097-1.952 10.201-6.839 15.353 1.432 18.94 8.018 3.477 22.212-9.314 30.093-17.674 7.882-8.359 33.795-55.141 39.408-43.468 2.409 5.01-23.167 48.006-20.54 49.439s47.028-52.738 49.82-38.362c1.343 6.917-37.639 46.96-35.012 49.826s42.668-42.191 46.095-29.616c1.757 6.448-39.644 44.143-38.691 46.334 2.388 5.493 36.303-19.107 37.736-9.314.27 1.846-9.621 9.775-48.51 37.261-28.379 20.057-41.732 22.052-45.082 26.798-46.682 66.134-115.149 121.755-115.149 121.755-8.45 3.767-35.183-68.128-30.094-72.845z" fill="#ffb493"/><path d="m652.702 317.912s30.209 19.36 23.759 19.151c-10.753-.348-30.435-14.032-29.588-13.775z" fill="#f79173"/><path d="m275.345 438.78c-2.647-16.864-.946-20.012.204-31.586l-52.575-11.004c.958 1.89 1.519 8.564 1.738 16.344.443 15.737-.277 20.722-.311 22.985-.263 17.494 51.759 9.283 50.944 3.261 0 0 3.654 23.277 0 0z" fill="#ffb493"/><path d="m275.141 438.169s-27.645-2.935-50.333-19.359c-.179-11.171-.234-18.508-1.834-22.619l53.186 10.8c-3.672 13.094-1.019 31.178-1.019 31.178z" fill="#f79173"/><path d="m168.972 340.151c-3.323 9.02 5.904 24.787 15.895 28.122 7.094 2.368 13.941-.989 13.449-1.63 3.467 7.063 9.752 21.383 25.943 32.274 7.216 4.854 23.503 15.522 45.89 12.976 4.276-.486 28.335-6.741 42.284-26.502 19.563-27.714 3.954-57.342 4.483-59.911 2.853-13.857 5.298-24.453-4.076-41.163-22.823-45.646-60.787-38.149-63.421-38.1-4.634.086-48.204 1.588-62.663 35.762-10.567 24.975 8.657 55.397 5.447 52.468-8.251-7.532-19.275-3.949-23.231 5.704z" fill="#ffb493"/><path d="m275.824 345.197c-1.5-3.386 9.499-13.841 14.848-11.537 1.672.72 3.026 2.787 3.016 4.759-.013 2.684-2.549 4.505-3.723 5.348-5.002 3.593-13.056 3.879-14.141 1.43z" fill="#f89578"/><path d="m194.558 339.193c17.406-28.167 49.468-50.204 113.713-63.179-1.279.258-16.639-39.906-70.571-30.285-32.787 6.772-54.147 26.374-54.147 53.277 0 21.204 11.005 40.187 11.005 40.187z" fill="#f79173"/><circle cx="243.133" cy="346.539" fill="url(#a)" r="17.565"/><path d="m300.42 346.061c-1.438-7.572 2.688-14.716 9.215-15.955 6.839-.807 9.232 2.519 9.232 2.519 1.959 6.31 3.009 12.584 3.453 18.835 0 0-2.002 5.955-7.478 6.068-6.166 1.148-13.113-4.576-14.422-11.467z" fill="url(#b)"/><circle cx="298.903" cy="319.813" fill="#020202" r="6.488"/><circle cx="249.971" cy="319.813" fill="#020202" r="6.488"/><path d="m258.635 357.268c-.804.134 12.726 15.113 22.828 15.208 10.47.099 22.047-14.613 23.81-16.938.094-.123.004-.3-.15-.294-4.279.156-44.042 1.617-46.488 2.024z" fill="#fff"/><path d="m258.618 357.239c1.1-4.167 45.312-3.949 46.773-1.838" fill="#fa8e79"/><path d="m312.68 295.829c1.638.96 2.642 2.889-.607 2.635-8.258-.645-18.261-1.087-19.316-1.786-1.859-1.231.339-3.951 2.269-4.571 4.687-1.506 14.181 1.686 17.654 3.722z" fill="#bc7f63"/><path d="m332.543 260.706c5.931-11 .442-18.574-15.191-23.103-4.803-10.008-15.324-11.962-29.433-8.861-8.545-11.747-22.794-14.595-43.358-7.595-16.14-15.507-38.826-7.417-48.421 15.507-15.634 5.225-21.188 13.26-20.255 23.103-15.129-.312-21.244 9.516-18.672 29.116-13.925 2.532-11.077 19.305-7.596 20.571-1.036 6.21 1.012 10.395 7.912 11.393-6.462 12.133-2.831 20.123 10.76 21.837.633-6.013 8.326-15.758 19.584-10.368 2.84 1.36 5.098 3.699 6.392 6.57 4.848 10.752 6.305 16.457 6.305 16.457s10.418-27.147.316-36.079c8.105-4.644 11.485-15.255 12.343-29.749 12.545 3.535 22.284 1.019 28.167-9.811 9.078 4.713 19.158 2.305 30.382-8.228 7.332 18.931 18.111 26.422 33.863 17.406 16.554 15.332 43.992-1.265 26.902-28.166zm-179.127 47.472s-4.058-6.143-1.582-11.077c1.39-2.769 5.697-4.747 5.697-4.747-4.354 4.477-5.309 9.863-4.115 15.824zm5.38 23.103c-1.231-3.672.009-7.849 3.165-10.444-.652 7.273.659 13.674 3.481 16.457 0 0-5.34-2.117-6.646-6.013zm51.586-106.654c3.189-5.623 9.101-8.941 15.191-8.545 5.813.378 11.393 6.33 11.393 6.33-4.354-3.311-18.398-5.866-26.584 2.215zm100.324 18.04c.032-5.521-5.73-8.702-17.406-9.494 0 0 18.273-.861 19.622 4.747.422 1.755-2.216 4.747-2.216 4.747zm14.558 46.206c7.329-4.657 9.509-11.9 4.431-22.786 0 0 6.117 6.523 4.747 12.976-1.315 6.191-9.178 9.81-9.178 9.81z" fill="#bc7f63"/><path d="m189.178 368.942c2.599 7.099 7.887 11.372 15.824 9.494-2.422-4.081-5.091-8.533-6.646-12.026-2.551 2.209-5.745 2.692-9.178 2.532z" fill="#bc7f63"/><path d="m231.591 298.186c-2.226.717-3.896 2.883.142 3.587 10.265 1.79 22.621 4.396 24.073 3.83 2.558-.996.485-5.197-1.737-6.609-5.399-3.428-17.758-2.329-22.478-.808z" fill="#bc7f63"/></svg>