<svg xmlns="http://www.w3.org/2000/svg"  viewBox="0 0 128 128" width="204px" height="204px"><path fill="#e6e7e8" d="M106.985,40.073,79.539,12.627a1,1,0,0,0-.707-.293H27.667a3,3,0,0,0-3,3V116.667a3,3,0,0,0,3,3h76.666a3,3,0,0,0,3-3V40.831A1,1,0,0,0,106.985,40.073Z"/><path fill="#d4fbff" d="M102.332,36.833l-27.5-27.5H23.667a2,2,0,0,0-2,2V112.667a2,2,0,0,0,2,2h76.666a2,2,0,0,0,2-2V36.833Z"/><path fill="#6dc9f7" d="M21.667,91v21.667a2,2,0,0,0,2,2h76.666a2,2,0,0,0,2-2V91Z"/><path fill="#fff" d="M23.667,12.333H77.832l-3-3H23.667a2,2,0,0,0-2,2v3A2,2,0,0,1,23.667,12.333Z"/><path fill="#6dc9f7" d="M74.834,9.333l0,0v25.5a2,2,0,0,0,2,2h25.5Z"/><path fill="#0089ef" d="M56.46,60.08H67.54a6.289,6.289,0,0,0,6.289-6.289V42.68a6.289,6.289,0,0,0-6.289-6.289H56.46a6.289,6.289,0,0,0-6.289,6.289v6.013H44.158a6.289,6.289,0,0,0-6.289,6.289v11.08a6.289,6.289,0,0,0,6.289,6.289h6.013V66.369A6.289,6.289,0,0,1,56.46,60.08Z"/><path fill="#fa759e" d="M79.842,48.693H73.829v5.1A6.289,6.289,0,0,1,67.54,60.08H56.46a6.289,6.289,0,0,0-6.289,6.289v12a6.289,6.289,0,0,0,6.289,6.289H67.54a6.289,6.289,0,0,0,6.289-6.289V72.351h6.013a6.289,6.289,0,0,0,6.289-6.289V54.982A6.289,6.289,0,0,0,79.842,48.693Z"/><path fill="#3a2c60" d="M36.23,97.348H32.541a.945.945,0,0,0-.683.24.9.9,0,0,0-.247.675v8.776a.963.963,0,0,0,.262.712.942.942,0,0,0,.7.262.906.906,0,0,0,.975-.974v-3.225H36.23a3.8,3.8,0,0,0,2.641-.855,3.473,3.473,0,0,0,0-4.763A3.817,3.817,0,0,0,36.23,97.348Zm-.239,4.98H33.546v-3.48h2.445q1.993,0,1.995,1.74T35.991,102.328Z"/><path fill="#3a2c60" d="M48.725,97.273a.805.805,0,0,0-.644.331l-3.06,3.81L41.946,97.6a.811.811,0,0,0-.646-.331.859.859,0,0,0-.614.263.834.834,0,0,0-.27.622.887.887,0,0,0,.224.571l3.406,4.154v4.156a.937.937,0,0,0,.27.719.983.983,0,0,0,.7.255.966.966,0,0,0,.69-.255.944.944,0,0,0,.27-.719v-4.156l3.4-4.154a.879.879,0,0,0,.226-.571.835.835,0,0,0-.271-.622A.856.856,0,0,0,48.725,97.273Z"/><path fill="#3a2c60" d="M58.25,97.348h-7.4c-.6,0-.9.265-.9.8s.3.795.9.795h2.73v8.1a.941.941,0,0,0,.262.7.964.964,0,0,0,.713.263.9.9,0,0,0,.96-.96v-8.1h2.73c.6,0,.9-.266.9-.795S58.85,97.348,58.25,97.348Z"/><path fill="#3a2c60" d="M68.554,97.273a.915.915,0,0,0-.689.263.957.957,0,0,0-.255.7v3.54H62.2v-3.54a.9.9,0,0,0-.96-.96.916.916,0,0,0-.69.263.957.957,0,0,0-.255.7v8.806a.968.968,0,0,0,.262.7.911.911,0,0,0,.683.27.927.927,0,0,0,.7-.27.965.965,0,0,0,.263-.7v-3.7H67.61v3.7a.981.981,0,0,0,.255.7,1.006,1.006,0,0,0,1.372,0,.965.965,0,0,0,.263-.7V98.233a.957.957,0,0,0-.255-.7A.92.92,0,0,0,68.554,97.273Z"/><path fill="#3a2c60" d="M79.167,97.874a5.77,5.77,0,0,0-5.363,0,4.368,4.368,0,0,0-1.747,1.882,7.08,7.08,0,0,0,.007,5.752,4.4,4.4,0,0,0,1.748,1.89,5.731,5.731,0,0,0,5.34,0,4.4,4.4,0,0,0,1.747-1.89,7.074,7.074,0,0,0,.008-5.752A4.382,4.382,0,0,0,79.167,97.874Zm-.405,7.634a3.089,3.089,0,0,1-4.56,0,5.465,5.465,0,0,1,0-5.752,3.1,3.1,0,0,1,4.56,0,5.465,5.465,0,0,1,0,5.752Z"/><path fill="#3a2c60" d="M91.474,97.273a.856.856,0,0,0-.652.263.974.974,0,0,0-.247.7v6.48l-5.46-7.095a.845.845,0,0,0-.721-.345.9.9,0,0,0-.675.263.957.957,0,0,0-.255.7v8.806a1.018,1.018,0,0,0,.241.7.942.942,0,0,0,1.32,0,1.021,1.021,0,0,0,.239-.7v-6.5l5.476,7.125a.948.948,0,0,0,1.394.075.981.981,0,0,0,.255-.7V98.233a.974.974,0,0,0-.247-.7A.875.875,0,0,0,91.474,97.273Z"/><path fill="#3a2c60" d="M103,36.085,75.539,8.626a1,1,0,0,0-.707-.293H23.667a3,3,0,0,0-3,3V28.4a1,1,0,0,0,2,0V11.333a1,1,0,0,1,1-1H73.832v24.5a3,3,0,0,0,3,3h24.5V90H22.667V46.57a1,1,0,1,0-2,0v66.1a3,3,0,0,0,3,3h76.667a3,3,0,0,0,3-3V36.831A1,1,0,0,0,103,36.085ZM75.832,34.833V11.748L99.918,35.833H76.832A1,1,0,0,1,75.832,34.833Zm24.5,78.833H23.667a1,1,0,0,1-1-1V92h78.667v20.666A1,1,0,0,1,100.334,113.666Z"/><path fill="#3a2c60" d="M21.667,43.4a1,1,0,0,0,1-1V32.9a1,1,0,0,0-2,0v9.5A1,1,0,0,0,21.667,43.4Z"/><path fill="#3a2c60" d="M67.54,35.391H56.46a7.3,7.3,0,0,0-7.289,7.289v5.013H44.158a7.3,7.3,0,0,0-7.289,7.289v11.08a7.3,7.3,0,0,0,7.289,7.289h5.013v5.013a7.3,7.3,0,0,0,7.289,7.289H67.54a7.3,7.3,0,0,0,7.289-7.289V73.351h5.013a7.3,7.3,0,0,0,7.289-7.289V54.982a7.3,7.3,0,0,0-7.289-7.289H74.829V42.68A7.3,7.3,0,0,0,67.54,35.391ZM44.158,71.351a5.3,5.3,0,0,1-5.289-5.289V54.982a5.3,5.3,0,0,1,5.289-5.289H60.385a1,1,0,1,0,0-2H51.171V42.68a5.3,5.3,0,0,1,5.289-5.289H67.54a5.3,5.3,0,0,1,5.289,5.289V53.791A5.3,5.3,0,0,1,67.54,59.08H56.46a7.3,7.3,0,0,0-7.289,7.289v4.982ZM79.842,49.693a5.3,5.3,0,0,1,5.289,5.289v11.08a5.3,5.3,0,0,1-5.289,5.289H63.615a1,1,0,0,0,0,2h9.214v5.013a5.3,5.3,0,0,1-5.289,5.289H56.46a5.3,5.3,0,0,1-5.289-5.289v-12A5.3,5.3,0,0,1,56.46,61.08H67.54a7.3,7.3,0,0,0,7.289-7.289v-4.1Z"/><path fill="#fff" d="M55.262,41.486a1.8,1.8,0,1,0,1.8,1.8A1.8,1.8,0,0,0,55.262,41.486Z"/><path fill="#fff" d="M68.738,75.626a1.8,1.8,0,1,0,1.8,1.8A1.8,1.8,0,0,0,68.738,75.626Z"/></svg>