<svg height="399.065" viewBox="0 0 529.429 399.065" width="529.429" xmlns="http://www.w3.org/2000/svg"><path d="m294.637 291.341c24.1 33.1 42.3 71.9 66.4 105 84.2-14.3 129.7-62 165.4-121.9-24.1-33.1-48.3-66.2-72.3-99.2-35.6 59.8-91.4 100.6-159.5 116.1z" fill="#fff"/><path d="m359.928 399.065-.912-1.253c-12.122-16.648-22.905-34.977-33.333-52.7-10.368-17.622-21.089-35.845-33.067-52.3l-2.233-3.067 3.7-.842a243.918 243.918 0 0 0 157.905-114.941l1.94-3.258 2.23 3.067q20.142 27.695 40.419 55.466 15.944 21.857 31.881 43.732l.971 1.334-.845 1.417c-20.593 34.553-41.277 59.566-65.093 78.719-28.681 23.064-62.057 37.577-102.036 44.366zm-61.078-106.146c11.238 15.822 21.346 33 31.142 49.654 10.1 17.175 20.543 34.919 32.155 51.039 88.071-15.481 131.046-68.621 161.3-119.036q-15.438-21.2-30.9-42.393-19.142-26.239-38.209-52.428a248.624 248.624 0 0 1 -155.488 113.164z" fill="#5b2448"/><path d="m453.037 223.541c-5.1 1.8-7.8 2.6-13.2 4.2 1.7-6.6 2.5-10 4-16.9 5.1-1.8 7.6-2.7 12.4-4.7-1.2 7.1-1.8 10.6-3.2 17.4z" fill="#f94f46"/><path d="m392.137 372.541c-7.2-.8-10.8-1.2-18.1-2.3 3.4-4.1 5.2-6.3 8.5-10.8 7.2.8 10.7 1 17.8 1.5-3.2 4.7-4.8 7-8.2 11.6z" fill="#f94f46"/><path d="m420.237 333.141c-10.2-13.9-20.4-28.1-30.6-42a308.136 308.136 0 0 0 35.9-26.2c10.2 13.9 20.4 28.1 30.6 42a333.237 333.237 0 0 1 -35.9 26.2z" fill="#f94f46"/><path d="m474.437 274.141c-5.7 7-17.2 9.1-22.7 1.3-5.7-8.1-2.4-20 3.7-27.3 5.2-6.4 15.9-10.3 21.5-2.4 5.7 8.4 4 20.5-2.5 28.4z" fill="#f4ada2"/><path d="m477.637 268.741-17.7-24.3c3.6-7.9 5.3-12 8.3-20.3 8.1 11.1 16.3 22.3 24.3 33.5-5.7 4.6-8.6 6.799-14.9 11.1z" fill="#f94f46"/><path d="m362.537 315.44c9-3.4 21.2-2.9 27.1 4.9 5.8 7.6.2 17.9-8.2 21.1-9.5 3.6-21.6 1.5-27.7-6.4-6-7.6 1.2-16.6 8.8-19.6z" fill="#f4ada2"/><path d="m357.737 318.44 17.7 24.3a168.722 168.722 0 0 1 -15.3 10.7c-8.1-11.1-16.3-22.3-24.3-33.5a159.773 159.773 0 0 0 21.9-1.5z" fill="#f94f46"/><path d="m87.537 4.741c-28.2 51.9-56.3 103.6-84.6 155.6 52 74.2 125.8 116.1 215.1 121.8 28.2-51.9 56.3-103.6 84.6-155.6-89.5-5.8-163.1-47.601-215.1-121.8z" fill="#fff"/><g fill="#5b2448"><path d="m219.471 284.738-1.593-.1c-44.795-2.859-86.047-14.815-122.611-35.533-36.515-20.692-68.267-50.074-94.378-87.33l-.889-1.268.741-1.361c28.3-52 56.4-103.7 84.6-155.6l1.926-3.546 2.317 3.306c25.682 36.645 56.861 65.516 92.673 85.809 35.855 20.319 76.411 32.071 120.541 34.931l3.9.253-1.87 3.437c-28.3 52-56.4 103.7-84.6 155.6zm-213.596-124.567c25.509 36.043 56.407 64.5 91.857 84.582 35.466 20.1 75.455 31.8 118.873 34.787 27.325-50.291 54.562-100.4 81.978-150.78-43.384-3.335-83.333-15.2-118.791-35.294-35.386-20.053-66.312-48.3-91.973-84.008-27.311 50.263-54.535 100.349-81.944 150.713z"/><path d="m116.037 171.041a13.689 13.689 0 0 1 6.6-6 36.908 36.908 0 0 0 -16.1 1.9c6.4-11.6 9.5-17.3 15.9-29a43.723 43.723 0 0 0 5.9 17.6 14.622 14.622 0 0 1 2.1-10.5c3.9-6 11.9-7.6 18.5-4.2.2 0 .6.2.6.3a15.891 15.891 0 0 1 6.3 6.8 393.828 393.828 0 0 0 19.6 36.7c-13.9 3.3-27.9 6.3-42.1 8.3a8.662 8.662 0 0 0 -1 .2 13.5 13.5 0 0 1 -4.9-.1 16.1 16.1 0 0 1 -5.1-1.6 15.02 15.02 0 0 1 -6.3-20.4z"/><path d="m250.893 154.345c-3.925 0-8.136-.1-13.16-.307l.208-5a264.164 264.164 0 0 0 33.517-.514 187.431 187.431 0 0 1 -25.716-10.74l2.189-4.5a186.884 186.884 0 0 0 28.979 11.77l3.022.982-1.666 2.706a12.54 12.54 0 0 0 -.722 1.395 14.524 14.524 0 0 1 -1.127 2.081l-.683 1.024-1.228.084c-9.373.646-15.944 1.019-23.613 1.019z"/><path d="m246.873 140.859-4.472-2.237c.909-1.818 1.646-3.162 2.358-4.462.571-1.042 1.155-2.108 1.856-3.466l4.443 2.293c-.723 1.4-1.325 2.5-1.914 3.576-.722 1.317-1.404 2.562-2.271 4.296z"/><path d="m238.473 156.359-4.473-2.237c.909-1.818 1.646-3.162 2.358-4.462.571-1.042 1.155-2.108 1.856-3.466l4.443 2.293c-.723 1.4-1.325 2.5-1.914 3.576-.721 1.317-1.403 2.562-2.27 4.296z"/><path d="m254.454 153.5-4.434-2.309c2.539-4.875 3.832-7.261 6.429-11.956l4.375 2.421c-2.574 4.644-3.856 7.012-6.37 11.844z"/><path d="m39.421 186.172a272.1 272.1 0 0 1 -18.04-32.853l-.587-1.229.714-1.16a12.54 12.54 0 0 0 .722-1.4 14.424 14.424 0 0 1 1.127-2.081l1.626-2.44 2.152 1.992a205.224 205.224 0 0 0 24.846 20.199l-2.888 4.082a202 202 0 0 1 -21.923-17.46 257.561 257.561 0 0 0 16.483 29.688z"/><path d="m41.658 189.687-4.443-2.293c.724-1.4 1.326-2.5 1.915-3.575.722-1.318 1.4-2.562 2.271-4.3l4.472 2.236c-.909 1.818-1.646 3.162-2.358 4.462-.572 1.046-1.155 2.112-1.857 3.47z"/><path d="m50.158 174.087-4.443-2.293c.724-1.4 1.326-2.5 1.915-3.576.722-1.317 1.4-2.562 2.271-4.295l4.472 2.236c-.909 1.818-1.646 3.162-2.358 4.462-.572 1.042-1.155 2.108-1.857 3.466z"/><path d="m35.924 173.651-4.375-2.42c2.579-4.662 3.861-7.028 6.371-11.845l4.434 2.31c-2.534 4.865-3.828 7.252-6.43 11.955z"/></g></svg>