<svg xmlns="http://www.w3.org/2000/svg"  viewBox="0 0 128 128" width="204px" height="204px"><path fill="#e6e7e8" d="M123.395,108.293H114.4V49.768c0-3.859-3.14-7-7-7H85.138c0.177-0.527,0.337-1.06,0.47-1.602h2.518 c1.309,0,2.373-1.064,2.373-2.373v-4.931c0-1.309-1.064-2.373-2.373-2.373h-2.518c-0.485-1.976-1.265-3.854-2.325-5.603 l1.784-1.784c0.924-0.926,0.924-2.431,0-3.355l-3.487-3.486c-0.925-0.926-2.431-0.925-3.356,0l-1.784,1.783 c-1.749-1.061-3.627-1.84-5.602-2.325v-2.518c0-1.309-1.065-2.373-2.374-2.373h-4.931c-1.309,0-2.373,1.064-2.373,2.373v2.518 c-1.975,0.485-3.854,1.265-5.603,2.325l-1.784-1.783c-0.924-0.926-2.431-0.926-3.356,0l-3.487,3.486 c-0.925,0.925-0.925,2.43,0,3.356l1.783,1.783c-1.06,1.748-1.839,3.627-2.325,5.603h-2.518c-1.309,0-2.373,1.064-2.373,2.373v4.931 c0,1.309,1.064,2.373,2.373,2.373h2.518c0.133,0.542,0.293,1.075,0.47,1.602H24.6c-3.86,0-7,3.141-7,7v58.525H8.605 c-0.552,0-1,0.447-1,1v3.934c0,3.83,3.116,6.945,6.945,6.945h102.898c3.83,0,6.946-3.115,6.946-6.945v-3.934 C124.395,108.74,123.947,108.293,123.395,108.293z M58.055,42.768c-1.43-1.76-2.29-4-2.29-6.439 c0-5.644,4.591-10.235,10.235-10.235s10.235,4.592,10.235,10.235c0,2.439-0.86,4.679-2.29,6.439H58.055z"/><path fill="#0089ef" d="M62,43.563c3.348,0,6.345-1.472,8.403-3.796H53.597C55.655,42.091,58.652,43.563,62,43.563z"/><path fill="#0089ef" d="M103.401,39.767H79.692c-0.465,1.103-1.028,2.156-1.681,3.143l2.35,2.35c0.536,0.536,0.536,1.406,0,1.942 l-3.487,3.487c-0.536,0.536-1.406,0.536-1.942,0l-2.35-2.35c-2.014,1.334-4.293,2.3-6.743,2.798v3.318 c0,0.758-0.615,1.373-1.373,1.373h-4.931c-0.758,0-1.373-0.615-1.373-1.373v-3.318c-2.45-0.497-4.729-1.464-6.743-2.798 l-2.35,2.35c-0.536,0.536-1.406,0.536-1.942,0l-3.487-3.487c-0.536-0.536-0.536-1.406,0-1.942l2.35-2.35 c-0.654-0.987-1.216-2.039-1.681-3.143H20.599c-3.314,0-6,2.686-6,6v59.526h94.801V45.767 C109.401,42.454,106.714,39.767,103.401,39.767z"/><path fill="#d4fbff" d="M100.372,48.604H78.957l-2.084,2.084c-0.536,0.536-1.406,0.536-1.942,0l-2.084-2.084h-0.712 c-1.905,1.189-4.023,2.07-6.298,2.532v3.318c0,0.758-0.615,1.373-1.373,1.373h-4.931c-0.758,0-1.373-0.615-1.373-1.373v-3.318 c-2.275-0.462-4.393-1.343-6.298-2.532h-0.712l-2.084,2.084c-0.536,0.536-1.406,0.536-1.942,0l-2.084-2.084H23.628 c-1.105,0-2,0.896-2,2v54.689h80.745V50.604C102.372,49.5,101.477,48.604,100.372,48.604z"/><path fill="#fff" d="M26.628,48.605h-3c-1.105,0-2,0.895-2,2v54.688h3V50.605C24.628,49.5,25.523,48.605,26.628,48.605z"/><path fill="#0089ef" d="M4.605,105.293v3.933c0,3.283,2.662,5.945,5.945,5.945h102.898c3.284,0,5.946-2.662,5.946-5.945v-3.933H4.605 z"/><path fill="#0089ef" d="M4.605,105.293v3.933c0,3.283,2.662,5.945,5.945,5.945h102.898c3.284,0,5.946-2.662,5.946-5.945v-3.933H4.605 z"/><path fill="#6dc9f7" d="M42.949,105.293v1.991c0,1.662,1.347,3.009,3.009,3.009h32.083c1.662,0,3.01-1.348,3.01-3.009v-1.991H42.949z"/><rect width="15.236" height="5.152" x="54.382" y="94.931" fill="#0089ef"/><path fill="#6dc9f7" d="M54.248,94.931h15.503c1.231,0,2.229-0.998,2.229-2.229v-0.67c0-1.231-0.998-2.229-2.229-2.229H54.248 c-1.231,0-2.229,0.998-2.229,2.229v0.67C52.019,93.933,53.017,94.931,54.248,94.931z"/><polygon fill="#d4fbff" points="52.61,77.401 62,64.405 71.39,77.401 69.618,89.802 54.382,89.802"/><circle cx="62" cy="79.482" r="1.47" fill="#6dc9f7"/><g><circle cx="80.608" cy="59.425" r="2.349" fill="#0089ef"/><circle cx="43.392" cy="59.425" r="2.349" fill="#0089ef"/><rect width="4.135" height="4.135" x="75.256" y="74.749" fill="#0089ef"/><rect width="4.135" height="4.135" x="44.609" y="74.749" fill="#0089ef"/></g><g><path fill="#fa759e" d="M85.5,34.793v-4.931c0-0.758-0.615-1.373-1.373-1.373h-3.318c-0.497-2.45-1.464-4.729-2.798-6.743l2.35-2.35 c0.536-0.536,0.536-1.406,0-1.942l-3.487-3.487c-0.536-0.536-1.406-0.536-1.942,0l-2.35,2.35c-2.014-1.334-4.293-2.3-6.743-2.798 v-3.318c0-0.758-0.615-1.373-1.373-1.373h-4.931c-0.758,0-1.373,0.615-1.373,1.373v3.318c-2.45,0.497-4.729,1.464-6.743,2.798 l-2.35-2.35c-0.536-0.536-1.406-0.536-1.942,0l-3.487,3.487c-0.536,0.536-0.536,1.406,0,1.942l2.35,2.35 c-1.334,2.014-2.3,4.293-2.798,6.743h-3.318c-0.758,0-1.373,0.615-1.373,1.373v4.931c0,0.758,0.615,1.373,1.373,1.373h3.318 c0.497,2.45,1.464,4.729,2.798,6.743l-2.35,2.35c-0.536,0.536-0.536,1.406,0,1.942l3.487,3.487c0.536,0.536,1.406,0.536,1.942,0 l2.35-2.35c2.014,1.334,4.293,2.3,6.743,2.798v3.318c0,0.758,0.615,1.373,1.373,1.373h4.931c0.758,0,1.373-0.615,1.373-1.373 v-3.318c2.45-0.497,4.729-1.464,6.743-2.798l2.35,2.35c0.536,0.536,1.406,0.536,1.942,0l3.487-3.487 c0.536-0.536,0.536-1.406,0-1.942l-2.35-2.35c1.334-2.014,2.3-4.293,2.798-6.743h3.318C84.885,36.167,85.5,35.552,85.5,34.793z M62,43.563c-6.205,0-11.235-5.03-11.235-11.235c0-6.205,5.03-11.235,11.235-11.235c6.205,0,11.235,5.03,11.235,11.235 C73.235,38.533,68.205,43.563,62,43.563z"/><path fill="#3a2c60" d="M102.375,81.53c-0.552,0-1,0.447-1,1v9.748c0,0.553,0.448,1,1,1s1-0.447,1-1V82.53 C103.375,81.977,102.927,81.53,102.375,81.53z"/><path fill="#3a2c60" d="M119.395,104.293H110.4V45.768c0-3.859-3.14-7-7-7H81.139c0.177-0.526,0.337-1.059,0.47-1.601h2.518 c1.309,0,2.373-1.065,2.373-2.374v-4.931c0-1.309-1.064-2.373-2.373-2.373h-2.518c-0.485-1.976-1.265-3.854-2.325-5.603 l1.783-1.783c0.925-0.926,0.925-2.431,0-3.356l-3.487-3.486c-0.924-0.926-2.431-0.925-3.356,0l-1.784,1.783 c-1.749-1.061-3.627-1.84-5.602-2.325v-2.518c0-1.309-1.065-2.373-2.374-2.373h-4.931c-1.309,0-2.373,1.064-2.373,2.373v2.518 c-1.975,0.485-3.854,1.265-5.603,2.325l-1.784-1.783c-0.924-0.926-2.431-0.926-3.356,0l-3.487,3.486 c-0.925,0.926-0.925,2.431,0,3.356l1.783,1.783c-1.06,1.748-1.839,3.627-2.325,5.603h-2.518c-1.309,0-2.373,1.064-2.373,2.373 v4.931c0,1.309,1.064,2.374,2.373,2.374h2.518c0.133,0.542,0.293,1.074,0.47,1.601H20.6c-3.86,0-7,3.141-7,7v58.525H4.605 c-0.552,0-1,0.447-1,1v3.934c0,3.83,3.116,6.945,6.945,6.945h102.898c3.83,0,6.946-3.115,6.946-6.945v-3.934 C120.395,104.74,119.947,104.293,119.395,104.293z M103.4,40.768c2.757,0,5,2.243,5,5v58.525h-5.028v-7.181c0-0.553-0.448-1-1-1 s-1,0.447-1,1v7.181H22.627V50.604c0-0.552,0.449-1,1-1h21.001l1.791,1.791c0.926,0.927,2.432,0.926,3.356,0l1.784-1.783 c1.748,1.06,3.626,1.839,5.603,2.324v2.519c0,1.309,1.064,2.373,2.373,2.373h4.931c1.309,0,2.374-1.064,2.374-2.373v-2.519 c1.976-0.485,3.854-1.265,5.602-2.324l1.784,1.783c0.925,0.927,2.432,0.926,3.356,0l1.791-1.791h21.001c0.551,0,1,0.448,1,1 v27.341c0,0.553,0.448,1,1,1s1-0.447,1-1V50.604c0-1.654-1.346-3-3-3H81.315c0.661-0.926,0.583-2.221-0.248-3.052l-1.784-1.783 c0.393-0.648,0.734-1.32,1.049-2.002H103.4z M39.873,35.167c-0.206,0-0.373-0.168-0.373-0.374v-4.931 c0-0.206,0.167-0.373,0.373-0.373h3.318c0.476,0,0.885-0.335,0.98-0.801c0.464-2.284,1.356-4.435,2.651-6.39 c0.263-0.396,0.21-0.924-0.126-1.26l-2.35-2.35c-0.146-0.146-0.146-0.383,0-0.528l3.487-3.486c0.146-0.146,0.382-0.144,0.528,0 l2.35,2.35c0.336,0.337,0.863,0.389,1.259,0.127c1.957-1.297,4.107-2.188,6.39-2.651c0.466-0.095,0.801-0.505,0.801-0.98v-3.318 c0-0.206,0.167-0.373,0.373-0.373h4.931c0.206,0,0.374,0.167,0.374,0.373v3.318c0,0.476,0.335,0.886,0.801,0.98 c2.283,0.463,4.432,1.354,6.39,2.651c0.397,0.262,0.923,0.21,1.259-0.127l2.35-2.35c0.146-0.146,0.383-0.144,0.528,0 l3.487,3.486c0.146,0.146,0.146,0.383,0,0.528l-2.35,2.35c-0.336,0.336-0.389,0.863-0.126,1.26 c1.295,1.955,2.188,4.105,2.651,6.39c0.095,0.466,0.504,0.801,0.98,0.801h3.318c0.206,0,0.373,0.167,0.373,0.373v4.931 c0,0.206-0.167,0.374-0.373,0.374h-3.318c-0.476,0-0.885,0.335-0.98,0.801c-0.464,2.283-1.356,4.434-2.652,6.391 c-0.262,0.396-0.209,0.923,0.127,1.259l2.35,2.35c0.146,0.146,0.146,0.382,0,0.527l-3.487,3.487 c-0.146,0.146-0.383,0.144-0.528,0l-2.35-2.35c-0.336-0.337-0.863-0.389-1.259-0.127c-1.955,1.295-4.105,2.188-6.39,2.652 c-0.466,0.095-0.801,0.504-0.801,0.979v3.318c0,0.206-0.167,0.373-0.374,0.373h-4.931c-0.206,0-0.373-0.167-0.373-0.373v-3.318 c0-0.476-0.335-0.885-0.801-0.979c-2.285-0.465-4.436-1.357-6.391-2.652c-0.169-0.111-0.361-0.166-0.552-0.166 c-0.258,0-0.514,0.1-0.708,0.293l-2.35,2.35c-0.146,0.144-0.382,0.146-0.528,0l-3.487-3.487c-0.146-0.146-0.146-0.382,0-0.527 l2.35-2.35c0.336-0.336,0.389-0.862,0.127-1.259c-1.296-1.957-2.188-4.107-2.652-6.391c-0.095-0.466-0.504-0.801-0.98-0.801 H39.873z M15.6,45.768c0-2.757,2.243-5,5-5h23.068c0.315,0.682,0.656,1.354,1.049,2.002l-1.784,1.783 c-0.831,0.83-0.909,2.126-0.248,3.052H23.627c-1.654,0-3,1.346-3,3v53.688H15.6V45.768z M118.395,109.227 c0,2.727-2.219,4.945-4.946,4.945H10.55c-2.727,0-4.945-2.219-4.945-4.945v-2.934h112.79V109.227z"/><path fill="#3a2c60" d="M70.746,88.975l1.634-11.433c0.037-0.257-0.027-0.518-0.179-0.728l-9.39-12.995 c-0.376-0.52-1.245-0.52-1.621,0l-9.39,12.995c-0.152,0.21-0.216,0.471-0.179,0.728l1.634,11.433 c-1.292,0.422-2.235,1.625-2.235,3.056v0.67c0,1.478,1.005,2.715,2.363,3.096v4.285c0,0.553,0.448,1,1,1h15.236 c0.552,0,1-0.447,1-1v-4.285c1.358-0.382,2.363-1.618,2.363-3.096v-0.67C72.981,90.6,72.039,89.397,70.746,88.975z M62,79.013 c0.259,0,0.47,0.211,0.47,0.47s-0.211,0.47-0.47,0.47s-0.47-0.211-0.47-0.47S61.741,79.013,62,79.013z M61,67.496v9.732 c-0.864,0.385-1.47,1.249-1.47,2.254c0,1.361,1.108,2.47,2.47,2.47s2.47-1.108,2.47-2.47c0-1.005-0.606-1.869-1.47-2.254v-9.732 l7.343,10.163l-1.592,11.143H55.249l-1.592-11.143L61,67.496z M68.618,99.082H55.382v-3.151h13.236V99.082z M70.981,92.701 c0,0.678-0.552,1.229-1.229,1.229H54.249c-0.678,0-1.229-0.552-1.229-1.229v-0.67c0-0.678,0.552-1.229,1.229-1.229h15.503 c0.678,0,1.229,0.552,1.229,1.229V92.701z"/><path fill="#3a2c60" d="M80.607,56.077c-1.496,0-2.751,0.992-3.179,2.349H46.572c-0.428-1.356-1.683-2.349-3.179-2.349 c-1.847,0-3.349,1.502-3.349,3.349s1.502,3.349,3.349,3.349c1.496,0,2.751-0.992,3.179-2.349h7.609 c-4.786,2.623-8.104,7.578-8.454,13.323h-1.118c-0.552,0-1,0.447-1,1v4.136c0,0.553,0.448,1,1,1h4.135c0.552,0,1-0.447,1-1 v-4.136c0-0.553-0.448-1-1-1h-1.017C48.244,66.318,54.44,60.426,62,60.426s13.756,5.892,14.273,13.323h-1.017 c-0.552,0-1,0.447-1,1v4.136c0,0.553,0.448,1,1,1h4.135c0.552,0,1-0.447,1-1v-4.136c0-0.553-0.448-1-1-1h-1.118 c-0.351-5.745-3.668-10.7-8.454-13.323h7.609c0.428,1.356,1.683,2.349,3.179,2.349c1.847,0,3.349-1.502,3.349-3.349 S82.454,56.077,80.607,56.077z M43.393,60.774c-0.744,0-1.349-0.605-1.349-1.349s0.605-1.349,1.349-1.349 c0.744,0,1.349,0.605,1.349,1.349S44.136,60.774,43.393,60.774z M47.744,77.885h-2.135v-2.136h2.135V77.885z M78.391,77.885 h-2.135v-2.136h2.135V77.885z M80.607,60.774c-0.744,0-1.349-0.605-1.349-1.349s0.605-1.349,1.349-1.349 c0.744,0,1.349,0.605,1.349,1.349S81.352,60.774,80.607,60.774z"/><path fill="#3a2c60" d="M62,44.563c6.746,0,12.235-5.488,12.235-12.235S68.746,20.093,62,20.093s-12.235,5.488-12.235,12.235 S55.254,44.563,62,44.563z M56.221,40.768h11.558c-1.646,1.131-3.636,1.796-5.779,1.796 C59.857,42.563,57.867,41.898,56.221,40.768z M62,22.093c5.644,0,10.235,4.592,10.235,10.235c0,2.439-0.86,4.679-2.29,6.439 h-15.89c-1.429-1.76-2.29-4-2.29-6.439C51.765,26.685,56.356,22.093,62,22.093z"/></g></svg>