<svg xmlns="http://www.w3.org/2000/svg"  viewBox="0 0 256 256" width="204px" height="204px"><g id="Layer_39"><path fill="#edf4fc" d="M197.536,170V24.466c0-6.787-5.553-12.341-12.341-12.341H84.828L34.426,62.526V170H197.536z"/><ellipse cx="116" cy="84.943" fill="#f98fa6" rx="39.629" ry="9.229"/><path fill="#fc657e" d="M116,94.171c-21.886,0-39.629-4.132-39.629-9.229v52.114c0,5.097,17.742,9.229,39.629,9.229 s39.629-4.132,39.629-9.229V84.943C155.629,90.04,137.886,94.171,116,94.171z"/><path fill="#fc657e" d="M34.426,170v51.534c0,6.787,5.553,12.341,12.341,12.341h138.428c6.787,0,12.341-5.553,12.341-12.341V170 H34.426z"/><path d="M185.195,236.375H46.767c-8.184,0-14.841-6.658-14.841-14.841V170c0-1.381,1.119-2.5,2.5-2.5s2.5,1.119,2.5,2.5v51.534 c0,5.426,4.415,9.841,9.841,9.841h138.429c5.426,0,9.84-4.415,9.84-9.841V170c0-1.381,1.119-2.5,2.5-2.5s2.5,1.119,2.5,2.5 v51.534C200.035,229.717,193.378,236.375,185.195,236.375z"/><path fill="#c7d7e5" d="M34.426,62.526h38.061c6.787,0,12.341-5.553,12.341-12.341V12.125L34.426,62.526z"/><path fill="#f5c84c" d="M223.918,131.551c-4.149,0.773-7.419,3.976-8.208,8.041c-0.04,0.204-0.325,0.204-0.364,0 c-0.789-4.065-4.059-7.268-8.208-8.041c-0.208-0.039-0.208-0.318,0-0.357c4.149-0.773,7.419-3.976,8.208-8.041 c0.04-0.204,0.325-0.204,0.364,0c0.789,4.065,4.059,7.268,8.208,8.041C224.126,131.233,224.126,131.512,223.918,131.551z"/><path fill="#87d147" d="M119.412,250.253c-2.91,0.542-5.204,2.789-5.757,5.64c-0.028,0.143-0.228,0.143-0.255,0 c-0.553-2.851-2.847-5.098-5.757-5.64c-0.146-0.027-0.146-0.223,0-0.25c2.91-0.542,5.204-2.789,5.757-5.64 c0.028-0.143,0.228-0.143,0.255,0c0.553,2.851,2.847,5.098,5.757,5.64C119.559,250.03,119.559,250.225,119.412,250.253z"/><circle cx="73.981" cy="3.377" r="3.377" fill="#f5c84c"/><circle cx="210.981" cy="102.377" r="3.377" fill="#fc657e"/><path fill="#70d6f9" d="M54.454,10.758h-1.824V8.933c0-1.366-1.107-2.473-2.473-2.473s-2.473,1.107-2.473,2.473v1.824H45.86 c-1.366,0-2.473,1.107-2.473,2.473s1.107,2.473,2.473,2.473h1.824v1.824c0,1.366,1.107,2.473,2.473,2.473 s2.473-1.107,2.473-2.473v-1.824h1.824c1.366,0,2.473-1.107,2.473-2.473S55.819,10.758,54.454,10.758z"/><circle cx="87.365" cy="245.627" r="3.377" fill="#70d6f9"/><path d="M197.535,172.5H34.426c-1.381,0-2.5-1.119-2.5-2.5V62.526c0-0.663,0.264-1.299,0.732-1.768L83.06,10.357 c0.469-0.469,1.104-0.732,1.768-0.732h100.368c8.183,0,14.84,6.658,14.84,14.841V170 C200.035,171.381,198.916,172.5,197.535,172.5z M36.926,167.5h158.109V24.466c0-5.426-4.414-9.841-9.84-9.841H85.862 L36.926,63.562V167.5z"/><path d="M72.487,65.026H35.426c-1.381,0-2.5-1.119-2.5-2.5s1.119-2.5,2.5-2.5h37.062c5.426,0,9.84-4.415,9.84-9.841V13.125 c0-1.381,1.119-2.5,2.5-2.5s2.5,1.119,2.5,2.5v37.061C87.327,58.369,80.67,65.026,72.487,65.026z"/><path d="M89.842,197.854c-3.524-1.133-6.952-2.08-6.952-5.749c0-2.934,2.041-4.381,4.918-4.381c3.306,0,5.247,2.031,5.688,4.34 c0.045,0.236,0.251,0.406,0.491,0.406h4.389c0.299,0,0.535-0.264,0.496-0.563c-0.604-4.699-4.372-8.452-11.064-8.452 c-6.052,0-10.307,3.286-10.307,8.784c0,6.139,4.153,7.802,9.529,9.568c3.738,1.179,7.174,2.307,7.174,6.061 c0,2.586-1.607,4.605-5.053,4.605c-3.757,0-5.913-2.483-6.176-5.103c-0.025-0.256-0.24-0.45-0.497-0.45h-4.344 c-0.293,0-0.525,0.251-0.498,0.544c0.51,5.791,5.573,9.278,11.648,9.278c6.533,0,10.263-4.068,10.263-9.008 C99.548,201.401,95.338,199.634,89.842,197.854z"/><path d="M127.675,214.319c12.584-7.923,8.491-30.863-8.7-30.863c-13.954,0-19.501,15.102-13.963,25.256 c3.705,6.795,11.366,9.342,18.38,7.507l6.154,6.197c0.094,0.094,0.222,0.147,0.354,0.147h5.15c0.45,0,0.67-0.551,0.346-0.861 L127.675,214.319z M118.975,188.262c14.446,0,14.508,23.719,0,23.719c-4.064,0-7.529-1.863-9.43-5.55v0 C105.962,199.491,108.854,188.262,118.975,188.262z"/><path d="M155.201,212.25h-10.695v-27.891c0-0.276-0.224-0.5-0.5-0.5h-4.075c-0.276,0-0.5,0.224-0.5,0.5v31.57 c0,0.276,0.224,0.5,0.5,0.5h15.271c0.276,0,0.5-0.224,0.5-0.5v-3.179C155.701,212.474,155.478,212.25,155.201,212.25z"/><path d="M116,96.671c-15.647,0-42.129-2.47-42.129-11.729S100.353,73.214,116,73.214s42.129,2.47,42.129,11.729 S131.647,96.671,116,96.671z M78.888,84.943C79.89,87.33,93.291,91.671,116,91.671s36.11-4.342,37.112-6.729 c-1.002-2.387-14.403-6.729-37.112-6.729S79.89,82.556,78.888,84.943z M153.137,85.009h0.011H153.137z"/><path d="M116,148.786c-15.647,0-42.129-2.47-42.129-11.729V85.943c0-1.381,1.119-2.5,2.5-2.5s2.5,1.119,2.5,2.5v51.114 c0.769,2.305,14.207,6.729,37.129,6.729s36.36-4.424,37.137-6.795l-0.008-51.048c0-1.381,1.119-2.5,2.5-2.5s2.5,1.119,2.5,2.5 v51.114C158.129,146.315,131.647,148.786,116,148.786z"/><g><path d="M116,114.043c-15.647,0-42.129-2.47-42.129-11.729c0-1.381,1.119-2.5,2.5-2.5s2.5,1.119,2.5,2.5 c0.769,2.305,14.207,6.729,37.129,6.729s36.36-4.424,37.137-6.795c0-1.381,1.115-2.467,2.496-2.467s2.496,1.152,2.496,2.533 C158.129,111.573,131.647,114.043,116,114.043z"/></g><g><path d="M116,131.414c-15.647,0-42.129-2.47-42.129-11.729c0-1.381,1.119-2.5,2.5-2.5s2.5,1.119,2.5,2.5 c0.768,2.305,14.206,6.729,37.129,6.729s36.361-4.423,37.137-6.795c0-1.38,1.115-2.467,2.496-2.467s2.496,1.152,2.496,2.533 C158.129,128.944,131.647,131.414,116,131.414z"/></g></g></svg>