<svg xmlns="http://www.w3.org/2000/svg" version="1.1" viewBox="0 0 3000 3000" width="3000" height="3000">
<defs/><!--ITEM: Upload 1--><g transform="translate(260.0 292.0) rotate(0.0 1162.0 769.0)  scale(2.023246439948148 2.025792634175833)"><svg width="1148.649" height="759.209" viewBox="0.0 0.0 1148.649 759.209"><g id="TanyaV_x5F_30.05-i1">
</g>
<g id="TanyaV_x5F_16.06-i1">
</g>
<g id="TanyaV_x5F_04.08-i1">
</g>
<g id="TanyaV_x5F_14.08-i1">
</g>
<g id="Layer_5-i1">
	<g>
		<path style="fill:#FECE2F;" d="M19.395,598.105c-31.759-79.512-21.454-170.726,8.821-250.815    C88.757,187.136,230.187,59.98,395.857,16.756s351.195-1.372,482.263,108.791c53.258,44.764,98.152,100.732,123.72,165.435    s30.802,138.476,7.941,204.185c-22.652,65.11-71.451,119.009-129.102,156.808c-57.651,37.799-123.903,60.631-190.924,76.774    c-103.665,24.97-210.978,34.607-317.441,28.838c-51.637-2.798-103.243-8.899-153.791-19.796    c-39.616-8.54-75.132-10.513-110.681-33.019C68.285,679.73,36.754,641.565,19.395,598.105z"/>
		<path style="fill:#FECE2F;" d="M952.931,139.413c-16.038-24.198-26.398-49.545-20.39-73.541    c6.254-24.967,32.1-41.645,57.791-43.197s50.702,9.426,71.805,24.161c37.164,25.95,65.416,64.423,79.052,107.65    c7.866,24.937,10.856,52.365,2.27,77.064c-8.441,24.281-35.13,51.54-62.896,48.347c-15.333-1.763-27.849-13.059-37.351-25.222    C1013.244,216.314,979.911,180.119,952.931,139.413z"/>
	</g>
</g>
</svg></g><!--ITEM: Illustration component 2--><g transform="translate(1802.0 568.0) rotate(0.0 455.0 578.0)  scale(2.0033727109815644 2.001963864205891)"><svg width="454.234" height="577.433" viewBox="0.0 0.0 454.234 577.433"><path d="m427.234 575.433h-400.234c-13.807 0-25-11.193-25-25v-523.433c0-13.807 11.193-25 25-25h400.234c13.807 0 25 11.193 25 25v523.433c0 13.807-11.193 25-25 25z" fill="#fece2f"/><g fill="#1a1a1a"><path d="m427.234 577.433h-400.234c-14.888 0-27-12.112-27-27v-523.433c0-14.888 12.112-27 27-27h400.234c14.888 0 27 12.112 27 27v523.433c0 14.888-12.112 27-27 27zm-400.234-573.433c-12.682 0-23 10.318-23 23v523.433c0 12.682 10.318 23 23 23h400.234c12.682 0 23-10.318 23-23v-523.433c0-12.682-10.318-23-23-23z"/><path d="m452.234 60.239h-450.234v-33.239c0-13.807 11.193-25 25-25h400.234c13.807 0 25 11.193 25 25z"/><path d="m452.234 62.239h-450.234c-1.104 0-2-.896-2-2v-33.239c0-14.888 12.112-27 27-27h400.234c14.888 0 27 12.112 27 27v33.239c0 1.105-.895 2-2 2zm-448.234-4h446.234v-31.239c0-12.682-10.318-23-23-23h-400.234c-12.682 0-23 10.318-23 23z"/></g><circle cx="42.114" cy="31.12" fill="#fff" r="13.235"/><path d="m42.115 46.355c-8.4 0-15.235-6.834-15.235-15.235s6.834-15.235 15.235-15.235 15.235 6.834 15.235 15.235-6.835 15.235-15.235 15.235zm0-26.47c-6.195 0-11.235 5.04-11.235 11.235s5.04 11.235 11.235 11.235 11.235-5.04 11.235-11.235-5.041-11.235-11.235-11.235z" fill="#1a1a1a"/><circle cx="86.147" cy="31.12" fill="#fff" r="13.235"/><path d="m86.147 46.355c-8.4 0-15.234-6.834-15.234-15.235s6.834-15.235 15.234-15.235 15.235 6.834 15.235 15.235-6.834 15.235-15.235 15.235zm0-26.47c-6.195 0-11.234 5.04-11.234 11.235s5.04 11.235 11.234 11.235 11.235-5.04 11.235-11.235-5.04-11.235-11.235-11.235z" fill="#1a1a1a"/><circle cx="130.181" cy="31.12" fill="#fff" r="13.235"/><path d="m130.18 46.355c-8.4 0-15.235-6.834-15.235-15.235s6.834-15.235 15.235-15.235 15.235 6.834 15.235 15.235-6.834 15.235-15.235 15.235zm0-26.47c-6.195 0-11.235 5.04-11.235 11.235s5.04 11.235 11.235 11.235 11.235-5.04 11.235-11.235-5.04-11.235-11.235-11.235z" fill="#1a1a1a"/></svg></g><!--ITEM: Illustration component 3--><g transform="translate(644.0 1106.0) rotate(0.0 967.0 826.0)  scale(2.000827643285744 2.001461115075533)"><svg width="966.6" height="825.397" viewBox="0.0 0.0 966.6 825.397"><path d="m600.237 715.081v-154.311h-233.874v154.311c0 23.882-8.117 47.054-23.02 65.715l-19.103 23.92h318.12l-19.102-23.92c-14.904-18.661-23.021-41.833-23.021-65.715z" fill="#fece2f"/><path d="m642.36 806.716h-318.12c-.769 0-1.469-.44-1.802-1.133s-.24-1.515.24-2.115l19.102-23.92c14.563-18.235 22.583-41.131 22.583-64.468v-154.31c0-1.104.896-2 2-2h233.874c1.104 0 2 .896 2 2v154.311c0 23.337 8.02 46.232 22.583 64.468l19.103 23.92c.48.601.573 1.423.24 2.115s-1.035 1.132-1.803 1.132zm-313.963-4h309.806l-16.509-20.672c-15.127-18.941-23.458-42.723-23.458-66.964v-152.31h-229.873v152.311c0 24.241-8.331 48.022-23.458 66.964z" fill="#1a1a1a"/><path d="m636.355 823.397h-306.11c-8.5 0-15.391-6.891-15.391-15.391v-1.634c0-8.5 6.891-15.391 15.391-15.391h306.109c8.5 0 15.391 6.891 15.391 15.391v1.634c.001 8.5-6.89 15.391-15.39 15.391z" fill="#fece2f"/><path d="m635.538 814.606h-304.476c-7.426 0-13.671-5-15.589-11.813-.394 1.4-.62 2.87-.62 4.396 0 8.952 7.257 16.208 16.208 16.208h304.476c8.951 0 16.208-7.256 16.208-16.208 0-1.526-.226-2.996-.619-4.396-1.918 6.813-8.162 11.813-15.588 11.813z" fill="#fff"/><g fill="#1a1a1a"><path d="m636.355 825.397h-306.109c-9.59 0-17.391-7.802-17.391-17.392v-1.634c0-9.59 7.802-17.392 17.391-17.392h306.109c9.59 0 17.391 7.802 17.391 17.392v1.634c0 9.59-7.802 17.392-17.391 17.392zm-306.109-32.417c-7.384 0-13.391 6.008-13.391 13.392v1.634c0 7.384 6.007 13.392 13.391 13.392h306.109c7.384 0 13.391-6.008 13.391-13.392v-1.634c0-7.384-6.007-13.392-13.391-13.392z"/><path d="m366.363 609.789c53.386 4.962 56.723 20.656 87.588 25.977 35.85 6.181 47.053-13.854 74.997-1.648 35.85 15.659 33.79 70.052 71.288 67.58 0-30.905 0-140.928 0-140.928h-233.873z"/><path d="m597.757 703.781c-19.837.001-28.605-15.689-37.866-32.261-7.889-14.116-16.047-28.714-31.742-35.568-14.157-6.185-23.878-3.713-35.133-.851-10.36 2.634-22.102 5.621-39.404 2.637-12.75-2.198-20.925-6.139-29.581-10.311-12.374-5.964-26.399-12.724-57.852-15.646-1.028-.096-1.815-.958-1.815-1.991v-49.02c0-1.104.896-2 2-2h233.874c1.104 0 2 .896 2 2v140.928c0 1.054-.817 1.927-1.868 1.996-.893.059-1.764.087-2.613.087zm-86.8-75.671c5.638 0 11.734 1.093 18.792 4.176 16.929 7.395 25.803 23.273 33.633 37.283 9.104 16.289 16.994 30.433 34.855 30.207v-137.006h-229.874v45.203c30.902 3.077 44.966 9.856 57.404 15.851 8.396 4.047 16.327 7.869 28.524 9.973 16.462 2.839 27.766-.036 37.738-2.572 6.219-1.582 12.252-3.115 18.928-3.115z"/><path d="m916.6 2h-866.6c-26.51 0-48 21.49-48 48v511.789c0 26.51 21.49 48 48 48h866.6c26.51 0 48-21.49 48-48v-511.789c0-26.51-21.49-48-48-48z"/><path d="m916.6 611.79h-866.6c-27.57 0-50-22.43-50-50v-511.79c0-27.571 22.43-50 50-50h866.6c27.57 0 50 22.43 50 50v511.79c0 27.57-22.43 50-50 50zm-866.6-607.79c-25.365 0-46 20.635-46 46v511.79c0 25.364 20.635 46 46 46h866.6c25.365 0 46-20.636 46-46v-511.79c0-25.364-20.635-46-46-46z"/></g><path d="m964.6 517.914h-962.6v43.875c0 26.51 21.49 48 48 48h866.6c26.51 0 48-21.49 48-48z" fill="#fece2f"/><path d="m914.053 600.403h-861.505c-27.917 0-50.548-22.63-50.548-50.547v9.386c0 27.917 22.631 50.547 50.547 50.547h861.505c27.917 0 50.547-22.631 50.547-50.547v-9.386c.001 27.917-22.63 50.547-50.546 50.547z" fill="#fff"/><path d="m916.6 611.79h-866.6c-27.57 0-50-22.43-50-50v-43.875c0-1.104.896-2 2-2h962.6c1.104 0 2 .896 2 2v43.875c0 27.57-22.43 50-50 50zm-912.6-91.875v41.875c0 25.364 20.635 46 46 46h866.6c25.365 0 46-20.636 46-46v-41.875z" fill="#1a1a1a"/><circle cx="483.906" cy="563.34" fill="#fece2f" r="21.334"/><path d="m483.906 586.674c-12.866 0-23.334-10.468-23.334-23.334s10.468-23.334 23.334-23.334 23.334 10.468 23.334 23.334-10.467 23.334-23.334 23.334zm0-42.668c-10.661 0-19.334 8.673-19.334 19.334s8.673 19.334 19.334 19.334 19.334-8.673 19.334-19.334-8.673-19.334-19.334-19.334z" fill="#1a1a1a"/><path d="m483.906 542.006c-5.882 0-11.206 2.381-15.066 6.231 2.263-.817 4.692-1.286 7.236-1.286 11.783 0 21.334 9.552 21.334 21.334 0 5.901-2.397 11.241-6.269 15.104 8.215-2.967 14.098-10.81 14.098-20.049.001-11.782-9.55-21.334-21.333-21.334z" fill="#1a1a1a"/><path d="m491.143 585.389c-.67 0-1.314-.337-1.689-.929-.502-.791-.387-1.825.276-2.487 3.663-3.654 5.681-8.516 5.681-13.688 0-10.661-8.673-19.334-19.334-19.334-2.207 0-4.413.393-6.556 1.167-.883.32-1.866-.018-2.368-.81-.502-.791-.387-1.825.276-2.487 4.405-4.395 10.257-6.814 16.478-6.814 12.866 0 23.334 10.468 23.334 23.334 0 9.786-6.196 18.6-15.418 21.93-.224.08-.454.118-.68.118zm-13.411-40.38c12.097.852 21.679 10.966 21.679 23.275 0 2.922-.533 5.761-1.554 8.407 3.374-3.526 5.383-8.281 5.383-13.352 0-10.661-8.673-19.334-19.334-19.334-2.131.001-4.21.344-6.174 1.004z" fill="#1a1a1a"/></svg></g><!--ITEM: Illustration component 4--><g transform="translate(438.0 2416.0) rotate(0.0 419.0 171.0)  scale(2.0036151146220864 2.0088341713265354)"><svg width="418.244" height="170.248" viewBox="0.0 0.0 418.244 170.248"><path d="m211.018 104.611c-.68 0-1.354-.001-2.034-.004-64.81-.273-127.816-13.592-187.266-39.586-16.64-7.276-24.231-26.663-16.956-43.302 7.276-16.641 26.663-24.233 43.303-16.956 102.391 44.769 219.881 45.28 322.343 1.402 16.695-7.15 36.024.589 43.173 17.283 7.149 16.695-.589 36.024-17.283 43.173-58.873 25.211-121.202 37.99-185.28 37.99z" fill="#fece2f"/><path d="m4.765 27.12c7.275-16.64 26.663-24.232 43.302-16.955 102.391 44.768 219.881 45.28 322.343 1.402 16.695-7.15 36.024.589 43.173 17.283 1.435 3.351 2.26 6.808 2.544 10.251.433-5.181-.354-10.54-2.544-15.652-7.149-16.695-26.478-24.434-43.173-17.284-102.462 43.879-219.952 43.367-322.343-1.402-16.639-7.277-36.027.315-43.302 16.955-2.268 5.187-3.09 10.64-2.645 15.911.287-3.533 1.145-7.08 2.645-10.509z" fill="#fff"/><path d="m211.018 106.611c-.684 0-1.361-.001-2.044-.004-65.084-.274-128.356-13.649-188.057-39.754-8.538-3.733-15.11-10.566-18.507-19.242s-3.213-18.156.52-26.693c3.733-8.538 10.567-15.111 19.243-18.509 8.676-3.397 18.156-3.212 26.693.521 101.887 44.549 218.797 45.057 320.754 1.396 8.565-3.669 18.047-3.781 26.697-.318s15.434 10.087 19.102 18.652c7.572 17.682-.653 38.228-18.335 45.799-59.115 25.316-121.717 38.152-186.066 38.152zm-176.118-102.62c-3.807 0-7.617.713-11.268 2.143-7.682 3.008-13.732 8.827-17.037 16.386-6.822 15.603.322 33.847 15.924 40.668 59.199 25.884 121.937 39.146 186.473 39.418.679.003 1.349.004 2.026.004 63.805 0 125.877-12.727 184.493-37.828 15.654-6.704 22.936-24.894 16.232-40.548-3.248-7.583-9.254-13.448-16.912-16.514-7.658-3.065-16.052-2.965-23.636.282-50.924 21.809-105.556 32.706-160.206 32.708-55.85.002-111.718-11.375-163.725-34.115-3.966-1.734-8.162-2.604-12.364-2.604z" fill="#1a1a1a"/><path d="m195.722 74.592c-4.116-1.912-5.903-6.798-3.991-10.914l15.125-32.561c1.912-4.116 6.798-5.903 10.914-3.991 4.116 1.912 5.903 6.798 3.991 10.914l-15.125 32.561c-1.911 4.116-6.798 5.902-10.914 3.991z" fill="#fff"/><path d="m199.169 77.356c-1.439 0-2.9-.305-4.289-.95-5.109-2.374-7.335-8.461-4.962-13.571l15.125-32.561c2.373-5.109 8.459-7.336 13.57-4.962 5.109 2.374 7.336 8.461 4.963 13.571l-15.125 32.561c-1.729 3.72-5.427 5.912-9.282 5.912zm-2.604-4.578c3.108 1.444 6.813.089 8.258-3.02l15.125-32.561c1.444-3.109.089-6.813-3.02-8.258-3.11-1.445-6.813-.09-8.257 3.019l-15.125 32.562c-1.444 3.109-.09 6.813 3.019 8.258z" fill="#1a1a1a"/><path d="m141.946 73.809c-4.116-1.912-5.903-6.798-3.991-10.914l15.125-32.561c1.912-4.116 6.798-5.903 10.914-3.991 4.116 1.912 5.903 6.798 3.991 10.914l-15.125 32.561c-1.912 4.116-6.798 5.903-10.914 3.991z" fill="#fff"/><path d="m145.402 76.579c-1.467 0-2.929-.32-4.299-.957-2.475-1.15-4.354-3.194-5.292-5.758-.938-2.563-.82-5.338.33-7.813l15.125-32.561c2.374-5.109 8.46-7.335 13.571-4.962 5.11 2.374 7.336 8.462 4.962 13.571l-15.125 32.561c-1.15 2.475-3.195 4.354-5.758 5.292-1.144.419-2.331.627-3.514.627zm15.14-49c-2.346 0-4.597 1.333-5.648 3.598l-15.125 32.561c-.7 1.506-.771 3.195-.201 4.754s1.714 2.804 3.22 3.503c1.505.7 3.194.771 4.754.201s2.804-1.714 3.504-3.22l15.125-32.561c.7-1.506.771-3.194.201-4.754s-1.714-2.804-3.22-3.504c-.845-.393-1.734-.578-2.61-.578z" fill="#1a1a1a"/><path d="m250.728 73.026c-4.116-1.912-5.903-6.798-3.991-10.914l15.125-32.561c1.912-4.116 6.798-5.903 10.914-3.991 4.116 1.912 5.903 6.798 3.991 10.914l-15.125 32.561c-1.911 4.116-6.798 5.903-10.914 3.991z" fill="#fff"/><path d="m254.185 75.797c-1.467 0-2.929-.32-4.299-.957-2.475-1.15-4.354-3.194-5.292-5.758-.938-2.563-.82-5.338.33-7.813l15.125-32.561c1.15-2.475 3.195-4.354 5.758-5.292 2.562-.937 5.337-.82 7.813.33 2.475 1.149 4.354 3.194 5.291 5.758.938 2.563.82 5.338-.329 7.813l-15.125 32.561c-1.149 2.475-3.194 4.354-5.758 5.292-1.144.418-2.331.627-3.514.627zm15.133-49.004c-.72 0-1.442.126-2.139.381-1.56.57-2.804 1.714-3.503 3.22l-15.125 32.561c-.7 1.506-.771 3.194-.201 4.754s1.714 2.804 3.22 3.503c1.506.699 3.194.771 4.754.201s2.804-1.714 3.503-3.22l15.125-32.561c1.444-3.109.09-6.813-3.019-8.257-.832-.387-1.722-.582-2.615-.582z" fill="#1a1a1a"/><path d="m89.511 67.157c-4.116-1.912-5.903-6.798-3.991-10.914l15.125-32.561c1.912-4.116 6.798-5.903 10.914-3.991 4.116 1.912 5.903 6.798 3.991 10.914l-15.125 32.561c-1.911 4.116-6.798 5.903-10.914 3.991z" fill="#fff"/><path d="m92.957 69.921c-1.439 0-2.9-.305-4.289-.95-5.109-2.374-7.335-8.461-4.962-13.571l15.125-32.561c1.149-2.475 3.194-4.354 5.758-5.292 2.562-.938 5.337-.82 7.813.33 2.475 1.149 4.354 3.194 5.292 5.758.938 2.563.82 5.337-.329 7.812l-15.125 32.561c-1.729 3.721-5.427 5.913-9.283 5.913zm-2.604-4.578c3.111 1.445 6.814.089 8.258-3.02l15.125-32.561c1.444-3.109.09-6.813-3.019-8.257-1.507-.7-3.196-.771-4.755-.201-1.56.57-2.804 1.714-3.503 3.22l-15.125 32.561c-1.444 3.109-.09 6.814 3.019 8.258z" fill="#1a1a1a"/><path d="m306.685 63.244c-4.116-1.912-5.903-6.798-3.991-10.914l15.125-32.561c1.912-4.116 6.798-5.903 10.914-3.991 4.116 1.912 5.903 6.798 3.991 10.914l-15.125 32.561c-1.912 4.116-6.798 5.903-10.914 3.991z" fill="#fff"/><g fill="#1a1a1a"><path d="m310.141 66.014c-1.467 0-2.928-.32-4.298-.956-5.109-2.374-7.335-8.461-4.962-13.571l15.125-32.561c2.375-5.109 8.463-7.334 13.571-4.962 5.109 2.373 7.335 8.461 4.962 13.571l-15.125 32.561c-1.149 2.475-3.194 4.354-5.758 5.292-1.145.417-2.332.626-3.515.626zm-2.614-4.584c1.506.7 3.195.771 4.754.2 1.56-.57 2.804-1.714 3.503-3.22l15.126-32.56c1.444-3.109.09-6.814-3.019-8.258-1.507-.7-3.195-.771-4.755-.201s-2.804 1.714-3.503 3.22l-15.125 32.561c-1.444 3.109-.089 6.814 3.019 8.258z"/><path d="m374.218 49.004c13.029 8.965 29.964 10.361 38.676 1.832-5.183 10.165-12.573 14.808-23.605 19.089-10.358-17.18-15.071-20.921-15.071-20.921z"/><path d="m389.29 71.925c-.684 0-1.342-.353-1.713-.968-9.902-16.424-14.57-20.36-14.616-20.398-.827-.681-.978-1.897-.333-2.753s1.843-1.057 2.725-.45c12.591 8.665 28.467 9.566 36.144 2.05.7-.686 1.794-.762 2.583-.183.79.581 1.042 1.647.597 2.521-5.545 10.874-13.548 15.731-24.663 20.044-.238.093-.483.137-.724.137zm-6.963-16.324c2.095 2.899 4.686 6.755 7.795 11.842 6.75-2.729 12.008-5.664 16.181-10.362-6.935 2.37-15.591 1.85-23.976-1.48z"/><path d="m44.818 49.004c-13.029 8.966-29.964 10.362-38.676 1.832 5.558 9.597 12.573 14.808 23.605 19.089 10.358-17.18 15.071-20.921 15.071-20.921z"/><path d="m29.746 71.925c-.242 0-.486-.044-.723-.136-11.962-4.642-19.093-10.422-24.611-19.95-.501-.866-.286-1.968.503-2.582.791-.613 1.912-.549 2.626.15 7.675 7.515 23.551 6.615 36.143-2.05.888-.611 2.101-.409 2.742.458.638.862.481 2.074-.352 2.746-.105.088-4.776 4.08-14.614 20.396-.372.616-1.03.968-1.714.968zm-16.457-14.66c3.95 4.238 8.859 7.387 15.627 10.174 3.109-5.086 5.699-8.939 7.792-11.837-8.161 3.242-16.58 3.82-23.419 1.663zm31.529-8.261h.01z"/></g><path d="m388.386 116.843c-6.789 14.536-19.582 26.187-36.21 31.019-46.795 13.597-94.927 20.386-143.049 20.386-43.532 0-87.063-5.549-129.607-16.676-4.494-1.172-8.978-2.412-13.452-3.709-30.632-8.9-48.258-40.956-39.358-71.597 8.9-30.632 40.956-48.258 71.597-39.348 72.498 21.054 149.131 21.054 221.629 0 30.642-8.91 62.697 8.716 71.597 39.348 4.068 14.012 2.596 28.316-3.147 40.577z" fill="#fece2f"/><path d="m209.127 170.247c-43.865 0-87.641-5.633-130.113-16.741-4.376-1.142-8.92-2.394-13.503-3.723-31.647-9.195-49.915-42.426-40.721-74.077 4.453-15.329 14.611-28.006 28.602-35.696 13.992-7.692 30.141-9.471 45.474-5.014 72.13 20.947 148.382 20.947 220.513 0 15.331-4.457 31.481-2.677 45.473 5.014 13.99 7.69 24.148 20.367 28.602 35.696 4.049 13.947 2.892 28.856-3.255 41.982-7.283 15.593-20.938 27.291-37.464 32.094-46.737 13.58-95.053 20.465-143.608 20.465zm-127.027-133.653c-9.266 0-18.435 2.333-26.781 6.921-13.055 7.176-22.533 19.004-26.689 33.308-8.578 29.532 8.466 60.539 37.995 69.119 4.547 1.318 9.055 2.562 13.398 3.694 42.144 11.022 85.58 16.611 129.103 16.611 48.177 0 96.118-6.832 142.491-20.306 15.42-4.481 28.161-15.396 34.957-29.945 0-.001 0-.001.001-.002 5.736-12.247 6.815-26.159 3.037-39.172-4.155-14.303-13.633-26.131-26.688-33.307s-28.124-8.838-42.43-4.678c-72.862 21.16-149.885 21.158-222.745 0-5.16-1.5-10.42-2.243-15.649-2.243z" fill="#1a1a1a"/><path d="m388.386 116.843c-6.789 14.536-19.582 26.187-36.21 31.019-88.074 25.591-182.15 27.381-272.656 3.709 50.416-.378 43.215-30.315 99.363-11.554 64.92 21.693 66.864-16.538 86.628-33.208 14.159-11.941 37.111-11.66 50.979.62 4.997 4.436 8.881 10.159 14.527 13.723 16.99 10.717 38.545 8.314 57.369-4.309z" fill="#1a1a1a"/><path d="m209.09 170.226c-43.718 0-87.439-5.568-130.077-16.72-.971-.254-1.603-1.188-1.479-2.183.124-.996.966-1.745 1.969-1.752 20.727-.155 31.573-5.451 41.142-10.123 13.702-6.689 25.535-12.468 58.87-1.328 48.005 16.041 60.277-1.233 72.146-17.938 3.757-5.287 7.642-10.755 12.558-14.901 14.928-12.59 38.97-12.298 53.594.651 1.974 1.751 3.773 3.689 5.513 5.562 2.816 3.032 5.476 5.896 8.755 7.966 15.75 9.933 36.381 8.333 55.19-4.279.746-.5 1.733-.441 2.415.143s.891 1.551.511 2.365c-7.283 15.593-20.938 27.291-37.464 32.094-46.88 13.622-95.259 20.443-143.643 20.443zm-116.566-17.489c85.377 20.039 174.675 17.734 259.094-6.795 13.072-3.799 24.219-12.222 31.451-23.562-18.361 9.849-37.796 10.13-53.12.464-3.721-2.349-6.686-5.541-9.552-8.627-1.675-1.804-3.408-3.669-5.235-5.292-13.195-11.684-34.891-11.948-48.362-.587-4.528 3.82-8.098 8.843-11.876 14.161-12.122 17.059-25.862 36.395-76.674 19.416-31.784-10.621-42.402-5.436-55.848 1.129-7.742 3.778-16.285 7.949-29.878 9.693z" fill="#1a1a1a"/><ellipse cx="383.584" cy="22.367" fill="#fff" rx="12.758" ry="8.211"/></svg></g><!--ITEM: Illustration component 5--><g transform="translate(330.0 2094.0) rotate(0.0 239.0 332.0)  scale(2.0025220047004804 2.0018450740742972)"><svg width="238.699" height="331.694" viewBox="0.0 0.0 238.699 331.694"><path d="m221.31 72.071h-203.921l19.082 257.623h165.758z" fill="#fece2f"/><path d="m202.229 331.694h-165.759c-1.047 0-1.917-.808-1.995-1.852l-19.08-257.624c-.041-.555.151-1.101.529-1.509.378-.407.909-.639 1.465-.639h203.92c.556 0 1.087.232 1.465.639s.57.954.529 1.509l-19.081 257.623c-.076 1.045-.946 1.853-1.993 1.853zm-163.901-4h162.043l18.785-253.623h-199.613z" fill="#1a1a1a"/><path d="m236.699 72.071h-234.699l10.094-39.458h214.511z" fill="#fff"/><path d="m236.699 74.071h-234.699c-.618 0-1.201-.286-1.58-.774s-.511-1.124-.358-1.722l10.094-39.458c.227-.885 1.024-1.504 1.938-1.504h214.511c.914 0 1.711.619 1.938 1.504l10.094 39.458c.153.599.021 1.234-.358 1.722s-.962.774-1.58.774zm-232.123-4h229.547l-9.071-35.458h-211.405z" fill="#1a1a1a"/><path d="m205.962 32.613h-173.225l9.335-30.613h154.555z" fill="#fff"/><g fill="#1a1a1a"><path d="m205.962 34.613h-173.224c-.634 0-1.23-.3-1.607-.81-.377-.509-.491-1.167-.306-1.774l9.335-30.613c.256-.841 1.033-1.416 1.913-1.416h154.554c.88 0 1.656.575 1.913 1.417l9.335 30.613c.185.606.071 1.264-.306 1.774-.377.508-.974.809-1.607.809zm-170.524-4h167.823l-8.115-26.613h-151.593z"/><path d="m17.389 72.071 202.608 17.72 1.313-17.72z"/><path d="m219.997 91.791c-.058 0-.116-.003-.174-.008l-202.608-17.72c-1.066-.093-1.871-1.01-1.824-2.08.046-1.07.927-1.913 1.998-1.913h203.92c.556 0 1.087.232 1.465.639s.57.954.529 1.509l-1.312 17.72c-.04.534-.292 1.029-.699 1.376-.362.309-.822.477-1.295.477zm-156.785-17.72 154.94 13.551 1.003-13.551z"/><path d="m32.788 279.966c49.858-16.585 119.297-15.807 173.181 0l2.987-50.309-178.7 13.938z"/><path d="m32.787 281.966c-.392 0-.78-.115-1.113-.338-.514-.344-.839-.906-.882-1.523l-2.532-36.371c-.076-1.095.745-2.047 1.84-2.133l178.7-13.938c.573-.047 1.144.162 1.556.567.413.405.63.969.596 1.546l-2.987 50.309c-.036.608-.348 1.167-.846 1.517-.499.351-1.13.455-1.714.283-54.684-16.041-123.8-16.05-171.987-.021-.205.069-.419.102-.631.102zm84.16-16.102c29.662 0 60.082 3.829 87.174 11.489l2.703-45.523-174.436 13.605 2.217 31.838c23.981-7.604 52.788-11.409 82.342-11.409z"/></g><path d="m225.374 134.987-10.304 129.171h-191.442l-10.304-129.171z" fill="#fff"/><path d="m98.56 264.158h-74.932l-10.304-129.171h16.896c1.088 2.414 2.051 4.885 2.662 7.518 3.645 15.856-6.469 33.459.229 48.247 1.278 2.824 3.129 5.371 4.322 8.243 5.381 12.918-3.387 29.28 3.797 41.254 3.272 5.467 9.178 8.615 14.788 11.506 25.445 13.118 27.611 9.798 40.634 12.021.611.105 1.25.229 1.908.382z" fill="#fece2f"/><path d="m215.073 266.16h-191.447c-1.043 0-1.911-.801-1.994-1.841l-10.301-129.172c-.044-.556.146-1.106.524-1.516s.911-.643 1.469-.643h212.05c.558 0 1.091.233 1.469.643.379.41.569.959.524 1.516l-10.301 129.172c-.082 1.039-.95 1.841-1.993 1.841zm-189.601-4h187.754l9.982-125.172h-207.718z" fill="#1a1a1a"/><circle cx="118.112" cy="198.177" fill="#fece2f" r="42.314"/></svg></g><!--ITEM: Illustration component 6--><g transform="translate(330.0 752.0) rotate(0.0 379.0 239.0)  scale(2.0048932090193747 2.007753793940616)"><svg width="378.075" height="238.077" viewBox="0.0 0.0 378.075 238.077"><path d="m376.079 44.931v148.214c0 23.708-19.224 42.933-42.933 42.933h-288.212c-17.602 0-32.734-10.6-39.355-25.76-2.299-5.266-3.578-11.067-3.578-17.173v-148.214c0-23.709 19.224-42.933 42.933-42.933h288.213c23.708 0 42.932 19.224 42.932 42.933z" fill="#fece2f"/><g fill="#1a1a1a"><path d="m112.756 194.909c-3.663 0-7.325-1.397-10.119-4.192l-56.291-56.291c-5.589-5.589-5.589-14.65 0-20.238l56.291-56.291c5.588-5.589 14.65-5.589 20.238 0 5.589 5.589 5.589 14.65 0 20.238l-46.171 46.172 46.171 46.172c5.589 5.589 5.589 14.65 0 20.238-2.794 2.794-6.457 4.192-10.119 4.192z"/><path d="m112.756 196.909c-4.357 0-8.454-1.697-11.534-4.778l-56.291-56.291c-6.359-6.36-6.359-16.707 0-23.067l56.292-56.291c3.08-3.081 7.176-4.778 11.533-4.778s8.453 1.697 11.534 4.778 4.777 7.177 4.777 11.533-1.696 8.453-4.777 11.533l-44.757 44.758 44.757 44.758c3.081 3.081 4.777 7.177 4.777 11.533s-1.696 8.453-4.777 11.533c-3.082 3.082-7.177 4.779-11.534 4.779zm0-141.205c-3.289 0-6.38 1.281-8.705 3.606l-56.292 56.291c-4.799 4.8-4.799 12.61 0 17.41l56.292 56.291c2.325 2.325 5.417 3.606 8.705 3.606s6.38-1.281 8.705-3.606 3.605-5.417 3.605-8.705-1.28-6.38-3.605-8.705l-46.171-46.172c-.781-.781-.781-2.047 0-2.828l46.171-46.172c2.325-2.325 3.605-5.417 3.605-8.705s-1.28-6.38-3.605-8.705-5.417-3.606-8.705-3.606z"/><path d="m269.717 194.909c-3.663 0-7.325-1.397-10.119-4.192-5.589-5.589-5.589-14.65 0-20.238l46.171-46.172-46.171-46.172c-5.589-5.589-5.589-14.65 0-20.238 5.588-5.589 14.65-5.589 20.238 0l56.291 56.291c5.589 5.589 5.589 14.65 0 20.238l-56.291 56.291c-2.794 2.794-6.457 4.192-10.119 4.192z"/><path d="m269.717 196.909c-4.357 0-8.453-1.697-11.534-4.778-6.359-6.359-6.359-16.707 0-23.067l44.757-44.758-44.757-44.758c-6.359-6.36-6.359-16.707 0-23.067 3.08-3.081 7.176-4.778 11.534-4.778 4.357 0 8.453 1.697 11.534 4.778l56.291 56.291c3.081 3.081 4.777 7.177 4.777 11.533 0 4.357-1.696 8.453-4.777 11.533l-56.291 56.291c-3.081 3.083-7.177 4.78-11.534 4.78zm0-141.205c-3.289 0-6.38 1.281-8.705 3.606-4.8 4.8-4.8 12.61 0 17.41l46.171 46.172c.781.781.781 2.047 0 2.828l-46.171 46.172c-4.799 4.8-4.799 12.61 0 17.41 2.325 2.325 5.417 3.606 8.706 3.606 3.288 0 6.38-1.281 8.705-3.606l56.291-56.291c2.325-2.325 3.605-5.417 3.605-8.705s-1.28-6.38-3.605-8.705l-56.291-56.291c-2.326-2.325-5.418-3.606-8.706-3.606z"/><path d="m158.379 194.911c-2.269 0-4.571-.541-6.714-1.682-6.976-3.715-9.62-12.382-5.905-19.358l59.954-112.582c3.715-6.976 12.381-9.621 19.358-5.905 6.976 3.715 9.62 12.382 5.905 19.358l-59.954 112.582c-2.574 4.834-7.525 7.587-12.644 7.587z"/><path d="m158.379 196.911c-2.653 0-5.3-.663-7.654-1.917-3.846-2.048-6.664-5.471-7.935-9.638s-.844-8.58 1.205-12.426l59.955-112.581c2.048-3.846 5.47-6.664 9.637-7.935s8.581-.843 12.426 1.205c7.938 4.228 10.958 14.125 6.73 22.064l-59.955 112.582c-2.839 5.333-8.361 8.646-14.409 8.646zm59.982-141.213c-1.207 0-2.42.179-3.607.542-3.145.959-5.729 3.086-7.274 5.989l-59.955 112.582c-1.545 2.902-1.869 6.233-.909 9.378s3.086 5.729 5.989 7.275c1.778.947 3.775 1.448 5.774 1.448 4.566 0 8.735-2.501 10.879-6.527l59.955-112.582c3.19-5.992.912-13.462-5.08-16.653-1.808-.963-3.781-1.452-5.772-1.452z"/></g><path d="m110.557 189.64c-3.663 0-7.325-1.397-10.119-4.192l-56.291-56.291c-5.589-5.589-5.589-14.65 0-20.238l56.291-56.291c5.588-5.589 14.65-5.589 20.238 0 5.589 5.589 5.589 14.65 0 20.238l-46.171 46.172 46.171 46.172c5.589 5.589 5.589 14.65 0 20.238-2.794 2.795-6.456 4.192-10.119 4.192z" fill="#fff"/><path d="m110.557 191.641c-4.357 0-8.453-1.697-11.533-4.778l-56.291-56.291c-3.081-3.081-4.777-7.177-4.777-11.533s1.696-8.453 4.777-11.533l56.291-56.291c3.08-3.081 7.176-4.778 11.533-4.778s8.453 1.697 11.534 4.778 4.777 7.177 4.777 11.533-1.696 8.453-4.777 11.533l-44.757 44.758 44.757 44.758c3.081 3.081 4.777 7.177 4.777 11.533s-1.696 8.453-4.777 11.533c-3.08 3.081-7.177 4.778-11.534 4.778zm0-141.205c-3.289 0-6.38 1.281-8.705 3.606l-56.292 56.291c-2.325 2.325-3.605 5.417-3.605 8.705s1.28 6.38 3.605 8.705l56.291 56.291c2.325 2.325 5.417 3.606 8.705 3.606 3.289 0 6.38-1.281 8.705-3.606 2.326-2.325 3.606-5.417 3.606-8.705s-1.28-6.38-3.605-8.705l-46.171-46.172c-.781-.781-.781-2.047 0-2.828l46.171-46.172c2.325-2.325 3.605-5.417 3.605-8.705s-1.28-6.38-3.605-8.705-5.417-3.606-8.705-3.606z" fill="#1a1a1a"/><path d="m267.518 189.64c-3.663 0-7.325-1.397-10.119-4.192-5.589-5.589-5.589-14.65 0-20.238l46.171-46.172-46.171-46.172c-5.589-5.589-5.589-14.65 0-20.238 5.588-5.589 14.65-5.589 20.238 0l56.291 56.291c5.589 5.589 5.589 14.65 0 20.238l-56.291 56.291c-2.794 2.795-6.456 4.192-10.119 4.192z" fill="#fff"/><path d="m267.518 191.641c-4.357 0-8.454-1.697-11.534-4.778-3.081-3.081-4.777-7.177-4.777-11.533s1.696-8.453 4.777-11.533l44.757-44.758-44.757-44.758c-3.081-3.081-4.777-7.177-4.777-11.533s1.696-8.453 4.777-11.533c3.08-3.081 7.176-4.778 11.533-4.778s8.453 1.697 11.534 4.778l56.291 56.291c3.081 3.081 4.777 7.177 4.777 11.533s-1.696 8.453-4.777 11.533l-56.291 56.291c-3.079 3.081-7.175 4.778-11.533 4.778zm0-141.205c-3.289 0-6.38 1.281-8.705 3.606-2.326 2.325-3.606 5.417-3.606 8.705s1.28 6.38 3.605 8.705l46.171 46.172c.781.781.781 2.047 0 2.828l-46.171 46.172c-2.325 2.325-3.605 5.417-3.605 8.705s1.28 6.38 3.605 8.705 5.417 3.606 8.705 3.606 6.38-1.281 8.705-3.606l56.292-56.291c2.325-2.325 3.605-5.417 3.605-8.705s-1.28-6.38-3.605-8.705l-56.291-56.291c-2.325-2.325-5.416-3.606-8.705-3.606z" fill="#1a1a1a"/><path d="m156.181 189.643c-2.269 0-4.571-.541-6.714-1.682-6.976-3.715-9.62-12.382-5.905-19.358l59.954-112.582c3.715-6.976 12.381-9.621 19.358-5.905 6.976 3.715 9.62 12.382 5.905 19.358l-59.954 112.582c-2.574 4.834-7.526 7.587-12.644 7.587z" fill="#fff"/><path d="m156.18 191.643c-2.652 0-5.299-.663-7.654-1.917-3.846-2.048-6.664-5.471-7.935-9.638s-.843-8.58 1.205-12.426l59.955-112.582c2.048-3.846 5.47-6.664 9.637-7.935s8.581-.843 12.427 1.205c3.845 2.048 6.663 5.471 7.935 9.638 1.271 4.167.843 8.58-1.205 12.426l-59.955 112.582c-2.84 5.334-8.362 8.647-14.41 8.647zm59.982-141.213c-1.207 0-2.42.179-3.607.542-3.145.959-5.729 3.086-7.274 5.989l-59.954 112.582c-1.545 2.902-1.869 6.233-.909 9.379s3.086 5.729 5.988 7.275c1.779.947 3.775 1.448 5.774 1.448 4.566 0 8.735-2.501 10.879-6.527l59.955-112.582c1.546-2.903 1.869-6.233.909-9.379-.959-3.145-3.086-5.729-5.989-7.275-1.807-.963-3.78-1.452-5.772-1.452z" fill="#1a1a1a"/><path d="m287.943 1.998c-6.793 3.711-13.605 7.356-20.942 9.731-12.164 3.94-25.187 4.188-37.962 3.959-26.981-.458-54.219-2.815-80.752 2.099-16.601 3.072-32.944 8.987-49.821 8.329-18.871-.735-38.306-9.598-55.937-2.824-14.215 5.468-23.403 20.99-22.878 36.217.324 9.245 3.74 18.614 1.278 27.534-1.383 5.018-4.522 9.369-6.259 14.273-2.414 6.793-2.013 14.215-1.574 21.419.82 13.433 1.631 26.876 2.442 40.309.668 11.029 1.269 22.487-2.891 32.715-2.032 4.999-5.133 9.531-7.07 14.559-2.299-5.266-3.578-11.067-3.578-17.173v-148.214c0-23.709 19.224-42.933 42.933-42.933h243.011z" fill="#fff"/><path d="m331.075 238.077h-284.075c-25.916 0-47-21.084-47-47v-144.077c0-25.916 21.084-47 47-47h284.076c25.916 0 47 21.084 47 47v144.077c-.001 25.916-21.085 47-47.001 47zm-284.075-234.077c-23.711 0-43 19.29-43 43v144.077c0 23.71 19.29 43 43 43h284.076c23.71 0 43-19.29 43-43v-144.077c0-23.71-19.29-43-43-43z" fill="#1a1a1a"/></svg></g><!--ITEM: Illustration component 7--><g transform="translate(780.0 1230.0) rotate(0.0 831.0 409.0)  scale(2.0010860286388885 2.0033552526848144)"><svg width="830.549" height="408.315" viewBox="0.0 0.0 830.549 408.315"><path d="m568.962 408.315c-1.104 0-2-.896-2-2v-404.315c0-1.104.896-2 2-2s2 .896 2 2v404.315c0 1.104-.896 2-2 2z" fill="#fece2f"/><path d="m175.023 41.54h-173.023c-1.104 0-2-.896-2-2s.896-2 2-2h173.023c1.104 0 2 .896 2 2s-.895 2-2 2z" fill="#fece2f"/><path d="m292.249 41.54h-86.612c-1.104 0-2-.896-2-2s.896-2 2-2h86.612c1.104 0 2 .896 2 2s-.896 2-2 2z" fill="#fece2f"/><path d="m151.131 105.379h-57.292c-1.104 0-2-.896-2-2s.896-2 2-2h57.292c1.104 0 2 .896 2 2s-.896 2-2 2z" fill="#fece2f"/><path d="m289.677 105.379h-107.933c-1.104 0-2-.896-2-2s.896-2 2-2h107.934c1.104 0 2 .896 2 2s-.896 2-2.001 2z" fill="#fece2f"/><path d="m412.543 105.379h-93.332c-1.104 0-2-.896-2-2s.896-2 2-2h93.332c1.104 0 2 .896 2 2s-.895 2-2 2z" fill="#fff"/><path d="m499.273 105.379h-59.103c-1.104 0-2-.896-2-2s.896-2 2-2h59.104c1.104 0 2 .896 2 2s-.896 2-2.001 2z" fill="#fece2f"/><path d="m219.406 169.219h-125.567c-1.104 0-2-.896-2-2s.896-2 2-2h125.567c1.104 0 2 .896 2 2s-.895 2-2 2z" fill="#fece2f"/><path d="m338.707 169.219h-88.852c-1.104 0-2-.896-2-2s.896-2 2-2h88.852c1.104 0 2 .896 2 2s-.895 2-2 2z" fill="#fece2f"/><path d="m499.273 169.219h-132.193c-1.104 0-2-.896-2-2s.896-2 2-2h132.193c1.104 0 2 .896 2 2s-.895 2-2 2z" fill="#fece2f"/><path d="m397.527 233.058h-204.01c-1.104 0-2-.896-2-2s.896-2 2-2h204.01c1.104 0 2 .896 2 2s-.895 2-2 2z" fill="#fece2f"/><path d="m339.62 296.897h-146.103c-1.104 0-2-.896-2-2s.896-2 2-2h146.103c1.104 0 2 .896 2 2s-.896 2-2 2z" fill="#fece2f"/><path d="m499.273 296.897h-130.119c-1.104 0-2-.896-2-2s.896-2 2-2h130.119c1.104 0 2 .896 2 2s-.895 2-2 2z" fill="#fff"/><path d="m135.034 360.736h-133.034c-1.104 0-2-.896-2-2s.896-2 2-2h133.034c1.104 0 2 .896 2 2s-.895 2-2 2z" fill="#fece2f"/><g fill="#fff"><path d="m234.671 360.736h-70.518c-1.104 0-2-.896-2-2s.896-2 2-2h70.518c1.104 0 2 .896 2 2s-.895 2-2 2z"/><path d="m452.034 360.736h-188.575c-1.104 0-2-.896-2-2s.896-2 2-2h188.575c1.104 0 2 .896 2 2s-.896 2-2 2z"/><path d="m828.549 41.54h-175.665c-1.104 0-2-.896-2-2s.896-2 2-2h175.665c1.104 0 2 .896 2 2s-.896 2-2 2z"/><path d="m828.549 105.379h-121.095c-1.104 0-2-.896-2-2s.896-2 2-2h121.094c1.104 0 2 .896 2 2s-.895 2-1.999 2z"/><path d="m828.549 169.219h-121.095c-1.104 0-2-.896-2-2s.896-2 2-2h121.094c1.104 0 2 .896 2 2s-.895 2-1.999 2z"/><path d="m828.549 233.058h-175.665c-1.104 0-2-.896-2-2s.896-2 2-2h175.665c1.104 0 2 .896 2 2s-.896 2-2 2z"/><path d="m828.549 296.897h-121.094c-1.104 0-2-.896-2-2s.896-2 2-2h121.094c1.104 0 2 .896 2 2s-.896 2-2 2z"/><path d="m828.549 360.736h-175.665c-1.104 0-2-.896-2-2s.896-2 2-2h175.665c1.104 0 2 .896 2 2s-.896 2-2 2z"/></g><path d="m308.471 123.493c-.673 0-1.33-.34-1.707-.955-7.242-11.817-7.242-26.5 0-38.317.577-.942 1.809-1.237 2.75-.66.942.577 1.237 1.809.66 2.75-6.452 10.528-6.452 23.609 0 34.137.577.942.282 2.173-.66 2.75-.326.2-.686.295-1.043.295z" fill="#fece2f"/><path d="m421.892 123.493c-.356 0-.717-.095-1.043-.295-.942-.577-1.237-1.809-.66-2.75 6.452-10.528 6.452-23.609 0-34.137-.577-.942-.282-2.173.66-2.75.941-.577 2.174-.282 2.75.66 7.242 11.817 7.242 26.499 0 38.317-.377.616-1.034.955-1.707.955z" fill="#fece2f"/><path d="m359.244 315.105c-.673 0-1.33-.339-1.707-.955-7.242-11.817-7.242-26.499 0-38.317.576-.942 1.809-1.237 2.75-.66.942.577 1.237 1.809.66 2.75-6.452 10.528-6.452 23.609 0 34.137.577.942.282 2.173-.66 2.75-.327.2-.687.295-1.043.295z" fill="#fece2f"/><path d="m506.873 315.105c-.356 0-.717-.095-1.043-.295-.942-.577-1.237-1.809-.66-2.75 6.451-10.528 6.451-23.609 0-34.137-.577-.942-.282-2.173.66-2.75.943-.577 2.174-.281 2.75.66 7.242 11.817 7.242 26.5 0 38.317-.377.615-1.034.955-1.707.955z" fill="#fece2f"/><path d="m155.157 378.85c-.673 0-1.33-.339-1.707-.955-7.242-11.817-7.242-26.5 0-38.317.577-.942 1.809-1.237 2.75-.66.942.577 1.237 1.809.66 2.75-6.451 10.528-6.451 23.609 0 34.137.577.942.282 2.173-.66 2.75-.326.2-.687.295-1.043.295z" fill="#fece2f"/><path d="m461.714 378.85c-.356 0-.717-.095-1.043-.295-.942-.577-1.237-1.809-.66-2.75 6.452-10.528 6.452-23.609 0-34.137-.577-.942-.282-2.173.66-2.75s2.173-.282 2.75.66c7.242 11.817 7.242 26.499 0 38.317-.377.615-1.034.955-1.707.955z" fill="#fece2f"/><circle cx="631.605" cy="39.54" fill="#fff" r="9.489"/><circle cx="631.605" cy="231.058" fill="#fff" r="9.489"/><circle cx="631.605" cy="358.736" fill="#fff" r="9.489"/></svg></g><!--ITEM: Illustration component 8--><g transform="translate(1928.0 808.0) rotate(0.0 341.0 119.0)  scale(2.0036253279394094 2.0016484163428707)"><svg width="340.383" height="118.902" viewBox="0.0 0.0 340.383 118.902"><path d="m285.37 116.902h-224.343c-29.278 0-53.013-23.735-53.013-53.013 0-29.278 23.735-53.013 53.013-53.013h224.343c29.278 0 53.013 23.735 53.013 53.013 0 29.279-23.735 53.013-53.013 53.013z" fill="#1a1a1a"/><path d="m285.37 118.902h-224.342c-30.334 0-55.013-24.679-55.013-55.013s24.679-55.013 55.013-55.013h224.342c30.334 0 55.013 24.678 55.013 55.013s-24.679 55.013-55.013 55.013zm-224.342-106.025c-28.128 0-51.013 22.884-51.013 51.013s22.884 51.013 51.013 51.013h224.342c28.128 0 51.013-22.884 51.013-51.013s-22.884-51.013-51.013-51.013z" fill="#1a1a1a"/><path d="m279.355 108.025h-224.342c-29.278 0-53.013-23.734-53.013-53.012 0-29.278 23.735-53.013 53.013-53.013h224.343c29.278 0 53.013 23.735 53.013 53.013-.001 29.278-23.736 53.012-53.014 53.012z" fill="#fece2f"/><path d="m279.355 110.025h-224.343c-30.334 0-55.012-24.678-55.012-55.012s24.678-55.013 55.012-55.013h224.343c30.334 0 55.013 24.678 55.013 55.013s-24.679 55.012-55.013 55.012zm-224.343-106.025c-28.128 0-51.012 22.884-51.012 51.013s22.884 51.013 51.013 51.013h224.343c28.128 0 51.013-22.884 51.013-51.013-.001-28.129-22.885-51.013-51.014-51.013z" fill="#1a1a1a"/><path d="m257.76 75.114h-181.152c-11.102 0-20.102-9-20.102-20.102 0-11.102 9-20.102 20.102-20.102h181.152c11.102 0 20.102 9 20.102 20.102 0 11.102-9 20.102-20.102 20.102z" fill="#fff"/></svg></g><!--ITEM: Illustration component 9--><g transform="translate(2228.0 2048.0) rotate(0.0 227.0 227.0)  scale(2.004379613605058 2.004379613605058)"><svg width="226.504" height="226.504" viewBox="0.0 0.0 226.504 226.504"><path d="m219.107 30.526-20.684-20.815c-.399-.434-.816-.851-1.246-1.254l-.058-.058-.002.001c-4.26-3.968-9.97-6.4-16.251-6.4h-151.093c-15.339 0-27.773 12.434-27.773 27.773v151.093c0 5.895 2.143 11.287 5.688 15.45l-.002.003.035.035c.791.925 1.651 1.788 2.573 2.582l19.201 19.272 13.63-13.491h137.742c13.173 0 23.852-10.679 23.852-23.852v-136.096z" fill="#1a1a1a"/><path d="m29.494 220.209c-.513 0-1.026-.196-1.417-.588l-19.148-19.221c-.97-.842-1.884-1.761-2.717-2.733-.016-.018-.032-.037-.047-.055-3.975-4.668-6.165-10.616-6.165-16.746v-151.093c0-16.417 13.356-29.773 29.773-29.773h151.093c6.524 0 12.751 2.439 17.543 6.871.042.036.083.074.124.114.504.475.946.92 1.363 1.374l20.63 20.759c.375.377.583.887.582 1.418-.002.531-.215 1.04-.593 1.413l-13.796 13.656v135.262c0 14.255-11.597 25.852-25.852 25.852h-136.921l-13.045 12.911c-.39.386-.898.579-1.407.579zm-20.268-25.171c.005.006.01.011.014.016.721.844 1.515 1.64 2.359 2.368.039.033.076.067.111.103l17.794 17.86 12.213-12.089c.374-.371.88-.579 1.407-.579h137.742c12.049 0 21.852-9.802 21.852-21.852v-136.096c0-.534.213-1.046.593-1.421l12.965-12.833-19.271-19.394c-.419-.454-.802-.836-1.196-1.206-.006-.005-.018-.017-.033-.032-.007-.007-.014-.013-.021-.02-4.06-3.781-9.347-5.863-14.889-5.863h-151.093c-14.211 0-25.773 11.562-25.773 25.773v151.093c0 5.181 1.851 10.208 5.21 14.153.005.006.011.013.016.019z" fill="#1a1a1a"/><path d="m199.504 224.504h-152.718c-13.807 0-25-11.193-25-25v-152.717c0-13.807 11.193-25 25-25h152.717c13.807 0 25 11.193 25 25v152.717c.001 13.807-11.192 25-24.999 25z" fill="#fece2f"/><g fill="#1a1a1a"><path d="m199.504 226.504h-152.718c-14.888 0-27-12.112-27-27v-152.718c0-14.888 12.112-27 27-27h152.718c14.888 0 27 12.112 27 27v152.718c0 14.888-12.112 27-27 27zm-152.718-202.718c-12.682 0-23 10.318-23 23v152.718c0 12.682 10.318 23 23 23h152.718c12.682 0 23-10.318 23-23v-152.718c0-12.682-10.318-23-23-23z"/><path d="m174.582 123.117.014.027c0-5.206 5.429-11.903 11.597-18.744 1.467-1.636 2.417-3.672 2.729-5.851.312-2.178-.029-4.401-.978-6.385-1.703-3.58-3.698-7.012-5.965-10.262-1.249-1.768-2.991-3.127-5.007-3.907s-4.216-.945-6.326-.475c-9.009 1.972-17.475 3.434-21.815.92h.041c-4.498-2.598-7.564-10.671-10.386-19.446-.659-2.069-1.912-3.897-3.604-5.254-1.691-1.356-3.745-2.181-5.902-2.369-4.001-.325-8.023-.312-12.022.041-2.151.202-4.195 1.036-5.876 2.398s-2.923 3.192-3.572 5.259c-2.797 8.806-5.762 16.89-10.1 19.414l.014-.041c-4.496 2.609-12.998 1.233-21.981-.701-2.117-.463-4.323-.287-6.341.506s-3.756 2.166-4.997 3.948c-2.278 3.313-4.275 6.811-5.971 10.459-.903 1.97-1.206 4.164-.871 6.306s1.293 4.138 2.754 5.736c6.206 6.836 11.695 13.463 11.695 18.473l-.014-.027c0 5.208-5.429 11.904-11.595 18.744-1.468 1.636-2.418 3.672-2.73 5.85-.312 2.179.028 4.401.978 6.385 1.703 3.58 3.699 7.012 5.965 10.262 1.249 1.768 2.991 3.128 5.007 3.908s4.216.945 6.326.476c9.008-1.972 17.475-3.434 21.813-.921h-.042c4.498 2.6 7.564 10.672 10.386 19.447.659 2.069 1.913 3.897 3.605 5.254 1.692 1.356 3.745 2.18 5.903 2.37 4.001.326 8.023.312 12.022-.038 2.151-.202 4.195-1.036 5.876-2.399 1.681-1.362 2.923-3.192 3.572-5.259 2.797-8.808 5.762-16.891 10.1-19.416l-.014.041c4.498-2.609 12.998-1.232 21.983.702 2.117.462 4.323.286 6.34-.506 2.017-.793 3.756-2.166 4.997-3.948 2.278-3.313 4.275-6.811 5.971-10.459.902-1.969 1.204-4.161.869-6.302s-1.292-4.135-2.751-5.732c-6.207-6.841-11.697-13.468-11.697-18.484zm-51.437 25.373c-4.997 0-9.882-1.486-14.036-4.272-4.155-2.785-7.393-6.743-9.305-11.375-1.912-4.631-2.412-9.727-1.438-14.644.975-4.917 3.381-9.433 6.914-12.977 3.533-3.545 8.035-5.959 12.936-6.937s9.981-.476 14.597 1.442c4.617 1.918 8.562 5.167 11.338 9.335s4.258 9.068 4.258 14.081c-.001 6.722-2.664 13.168-7.401 17.92-4.737 4.755-11.163 7.425-17.863 7.427z"/><path d="m123.092 197.152c-1.987 0-3.971-.08-5.941-.241-2.572-.227-4.985-1.196-6.99-2.803-2.006-1.609-3.479-3.755-4.26-6.208-2.634-8.19-5.606-16.083-9.481-18.323-.069-.04-.134-.083-.197-.13-3.949-2.027-12.454-.411-20.147 1.273-2.497.556-5.084.361-7.475-.564s-4.438-2.522-5.919-4.619c-2.329-3.338-4.392-6.886-6.138-10.556-1.122-2.345-1.521-4.949-1.152-7.528.37-2.579 1.483-4.966 3.221-6.903 5.758-6.388 11.083-12.916 11.083-17.408 0-.064.003-.127.009-.189-.21-4.838-7.323-12.674-11.171-16.912-1.727-1.89-2.852-4.233-3.249-6.771s-.041-5.114 1.028-7.449c1.744-3.748 3.808-7.365 6.141-10.759 1.479-2.123 3.521-3.736 5.914-4.677 2.394-.94 4.986-1.147 7.499-.598 8.386 1.806 16.685 3.168 20.55.925.081-.047.164-.087.248-.122 3.708-2.453 6.553-10.625 8.937-18.127.767-2.444 2.227-4.593 4.219-6.208 1.993-1.616 4.396-2.596 6.948-2.836 4.112-.363 8.27-.376 12.371-.043 2.571.225 4.985 1.193 6.991 2.802 2.005 1.608 3.478 3.754 4.258 6.207 2.633 8.19 5.606 16.083 9.481 18.322.069.04.134.083.197.129 3.946 2.029 12.454.413 20.149-1.271 2.496-.555 5.083-.362 7.475.563s4.438 2.522 5.919 4.618c2.329 3.338 4.392 6.886 6.138 10.556 1.122 2.344 1.521 4.948 1.152 7.527-.37 2.579-1.483 4.966-3.22 6.903-5.759 6.389-11.085 12.917-11.085 17.409 0 .064-.003.127-.009.189.21 4.84 7.325 12.682 11.173 16.925 1.725 1.889 2.849 4.231 3.246 6.767s.042 5.11-1.027 7.443c-1.743 3.748-3.808 7.365-6.141 10.759-1.478 2.123-3.52 3.736-5.913 4.676-2.395.94-4.988 1.147-7.499.598-8.387-1.805-16.687-3.168-20.552-.926-.081.047-.163.087-.248.122-3.708 2.455-6.554 10.626-8.937 18.129-.767 2.444-2.227 4.593-4.219 6.208-1.993 1.615-4.396 2.596-6.948 2.836-2.135.191-4.284.285-6.429.285zm-24.358-30.848c4.605 2.892 7.628 9.964 10.977 20.378.543 1.705 1.564 3.192 2.953 4.306 1.387 1.112 3.056 1.782 4.827 1.938 3.861.314 7.793.302 11.671-.038 1.752-.165 3.414-.843 4.792-1.96 1.379-1.118 2.39-2.606 2.923-4.304 2.789-8.781 5.934-17.595 11.003-20.545.114-.066.232-.12.353-.162 4.801-2.523 12.407-1.611 23.042.678 1.742.381 3.533.238 5.188-.412s3.068-1.767 4.086-3.229c2.201-3.202 4.154-6.623 5.798-10.159.736-1.607.982-3.391.707-5.149-.274-1.758-1.053-3.381-2.251-4.693-6.186-6.818-12.22-13.962-12.22-19.834 0-.091.006-.181.018-.269.162-5.462 4.763-11.64 12.106-19.787 1.204-1.342 1.978-3.002 2.234-4.795s-.021-3.604-.802-5.238c-1.653-3.475-3.605-6.832-5.802-9.98-1.018-1.441-2.434-2.546-4.088-3.186-1.654-.639-3.441-.774-5.17-.388-8.984 1.967-18.175 3.64-23.251.698-.096-.055-.185-.118-.269-.186-4.606-2.89-7.63-9.963-10.979-20.379-.543-1.705-1.563-3.192-2.951-4.305s-3.056-1.782-4.825-1.937c-3.866-.314-7.797-.301-11.672.041-1.753.165-3.414.843-4.792 1.96-1.379 1.118-2.39 2.606-2.923 4.305-2.79 8.782-5.936 17.596-11.003 20.544-.114.066-.232.12-.353.162-4.8 2.524-12.406 1.612-23.042-.677-1.742-.381-3.534-.238-5.188.412-1.655.65-3.069 1.767-4.087 3.23-2.2 3.201-4.153 6.622-5.798 10.159-.737 1.608-.983 3.394-.708 5.154.275 1.759 1.055 3.383 2.254 4.696 6.185 6.812 12.219 13.95 12.219 19.822 0 .091-.006.181-.018.269-.161 5.464-4.762 11.641-12.105 19.787-1.205 1.343-1.979 3.002-2.235 4.795-.257 1.793.02 3.605.802 5.238 1.654 3.475 3.605 6.832 5.802 9.981 1.019 1.442 2.435 2.547 4.088 3.187 1.652.639 3.439.773 5.169.389 8.985-1.967 18.175-3.639 23.25-.699.096.05.186.113.27.182zm24.412-15.814c-5.412 0-10.651-1.594-15.15-4.61-4.498-3.015-7.97-7.259-10.04-12.273-2.07-5.013-2.606-10.475-1.551-15.796 1.056-5.322 3.635-10.163 7.46-14 3.826-3.838 8.653-6.427 13.961-7.486 5.307-1.059 10.755-.521 15.756 1.557 4.999 2.077 9.23 5.56 12.235 10.073 3.005 4.512 4.593 9.764 4.593 15.19-.001 7.303-2.837 14.168-7.985 19.332-5.149 5.165-11.996 8.011-19.279 8.013zm.012-50.694c-1.518 0-3.041.15-4.55.451-4.528.904-8.647 3.112-11.911 6.387-3.266 3.276-5.468 7.41-6.369 11.955s-.443 9.21 1.325 13.492c1.767 4.28 4.731 7.903 8.57 10.476 3.838 2.573 8.307 3.933 12.922 3.933 6.212-.001 12.053-2.429 16.447-6.837 4.395-4.409 6.816-10.272 6.818-16.509 0-4.633-1.356-9.119-3.922-12.972-2.565-3.852-6.176-6.824-10.441-8.597-2.843-1.181-5.856-1.779-8.889-1.779z"/></g><path d="m179.808 128.344.014.027c0-5.206 5.429-11.903 11.597-18.744 1.467-1.636 2.417-3.672 2.729-5.851.312-2.178-.029-4.401-.978-6.385-1.703-3.58-3.698-7.012-5.965-10.262-1.249-1.768-2.991-3.127-5.007-3.907s-4.216-.945-6.325-.475c-9.009 1.972-17.475 3.434-21.815.92h.041c-4.498-2.598-7.564-10.671-10.386-19.446-.659-2.069-1.912-3.897-3.604-5.254s-3.745-2.181-5.902-2.369c-4.001-.325-8.023-.312-12.022.041-2.151.202-4.195 1.036-5.876 2.398s-2.923 3.192-3.572 5.259c-2.797 8.806-5.762 16.89-10.1 19.414l.014-.041c-4.496 2.609-12.998 1.233-21.981-.701-2.117-.463-4.323-.287-6.341.506s-3.756 2.166-4.997 3.948c-2.278 3.313-4.275 6.811-5.971 10.459-.903 1.97-1.206 4.164-.871 6.306s1.293 4.138 2.754 5.736c6.206 6.836 11.695 13.463 11.695 18.473l-.014-.027c0 5.208-5.429 11.904-11.595 18.744-1.468 1.636-2.418 3.672-2.73 5.851s.028 4.401.978 6.385c1.703 3.58 3.699 7.012 5.965 10.262 1.249 1.768 2.991 3.128 5.007 3.908s4.216.945 6.326.476c9.008-1.972 17.475-3.434 21.813-.921h-.041c4.498 2.6 7.564 10.672 10.386 19.447.659 2.069 1.913 3.897 3.605 5.254 1.692 1.356 3.745 2.18 5.903 2.37 4.001.326 8.023.312 12.022-.038 2.151-.202 4.195-1.036 5.876-2.399 1.681-1.362 2.923-3.192 3.572-5.259 2.797-8.808 5.762-16.891 10.1-19.416l-.014.041c4.498-2.609 12.998-1.232 21.983.702 2.117.462 4.323.286 6.34-.506 2.017-.793 3.756-2.166 4.997-3.948 2.278-3.313 4.275-6.811 5.971-10.459.902-1.969 1.204-4.161.869-6.302s-1.292-4.135-2.751-5.732c-6.209-6.842-11.699-13.469-11.699-18.485zm-51.436 25.373c-4.997 0-9.882-1.486-14.036-4.271-4.155-2.785-7.393-6.743-9.305-11.375-1.912-4.631-2.412-9.727-1.438-14.644.975-4.917 3.381-9.433 6.914-12.977 3.533-3.545 8.035-5.959 12.936-6.937s9.981-.476 14.597 1.442c4.617 1.918 8.562 5.167 11.338 9.335s4.258 9.068 4.258 14.081c-.001 6.722-2.664 13.168-7.401 17.92-4.738 4.753-11.163 7.424-17.863 7.426z" fill="#fff"/><path d="m128.318 202.379c-1.987 0-3.971-.08-5.941-.241-2.572-.227-4.985-1.196-6.99-2.803-2.006-1.609-3.479-3.756-4.26-6.208-2.633-8.19-5.605-16.083-9.481-18.323-.069-.04-.134-.083-.197-.13-3.949-2.026-12.454-.411-20.147 1.273-2.496.556-5.083.361-7.475-.564-2.391-.925-4.438-2.522-5.919-4.619-2.329-3.339-4.392-6.888-6.138-10.556-1.122-2.344-1.521-4.949-1.152-7.528.37-2.579 1.483-4.966 3.221-6.903 5.758-6.388 11.084-12.916 11.084-17.408 0-.062.003-.125.009-.186-.207-4.838-7.323-12.676-11.172-16.915-1.727-1.89-2.852-4.233-3.249-6.772-.397-2.538-.041-5.114 1.028-7.448 1.744-3.749 3.809-7.365 6.142-10.759 1.478-2.123 3.521-3.736 5.914-4.676 2.395-.941 4.988-1.147 7.499-.598 8.386 1.805 16.685 3.169 20.55.925.081-.047.164-.088.249-.122 3.707-2.454 6.552-10.625 8.936-18.126.767-2.444 2.227-4.593 4.219-6.208 1.993-1.616 4.396-2.596 6.948-2.836 4.11-.363 8.269-.377 12.371-.043 2.571.225 4.985 1.193 6.991 2.802 2.005 1.608 3.478 3.754 4.258 6.207 2.633 8.19 5.606 16.083 9.481 18.321.069.04.134.083.197.13 3.946 2.03 12.455.413 20.149-1.271 2.495-.556 5.083-.362 7.475.563s4.438 2.522 5.919 4.618c2.331 3.34 4.394 6.889 6.138 10.556 1.122 2.344 1.521 4.948 1.152 7.527-.37 2.579-1.483 4.966-3.22 6.903-5.759 6.389-11.085 12.917-11.085 17.409 0 .064-.003.127-.009.189.21 4.84 7.325 12.682 11.173 16.925 1.725 1.889 2.849 4.231 3.246 6.768.397 2.536.042 5.11-1.027 7.443-1.742 3.746-3.806 7.362-6.141 10.759-1.479 2.123-3.521 3.736-5.914 4.676-2.394.94-4.986 1.148-7.499.598-8.388-1.805-16.686-3.169-20.552-.926-.08.047-.163.087-.247.122-3.709 2.455-6.554 10.627-8.937 18.129-.768 2.444-2.227 4.593-4.219 6.207-1.993 1.615-4.395 2.596-6.948 2.836-2.136.189-4.284.283-6.43.283zm-24.358-30.849c4.606 2.892 7.629 9.965 10.977 20.378.543 1.704 1.563 3.192 2.953 4.306 1.387 1.112 3.056 1.782 4.827 1.938 3.858.314 7.789.302 11.672-.038 1.752-.165 3.413-.843 4.791-1.96 1.379-1.118 2.39-2.607 2.923-4.305 2.789-8.781 5.934-17.595 11.003-20.545.114-.066.232-.12.354-.162 4.8-2.522 12.406-1.611 23.042.678 1.741.38 3.534.238 5.188-.412 1.655-.65 3.068-1.767 4.087-3.229 2.202-3.204 4.155-6.625 5.798-10.159.736-1.607.982-3.391.707-5.15-.274-1.758-1.053-3.381-2.251-4.693-6.186-6.818-12.22-13.962-12.22-19.834 0-.091.006-.181.018-.269.162-5.462 4.763-11.64 12.106-19.787 1.204-1.342 1.978-3.002 2.234-4.795.257-1.793-.021-3.604-.802-5.238-1.652-3.473-3.604-6.83-5.802-9.98-1.018-1.441-2.434-2.546-4.088-3.186-1.654-.639-3.441-.773-5.17-.388-8.984 1.967-18.173 3.64-23.251.698-.096-.055-.185-.118-.269-.186-4.606-2.89-7.63-9.963-10.979-20.379-.543-1.705-1.563-3.192-2.951-4.305s-3.056-1.782-4.825-1.937c-3.866-.314-7.797-.301-11.672.041-1.753.165-3.414.843-4.792 1.96-1.379 1.118-2.39 2.606-2.923 4.305-2.79 8.782-5.936 17.596-11.002 20.544-.114.066-.233.12-.354.162-4.801 2.523-12.406 1.612-23.04-.678-1.743-.381-3.535-.238-5.188.413-1.656.65-3.069 1.767-4.087 3.229-2.2 3.201-4.154 6.622-5.799 10.159-.737 1.608-.983 3.394-.708 5.154s1.055 3.383 2.254 4.696c6.185 6.812 12.219 13.95 12.219 19.822 0 .089-.006.178-.018.264-.159 5.464-4.76 11.643-12.105 19.792-1.205 1.343-1.979 3.002-2.235 4.795-.257 1.794.021 3.605.802 5.238 1.653 3.475 3.604 6.832 5.801 9.981 1.019 1.442 2.435 2.547 4.088 3.187 1.651.639 3.439.773 5.169.389 8.984-1.967 18.174-3.64 23.25-.699.094.054.185.116.268.185zm24.412-15.813c-5.412 0-10.651-1.594-15.15-4.61-4.498-3.016-7.97-7.26-10.04-12.273s-2.606-10.475-1.551-15.796c1.055-5.322 3.634-10.163 7.459-14 3.826-3.838 8.654-6.427 13.961-7.486 5.309-1.058 10.757-.52 15.756 1.557s9.23 5.561 12.235 10.073 4.593 9.765 4.593 15.19c-.001 7.303-2.837 14.168-7.985 19.332-5.148 5.165-11.995 8.011-19.278 8.013zm.013-50.694c-1.518 0-3.041.15-4.551.451-4.527.904-8.646 3.112-11.911 6.387-3.266 3.276-5.468 7.41-6.369 11.954-.901 4.545-.443 9.21 1.324 13.492 1.767 4.28 4.731 7.903 8.57 10.477 3.838 2.573 8.307 3.933 12.922 3.933 6.212-.001 12.053-2.429 16.447-6.837 4.395-4.409 6.816-10.272 6.818-16.509 0-4.633-1.356-9.119-3.922-12.972-2.565-3.852-6.176-6.824-10.441-8.597-2.841-1.181-5.854-1.779-8.887-1.779z" fill="#1a1a1a"/></svg></g><!--ITEM: Illustration component 10--><g transform="translate(1000.0 528.0) rotate(0.0 170.0 170.0)  scale(2.011703380253356 2.011703380253356)"><svg width="169.011" height="169.011" viewBox="0.0 0.0 169.011 169.011"><path d="m164.383 18.79c-.119-.125-.241-.246-.366-.364l-14.377-14.315-11.577 11.702h-112.709c-5.269 0-9.541 4.272-9.541 9.541v114.024l-10.962 11.08 13.124 13.059c.407.496.863.948 1.36 1.353l.008.008.001-.001c1.641 1.333 3.731 2.134 6.01 2.134h132.117c5.269 0 9.541-4.271 9.541-9.541v-132.116c-.001-2.546-1.004-4.853-2.629-6.564z" fill="#1a1a1a"/><path d="m157.471 169.011h-132.117c-2.639 0-5.221-.917-7.271-2.582-.588-.478-1.118-1.001-1.587-1.563l-13.055-12.99c-.781-.778-.787-2.041-.011-2.824l10.384-10.495v-113.203c0-6.364 5.177-11.541 11.541-11.541h111.875l10.99-11.108c.374-.378.883-.591 1.415-.593h.007c.529 0 1.036.209 1.411.583l14.377 14.315c.116.11.262.254.404.404v.001c2.049 2.157 3.178 4.978 3.178 7.941v132.117c-.001 6.361-5.178 11.538-11.541 11.538zm-136.829-5.655c1.353 1.083 2.98 1.655 4.712 1.655h132.117c4.158 0 7.541-3.383 7.541-7.541v-132.116c0-1.933-.738-3.775-2.079-5.186 0-.001-.001-.002-.002-.003-.094-.1-.192-.196-.291-.29l-12.989-12.931-10.166 10.276c-.376.38-.888.593-1.422.593h-112.709c-4.158 0-7.541 3.383-7.541 7.541v114.024c0 .527-.208 1.032-.578 1.407l-9.56 9.662 11.71 11.652c.048.048.093.098.136.15.317.386.679.747 1.076 1.071.016.011.03.024.045.036z" fill="#1a1a1a"/><path d="m143.198 153.198h-131.198c-5.523 0-10-4.477-10-10v-131.198c0-5.523 4.477-10 10-10h131.198c5.523 0 10 4.477 10 10v131.198c0 5.523-4.477 10-10 10z" fill="#fff"/><g fill="#1a1a1a"><path d="m143.198 155.198h-131.198c-6.617 0-12-5.383-12-12v-131.198c0-6.617 5.383-12 12-12h131.198c6.617 0 12 5.383 12 12v131.198c0 6.617-5.383 12-12 12zm-131.198-151.198c-4.411 0-8 3.589-8 8v131.198c0 4.411 3.589 8 8 8h131.198c4.411 0 8-3.589 8-8v-131.198c0-4.411-3.589-8-8-8z"/><path d="m98.667 80.337 22.485-22.485c5.589-5.589 5.589-14.65 0-20.238-5.588-5.589-14.65-5.589-20.238 0l-22.485 22.484-22.485-22.485c-5.588-5.589-14.65-5.589-20.238 0-5.589 5.589-5.589 14.65 0 20.238l22.484 22.486-22.485 22.485c-5.589 5.589-5.589 14.65 0 20.238 2.794 2.795 6.457 4.192 10.119 4.192s7.325-1.397 10.119-4.192l22.485-22.485 22.485 22.485c2.794 2.795 6.457 4.192 10.119 4.192 3.663 0 7.325-1.397 10.119-4.192 5.589-5.589 5.589-14.65 0-20.238z"/><path d="m111.033 129.252c-4.357 0-8.453-1.697-11.533-4.777l-21.071-21.071-21.071 21.071c-3.081 3.081-7.176 4.777-11.533 4.777s-8.453-1.697-11.534-4.778-4.777-7.177-4.777-11.533 1.697-8.453 4.778-11.533l21.07-21.071-21.07-21.071c-3.081-3.081-4.778-7.177-4.778-11.533s1.697-8.453 4.778-11.533c3.08-3.081 7.176-4.778 11.533-4.778s8.453 1.697 11.534 4.778l21.07 21.071 21.071-21.071c3.08-3.081 7.176-4.778 11.534-4.778 4.357 0 8.453 1.697 11.534 4.778 6.359 6.359 6.359 16.707 0 23.067l-21.071 21.071 21.071 21.071c3.081 3.081 4.778 7.177 4.778 11.533s-1.697 8.453-4.778 11.533c-3.082 3.08-7.178 4.777-11.535 4.777zm-32.604-30.677c.53 0 1.039.211 1.414.586l22.485 22.485c2.325 2.325 5.417 3.606 8.705 3.606 3.289 0 6.38-1.281 8.706-3.606 4.8-4.8 4.8-12.61 0-17.41l-22.486-22.485c-.375-.375-.586-.884-.586-1.414s.211-1.039.586-1.414l22.485-22.485c4.8-4.8 4.8-12.61 0-17.41-2.325-2.325-5.417-3.606-8.705-3.606-3.289 0-6.38 1.281-8.705 3.606l-22.485 22.485c-.75.75-2.078.75-2.828 0l-22.485-22.485c-2.325-2.325-5.417-3.606-8.705-3.606s-6.38 1.281-8.705 3.606c-4.8 4.8-4.8 12.61 0 17.41l22.485 22.485c.781.781.781 2.047 0 2.828l-22.485 22.485c-4.8 4.8-4.8 12.61 0 17.41 2.325 2.325 5.417 3.606 8.705 3.606s6.38-1.281 8.705-3.606l22.485-22.485c.375-.375.883-.586 1.414-.586z"/></g><path d="m93.067 74.737 22.485-22.485c5.589-5.589 5.589-14.65 0-20.238-5.588-5.589-14.65-5.589-20.238 0l-22.485 22.485-22.485-22.485c-5.588-5.589-14.65-5.589-20.238 0-5.589 5.589-5.589 14.65 0 20.238l22.484 22.485-22.485 22.485c-5.589 5.589-5.589 14.65 0 20.238 2.794 2.795 6.457 4.192 10.119 4.192s7.325-1.397 10.119-4.192l22.485-22.485 22.485 22.485c2.794 2.795 6.457 4.192 10.119 4.192 3.663 0 7.325-1.397 10.119-4.192 5.589-5.589 5.589-14.65 0-20.238z" fill="#fece2f"/><path d="m105.433 123.652c-4.357 0-8.454-1.697-11.534-4.778l-21.071-21.07-21.071 21.071c-3.08 3.081-7.176 4.778-11.533 4.778s-8.454-1.697-11.534-4.778c-3.081-3.081-4.777-7.177-4.777-11.533s1.697-8.453 4.778-11.533l21.07-21.071-21.07-21.071c-3.081-3.081-4.778-7.177-4.778-11.533s1.697-8.453 4.778-11.533c3.08-3.081 7.176-4.778 11.533-4.778s8.453 1.697 11.534 4.778l21.07 21.071 21.072-21.073c3.08-3.081 7.176-4.778 11.533-4.778s8.453 1.697 11.534 4.778 4.777 7.177 4.777 11.533-1.697 8.453-4.778 11.533l-21.07 21.071 21.07 21.071c3.081 3.081 4.778 7.177 4.778 11.533s-1.697 8.453-4.778 11.533c-3.079 3.082-7.176 4.779-11.533 4.779zm-32.605-30.677c.512 0 1.023.195 1.414.586l22.485 22.485c2.325 2.325 5.417 3.606 8.705 3.606s6.38-1.281 8.705-3.606c2.326-2.325 3.606-5.417 3.606-8.705s-1.281-6.38-3.606-8.705l-22.484-22.485c-.781-.781-.781-2.047 0-2.828l22.485-22.485c2.325-2.325 3.606-5.417 3.606-8.705s-1.281-6.38-3.606-8.705-5.417-3.606-8.705-3.606-6.38 1.281-8.705 3.606l-22.485 22.485c-.78.781-2.047.781-2.828 0l-22.485-22.485c-2.325-2.325-5.417-3.606-8.705-3.606s-6.38 1.281-8.705 3.606c-2.326 2.325-3.606 5.417-3.606 8.705s1.281 6.38 3.606 8.705l22.485 22.485c.781.781.781 2.047 0 2.828l-22.486 22.485c-2.325 2.325-3.606 5.417-3.606 8.705s1.281 6.38 3.606 8.705 5.417 3.606 8.705 3.606 6.38-1.281 8.705-3.606l22.485-22.485c.391-.39.903-.586 1.414-.586z" fill="#1a1a1a"/></svg></g><!--ITEM: Illustration component 11--><g transform="translate(244.0 2750.0) rotate(0.0 1234.0 4.0)  scale(2.1773672030977194 2.0)"><svg width="1133.479" height="4.0" viewBox="0.0 0.0 1133.479 4.0"><g fill="#1a1a1a"><path d="m348.055 4h-346.055c-1.105 0-2-.896-2-2s.895-2 2-2h346.055c1.104 0 2 .896 2 2s-.896 2-2 2z"/><path d="m915.556 4h-529.786c-1.104 0-2-.896-2-2s.895-2 2-2h529.786c1.104 0 2 .896 2 2s-.896 2-2 2z"/><path d="m1033.116 4h-80.016c-1.104 0-2-.896-2-2s.896-2 2-2h80.016c1.104 0 2 .896 2 2s-.896 2-2 2z"/><path d="m1131.479 4h-34.146c-1.104 0-2-.896-2-2s.895-2 2-2h34.146c1.104 0 2 .896 2 2s-.896 2-2 2z"/></g></svg></g><!--ITEM: Upload 12--><g transform="translate(2416.0 976.0) rotate(0.0 105.0 161.0)  scale(2.028671896131999 2.0111801630180195)"><svg width="103.516" height="160.105" viewBox="0.0 0.0 103.516 160.105"><g id="TanyaV_x5F_30.05-i12">
</g>
<g id="TanyaV_x5F_16.06-i12">
</g>
<g id="TanyaV_x5F_04.08-i12">
</g>
<g id="TanyaV_x5F_14.08-i12">
</g>
<g id="Layer_5-i12">
	<g>
	</g>
	<g>
		<g>
			<g>
				<polygon style="fill:#1A1A1A;" points="89.725,130.83 68.328,96.595 94.081,80.499 97.067,68.552 63.94,58.715 33.357,36.61       4.987,2 2,13.947 21.474,125.879 47.227,109.783 77.429,158.105 98.529,144.917 101.516,132.971     "/>
				<path style="fill:#1A1A1A;" d="M77.431,160.105c-0.667,0-1.318-0.333-1.698-0.94l-29.142-46.626l-24.057,15.036      c-0.565,0.353-1.269,0.401-1.875,0.13c-0.608-0.271-1.041-0.828-1.155-1.483L0.03,14.29c-0.048-0.275-0.038-0.557,0.03-0.828      L3.046,1.515C3.23,0.782,3.811,0.214,4.549,0.049c0.736-0.166,1.505,0.099,1.985,0.683l28.206,34.41l30.096,21.753l32.801,9.741      c1.026,0.305,1.63,1.364,1.371,2.402l-2.986,11.947c-0.125,0.502-0.441,0.937-0.88,1.211L71.083,97.231l19.869,31.789      l10.921,1.983c0.544,0.099,1.023,0.418,1.323,0.883c0.3,0.465,0.394,1.033,0.26,1.57l-2.987,11.947      c-0.126,0.502-0.441,0.936-0.88,1.211l-21.101,13.188C78.159,160.007,77.793,160.105,77.431,160.105z M47.227,107.783      c0.15,0,0.301,0.017,0.45,0.051c0.517,0.119,0.965,0.439,1.246,0.889l29.142,46.626l18.72-11.7l2.273-9.092l-9.691-1.759      c-0.554-0.101-1.04-0.43-1.338-0.908L66.632,97.655c-0.281-0.45-0.372-0.993-0.253-1.51s0.439-0.965,0.889-1.246l25.069-15.668      l2.326-9.306l-31.292-9.293c-0.216-0.064-0.419-0.164-0.602-0.296L32.186,38.231c-0.14-0.101-0.266-0.22-0.375-0.353      L5.962,6.345l-1.919,7.676l18.892,108.586l23.232-14.521C46.488,107.887,46.855,107.783,47.227,107.783z"/>
			</g>
			<g>
				<polygon style="fill:#FFFFFF;" points="101.516,132.971 71.314,84.649 97.067,68.552 4.987,2 24.461,113.932 50.214,97.836       80.416,146.159     "/>
				<path style="fill:#1A1A1A;" d="M80.418,148.159c-0.667,0-1.318-0.333-1.698-0.94l-29.142-46.626l-24.057,15.036      c-0.565,0.353-1.269,0.401-1.875,0.13c-0.608-0.271-1.041-0.828-1.155-1.483L3.016,2.343c-0.14-0.802,0.22-1.608,0.91-2.039      c0.69-0.431,1.572-0.401,2.231,0.075l92.081,66.552c0.54,0.39,0.85,1.023,0.828,1.688c-0.022,0.665-0.375,1.276-0.939,1.629      L74.07,85.285l29.142,46.626c0.281,0.45,0.372,0.993,0.253,1.51s-0.439,0.965-0.889,1.246l-21.101,13.188      C81.146,148.061,80.779,148.159,80.418,148.159z M50.214,95.836c0.15,0,0.301,0.017,0.45,0.051      c0.517,0.119,0.965,0.439,1.246,0.889l29.143,46.626l17.708-11.068L69.618,85.709c-0.585-0.937-0.301-2.171,0.636-2.756      l23.232-14.52L7.8,6.501l18.122,104.16L49.154,96.14C49.474,95.94,49.842,95.836,50.214,95.836z"/>
			</g>
		</g>
	</g>
</g>
</svg></g><!--ITEM: Illustration component 13--><g transform="translate(326.0 2750.0) rotate(0.0 1234.0 4.0) translate(0.0 0.0) scale(2.1773672030977194 2.0)"><svg width="673.2902001620746" height="4.0" viewBox="0.0 0.0 673.2902001620746 4.0"><g fill="#1a1a1a"><path d="m348.055 4h-346.055c-1.105 0-2-.896-2-2s.895-2 2-2h346.055c1.104 0 2 .896 2 2s-.896 2-2 2z"/><path d="m915.556 4h-529.786c-1.104 0-2-.896-2-2s.895-2 2-2h529.786c1.104 0 2 .896 2 2s-.896 2-2 2z"/><path d="m1033.116 4h-80.016c-1.104 0-2-.896-2-2s.896-2 2-2h80.016c1.104 0 2 .896 2 2s-.896 2-2 2z"/><path d="m1131.479 4h-34.146c-1.104 0-2-.896-2-2s.895-2 2-2h34.146c1.104 0 2 .896 2 2s-.896 2-2 2z"/></g></svg></g><!--ITEM: Illustration component 14--><g transform="translate(894.0 2750.0) rotate(0.0 909.0 4.0) translate(1480.0 0.0) scale(1.6039114972575583 2.0)"><svg width="135.91772387238734" height="4.0" viewBox="922.7441804180419 0.0 135.91772387238734 4.0"><g fill="#1a1a1a"><path d="m348.055 4h-346.055c-1.105 0-2-.896-2-2s.895-2 2-2h346.055c1.104 0 2 .896 2 2s-.896 2-2 2z"/><path d="m915.556 4h-529.786c-1.104 0-2-.896-2-2s.895-2 2-2h529.786c1.104 0 2 .896 2 2s-.896 2-2 2z"/><path d="m1033.116 4h-80.016c-1.104 0-2-.896-2-2s.896-2 2-2h80.016c1.104 0 2 .896 2 2s-.896 2-2 2z"/><path d="m1131.479 4h-34.146c-1.104 0-2-.896-2-2s.895-2 2-2h34.146c1.104 0 2 .896 2 2s-.896 2-2 2z"/></g></svg></g></svg>