<svg xmlns="http://www.w3.org/2000/svg"  viewBox="0 0 520 520" width="204px" height="204px"><circle cx="434.998" cy="95" r="30" fill="#fff"/><path fill="#fff" d="M59.998,365c11.05,0,20,8.95,20,20s-8.95,20-20,20c-11.04,0-20-8.95-20-20S48.958,365,59.998,365z"/><path fill="#fff" d="M374.998,405c11.051,0,20,8.95,20,20s-8.949,20-20,20c-11.04,0-20-8.95-20-20 S363.958,405,374.998,405z"/><path fill="#fff" d="M329.998,450c11.051,0,20,8.95,20,20s-8.949,20-20,20c-11.04,0-20-8.95-20-20 S318.958,450,329.998,450z"/><path fill="#fff" d="M199.998,450c11.05,0,20,8.95,20,20s-8.95,20-20,20c-11.04,0-20-8.95-20-20 S188.958,450,199.998,450z"/><path fill="#fff" d="M154.998,405c11.05,0,20,8.95,20,20s-8.95,20-20,20c-11.04,0-20-8.95-20-20 S143.958,405,154.998,405z"/><path fill="#fff" d="M264.998,250.26c27.66,0,50.22,22.561,50.22,50.271c0,27.649-22.56,50.22-50.22,50.22 c-27.7,0-50.26-22.57-50.26-50.22C214.738,272.82,237.298,250.26,264.998,250.26z M285.988,300.53c0-11.59-9.45-21.04-20.99-21.04 c-11.58,0-21.03,9.45-21.03,21.04c0,11.529,9.45,20.979,21.03,20.979C276.538,321.51,285.988,312.06,285.988,300.53z"/><path fill="#9bc9ff" d="M401.668,202.78c36.51,0,66.11,29.6,66.11,66.11c0,36.511-29.601,66.11-66.11,66.11l-64.4-0.01 c2.57-5.36,4.561-11.04,5.891-17l31.32-6.99v-20.99l-31.32-7c-2.04-9.17-5.65-17.689-10.52-25.38l17.189-27.15l-14.83-14.83 l-27.141,17.24c-7.699-4.91-16.219-8.48-25.39-10.57l-7-31.31h-20.98l-7,31.31c-9.17,2.09-17.7,5.66-25.39,10.57l-27.15-17.24 l-14.82,14.83l17.19,27.15c-4.87,7.69-8.48,16.21-10.52,25.38l-31.32,7V311l31.32,6.99c1.32,5.939,3.31,11.62,5.86,16.97 l-76.91-0.03c-35.31-1.359-63.53-30.399-63.53-66.04c0-35.47,27.94-64.41,63.01-66.03c-4.07-10.26-6.34-21.43-6.34-33.14 c0-49.55,40.169-89.72,89.72-89.72c40,0,73.86,26.17,85.45,62.32c11.431-9.43,26.081-15.1,42.05-15.1 c36.511,0,66.111,29.6,66.111,66.11c0,3.49-0.271,6.9-0.791,10.24C394.768,203.05,398.188,202.78,401.668,202.78z"/><path fill="#1e81ce" d="M484.418,154.61c1.6,3.82-0.199,8.21-4.029,9.81c-3.82,1.6-8.211-0.21-9.811-4.03 c-1.59-3.82,0.21-8.22,4.029-9.81C478.428,148.98,482.828,150.78,484.418,154.61z"/><path fill="#1e81ce" d="M474.418,354.61c1.6,3.819-0.199,8.22-4.029,9.809c-3.82,1.6-8.211-0.21-9.811-4.03 c-1.59-3.819,0.21-8.21,4.029-9.809C468.428,348.99,472.828,350.79,474.418,354.61z"/><path fill="#1e81ce" d="M429.418,434.61c1.6,3.819-0.199,8.22-4.029,9.809c-3.82,1.6-8.211-0.21-9.811-4.03 c-1.59-3.819,0.21-8.21,4.029-9.809C423.428,428.99,427.828,430.79,429.418,434.61z"/><path fill="#1e81ce" d="M344.418,54.61c1.6,3.82-0.2,8.21-4.029,9.81c-3.82,1.6-8.211-0.21-9.811-4.03 c-1.59-3.82,0.21-8.22,4.029-9.81C338.428,48.98,342.828,50.78,344.418,54.61z"/><path fill="#1e81ce" d="M129.418,359.61c1.6,3.819-0.2,8.21-4.03,9.809c-3.82,1.59-8.21-0.21-9.81-4.03 c-1.59-3.819,0.21-8.22,4.03-9.809C123.428,353.98,127.828,355.79,129.418,359.61z"/><path fill="#1e81ce" d="M99.418,44.61c1.6,3.82-0.21,8.21-4.03,9.81c-3.82,1.6-8.21-0.21-9.81-4.03 c-1.6-3.82,0.21-8.22,4.03-9.81C93.428,38.98,97.818,40.78,99.418,44.61z"/><path fill="#1e81ce" d="M74.418,459.61c1.6,3.819-0.21,8.21-4.03,9.809c-3.82,1.59-8.21-0.21-9.81-4.03 c-1.6-3.819,0.21-8.22,4.03-9.809C68.428,453.98,72.818,455.79,74.418,459.61z"/><path fill="#1e81ce" d="M59.418,149.61c1.6,3.82-0.2,8.22-4.03,9.81c-3.82,1.6-8.21-0.2-9.81-4.03 c-1.59-3.82,0.21-8.21,4.03-9.81C53.428,143.98,57.828,145.79,59.418,149.61z"/><path fill="#1e81ce" d="M478.533,225.001c-1.65,0-3.266-0.816-4.219-2.31c-13.287-20.815-34.801-34.97-59.023-38.833 c-2.728-0.435-4.586-2.998-4.15-5.725c0.435-2.727,2.996-4.586,5.725-4.15c27.043,4.313,51.055,20.105,65.877,43.327 c1.486,2.328,0.805,5.419-1.523,6.905C480.385,224.747,479.453,225.001,478.533,225.001z"/><path fill="#1e81ce" d="M84.782,189.121c-2.482,0-4.635-1.847-4.954-4.374c-0.623-4.934-0.939-9.99-0.939-15.027 c0-66.014,53.706-119.72,119.72-119.72c41.058,0,78.725,20.544,100.761,54.954c1.488,2.325,0.811,5.418-1.515,6.907 c-2.325,1.488-5.419,0.811-6.907-1.514C270.76,78.821,236.24,60,198.608,60c-60.499,0-109.72,49.22-109.72,109.72 c0,4.62,0.289,9.254,0.86,13.773c0.346,2.74-1.594,5.241-4.333,5.587C85.202,189.107,84.991,189.121,84.782,189.121z"/><path fill="#1e81ce" d="M140.458,169.54c-2.761,0-5-2.239-5-5c0-32.83,26.71-59.54,59.54-59.54c2.761,0,5,2.239,5,5 s-2.239,5-5,5c-27.316,0-49.54,22.224-49.54,49.54C145.458,167.301,143.219,169.54,140.458,169.54z"/><path fill="#1e81ce" d="M434.998,130c-19.299,0-35-15.701-35-35s15.701-35,35-35c19.299,0,35,15.701,35,35 S454.297,130,434.998,130z M434.998,70c-13.785,0-25,11.215-25,25s11.215,25,25,25c13.785,0,25-11.215,25-25 S448.783,70,434.998,70z"/><path fill="#1e81ce" d="M264.998,326.51c-14.353,0-26.03-11.654-26.03-25.979c0-14.358,11.677-26.04,26.03-26.04 c14.331,0,25.99,11.682,25.99,26.04C290.988,314.855,279.329,326.51,264.998,326.51z M264.998,284.49 c-8.839,0-16.03,7.195-16.03,16.04c0,8.811,7.191,15.979,16.03,15.979c8.816,0,15.99-7.168,15.99-15.979 C280.988,291.685,273.814,284.49,264.998,284.49z"/><path fill="#1e81ce" d="M264.998,355.75c-30.47,0-55.26-24.772-55.26-55.22c0-30.477,24.79-55.271,55.26-55.271 c30.449,0,55.22,24.794,55.22,55.271C320.218,330.978,295.447,355.75,264.998,355.75z M264.998,255.26 c-24.956,0-45.26,20.309-45.26,45.271c0,24.935,20.303,45.22,45.26,45.22c24.935,0,45.22-20.285,45.22-45.22 C310.218,275.568,289.933,255.26,264.998,255.26z"/><path fill="#1e81ce" d="M401.668,340h-0.001l-64.399-0.01c-1.719,0-3.316-0.883-4.23-2.336 c-0.916-1.454-1.02-3.276-0.277-4.825c2.438-5.087,4.295-10.445,5.518-15.928c0.422-1.892,1.899-3.369,3.791-3.791l27.409-6.117 v-12.978l-27.411-6.126c-1.892-0.423-3.368-1.901-3.79-3.794c-1.869-8.403-5.188-16.407-9.863-23.791 c-1.034-1.633-1.035-3.716,0-5.35l15.049-23.769l-9.166-9.167l-23.758,15.092c-1.64,1.041-3.733,1.039-5.369-0.005 c-7.26-4.629-15.271-7.964-23.813-9.911c-1.881-0.429-3.348-1.901-3.768-3.784l-6.126-27.401h-12.969l-6.126,27.401 c-0.421,1.883-1.887,3.355-3.768,3.784c-8.556,1.95-16.567,5.284-23.811,9.91c-1.638,1.044-3.732,1.047-5.371,0.006 l-23.767-15.091l-9.159,9.166l15.05,23.77c1.034,1.633,1.034,3.717,0,5.35c-4.676,7.385-7.994,15.389-9.863,23.791 c-0.421,1.893-1.898,3.371-3.79,3.794l-27.411,6.126v12.978l27.41,6.117c1.893,0.423,3.371,1.901,3.792,3.795 c1.181,5.314,2.969,10.537,5.316,15.53c0.434,0.741,0.683,1.604,0.683,2.525c0,2.765-2.212,5-5.009,5c-0.003,0-0.006,0-0.013,0 l-76.91-0.03c-0.063,0-0.127-0.001-0.19-0.004c-38.32-1.475-68.338-32.678-68.338-71.036c0-35.824,26.359-65.561,61.138-70.41 c-2.967-9.302-4.467-18.948-4.467-28.759c0-52.229,42.491-94.72,94.72-94.72c39.02,0,73.509,23.558,87.867,59.292 c11.664-7.824,25.499-12.072,39.633-12.072c39.211,0,71.111,31.9,71.111,71.11c0,1.532-0.05,3.066-0.148,4.597 c1.531-0.098,3.066-0.147,4.598-0.147c39.211,0,71.11,31.9,71.11,71.11C472.778,308.1,440.879,340,401.668,340z M344.813,329.991 L401.669,330c33.695,0,61.109-27.414,61.109-61.11c0-33.696-27.414-61.11-61.11-61.11c-3.171,0-6.358,0.246-9.471,0.73 c-1.575,0.247-3.177-0.276-4.305-1.405c-1.129-1.128-1.65-2.728-1.404-4.305c0.484-3.114,0.73-6.3,0.73-9.471 c0-33.696-27.414-61.11-61.111-61.11c-14.154,0-27.958,4.957-38.867,13.957c-1.279,1.055-3,1.406-4.59,0.941 c-1.592-0.467-2.848-1.692-3.353-3.271C268.012,108.648,235.586,85,198.608,85c-46.715,0-84.72,38.005-84.72,84.72 c0,10.751,2.015,21.28,5.987,31.296c0.596,1.502,0.429,3.199-0.447,4.557c-0.877,1.357-2.355,2.207-3.969,2.282 c-32.659,1.509-58.241,28.318-58.241,61.035c0,32.933,25.745,59.727,58.63,61.04l69.277,0.027 c-0.944-2.554-1.762-5.146-2.451-7.765l-28.285-6.313c-2.285-0.51-3.911-2.538-3.911-4.88v-20.99c0-2.341,1.624-4.369,3.91-4.88 l28.286-6.321c1.939-7.38,4.876-14.461,8.761-21.124l-15.531-24.53c-1.251-1.976-0.965-4.555,0.688-6.209l14.82-14.83 c1.655-1.657,4.24-1.941,6.217-0.687l24.52,15.57c6.577-3.853,13.662-6.8,21.136-8.79l6.325-28.29 c0.511-2.285,2.539-3.909,4.879-3.909h20.98c2.342,0,4.369,1.624,4.88,3.909l6.325,28.29c7.464,1.989,14.548,4.936,21.134,8.79 l24.51-15.57c1.978-1.255,4.561-0.971,6.217,0.685l14.83,14.83c1.654,1.654,1.94,4.234,0.689,6.21l-15.531,24.53 c3.885,6.662,6.821,13.743,8.762,21.124l28.285,6.321c2.285,0.511,3.91,2.539,3.91,4.88V311c0,2.342-1.626,4.37-3.911,4.88 l-28.287,6.313C346.585,324.828,345.762,327.432,344.813,329.991z"/><path fill="#1e81ce" d="M154.998,450c-13.785,0-25-11.215-25-25s11.215-25,25-25c13.785,0,25,11.215,25,25 S168.783,450,154.998,450z M154.998,410c-8.271,0-15,6.728-15,15s6.729,15,15,15c8.271,0,15-6.728,15-15S163.269,410,154.998,410z"/><path fill="#1e81ce" d="M199.998,495c-13.785,0-25-11.215-25-25s11.215-25,25-25c13.785,0,25,11.215,25,25 S213.783,495,199.998,495z M199.998,455c-8.271,0-15,6.728-15,15s6.729,15,15,15c8.271,0,15-6.728,15-15S208.269,455,199.998,455z"/><path fill="#1e81ce" d="M177.998,430h-3c-2.761,0-5-2.238-5-5s2.239-5,5-5h3c9.374,0,17-7.626,17-17v-48 c0-2.762,2.239-5,5-5c2.761,0,5,2.238,5,5v48C204.998,417.888,192.886,430,177.998,430z"/><path fill="#1e81ce" d="M222.998,475h-3c-2.761,0-5-2.238-5-5s2.239-5,5-5h3c9.374,0,17-7.626,17-17v-68 c0-2.762,2.239-5,5-5c2.761,0,5,2.238,5,5v68C249.998,462.888,237.886,475,222.998,475z"/><path fill="#1e81ce" d="M374.998,450c-13.785,0-25-11.215-25-25s11.215-25,25-25c13.785,0,25,11.215,25,25 S388.783,450,374.998,450z M374.998,410c-8.271,0-15,6.728-15,15s6.729,15,15,15c8.272,0,15-6.728,15-15S383.27,410,374.998,410z"/><path fill="#1e81ce" d="M329.998,495c-13.785,0-25-11.215-25-25s11.215-25,25-25c13.785,0,25,11.215,25,25 S343.783,495,329.998,495z M329.998,455c-8.271,0-15,6.728-15,15s6.729,15,15,15c8.272,0,15-6.728,15-15S338.27,455,329.998,455z"/><path fill="#1e81ce" d="M354.998,430h-3c-14.888,0-27-12.112-27-27v-48c0-2.762,2.238-5,5-5c2.762,0,5,2.238,5,5v48 c0,9.374,7.626,17,17,17h3c2.762,0,5,2.238,5,5S357.76,430,354.998,430z"/><path fill="#1e81ce" d="M309.998,475h-3c-14.888,0-27-12.112-27-27v-68c0-2.762,2.238-5,5-5c2.762,0,5,2.238,5,5v68 c0,9.374,7.626,17,17,17h3c2.762,0,5,2.238,5,5S312.76,475,309.998,475z"/><path fill="#1e81ce" d="M59.998,410c-13.785,0-25-11.215-25-25s11.215-25,25-25c13.785,0,25,11.215,25,25 S73.783,410,59.998,410z M59.998,370c-8.271,0-15,6.728-15,15s6.729,15,15,15c8.271,0,15-6.728,15-15S68.269,370,59.998,370z"/><path fill="#1e81ce" d="M304.998,420c-2.762,0-5-2.238-5-5v-50c0-2.762,2.238-5,5-5c2.762,0,5,2.238,5,5v50 C309.998,417.762,307.76,420,304.998,420z"/><path fill="#1e81ce" d="M264.998,415c-2.762,0-5-2.238-5-5v-40c0-2.762,2.238-5,5-5c2.762,0,5,2.238,5,5v40 C269.998,412.762,267.76,415,264.998,415z"/><path fill="#1e81ce" d="M224.998,435c-2.761,0-5-2.238-5-5v-35c0-2.762,2.239-5,5-5c2.761,0,5,2.238,5,5v35 C229.998,432.762,227.759,435,224.998,435z"/></svg>