<?xml version="1.0" encoding="utf-8"?>
<!-- Generator: Adobe Illustrator 25.2.3, SVG Export Plug-In . SVG Version: 6.00 Build 0)  -->
<svg version="1.1" id="Layer_1" xmlns="http://www.w3.org/2000/svg" xmlns:xlink="http://www.w3.org/1999/xlink" x="0px" y="0px"
	 viewBox="0 0 71 17" style="enable-background:new 0 0 71 17;" xml:space="preserve">
<style type="text/css">
	.st0{fill:#A4ABB1;}
</style>
<g>
	<path class="st0" d="M13.5,11.3c-1.3,1.6-2.5,2.2-4.4,2.2c-2.7,0.1-4.9-2.2-4.9-4.9s2.2-4.9,4.9-4.9c1,0,2,0.3,2.8,0.9
		c0.2,0.2,0.5,0.3,0.7,0.5l-0.7,0.7C11.1,5,10.1,4.6,9.1,4.6c-2.2,0-4,1.8-4,4c0,2.2,1.8,4,4,4c0.8,0,1.8-0.4,2.6-1.1
		c0.3-0.2,0.7-0.7,0.9-0.9l-0.8-0.8c-0.1,0.1-0.6,0.7-0.8,0.8c-0.6,0.5-1.4,0.8-1.9,0.8c-1.6,0-2.8-1.3-2.8-2.8s1.3-2.8,2.8-2.8
		c1.2,0,2.1,0.8,2.8,1.7L14.3,5l-0.4-0.4c-0.4-0.4-0.9-0.7-1.3-1c-1-0.7-2.2-1.1-3.4-1.1c-3.4,0-6.1,2.7-6.1,6.1
		c0,3.4,2.7,6.1,6.1,6.1c1.6,0,3.2-0.6,4.3-1.8l0.8,0.8c-1.4,1.4-3.2,2.1-5.1,2.1c-4,0-7.3-3.3-7.3-7.3s3.3-7.2,7.2-7.2
		c1.7,0,3.4,0.6,4.7,1.7c0.3,0.2,1,0.9,1.3,1.2l0.8-0.8c-0.3-0.3-1-1-1.4-1.3c-1.5-1.3-3.4-2-5.4-2c-4.6,0-8.4,3.8-8.4,8.4
		s3.8,8.4,8.4,8.4c2.4,0,4.9-1.2,6.7-3.3L13.5,11.3"/>
	<g>
		<path d="M22.6,13.9c-2.7,0-3.7-2.7-3.7-5c0-2.2,0.9-5.1,3.6-5.1c0.4,0,0.7,0.1,1.1,0.2v1.5c-0.2-0.1-0.5-0.2-0.8-0.2
			c-1.8,0-2.2,2.1-2.2,3.5c0,1.4,0.4,3.5,2.2,3.5c0.3,0,0.5-0.1,0.8-0.2v1.5C23.3,13.8,22.9,13.9,22.6,13.9"/>
		<path d="M30.1,8.8c0-2.7-0.9-5.1-3-5.1c-2.1,0-3,2.3-3,5.1s0.9,5.1,3,5.1C29.3,13.9,30.1,11.6,30.1,8.8 M28.4,8.8
			c0,1.4-0.1,3.6-1.3,3.6c-1.2,0-1.3-2.1-1.3-3.6c0-1.5,0.1-3.6,1.3-3.6C28.3,5.3,28.4,7.4,28.4,8.8L28.4,8.8z"/>
		<path d="M35.2,13.8L32.8,7l0,0l0.1,0.8L33,9.7v4.1h-1.6V3.9h1.6l2.4,6.7l0,0c-0.1-0.2-0.2-2.5-0.2-2.7v-4h1.6v9.9H35.2"/>
		<polyline points="39.8,5.4 39.8,8 41.7,8 41.7,9.5 39.8,9.5 39.8,13.8 38.2,13.8 38.2,3.9 41.9,3.9 41.9,5.4 39.8,5.4 		"/>
		<rect x="43" y="3.9" width="1.6" height="9.9"/>
		<path d="M51.5,6l-1.6,0.6c-0.1-0.6-0.3-1.3-1.1-1.3c-1.2,0-1.3,1.9-1.3,3.6c0,2.2,0.3,3.6,1.3,3.6c0.7,0,1.1-0.5,1.1-2
			c0-0.1,0-0.4,0-0.4h-1.2V8.4h2.8v0.4c0,2-0.1,5-2.8,5c-2.5,0-3.1-2.6-3.1-5c0-2.5,0.5-5.1,3-5.1C50.3,3.8,51.1,4.6,51.5,6"/>
		<path d="M55.3,13.9c-1.9,0-2.6-1.1-2.6-2.9V3.9h1.6v6.8c0,1,0.1,1.7,0.9,1.7c0.9,0,1-0.6,1-1.4V3.9h1.6V11
			C57.8,12.2,57.8,13.9,55.3,13.9"/>
		<path d="M64.4,13.8l-1.8-4.7c1-0.4,1.4-1.5,1.4-2.6c0-2.6-1.9-2.7-3-2.7h-1.8v9.9h1.6V9.1h0l1.7,4.7L64.4,13.8 M61.1,5.3
			c1,0,1.2,0.6,1.2,1.5c0,0.8-0.3,1.4-1.1,1.5c0,0-0.3,0-0.3,0V5.3H61.1z"/>
		<path d="M70.8,13.8l-2.2-9.9H67l-2.2,9.9h1.6l0.4-1.8h2l0.4,1.8H70.8 M68.4,10.7H67l0.4-2.9l0.2-1.6h0l0.4,2.5L68.4,10.7z"/>
	</g>
</g>
</svg>
