<svg xmlns="http://www.w3.org/2000/svg" version="1.1" viewBox="0 0 3000 2000" width="3000" height="2000">
<defs/><!--ITEM: Illustration component 1--><g transform="translate(542.5 1040.0) rotate(0.0 182.5 105.0)  scale(2.2658282067676874 2.274622791720373)"><svg width="161.089" height="92.323" viewBox="0.0 0.0 161.089 92.323"><path d="m156.591 92.323a4.489 4.489 0 0 1 -3.405-1.556l-68.866-79.589-76.574 79.761a4.5 4.5 0 1 1 -6.492-6.233l79.993-83.323a4.5 4.5 0 0 1 6.649.173l72.1 83.322a4.5 4.5 0 0 1 -3.4 7.445z" fill="#142664"/></svg></g><!--ITEM: Illustration component 2--><g transform="translate(1795.0 317.5) rotate(0.0 413.75 718.75)  scale(2.91665932361701 2.917514014215143)"><svg width="283.715" height="492.714" viewBox="0.0 0.0 283.715 492.714"><rect fill="#ff2e93" height="492.714" rx="5" width="275.967" x="7.747"/><rect fill="#142664" height="492.714" rx="5" width="275.967"/><rect fill="#ff2e93" height="470.044" rx="5" width="234.198" x="18.885" y="22.67"/><rect fill="#00e6b3" height="470.044" rx="5" width="228.893" x="26.885" y="22.67"/><circle cx="58.143" cy="290.861" fill="#ff2e93" r="11.868"/><circle cx="51.143" cy="290.861" fill="#fff" r="11.868"/><rect fill="#ff2e93" height="11.727" rx="2" width="55.002" x="51.143" y="284.861"/><rect fill="#142664" height="11.727" rx="2" width="55.002" x="45.143" y="284.861"/><path d="m172.493 114.526v18.84a5 5 0 0 1 -5 5h-61.02a5 5 0 0 1 -5-5v-18.84a5 5 0 0 1 5-5h61.02a5 5 0 0 1 5 5z" fill="#142664"/><g fill="#fff"><path d="m147.643 138.366h-10.55l-19.87-28.84h10.55z"/><path d="m157.633 138.366h-5.28l-19.86-28.84h5.27z"/></g></svg></g><!--ITEM: Illustration component 3--><g transform="translate(505.0 430.0) rotate(0.0 391.25 346.25)  scale(2.6375841414621486 2.6327995498578094)"><svg width="296.673" height="263.028" viewBox="0.0 0.0 296.673 263.028"><path d="m276.973 73.8v-10.1a4.3 4.3 0 0 0 -8.6 0v10.1a4.268 4.268 0 0 0 4.3 4.3 4.207 4.207 0 0 0 4.3-4.3z" fill="#00e6b3"/><path d="m160.576 135.6-4.7-4.7a6.718 6.718 0 0 1 9.5-9.5l13.4 13.4a2.732 2.732 0 0 1 .8 1.9v7.2a2.732 2.732 0 0 0 .8 1.9c1.8 1.8 6.3 6.2 6.3 6.2l12 11.9a3.323 3.323 0 0 1 -4.7 4.7l-13.2-13.2z" fill="#00e6b3"/><path d="m215.676 158.6-4.7 4.7a6.718 6.718 0 0 1 -9.5-9.5l37.5-37.5a2.732 2.732 0 0 1 1.9-.8h7.2a2.732 2.732 0 0 0 1.9-.8c1.8-1.8 6.2-6.3 6.2-6.3l11.9-12a3.323 3.323 0 1 1 4.7 4.7l-13.2 13.2z" fill="#00e6b3"/><path d="m260.273 88.511a16.7 16.7 0 1 1 16.7 16.7 16.73 16.73 0 0 1 -16.7-16.7z" fill="#142664"/><path d="m187.176 163.3a12.2 12.2 0 1 1 12.2 12.2 12.249 12.249 0 0 1 -12.2-12.2z" fill="#142664"/><path d="m88.408 239.747a24.1 24.1 0 0 1 7.255.144c3.685.619 8.071 2.169 10.728 6.415a4.338 4.338 0 0 0 7.361-4.593 22.5 22.5 0 0 0 -13.292-9.766 36.561 36.561 0 0 0 -13.467-.9 4.364 4.364 0 0 0 -3.6 5 4.43 4.43 0 0 0 5.013 3.7z" fill="#00e6b3"/><path d="m8.076 41.8a11.075 11.075 0 0 1 11.1-11.1h40.7v52.4h-51.8z" fill="#ff2e93"/><path d="m40.476 118.4a7.553 7.553 0 0 1 6.5 3.7 79.843 79.843 0 1 0 -11.4-52.8 7.667 7.667 0 0 1 -7.6 6.7h-23.5a4.547 4.547 0 0 0 -3.6 1.8 4.746 4.746 0 0 0 -.7 4c1.8 5.8 4.7 15 7.1 22.7a19.713 19.713 0 0 0 18.8 13.9z" fill="#142664"/><g fill="#ff2e93"><circle cx="75.176" cy="44.3" r="4"/><circle cx="35.476" cy="106" r="4"/><circle cx="22.576" cy="106" r="4"/><path d="m93.376 26.4h15.4l-17.9-17.9a2.3 2.3 0 0 1 0-3.1 2.3 2.3 0 0 1 3.1 0l21.5 21.5a2.3 2.3 0 0 1 .5 2.4 2.087 2.087 0 0 1 -2 1.3h-16.3l13.5 13.5h72.9a2.2 2.2 0 1 1 0 4.4h-73.8a2.035 2.035 0 0 1 -1.5-.6l-33.1-33.1a2.3 2.3 0 0 1 0-3.1 2.3 2.3 0 0 1 3.1 0z"/><path d="m50.376 68.9h-11.2a2.2 2.2 0 0 1 0-4.4h13.4a2.22 2.22 0 0 1 2.2 2.2v38.6l16.2 16.2 13.6-13.6a2.192 2.192 0 1 1 3.1 3.1l-15.1 15.1a2.3 2.3 0 0 1 -3.1 0l-18.4-18.4a2.2 2.2 0 0 1 -.6-1.5v-37.3z"/><path d="m22.576 88.5v-9.3a2.2 2.2 0 1 1 4.4 0v11.5a2.22 2.22 0 0 1 -2.2 2.2h-16.8a2.2 2.2 0 1 1 0-4.4z"/><path d="m146.176 132.4h21.9a2.2 2.2 0 1 1 0 4.4h-24.1a2.22 2.22 0 0 1 -2.2-2.2v-14.8a2.2 2.2 0 1 1 4.4 0z"/><path d="m125.076 144.1v-24.4a2.2 2.2 0 0 1 4.4 0v25.3a2.035 2.035 0 0 1 -.6 1.5l-11.4 11.4a2.192 2.192 0 1 1 -3.1-3.1z"/></g><path d="m110.776 134.9s-.7.4-1.7 1.1a17.383 17.383 0 0 0 -1.5 1.3c-.3.3-.5.6-.8.9a15.981 15.981 0 0 0 -1.6 2.3 1.626 1.626 0 1 0 2.3 2.3s1.1-.7 2.3-1.6a6.47 6.47 0 0 0 .9-.8 17.383 17.383 0 0 0 1.3-1.5 11.414 11.414 0 0 0 1.1-1.7 1.693 1.693 0 0 0 0-2.3 1.521 1.521 0 0 0 -2.3 0z" fill="#fff"/><path d="m99.476 134.9s-.7.4-1.7 1.1a17.383 17.383 0 0 0 -1.5 1.3c-.3.3-.5.6-.8.9a15.981 15.981 0 0 0 -1.6 2.3 1.626 1.626 0 0 0 2.3 2.3s1.1-.7 2.3-1.6a6.47 6.47 0 0 0 .9-.8 17.383 17.383 0 0 0 1.3-1.5 11.414 11.414 0 0 0 1.1-1.7 1.693 1.693 0 0 0 0-2.3 1.521 1.521 0 0 0 -2.3 0z" fill="#fff"/><path d="m88.076 134.9s-.7.4-1.7 1.1a17.383 17.383 0 0 0 -1.5 1.3c-.3.3-.5.6-.8.9a15.981 15.981 0 0 0 -1.6 2.3 1.626 1.626 0 0 0 2.3 2.3s1.1-.7 2.3-1.6a6.47 6.47 0 0 0 .9-.8 17.383 17.383 0 0 0 1.3-1.5 11.414 11.414 0 0 0 1.1-1.7 1.693 1.693 0 0 0 0-2.3 1.521 1.521 0 0 0 -2.3 0z" fill="#fff"/><path d="m19.876 41.8h-11.2a2.2 2.2 0 1 0 0 4.4h11.2a2.2 2.2 0 0 0 0-4.4z" fill="#142664"/><path d="m19.876 51.7h-11.2a2.2 2.2 0 0 0 0 4.4h11.2a2.22 2.22 0 0 0 2.2-2.2 2.289 2.289 0 0 0 -2.2-2.2z" fill="#142664"/><path d="m19.876 61.6h-11.2a2.2 2.2 0 0 0 0 4.4h11.2a2.22 2.22 0 0 0 2.2-2.2 2.289 2.289 0 0 0 -2.2-2.2z" fill="#142664"/><path d="m47.376 126 4.7-4.7a6.718 6.718 0 0 1 9.5 9.5l-13.4 13.4a2.732 2.732 0 0 1 -1.9.8h-7.2a2.732 2.732 0 0 0 -1.9.8c-1.8 1.8-6.2 6.3-6.2 6.3l-11.9 12a3.323 3.323 0 0 1 -4.7-4.7l13.2-13.2z" fill="#00e6b3"/><path d="m24.476 181.1-4.7-4.7a6.718 6.718 0 0 1 9.5-9.5l37.5 37.5a2.732 2.732 0 0 1 .8 1.9v7.2a2.732 2.732 0 0 0 .8 1.9c1.8 1.8 6.3 6.2 6.3 6.2l12 11.9a3.323 3.323 0 0 1 -4.7 4.7l-13.2-13.2z" fill="#00e6b3"/><circle cx="87.676" cy="243" fill="#142664" r="16.7"/><path d="m90.3 252.628v6.1a4.3 4.3 0 0 0 8.6 0v-6.1a4.268 4.268 0 0 0 -4.3-4.3 4.207 4.207 0 0 0 -4.3 4.3z" fill="#00e6b3"/><path d="m76.2 252.628v6.1a4.3 4.3 0 1 0 8.6 0v-6.1a4.268 4.268 0 0 0 -4.3-4.3 4.207 4.207 0 0 0 -4.3 4.3z" fill="#00e6b3"/><path d="m104.376 121.7a1.929 1.929 0 0 0 1 .3h55.8a1.689 1.689 0 0 0 1-.3l36.5-19.4a2.144 2.144 0 0 0 1.1-1.9v-38.2a3.176 3.176 0 0 0 -.8-2 2.792 2.792 0 0 0 -2-.8h-128.2a2.22 2.22 0 0 0 -2.2 2.2v38.8a2.144 2.144 0 0 0 1.1 1.9z" fill="#00e6b3"/><path d="m179.756 75c-4.3 0-4.7 3.6-4.7 8s.1 8 4.7 8 4.7-3.6 4.7-8-.4-8-4.7-8z" fill="#142664"/><path d="m94.156 85.4-7.1-7.1a2.192 2.192 0 1 1 3.1-3.1l10.8 10.8a2.3 2.3 0 0 1 .5 2.4 2.087 2.087 0 0 1 -2 1.3h-10.9a2.2 2.2 0 1 1 0-4.4h5.6z" fill="#142664"/><path d="m150.856 84.4c-1.5 3.9-7 6.5-13.3 6.5s-11.8-2.6-13.3-6.5a2.154 2.154 0 0 0 -4 1.6c2 5.2 9 9.3 17.4 9.3s15.3-4.1 17.4-9.3a2.18 2.18 0 0 0 -1.2-2.8 2.415 2.415 0 0 0 -3 1.2z" fill="#142664"/><circle cx="19.776" cy="164.9" fill="#142664" r="12.2"/><circle cx="19.776" cy="164.9" fill="#ff2e93" r="4"/><circle cx="199.376" cy="163.3" fill="#ff2e93" r="4"/><path d="m286.273 84.786h6.1a4.3 4.3 0 1 0 0-8.6h-6.1a4.268 4.268 0 0 0 -4.3 4.3 4.207 4.207 0 0 0 4.3 4.3z" fill="#00e6b3"/><path d="m286.273 97.111h6.1a4.3 4.3 0 1 0 0-8.6h-6.1a4.268 4.268 0 0 0 -4.3 4.3 4.207 4.207 0 0 0 4.3 4.3z" fill="#00e6b3"/></svg></g><!--ITEM: Illustration component 4--><g transform="translate(505.0 1237.5) rotate(0.0 235.0 107.5)  scale(2.623455928731308 2.5928605885190543)"><svg width="179.153" height="82.92" viewBox="0.0 0.0 179.153 82.92"><rect fill="rgb(0,230,179)" height="82.92" rx="5" width="179.153"/><rect fill="#142664" height="82.92" rx="5" width="84.42" x="94.733"/><path d="m134.733 32.57h-32.6a2 2 0 0 1 0-4h30.6v-3.97a2 2 0 0 1 2-2h38.712a2 2 0 0 1 0 4h-36.712v3.97a2 2 0 0 1 -2 2z" fill="rgb(0,230,179)"/><path d="m173.445 65.189h-33.767a2 2 0 0 1 -2-2v-2.923h-35.548a2 2 0 0 1 0-4h37.548a2 2 0 0 1 2 2v2.923h31.767a2 2 0 1 1 0 4z" fill="rgb(0,230,179)"/><g fill="#142664"><path d="m81.965 30.557h-69.626a2 2 0 0 1 0-4h69.626a2 2 0 0 1 0 4z"/><path d="m83.654 61.176h-69.627a2 2 0 0 1 0-4h69.627a2 2 0 0 1 0 4z"/><path d="m52.865 73.978h-12.659a2 2 0 0 1 0-4h10.659v-10.8a2 2 0 0 1 4 0v12.8a2 2 0 0 1 -2 2z"/><path d="m53.7 30.557a2 2 0 0 1 -2-2v-10.839a2 2 0 0 1 2-2h17.341a2 2 0 0 1 0 4h-15.341v8.839a2 2 0 0 1 -2 2z"/><path d="m32.535 40.809h-8.187a2 2 0 0 1 0-4h6.187v-8.252a2 2 0 0 1 4 0v10.252a2 2 0 0 1 -2 2z"/><circle cx="20.006" cy="71.971" r="2"/><circle cx="81.554" cy="17.719" r="2"/></g><circle cx="103.48" cy="68.577" fill="rgb(0,230,179)" r="2"/><circle cx="172.843" cy="32.937" fill="rgb(0,230,179)" r="2"/><circle cx="28.348" cy="71.978" fill="#142664" r="2"/><path d="m165 34.937h-8.308a2 2 0 0 1 -2-2v-8.337a2 2 0 0 1 4 0v6.341h6.308a2 2 0 1 1 0 4z" fill="rgb(0,230,179)"/><path d="m125.238 70.577h-12.461a2 2 0 1 1 0-4h10.461v-8.311a2 2 0 1 1 4 0v10.311a2 2 0 0 1 -2 2z" fill="rgb(0,230,179)"/></svg></g><!--ITEM: Illustration component 5--><g transform="translate(1462.5 1522.5) rotate(0.0 250.0 116.25)  scale(3.128441285413955 3.126092451663216)"><svg width="159.824" height="74.374" viewBox="0.0 0.0 159.824 74.374"><rect fill="#142664" height="73.019" rx="3" transform="matrix(-1 -0 0 -1 160.02 74.383)" width="157.762" x="1.129" y=".682"/><rect fill="#ff2e93" height="73.019" rx="3" transform="matrix(-1 -0 0 -1 76.598 74.383)" width="74.34" x="1.129" y=".682"/><rect fill="#142664" height="11.117" rx="5" width="32.05" x="21.154" y="13.443"/><rect fill="#ff2e93" height="11.117" rx="5" width="32.05" x="104.231" y="13.443"/></svg></g><!--ITEM: Illustration component 6--><g transform="translate(332.5 385.0) rotate(0.0 22.5 22.5)  scale(2.960526315789474 2.960526315789474)"><svg width="15.2" height="15.2" viewBox="0.0 0.0 15.2 15.2"><path d="m5.8 5.8c.2-2.5.4-4.4.4-4.4 0-.8.6-1.4 1.4-1.4s1.4.6 1.4 1.4c0 0 .3 2 .4 4.4.5 0 .9.1 1.3.1 1.8.1 3.1.3 3.1.3.8 0 1.4.6 1.4 1.4s-.6 1.4-1.4 1.4c0 0-1.3.2-3.1.3-.4 0-.8.1-1.3.1 0 .5-.1.9-.1 1.3-.1 1.8-.3 3.1-.3 3.1 0 .8-.6 1.4-1.4 1.4s-1.4-.6-1.4-1.4c0 0-.2-1.3-.3-3.1 0-.4-.1-.9-.1-1.3-2.4-.2-4.4-.4-4.4-.4-.8 0-1.4-.6-1.4-1.4s.6-1.4 1.4-1.4c0 0 1.9-.3 4.4-.4z" fill="rgb(0,230,179)"/></svg></g><!--ITEM: Illustration component 7--><g transform="translate(407.5 1077.5) rotate(0.0 22.5 22.5)  scale(2.960526315789474 2.960526315789474)"><svg width="15.2" height="15.2" viewBox="0.0 0.0 15.2 15.2"><path d="m5.8 5.8c.2-2.5.4-4.4.4-4.4 0-.8.6-1.4 1.4-1.4s1.4.6 1.4 1.4c0 0 .3 2 .4 4.4.5 0 .9.1 1.3.1 1.8.1 3.1.3 3.1.3.8 0 1.4.6 1.4 1.4s-.6 1.4-1.4 1.4c0 0-1.3.2-3.1.3-.4 0-.8.1-1.3.1 0 .5-.1.9-.1 1.3-.1 1.8-.3 3.1-.3 3.1 0 .8-.6 1.4-1.4 1.4s-1.4-.6-1.4-1.4c0 0-.2-1.3-.3-3.1 0-.4-.1-.9-.1-1.3-2.4-.2-4.4-.4-4.4-.4-.8 0-1.4-.6-1.4-1.4s.6-1.4 1.4-1.4c0 0 1.9-.3 4.4-.4z" fill="rgb(0,230,179)"/></svg></g><!--ITEM: Illustration component 8--><g transform="translate(377.5 1570.0) rotate(0.0 22.5 22.5)  scale(2.960526315789474 2.960526315789474)"><svg width="15.2" height="15.2" viewBox="0.0 0.0 15.2 15.2"><path d="m5.8 5.8c.2-2.5.4-4.4.4-4.4 0-.8.6-1.4 1.4-1.4s1.4.6 1.4 1.4c0 0 .3 2 .4 4.4.5 0 .9.1 1.3.1 1.8.1 3.1.3 3.1.3.8 0 1.4.6 1.4 1.4s-.6 1.4-1.4 1.4c0 0-1.3.2-3.1.3-.4 0-.8.1-1.3.1 0 .5-.1.9-.1 1.3-.1 1.8-.3 3.1-.3 3.1 0 .8-.6 1.4-1.4 1.4s-1.4-.6-1.4-1.4c0 0-.2-1.3-.3-3.1 0-.4-.1-.9-.1-1.3-2.4-.2-4.4-.4-4.4-.4-.8 0-1.4-.6-1.4-1.4s.6-1.4 1.4-1.4c0 0 1.9-.3 4.4-.4z" fill="rgb(0,230,179)"/></svg></g><!--ITEM: Illustration component 9--><g transform="translate(480.0 1742.5) rotate(0.0 320.0 6.25)  scale(2.7414863996573144 3.125)"><svg width="233.45" height="4.0" viewBox="0.0 0.0 233.45 4.0"><path d="m231.45 4h-229.45a2 2 0 0 1 0-4h229.45a2 2 0 0 1 0 4z" fill="#142664"/></svg></g><!--ITEM: Illustration component 10--><g transform="translate(1290.0 1742.5) rotate(0.0 746.25 6.25)  scale(2.394743597971889 2.5)"><svg width="623.24" height="5.0" viewBox="0.0 0.0 623.24 5.0"><path d="m620.74 5h-618.24a2.5 2.5 0 0 1 0-5h618.24a2.5 2.5 0 0 1 0 5z" fill="#142664"/></svg></g><!--ITEM: Illustration component 11--><g transform="translate(1242.5 295.0) rotate(0.0 22.5 22.5)  scale(2.960526315789474 2.960526315789474)"><svg width="15.2" height="15.2" viewBox="0.0 0.0 15.2 15.2"><path d="m5.8 5.8c.2-2.5.4-4.4.4-4.4 0-.8.6-1.4 1.4-1.4s1.4.6 1.4 1.4c0 0 .3 2 .4 4.4.5 0 .9.1 1.3.1 1.8.1 3.1.3 3.1.3.8 0 1.4.6 1.4 1.4s-.6 1.4-1.4 1.4c0 0-1.3.2-3.1.3-.4 0-.8.1-1.3.1 0 .5-.1.9-.1 1.3-.1 1.8-.3 3.1-.3 3.1 0 .8-.6 1.4-1.4 1.4s-1.4-.6-1.4-1.4c0 0-.2-1.3-.3-3.1 0-.4-.1-.9-.1-1.3-2.4-.2-4.4-.4-4.4-.4-.8 0-1.4-.6-1.4-1.4s.6-1.4 1.4-1.4c0 0 1.9-.3 4.4-.4z" fill="rgb(0,230,179)"/></svg></g><!--ITEM: Illustration component 12--><g transform="translate(1165.0 995.0) rotate(0.0 22.5 22.5)  scale(2.960526315789474 2.960526315789474)"><svg width="15.2" height="15.2" viewBox="0.0 0.0 15.2 15.2"><path d="m5.8 5.8c.2-2.5.4-4.4.4-4.4 0-.8.6-1.4 1.4-1.4s1.4.6 1.4 1.4c0 0 .3 2 .4 4.4.5 0 .9.1 1.3.1 1.8.1 3.1.3 3.1.3.8 0 1.4.6 1.4 1.4s-.6 1.4-1.4 1.4c0 0-1.3.2-3.1.3-.4 0-.8.1-1.3.1 0 .5-.1.9-.1 1.3-.1 1.8-.3 3.1-.3 3.1 0 .8-.6 1.4-1.4 1.4s-1.4-.6-1.4-1.4c0 0-.2-1.3-.3-3.1 0-.4-.1-.9-.1-1.3-2.4-.2-4.4-.4-4.4-.4-.8 0-1.4-.6-1.4-1.4s.6-1.4 1.4-1.4c0 0 1.9-.3 4.4-.4z" fill="rgb(0,230,179)"/></svg></g><!--ITEM: Illustration component 13--><g transform="translate(1652.5 1147.5) rotate(0.0 22.5 22.5)  scale(2.960526315789474 2.960526315789474)"><svg width="15.2" height="15.2" viewBox="0.0 0.0 15.2 15.2"><path d="m5.8 5.8c.2-2.5.4-4.4.4-4.4 0-.8.6-1.4 1.4-1.4s1.4.6 1.4 1.4c0 0 .3 2 .4 4.4.5 0 .9.1 1.3.1 1.8.1 3.1.3 3.1.3.8 0 1.4.6 1.4 1.4s-.6 1.4-1.4 1.4c0 0-1.3.2-3.1.3-.4 0-.8.1-1.3.1 0 .5-.1.9-.1 1.3-.1 1.8-.3 3.1-.3 3.1 0 .8-.6 1.4-1.4 1.4s-1.4-.6-1.4-1.4c0 0-.2-1.3-.3-3.1 0-.4-.1-.9-.1-1.3-2.4-.2-4.4-.4-4.4-.4-.8 0-1.4-.6-1.4-1.4s.6-1.4 1.4-1.4c0 0 1.9-.3 4.4-.4z" fill="rgb(0,230,179)"/></svg></g><!--ITEM: Illustration component 14--><g transform="translate(945.0 1615.0) rotate(0.0 22.5 22.5)  scale(2.960526315789474 2.960526315789474)"><svg width="15.2" height="15.2" viewBox="0.0 0.0 15.2 15.2"><path d="m5.8 5.8c.2-2.5.4-4.4.4-4.4 0-.8.6-1.4 1.4-1.4s1.4.6 1.4 1.4c0 0 .3 2 .4 4.4.5 0 .9.1 1.3.1 1.8.1 3.1.3 3.1.3.8 0 1.4.6 1.4 1.4s-.6 1.4-1.4 1.4c0 0-1.3.2-3.1.3-.4 0-.8.1-1.3.1 0 .5-.1.9-.1 1.3-.1 1.8-.3 3.1-.3 3.1 0 .8-.6 1.4-1.4 1.4s-1.4-.6-1.4-1.4c0 0-.2-1.3-.3-3.1 0-.4-.1-.9-.1-1.3-2.4-.2-4.4-.4-4.4-.4-.8 0-1.4-.6-1.4-1.4s.6-1.4 1.4-1.4c0 0 1.9-.3 4.4-.4z" fill="rgb(0,230,179)"/></svg></g><!--ITEM: Illustration component 15--><g transform="translate(1302.5 1345.0) rotate(0.0 22.5 22.5)  scale(2.960526315789474 2.960526315789474)"><svg width="15.2" height="15.2" viewBox="0.0 0.0 15.2 15.2"><path d="m5.8 5.8c.2-2.5.4-4.4.4-4.4 0-.8.6-1.4 1.4-1.4s1.4.6 1.4 1.4c0 0 .3 2 .4 4.4.5 0 .9.1 1.3.1 1.8.1 3.1.3 3.1.3.8 0 1.4.6 1.4 1.4s-.6 1.4-1.4 1.4c0 0-1.3.2-3.1.3-.4 0-.8.1-1.3.1 0 .5-.1.9-.1 1.3-.1 1.8-.3 3.1-.3 3.1 0 .8-.6 1.4-1.4 1.4s-1.4-.6-1.4-1.4c0 0-.2-1.3-.3-3.1 0-.4-.1-.9-.1-1.3-2.4-.2-4.4-.4-4.4-.4-.8 0-1.4-.6-1.4-1.4s.6-1.4 1.4-1.4c0 0 1.9-.3 4.4-.4z" fill="rgb(0,230,179)"/></svg></g><!--ITEM: Illustration component 16--><g transform="translate(1530.0 730.0) rotate(0.0 47.5 40.0)  scale(2.6981737623902977 2.7575747130398813)"><svg width="35.209" height="29.011" viewBox="0.0 0.0 35.209 29.011"><path d="m20.586 28.119-7.334-.065 1.337-27.531 6.891.03z" fill="#ff2e93"/><circle cx="20.586" cy="14.321" fill="#ff2e93" r="13.798"/><circle cx="14.589" cy="14.321" fill="#142664" r="13.798"/><circle cx="15.306" cy="14.321" fill="#ff2e93" r="6.174"/><path d="m15.306 20.495-4.175.02.494-12.368 4.16.02 3.703 6.866z" fill="#ff2e93"/><circle cx="11.869" cy="14.341" fill="#fff" r="6.174"/></svg></g><!--ITEM: Illustration component 17--><g transform="translate(292.5 1742.5) rotate(0.0 320.0 6.25)  scale(2.7414863996573144 3.125)"><svg width="233.45" height="4.0" viewBox="0.0 0.0 233.45 4.0"><path d="m231.45 4h-229.45a2 2 0 0 1 0-4h229.45a2 2 0 0 1 0 4z" fill="#142664"/></svg></g></svg>