<svg xmlns="http://www.w3.org/2000/svg"  viewBox="0 0 64 64" width="204px" height="204px"><polygon fill="#68607c" points="55.414,17 39,17 39,15 54.586,15 58,11.586 58,7 60,7 60,12.414"/><rect width="9" height="2" x="48" y="31" fill="#68607c"/><rect width="9" height="2" x="45" y="22" fill="#68607c"/><polygon fill="#68607c" points="60,57 58,57 58,52.414 54.586,49 39,49 39,47 55.414,47 60,51.586"/><rect width="8" height="2" x="46" y="40" fill="#68607c"/><polygon fill="#68607c" points="25,17 8.586,17 4,12.414 4,7 6,7 6,11.586 9.414,15 25,15"/><rect width="9" height="2" x="7" y="31" fill="#68607c"/><rect width="9" height="2" x="10" y="22" fill="#68607c"/><polygon fill="#68607c" points="6,57 4,57 4,51.586 8.586,47 25,47 25,49 9.414,49 6,52.414"/><rect width="9" height="2" x="10" y="40" fill="#68607c"/><rect width="2" height="9" x="31" y="7" fill="#68607c"/><polygon fill="#68607c" points="40,19 38,19 38,8.586 42.586,4 46,4 46,6 43.414,6 40,9.414"/><polygon fill="#68607c" points="26,19 24,19 24,9.414 20.586,6 18,6 18,4 21.414,4 26,8.586"/><rect width="2" height="10" x="31" y="47" fill="#68607c"/><polygon fill="#68607c" points="46,60 42.586,60 38,55.414 38,45 40,45 40,54.586 43.414,58 46,58"/><polygon fill="#68607c" points="21.414,60 18,60 18,58 20.586,58 24,54.586 24,45 26,45 26,55.414"/><circle cx="8" cy="23" r="3" fill="#ffd086"/><circle cx="5" cy="32" r="3" fill="#ffd086"/><circle cx="8" cy="41" r="3" fill="#ffd086"/><circle cx="5" cy="59" r="3" fill="#ffd086"/><circle cx="16" cy="59" r="3" fill="#ffd086"/><circle cx="32" cy="59" r="3" fill="#ffd086"/><circle cx="48" cy="59" r="3" fill="#ffd086"/><circle cx="59" cy="59" r="3" fill="#ffd086"/><circle cx="56" cy="41" r="3" fill="#ffd086"/><circle cx="59" cy="32" r="3" fill="#ffd086"/><circle cx="56" cy="23" r="3" fill="#ffd086"/><circle cx="59" cy="5" r="3" fill="#ffd086"/><circle cx="48" cy="5" r="3" fill="#ffd086"/><circle cx="32" cy="5" r="3" fill="#ffd086"/><circle cx="16" cy="5" r="3" fill="#ffd086"/><circle cx="5" cy="5" r="3" fill="#ffd086"/><path fill="#4e9bb9" d="M39,15.57l0.81-0.87c0.83,0.37,1.63,0.8,2.39,1.3c0.3,0.18,0.59,0.38,0.88,0.59l-0.92,3.05	c0.8,0.66,1.54,1.4,2.2,2.2l3.05-0.92c0.48,0.66,0.92,1.36,1.3,2.08c0.22,0.39,0.41,0.78,0.6,1.19l-2.35,2.19	c0.37,0.96,0.64,1.96,0.81,3l3.13,0.73C50.97,30.73,51,31.36,51,32s-0.03,1.27-0.1,1.89l-3.13,0.73c-0.17,1.04-0.44,2.04-0.81,3	l2.34,2.19c-0.18,0.41-0.38,0.8-0.59,1.19c-0.38,0.72-0.82,1.42-1.3,2.08l-3.05-0.92c-0.66,0.8-1.4,1.54-2.2,2.2l0.92,3.05	c-0.29,0.21-0.58,0.41-0.88,0.59c-0.76,0.5-1.56,0.93-2.39,1.31L39,48.44v-0.01l-1.38-1.47c-0.96,0.37-1.96,0.64-3,0.81l-0.73,3.13	C33.27,50.97,32.64,51,32,51s-1.27-0.03-1.89-0.1l-0.73-3.13c-1.04-0.17-2.04-0.44-3-0.81L25,48.43l-0.81,0.87	c-0.83-0.37-1.63-0.8-2.39-1.3c-0.3-0.18-0.59-0.38-0.88-0.59l0.92-3.05c-0.8-0.66-1.54-1.4-2.2-2.2l-3.05,0.92	c-0.48-0.66-0.92-1.36-1.3-2.08c-0.22-0.39-0.41-0.78-0.6-1.19l2.35-2.19c-0.37-0.96-0.64-1.96-0.81-3l-3.13-0.73	C13.03,33.27,13,32.64,13,32s0.03-1.27,0.1-1.89l3.13-0.73c0.17-1.04,0.44-2.04,0.81-3l-2.34-2.19c0.18-0.41,0.38-0.8,0.59-1.19	c0.38-0.72,0.82-1.42,1.3-2.08l3.05,0.92c0.66-0.8,1.4-1.54,2.2-2.2l-0.92-3.05c0.29-0.21,0.58-0.41,0.88-0.59	c0.76-0.5,1.56-0.93,2.39-1.31L25,15.56v0.01l1.38,1.47c0.96-0.37,1.96-0.64,3-0.81l0.73-3.13C30.73,13.03,31.36,13,32,13	s1.27,0.03,1.89,0.1l0.73,3.13c1.04,0.17,2.04,0.44,3,0.81L39,15.57z"/><circle cx="32" cy="32" r="13" fill="#91cbd7"/><path fill="#ffe5ca" d="M40,30v5c0,1.66-3.58,3-8,3s-8-1.34-8-3v-5c0,1.66,3.58,3,8,3S40,31.66,40,30z"/><path fill="#ffe5ca" d="M32,43c-4.42,0-8-1.34-8-3v-5c0,1.66,3.58,3,8,3s8-1.34,8-3v5C40,41.66,36.42,43,32,43z"/><ellipse cx="32" cy="25" fill="#ed6571" rx="8" ry="3"/><path fill="#ffe5ca" d="M40,25v5c0,1.66-3.58,3-8,3s-8-1.34-8-3v-5c0,1.66,3.58,3,8,3S40,26.66,40,25z"/><path fill="#fac7a4" d="M25.947,31.959C27.414,32.596,29.578,33,32,33c4.42,0,8-1.34,8-3v-3	C40,29.557,33.869,31.659,25.947,31.959z"/><path fill="#fac7a4" d="M25.947,36.959C27.414,37.596,29.578,38,32,38c4.42,0,8-1.34,8-3v-3	C40,34.557,33.869,36.659,25.947,36.959z"/><path fill="#fac7a4" d="M25.947,41.959C27.414,42.596,29.578,43,32,43c4.42,0,8-1.34,8-3v-3	C40,39.557,33.869,41.659,25.947,41.959z"/></svg>