<svg xmlns="http://www.w3.org/2000/svg"  viewBox="0 0 256 256" width="204px" height="204px"><path fill="#fc5d3d" d="M170.005,58.616V5H37.392a5,5,0,0,0-5,5V246a5,5,0,0,0,5,5H218.605a5,5,0,0,0,5-5V58.616Z"/><path fill="#d95034" d="M223.608,58.62v8.33h-56.93a5,5,0,0,1-5-5V5h8.33Z"/><path fill="#fff" d="M88.448,90.23a.525.525,0,0,1,.53-.52h5.55a7.5,7.5,0,0,0,0-15h-5.55a15.556,15.556,0,0,0-15.53,15.52V102.7h-1.39a7.5,7.5,0,0,0,0,15h1.39v12.47a15.563,15.563,0,0,0,15.53,15.52h5.55a7.5,7.5,0,1,0,0-15h-5.55a.532.532,0,0,1-.53-.52Z"/><path fill="#fff" d="M183.938,102.7h-1.39V90.23a15.556,15.556,0,0,0-15.53-15.52h-5.55a7.5,7.5,0,0,0,0,15h5.55a.525.525,0,0,1,.53.52v39.94a.532.532,0,0,1-.53.52h-5.55a7.5,7.5,0,0,0,0,15h5.55a15.563,15.563,0,0,0,15.53-15.52V117.7h1.39a7.5,7.5,0,0,0,0-15Z"/><rect width="164.083" height="60.33" x="45.957" y="176.328" fill="#fff" rx="10" ry="10"/><polygon fill="#ffcbc2" points="170.005 5 170.005 58.616 223.605 58.616 170.005 5"/><path fill="#ffcbc2" d="M45.957,166.167a2.5,2.5,0,0,1-2.5-2.5v-4.156a2.5,2.5,0,0,1,5,0v4.156A2.5,2.5,0,0,1,45.957,166.167Zm0-14.156a2.5,2.5,0,0,1-2.5-2.5V17.667a2.5,2.5,0,0,1,2.5-2.5H153.112a2.5,2.5,0,0,1,0,5H48.457V149.511A2.5,2.5,0,0,1,45.957,152.011Z"/><path fill="#ffcbc2" d="M210.039,166.167a2.5,2.5,0,0,1-2.5-2.5V74a2.5,2.5,0,0,1,5,0v89.667A2.5,2.5,0,0,1,210.039,166.167Z"/><path fill="#fff" d="M129.559,102.573a7.5,7.5,0,0,1-7.5-7.5V93.554a7.5,7.5,0,0,1,15,0v1.519A7.5,7.5,0,0,1,129.559,102.573Z"/><path fill="#fff" d="M123.217,133.71a7.5,7.5,0,0,1-3.848-9.884l3.322-7.556a7.5,7.5,0,1,1,13.732,6.036l-3.322,7.556A7.5,7.5,0,0,1,123.217,133.71Z"/><path d="M94.528,92.21a10,10,0,0,0,0-20h-5.55a18.059,18.059,0,0,0-18.03,18.02v10.031a10,10,0,0,0,0,19.878v10.034a18.073,18.073,0,0,0,18.03,18.017h5.55a10,10,0,1,0,0-20h-3.58V92.21Zm-5.55,40.98h5.55a5,5,0,1,1,0,10H88.981a13.065,13.065,0,0,1-13.033-13.02V117.7a2.5,2.5,0,0,0-2.5-2.5h-1.39a5,5,0,0,1,0-10h1.39a2.5,2.5,0,0,0,2.5-2.5V90.233A13.053,13.053,0,0,1,88.978,77.21h5.55a5,5,0,0,1,0,10h-5.55a3.028,3.028,0,0,0-3.03,3.02v39.94A3.028,3.028,0,0,0,88.978,133.19Z"/><path d="M161.468,128.19a10,10,0,1,0,.011,20h5.542a18.073,18.073,0,0,0,18.027-18.02V120.139a10,10,0,0,0,0-19.878V90.227A18.059,18.059,0,0,0,167.019,72.21h-5.551a10,10,0,0,0,0,20h3.58v35.98Zm5.551-40.98h-5.551a5,5,0,0,1,0-10h5.551a13.051,13.051,0,0,1,13.029,13.02V102.7a2.5,2.5,0,0,0,2.5,2.5h1.39a5,5,0,0,1,0,10h-1.39a2.5,2.5,0,0,0-2.5,2.5v12.467a13.064,13.064,0,0,1-13.029,13.023h-5.551a5,5,0,0,1,0-10h5.551a3.029,3.029,0,0,0,3.029-3.02V90.23A3.029,3.029,0,0,0,167.019,87.21Z"/><circle cx="32.39" cy="55.91" r="2.5"/><path d="M223.6,230.52a2.507,2.507,0,0,0-2.5,2.5V246a2.5,2.5,0,0,1-2.5,2.5H37.39a2.507,2.507,0,0,1-2.5-2.5V65.91a2.5,2.5,0,0,0-5,0V246a7.516,7.516,0,0,0,7.5,7.5H218.6a7.509,7.509,0,0,0,7.5-7.5V233.02A2.5,2.5,0,0,0,223.6,230.52Z"/><path d="M225.37,56.85,171.77,3.23a2.626,2.626,0,0,0-1.76-.73H37.39a7.516,7.516,0,0,0-7.5,7.5V45.91a2.5,2.5,0,0,0,5,0V10a2.507,2.507,0,0,1,2.5-2.5H167.51V58.62a2.505,2.505,0,0,0,2.5,2.5H221.1V213.01a2.5,2.5,0,0,0,5,0V58.62A2.622,2.622,0,0,0,225.37,56.85Zm-52.87-.73V11.04l45.069,45.08Z"/><path d="M223.6,220.52a2.5,2.5,0,1,0,2.5,2.5A2.507,2.507,0,0,0,223.6,220.52Z"/><path d="M43.457,186.328v40.33a12.514,12.514,0,0,0,12.5,12.5H200.039a12.514,12.514,0,0,0,12.5-12.5v-40.33a12.514,12.514,0,0,0-12.5-12.5H55.957A12.514,12.514,0,0,0,43.457,186.328Zm164.082,0v40.33a7.509,7.509,0,0,1-7.5,7.5H55.957a7.509,7.509,0,0,1-7.5-7.5v-40.33a7.508,7.508,0,0,1,7.5-7.5H200.039A7.508,7.508,0,0,1,207.539,186.328Z"/><path d="M112.306,217.989a7.2,7.2,0,0,1-7.191-7.191,2.5,2.5,0,0,0-5,0,12.191,12.191,0,1,0,24.382,0V192.6a2.5,2.5,0,0,0-2.5-2.5H102.615a2.5,2.5,0,0,0,0,5H119.5v15.7A7.2,7.2,0,0,1,112.306,217.989Z"/><path d="M146.409,217.877H134a2.5,2.5,0,0,0,0,5h12.409a9.472,9.472,0,1,0,0-18.944h-5.437a4.472,4.472,0,0,1,0-8.944h12.41a2.5,2.5,0,0,0,0-5h-12.41a9.472,9.472,0,0,0,0,18.944h5.437a4.472,4.472,0,1,1,0,8.944Z"/><path d="M129.559,105.073a10.012,10.012,0,0,0,10-10V93.554a10,10,0,0,0-20,0v1.519A10.011,10.011,0,0,0,129.559,105.073Zm-5-11.519a5,5,0,0,1,10,0v1.519a5,5,0,1,1-10,0Z"/><path d="M122.211,136a10.013,10.013,0,0,0,13.18-5.131l3.321-7.556a10,10,0,0,0-18.31-8.048l-3.321,7.556A9.995,9.995,0,0,0,122.211,136Zm-.553-11.167,3.321-7.556a5,5,0,1,1,9.155,4.024l-3.322,7.556a5,5,0,0,1-9.154-4.024Z"/></svg>